G04 Output by ViewMate Deluxe V11.12.18  PentaLogix*
G04 Wed Mar 06 15:24:07 2019*
%IPPOS*%
%FSLAX25Y25*%
%MOIN*%
%ADD10C,0.0*%
%ADD238R,0.06X0.06*%
G04:---LTIenv:A239:16,0.06,0.0 *
%ADD239P,0.064944X8X22.5*%
%ADD240C,0.0591*%
%ADD241C,0.0177*%
%ADD242R,0.0787X0.0354*%
%ADD243C,0.0394*%
%ADD244C,0.0039*%
%ADD245C,0.0354*%
%ADD246C,0.01*%
%ADD247C,0.016*%
%ADD248C,0.024*%
%ADD249C,0.008*%
%ADD250C,0.025*%
%ADD251C,0.0125*%
%ADD252C,0.0071*%

%LPD*%
X0Y0D2*D10*G1X286490Y176160D2*X286510Y175850D1*X286570Y175540*X286660Y175240*X286790Y174950*X286960Y174680*X287160Y174440*X287380Y174220*X287640Y174030*X287910Y173870*X288200Y173750*X288500Y173660*X288810Y173610*X289130Y173600*X289440Y173630*X289750Y173700*X290050Y173800*X290330Y173940*X290590Y174120*X290830Y174320*X291040Y174560*X291230Y174810*X291380Y175090*X291490Y175380*X291570Y175690*X291610Y176000*Y176320*X291570Y176630*X291490Y176940*X291380Y177230*X291230Y177510*X291040Y177760*X290830Y178000*X290590Y178200*X290330Y178380*X290050Y178520*X289750Y178620*X289440Y178690*X289130Y178720*X288810Y178710*X288500Y178660*X288200Y178570*X287910Y178450*X287640Y178290*X287380Y178100*X287160Y177880*X286960Y177640*X286790Y177370*X286660Y177080*X286570Y176780*X286510Y176470*X286490Y176160*X325110Y173660D2*X325130Y173270D1*X325190Y172880*X325290Y172500*X325420Y172130*X325590Y171780*X325790Y171440*X326030Y171130*X326300Y170840*X326590Y170580*X326910Y170350*X327250Y170150*X327610Y169990*X327980Y169870*X328370Y169780*X328760Y169730*X329150Y169720*X329540Y169750*X329930Y169820*X330300Y169930*X330670Y170070*X331020Y170250*X331350Y170460*X331660Y170710*X331940Y170980*X332190Y171280*X332410Y171610*X332600Y171950*X332750Y172310*X332870Y172690*X332950Y173070*X332990Y173460*Y173860*X332950Y174250*X332870Y174630*X332750Y175010*X332600Y175370*X332410Y175710*X332190Y176040*X331940Y176340*X331660Y176610*X331350Y176860*X331020Y177070*X330670Y177250*X330300Y177390*X329930Y177500*X329540Y177570*X329150Y177600*X328760Y177590*X328370Y177540*X327980Y177450*X327610Y177330*X327250Y177170*X326910Y176970*X326590Y176740*X326300Y176480*X326030Y176190*X325790Y175880*X325590Y175540*X325420Y175190*X325290Y174820*X325190Y174440*X325130Y174050*X325110Y173660*X286490Y66160D2*X286510Y65850D1*X286570Y65540*X286660Y65240*X286790Y64950*X286960Y64680*X287160Y64440*X287380Y64220*X287640Y64030*X287910Y63870*X288200Y63750*X288500Y63660*X288810Y63610*X289130Y63600*X289440Y63630*X289750Y63700*X290050Y63800*X290330Y63940*X290590Y64120*X290830Y64320*X291040Y64560*X291230Y64810*X291380Y65090*X291490Y65380*X291570Y65690*X291610Y66000*Y66320*X291570Y66630*X291490Y66940*X291380Y67230*X291230Y67510*X291040Y67760*X290830Y68000*X290590Y68200*X290330Y68380*X290050Y68520*X289750Y68620*X289440Y68690*X289130Y68720*X288810Y68710*X288500Y68660*X288200Y68570*X287910Y68450*X287640Y68290*X287380Y68100*X287160Y67880*X286960Y67640*X286790Y67370*X286660Y67080*X286570Y66780*X286510Y66470*X286490Y66160*X244010Y60700D2*X244030Y60310D1*X244090Y59920*X244190Y59540*X244320Y59170*X244490Y58820*X244690Y58480*X244930Y58170*X245200Y57880*X245490Y57620*X245810Y57390*X246150Y57190*X246510Y57030*X246880Y56910*X247270Y56820*X247660Y56770*X248050Y56760*X248440Y56790*X248830Y56860*X249200Y56970*X249570Y57110*X249920Y57290*X250250Y57500*X250560Y57750*X250840Y58020*X251090Y58320*X251310Y58650*X251500Y58990*X251650Y59350*X251770Y59730*X251850Y60110*X251890Y60500*Y60900*X251850Y61290*X251770Y61670*X251650Y62050*X251500Y62410*X251310Y62750*X251090Y63080*X250840Y63380*X250560Y63650*X250250Y63900*X249920Y64110*X249570Y64290*X249200Y64430*X248830Y64540*X248440Y64610*X248050Y64640*X247660Y64630*X247270Y64580*X246880Y64490*X246510Y64370*X246150Y64210*X245810Y64010*X245490Y63780*X245200Y63520*X244930Y63230*X244690Y62920*X244490Y62580*X244320Y62230*X244190Y61860*X244090Y61480*X244030Y61090*X244010Y60700*X39800Y220510D2*X38610Y220050D1*X37440Y219520*X36300Y218940*X35190Y218310*X34120Y217620*X33070Y216890*X32070Y216100*X31100Y215260*X30180Y214380*X29300Y213460*X28460Y212490*X27670Y211490*X26940Y210440*X26250Y209370*X25620Y208260*X25040Y207120*X24510Y205950*X24050Y204760*X55990Y128730D2*X56010Y128340D1*X56070Y127950*X56170Y127570*X56300Y127200*X56470Y126850*X56670Y126510*X56910Y126200*X57180Y125910*X57470Y125650*X57790Y125420*X58130Y125220*X58490Y125060*X58860Y124940*X59250Y124850*X59640Y124800*X60030Y124790*X60420Y124820*X60810Y124890*X61180Y125000*X61550Y125140*X61900Y125320*X62230Y125530*X62540Y125780*X62820Y126050*X63070Y126350*X63290Y126680*X63480Y127020*X63630Y127380*X63750Y127760*X63830Y128140*X63870Y128530*Y128930*X63830Y129320*X63750Y129700*X63630Y130080*X63480Y130440*X63290Y130780*X63070Y131110*X62820Y131410*X62540Y131680*X62230Y131930*X61900Y132140*X61550Y132320*X61180Y132460*X60810Y132570*X60420Y132640*X60030Y132670*X59640Y132660*X59250Y132610*X58860Y132520*X58490Y132400*X58130Y132240*X57790Y132040*X57470Y131810*X57180Y131550*X56910Y131260*X56670Y130950*X56470Y130610*X56300Y130260*X56170Y129890*X56070Y129510*X56010Y129120*X55990Y128730*Y78580D2*X56010Y78190D1*X56070Y77800*X56170Y77420*X56300Y77050*X56470Y76700*X56670Y76360*X56910Y76050*X57180Y75760*X57470Y75500*X57790Y75270*X58130Y75070*X58490Y74910*X58860Y74790*X59250Y74700*X59640Y74650*X60030Y74640*X60420Y74670*X60810Y74740*X61180Y74850*X61550Y74990*X61900Y75170*X62230Y75380*X62540Y75630*X62820Y75900*X63070Y76200*X63290Y76530*X63480Y76870*X63630Y77230*X63750Y77610*X63830Y77990*X63870Y78380*Y78780*X63830Y79170*X63750Y79550*X63630Y79930*X63480Y80290*X63290Y80630*X63070Y80960*X62820Y81260*X62540Y81530*X62230Y81780*X61900Y81990*X61550Y82170*X61180Y82310*X60810Y82420*X60420Y82490*X60030Y82520*X59640Y82510*X59250Y82460*X58860Y82370*X58490Y82250*X58130Y82090*X57790Y81890*X57470Y81660*X57180Y81400*X56910Y81110*X56670Y80800*X56470Y80460*X56300Y80110*X56170Y79740*X56070Y79360*X56010Y78970*X55990Y78580*X39800Y23660D2*X38610Y24120D1*X37440Y24650*X36300Y25230*X35190Y25860*X34120Y26550*X33070Y27280*X32070Y28070*X31100Y28910*X30180Y29790*X29300Y30710*X28460Y31680*X27670Y32680*X26940Y33730*X26250Y34800*X25620Y35910*X25040Y37050*X24510Y38220*X24050Y39410*X32750Y38660D2*X32770Y38160D1*X32830Y37660*X32930Y37170*X33070Y36690*X33240Y36220*X33450Y35770*X33700Y35330*X33980Y34920*X34300Y34530*X34640Y34160*X35010Y33820*X35410Y33520*X35830Y33250*X36270Y33010*X36730Y32800*X37200Y32640*X37680Y32510*X38180Y32420*X38670Y32370*X39180Y32360*X39680Y32390*X40170Y32460*X40660Y32570*X41140Y32720*X41600Y32900*X42050Y33120*X42480Y33380*X42890Y33670*X43280Y33990*X43640Y34340*X43960Y34720*X44260Y35120*X44530Y35550*X44760Y35990*X44950Y36450*X45110Y36930*X45230Y37420*X45310Y37910*X45350Y38410*Y38910*X45310Y39410*X45230Y39900*X45110Y40390*X44950Y40870*X44760Y41330*X44530Y41770*X44260Y42200*X43960Y42600*X43640Y42980*X43280Y43330*X42890Y43650*X42480Y43940*X42050Y44200*X41600Y44420*X41140Y44600*X40660Y44750*X40170Y44860*X39680Y44930*X39180Y44960*X38670Y44950*X38180Y44900*X37680Y44810*X37200Y44680*X36730Y44520*X36270Y44310*X35830Y44070*X35410Y43800*X35010Y43500*X34640Y43160*X34300Y42790*X33980Y42400*X33700Y41990*X33450Y41550*X33240Y41100*X33070Y40630*X32930Y40150*X32830Y39660*X32770Y39160*X32750Y38660*X24050Y204760D2*Y39400D1*X32750Y205510D2*X32770Y205010D1*X32830Y204510*X32930Y204020*X33070Y203540*X33240Y203070*X33450Y202620*X33700Y202180*X33980Y201770*X34300Y201380*X34640Y201010*X35010Y200670*X35410Y200370*X35830Y200100*X36270Y199860*X36730Y199650*X37200Y199490*X37680Y199360*X38180Y199270*X38670Y199220*X39180Y199210*X39680Y199240*X40170Y199310*X40660Y199420*X41140Y199570*X41600Y199750*X42050Y199970*X42480Y200230*X42890Y200520*X43280Y200840*X43640Y201190*X43960Y201570*X44260Y201970*X44530Y202400*X44760Y202840*X44950Y203300*X45110Y203780*X45230Y204270*X45310Y204760*X45350Y205260*Y205760*X45310Y206260*X45230Y206750*X45110Y207240*X44950Y207720*X44760Y208180*X44530Y208620*X44260Y209050*X43960Y209450*X43640Y209830*X43280Y210180*X42890Y210500*X42480Y210790*X42050Y211050*X41600Y211270*X41140Y211450*X40660Y211600*X40170Y211710*X39680Y211780*X39180Y211810*X38670Y211800*X38180Y211750*X37680Y211660*X37200Y211530*X36730Y211370*X36270Y211160*X35830Y210920*X35410Y210650*X35010Y210350*X34640Y210010*X34300Y209640*X33980Y209250*X33700Y208840*X33450Y208400*X33240Y207950*X33070Y207480*X32930Y207000*X32830Y206510*X32770Y206010*X32750Y205510*X323260Y220510D2*X39800D1*X339010Y204760D2*X338550Y205950D1*X338020Y207120*X337440Y208260*X336810Y209370*X336120Y210440*X335390Y211490*X334600Y212490*X333760Y213460*X332880Y214380*X331960Y215260*X330990Y216100*X329990Y216890*X328940Y217620*X327870Y218310*X326760Y218940*X325620Y219520*X324450Y220050*X323260Y220510*X317710Y205510D2*X317730Y205010D1*X317790Y204510*X317890Y204020*X318030Y203540*X318200Y203070*X318410Y202620*X318660Y202180*X318940Y201770*X319260Y201380*X319600Y201010*X319970Y200670*X320370Y200370*X320790Y200100*X321230Y199860*X321690Y199650*X322160Y199490*X322640Y199360*X323140Y199270*X323630Y199220*X324140Y199210*X324640Y199240*X325130Y199310*X325620Y199420*X326100Y199570*X326560Y199750*X327010Y199970*X327440Y200230*X327850Y200520*X328240Y200840*X328600Y201190*X328920Y201570*X329220Y201970*X329490Y202400*X329720Y202840*X329910Y203300*X330070Y203780*X330190Y204270*X330270Y204760*X330310Y205260*Y205760*X330270Y206260*X330190Y206750*X330070Y207240*X329910Y207720*X329720Y208180*X329490Y208620*X329220Y209050*X328920Y209450*X328600Y209830*X328240Y210180*X327850Y210500*X327440Y210790*X327010Y211050*X326560Y211270*X326100Y211450*X325620Y211600*X325130Y211710*X324640Y211780*X324140Y211810*X323630Y211800*X323140Y211750*X322640Y211660*X322160Y211530*X321690Y211370*X321230Y211160*X320790Y210920*X320370Y210650*X319970Y210350*X319600Y210010*X319260Y209640*X318940Y209250*X318660Y208840*X318410Y208400*X318200Y207950*X318030Y207480*X317890Y207000*X317790Y206510*X317730Y206010*X317710Y205510*X339010Y39400D2*Y204760D1*Y39410D2*X338550Y38220D1*X338020Y37050*X337440Y35910*X336810Y34800*X336120Y33730*X335390Y32680*X334600Y31680*X333760Y30710*X332880Y29790*X331960Y28910*X330990Y28070*X329990Y27280*X328940Y26550*X327870Y25860*X326760Y25230*X325620Y24650*X324450Y24120*X323260Y23660*X317710Y38660D2*X317730Y38160D1*X317790Y37660*X317890Y37170*X318030Y36690*X318200Y36220*X318410Y35770*X318660Y35330*X318940Y34920*X319260Y34530*X319600Y34160*X319970Y33820*X320370Y33520*X320790Y33250*X321230Y33010*X321690Y32800*X322160Y32640*X322640Y32510*X323140Y32420*X323630Y32370*X324140Y32360*X324640Y32390*X325130Y32460*X325620Y32570*X326100Y32720*X326560Y32900*X327010Y33120*X327440Y33380*X327850Y33670*X328240Y33990*X328600Y34340*X328920Y34720*X329220Y35120*X329490Y35550*X329720Y35990*X329910Y36450*X330070Y36930*X330190Y37420*X330270Y37910*X330310Y38410*Y38910*X330270Y39410*X330190Y39900*X330070Y40390*X329910Y40870*X329720Y41330*X329490Y41770*X329220Y42200*X328920Y42600*X328600Y42980*X328240Y43330*X327850Y43650*X327440Y43940*X327010Y44200*X326560Y44420*X326100Y44600*X325620Y44750*X325130Y44860*X324640Y44930*X324140Y44960*X323630Y44950*X323140Y44900*X322640Y44810*X322160Y44680*X321690Y44520*X321230Y44310*X320790Y44070*X320370Y43800*X319970Y43500*X319600Y43160*X319260Y42790*X318940Y42400*X318660Y41990*X318410Y41550*X318200Y41100*X318030Y40630*X317890Y40150*X317790Y39660*X317730Y39160*X317710Y38660*X39800Y23660D2*X323260D1*D241*X301940Y182030D2*X308040D1*X301940Y180270D2*X308040D1*Y182050*X301940*Y180270*Y177030D2*X308040D1*X301940Y175270D2*X308040D1*Y177050*X301940*Y175270*Y172030D2*X308040D1*X301940Y170270D2*X308040D1*Y172050*X301940*Y170270*Y167030D2*X308040D1*X301940Y165270D2*X308040D1*Y167050*X301940*Y165270*Y162030D2*X308040D1*X301940Y160270D2*X308040D1*Y162050*X301940*Y160270*Y157030D2*X308040D1*X301940Y155270D2*X308040D1*Y157050*X301940*Y155270*Y152030D2*X308040D1*X301940Y150270D2*X308040D1*Y152050*X301940*Y150270*Y147030D2*X308040D1*X301940Y145270D2*X308040D1*Y147050*X301940*Y145270*Y142030D2*X308040D1*X301940Y140270D2*X308040D1*Y142050*X301940*Y140270*Y137030D2*X308040D1*X301940Y135270D2*X308040D1*Y137050*X301940*Y135270*Y132030D2*X308040D1*X301940Y130270D2*X308040D1*Y132050*X301940*Y130270*Y127030D2*X308040D1*X301940Y125270D2*X308040D1*Y127050*X301940*Y125270*Y122030D2*X308040D1*X301940Y120270D2*X308040D1*Y122050*X301940*Y120270*Y117030D2*X308040D1*X301940Y115270D2*X308040D1*Y117050*X301940*Y115270*Y112030D2*X308040D1*X301940Y110270D2*X308040D1*Y112050*X301940*Y110270*Y107030D2*X308040D1*X301940Y105270D2*X308040D1*Y107050*X301940*Y105270*Y102030D2*X308040D1*X301940Y100270D2*X308040D1*Y102050*X301940*Y100270*Y97030D2*X308040D1*X301940Y95270D2*X308040D1*Y97050*X301940*Y95270*Y92030D2*X308040D1*X301940Y90270D2*X308040D1*Y92050*X301940*Y90270*Y87030D2*X308040D1*X301940Y85270D2*X308040D1*Y87050*X301940*Y85270*Y82030D2*X308040D1*X301940Y80270D2*X308040D1*Y82050*X301940*Y80270*Y77030D2*X308040D1*X301940Y75270D2*X308040D1*Y77050*X301940*Y75270*Y72030D2*X308040D1*X301940Y70270D2*X308040D1*Y72050*X301940*Y70270*Y67030D2*X308040D1*X301940Y65270D2*X308040D1*Y67050*X301940*Y65270*D244*X28220Y157720D2*X33010D1*X33550Y158100D2*X27680D1*X28510Y161880D2*X32720D1*X33450Y161500D2*X27780D1*X27440Y161130D2*X33790D1*X34000Y160750D2*X27230D1*X27110Y160370D2*X34120D1*X27070Y159500D2*Y159990D1*X34130Y159230D2*X27100D1*X27190Y158850D2*X34030D1*X33850Y158470D2*X27380D1*X33960Y158650D2*X33730Y158280D1*X33420Y157960*X33040Y157730*X32630Y157580*X32190Y157530*X29040*X28600Y157580*X28190Y157730*X27810Y157960*X27500Y158280*X27270Y158650*X27120Y159060*X27070Y159500*X34160Y159610D2*X27070D1*X34160Y159990D2*X34110Y160430D1*X33960Y160850*X33730Y161220*X33420Y161530*X33040Y161770*X32630Y161910*X32190Y161960*X29040*X28600Y161910*X28190Y161770*X27810Y161530*X27500Y161220*X27270Y160850*X27120Y160430*X27070Y159990*X34160*Y159500*X34110Y159060*X33960Y158650*X41370Y153930D2*X44470D1*X44840Y153550D2*X41000D1*X40790Y153170D2*X45040D1*X45150Y152790D2*X40690D1*X40650Y152420D2*X45180D1*X45150Y152040D2*X40690D1*X40800Y151660D2*X45040D1*X44820Y151280D2*X41020D1*X41420Y150900D2*X44420D1*X42430Y150590D2*X43410D1*X43800Y150620*X44170Y150750*X44510Y150960*X44790Y151230*X45000Y151560*X45130Y151930*X45180Y152320*Y152510*X45140Y152910*X45010Y153280*X44800Y153620*X44510Y153900*X44180Y154110*X43800Y154240*X43410Y154290*X42430*X42030Y154240*X41660Y154110*X41320Y153900*X41040Y153620*X40830Y153280*X40700Y152910*X40650Y152510*Y152320*X40700Y151930*X40840Y151560*X41050Y151230*X41330Y150960*X41660Y150750*X42040Y150620*X42430Y150590*X43890Y133100D2*X41940D1*X41250Y133480D2*X44580D1*X44260Y136510D2*X41580D1*X41100Y136130D2*X44740D1*X40840Y135750D2*X41050Y136080D1*X41330Y136360*X41660Y136560*X42040Y136690*X42430Y136730*X43410*X43800Y136690*X44170Y136560*X44510Y136360*X44790Y136080*X45000Y135750*X40700Y135370D2*X45130D1*X45180Y134990D2*X40650D1*X40670Y134620D2*X45160D1*X45080Y134240D2*X40760D1*X40940Y133860D2*X44900D1*X40830Y134030D2*X41040Y133690D1*X41320Y133410*X41660Y133200*X42030Y133070*X42430Y133030*X43410*X43800Y133070*X44180Y133200*X44510Y133410*X44800Y133690*X45010Y134030*X45140Y134400*X45180Y134800*Y134990*X45130Y135380*X45000Y135750*X40840*X40700Y135380*X40650Y134990*Y134800*X40700Y134400*X40830Y134030*X28500Y129690D2*X32730D1*X33450Y129310D2*X27780D1*X27440Y128940D2*X33790D1*X34000Y128560D2*X27230D1*X27110Y128180D2*X34120D1*X34160Y127800D2*X27070D1*Y127420D2*X34160D1*X34130Y127040D2*X27100D1*X27200Y126660D2*X34030D1*X33850Y126280D2*X27380D1*X27690Y125910D2*X33540D1*X33000Y125530D2*X28230D1*X33040Y125540D2*X33420Y125780D1*X33730Y126090*X33960Y126460*X34110Y126880*X34160Y127320*Y127810*X34110Y128250*X33960Y128660*X33730Y129040*X33420Y129350*X33040Y129580*X32630Y129730*X32190Y129780*X29040*X28600Y129730*X28190Y129580*X27810Y129350*X27500Y129040*X27270Y128660*X27120Y128250*X27070Y127810*Y127320*X27120Y126880*X27270Y126460*X27500Y126090*X27810Y125780*X28190Y125540*X28600Y125400*X29040Y125350*X32190*X32630Y125400*X33040Y125540*X95800Y27440D2*X93030D1*X92620Y27820D2*X96200D1*X96440Y28200D2*X92390D1*X92260Y28580D2*X96570D1*X96620Y28960D2*X92210D1*X92200Y29340D2*X96630D1*Y29720D2*X92200D1*Y30090D2*X96630D1*Y30470D2*X92200D1*Y30850D2*X96630D1*Y31230D2*X92200D1*Y31610D2*X96630D1*Y31990D2*X92200D1*X92220Y32370D2*X96610D1*X96540Y32740D2*X92290D1*X92440Y33120D2*X96380D1*X96110Y33500D2*X92710D1*X93180Y33880D2*X95640D1*X93310Y33960D2*X92940Y33730D1*X92630Y33420*X92390Y33040*X92250Y32630*X92200Y32190*Y29040*X92250Y28600*X92390Y28190*X92630Y27810*X92940Y27500*X93310Y27270*X93730Y27120*X94170Y27070*X94660*X95100Y27120*X95510Y27270*X95890Y27500*X96200Y27810*X96430Y28190*X96580Y28600*X96630Y29040*Y32190*X96580Y32630*X96430Y33040*X96200Y33420*X95890Y33730*X95510Y33960*X95100Y34110*X94660Y34160*X94170*X93730Y34110*X93310Y33960*X91050Y44480D2*X89220D1*X88730Y44110D2*X91530D1*X91800Y43730D2*X88460D1*X88320Y43350D2*X91950D1*X92000Y42970D2*X88270D1*X88260Y42590D2*X92000D1*Y42210D2*X88260D1*X89320Y40320D2*X90950D1*X91480Y40700D2*X88780D1*X88490Y41080D2*X91770D1*X91930Y41460D2*X88340D1*X88270Y41830D2*X91990D1*X88260Y41930D2*X88310Y41540D1*X88440Y41160*X88650Y40830*X88930Y40550*X89270Y40340*X89640Y40210*X90030Y40160*X90230*X90630Y40210*X91000Y40340*X91340Y40550*X91620Y40830*X91830Y41160*X91960Y41540*X92000Y41930*Y42920*X91960Y43310*X91830Y43690*X91620Y44020*X91340Y44300*X91000Y44510*X90630Y44650*X90230Y44690*X90030*X89640Y44650*X89270Y44510*X88930Y44300*X88650Y44020*X88440Y43690*X88310Y43310*X88260Y42920*Y41930*X71850Y40320D2*X70220D1*X70120Y44480D2*X71950D1*X72440Y44110D2*X69640D1*X69370Y43730D2*X72710D1*X72850Y43350D2*X69230D1*X69170Y42970D2*X72900D1*X72910Y42590D2*X69170D1*Y42210D2*X72910D1*X72900Y41830D2*X69180D1*X69240Y41460D2*X72830D1*X72680Y41080D2*X69400D1*X69690Y40700D2*X72390D1*X69830Y40550D2*X70170Y40340D1*X70550Y40210*X70940Y40160*X71140*X71530Y40210*X71910Y40340*X72240Y40550*X72520Y40830*X72730Y41160*X72860Y41540*X72910Y41930*Y42920*X72860Y43310*X72730Y43690*X72520Y44020*X72240Y44300*X71910Y44510*X71530Y44650*X71140Y44690*X70940*X70550Y44650*X70170Y44510*X69830Y44300*X69550Y44020*X69340Y43690*X69210Y43310*X69170Y42920*Y41930*X69210Y41540*X69340Y41160*X69550Y40830*X69830Y40550*X67990Y33880D2*X65530D1*X65380Y27440D2*X68140D1*X68550Y27820D2*X64970D1*X64730Y28200D2*X68780D1*X68910Y28580D2*X64600D1*X64550Y28960D2*X68960D1*X68970Y29340D2*X64540D1*Y29720D2*X68970D1*Y30090D2*X64540D1*Y30470D2*X68970D1*Y30850D2*X64540D1*Y31230D2*X68970D1*Y31610D2*X64540D1*Y31990D2*X68970D1*X68950Y32370D2*X64560D1*X64630Y32740D2*X68880D1*X68730Y33120D2*X64790D1*X65060Y33500D2*X68460D1*X64970Y33420D2*X64740Y33040D1*X64590Y32630*X64540Y32190*Y29040*X64590Y28600*X64740Y28190*X64970Y27810*X65280Y27500*X65660Y27270*X66070Y27120*X66510Y27070*X67000*X67440Y27120*X67860Y27270*X68230Y27500*X68540Y27810*X68780Y28190*X68920Y28600*X68970Y29040*Y32190*X68920Y32630*X68780Y33040*X68540Y33420*X68230Y33730*X67860Y33960*X67440Y34110*X67000Y34160*X66510*X66070Y34110*X65660Y33960*X65280Y33730*X64970Y33420*D246*X299670Y151160D2*X304990D1*X216550Y36160D2*X194050D1*X189050Y41160*X89050Y82410D2*X83420D1*X103420Y56160D2*X72170D1*X69670Y53660*X47800Y62410D2*X63420D1*X83420Y82410*X102800Y74910D2*X85300D1*X161550Y83030D2*X162170Y82410D1*X161550Y91160D2*X184050D1*X187800Y87410*X172170Y81770D2*X177810D1*X178120Y80790D2*X172540D1*X173530Y79800D2*X179110D1*X180090Y78820D2*X174510D1*X175500Y77830D2*X181080D1*X182060Y76850D2*X176480D1*X177470Y75860D2*X183050D1*X184030Y74880D2*X178450D1*X179440Y73890D2*X185020D1*X186000Y72910D2*X180420D1*X181410Y71920D2*X186990D1*X187970Y70940D2*X182390D1*X190300Y57410D2*X208420D1*X212800Y61780*X199040Y63060D2*X207150D1*X205300Y61160D2*X195920D1*X193230Y60100D2*X207370D1*X207800Y61090D2*X192240D1*X197730Y62070D2*X207800D1*X196550Y64910D2*X179670Y81780D1*Y87410*X173240Y84730D2*X176730D1*X177710Y83740D2*X172260D1*X172170Y82760D2*X177800D1*X195920Y61160D2*X174670Y82410D1*X191260Y62070D2*X195370D1*X194060Y63060D2*X190270D1*X189290Y64040D2*X193580D1*X193480Y65030D2*X188300D1*X193480Y65430D2*X177870Y81040D1*Y81710*X177800Y81780*Y83660*X176550Y84910*X173420*X172170Y83660*Y81160*X194050Y59280*X206550*X207800Y60530*Y62410*X206550Y63660*X199360*X199150Y63170*X198290Y62300*X197160Y61830*X195940*X194810Y62300*X193950Y63170*X193480Y64300*Y65430*X187320Y66010D2*X192900D1*X191910Y67000D2*X186330D1*X185350Y67980D2*X190930D1*X189940Y68970D2*X184360D1*X183380Y69950D2*X188960D1*X150300Y47410D2*X241550D1*X242800Y48660*X307170Y49910D2*X305300Y52410D1*Y60850*X304990Y61160*X295300Y73660D2*X274050D1*Y70530D2*Y73660D1*Y78660*X225920Y118660D2*X240300Y104280D1*X232800Y146160D2*X214670Y164280D1*X184670*X162800Y164540D2*X163790Y165530D1*X183420*X184670Y164280*X179670Y150530D2*X175920D1*X167800Y142410*Y131780*X155300Y113030D2*X157170D1*X149050Y105530D2*X129670D1*X127800Y107410*X119050Y103660D2*X107800Y114910D1*X102800*X55300Y136160D2*X60920Y141780D1*X75920*X80300Y137410*X85920*X117170Y149910D2*X109050D1*Y143660*X94050Y128660*Y89280*X102170Y81160*X104050*X150300Y47410D2*X122800Y74910D1*X157800Y53660D2*X160300Y51160D1*X215920*X226550Y61780*Y68660*X221550Y63660D2*X211550Y53030D1*X164050*X162170Y54910*X165920Y59910D2*X160920D1*X157800Y56780*Y53660*X152170Y53030D2*X150920D1*X129050Y74910*Y78030*X123420Y83660*Y116780*X120300Y120530*Y153030*X119050Y156160D2*X136550D1*X137170Y156780*X140920*X154670Y153030D2*X120300D1*X104670*X100300Y149910*X95300Y146160D2*Y151160D1*X100300Y156160*X119050*Y164910*X112800D2*X105920D1*X92170Y151160*Y88030*X100920Y79280*X102800*X142170Y39910*X149050Y31160D2*X142170Y38030D1*Y39910*X149050Y41160D2*X144050D1*X104050Y81160*Y84910D2*X119050D1*X127170Y76780*Y73660*X151550Y49280*X217170*X240300Y72410*X249050*Y87410D2*X244670Y83030D1*X225920*X221550Y86160*X218420Y95530D2*X212800Y101160D1*X210300Y90530D2*Y78660D1*X213420Y75530*X260920*X261550Y74910*X267170Y77410D2*X217170D1*X214670Y79910*Y93030*X212800Y94910*X198420*X194670Y91160*X189050*X182800Y97410*X157170*X149050Y105530*X155920Y107410D2*X162170Y101160D1*X212800*X220920Y108030D2*X216550Y112410D1*X208420*X202800Y118030*X171550*X170300Y119280*X182800Y121160D2*X185300Y123660D1*X231550*X233420Y121780*X239050Y117410D2*Y114910D1*X245920Y108030*X249050*X279670Y106780D2*X275920D1*X271550*X269050Y104280*X240300*X234050Y99910D2*X223420D1*X220920Y102410*Y108030*X218420Y106780D2*Y101780D1*X222800Y97410*X242170*X245300Y100530*X262800*X266550Y96780*X260300Y93660D2*Y89280D1*X252170Y81160*X220920*X218420Y83660*Y95530*X221550Y91780D2*X220300Y93660D1*Y96780*X214050Y103030*X167170*X157170Y113030*X162800Y116160D2*X160920Y118030D1*X154670*X151550Y114910*Y106160*X158420Y99280*X211550*X216550Y94280*Y82410*X219670Y79280*X262170*X271550Y88660*Y92410D2*X274050D1*X275920Y90530*Y86160*X267170Y77410*X269050Y74280D2*Y69910D1*X272170Y66780*X275920*X280920Y71780*X294050*X299050Y66160*X304990*Y71160D2*X297800D1*X295300Y73660*X287800Y77410D2*X289050Y76160D1*X304990*X292170Y81160D2*X304990D1*Y86160D2*X286550D1*X292170Y91160D2*X304990D1*Y96160D2*X287800D1*X292170Y101160D2*X304990D1*Y106160D2*X287800D1*X292170Y111160D2*X304990D1*Y116160D2*X287800D1*X292170Y121160D2*X304990D1*Y126160D2*X287800D1*X292170Y131160D2*X304990D1*Y136160D2*X287800D1*X320300Y139910D2*X320280Y140110D1*X320240Y140300*X320160Y140480*X320060Y140640*X319930Y140790*X319780Y140920*X319620Y141020*X319440Y141100*X319250Y141140*X319050Y141160*X304990*Y146160D2*X297800D1*X292170Y140530*X287800Y144280D2*X292800D1*X299670Y151160*X287800Y160530D2*X288420Y161160D1*X304990*Y156160D2*X293420D1*X292170Y157410*D247*X292170Y171160D2*X297170Y176160D1*X304990*X280300Y181160D2*X304990D1*X222800Y166160D2*X234050Y177410D1*Y193030*X235920Y194910*X262170*X274670Y182410*Y178660*X282170Y171160*X292170*D249*X256820Y135260D2*X193700D1*X183420Y145530*X181550*X180300Y159280D2*X213420D1*X232650Y140060*X269520*X279670Y129910*X266550Y133660D2*X263350Y136860D1*X194600*X180920Y150530*X179670*X182800Y154910D2*X215300D1*X231750Y138460*X268620*X277800Y129280*Y115530*X282800Y110530*Y106160*X279050Y102410*X276550*X275920Y106780D2*X274670D1*Y117410*X256820Y135260*X249050Y131780D2*X247170Y133660D1*X174050*X149670Y115530D2*X159600Y125460D1*X254750*X262170Y122410D2*X257520Y127060D1*X158420*X156550Y124910*X145300Y113660*Y111160*X130300Y112410D2*X135300Y107410D1*X147170*X149670Y109910*Y115530*X130300Y128660D2*X133420Y131780D1*X155300*X158420Y128660*X260920*X271550Y118030*Y115530*X265920Y118660D2*X261550D1*X254750Y125460*X227800Y103660D2*X229050Y102410D1*X276550*X271550Y99910D2*X279670D1*X284670Y104910*Y111160*X279670Y116160*Y129910*X281550Y136160D2*Y116780D1*X287800Y110530*D250*X282800Y204910D2*X289050Y211160D1*X285300Y36160D2*X300300D1*X320300Y56160*Y139910*Y185530*X315300Y190530*X290300*X282800Y198030*Y204910*X270920Y214280D2*X262800Y206160D1*X239050*X207170Y174280*X141550Y161780D2*X142170D1*X149050Y168660*X192800*X198420Y174280*X207170*D251*X144890Y160740D2*X140090D1*X139050Y161980D2*X146120D1*X147360Y163210D2*X139050D1*Y164450D2*X148590D1*X149830Y165680D2*X139830D1*X141060Y166920D2*X151060D1*X196050Y168150D2*X142300D1*X192280Y169390D2*X197140D1*X197740Y170620D2*X193520D1*X194750Y171860D2*X210380D1*X211610Y173090D2*X195990D1*X197220Y174330D2*X212850D1*X214080Y175560D2*X198460D1*X199690Y176800D2*X215320D1*X216550Y178030D2*X200930D1*X202160Y179270D2*X217790D1*X219020Y180500D2*X203540D1*X205400Y181740D2*X220260D1*X221490Y182970D2*X205980D1*X207100Y184210D2*X222730D1*X223960Y185440D2*X208340D1*X209570Y186680D2*X225200D1*X226320Y187910D2*X210810D1*X212040Y189150D2*X227670D1*X228900Y190380D2*X213280D1*X214510Y191620D2*X230140D1*X231370Y192850D2*X215750D1*X216980Y194090D2*X231960D1*X233190Y195320D2*X218220D1*X219450Y196560D2*X234430D1*X236310Y197790D2*X220690D1*X221920Y199030D2*X261920D1*X263160Y200260D2*X223160D1*X224390Y201500D2*X264390D1*X265630Y202730D2*X225630D1*X226860Y203970D2*X266860D1*X268100Y205200D2*X228100D1*X229330Y206440D2*X269330D1*X270570Y207670D2*X230570D1*X231800Y208910D2*X271800D1*X273040Y210140D2*X233040D1*X259820Y217550D2*X272650D1*X273420Y216320D2*X258590D1*X257350Y215080D2*X273420D1*Y213850D2*X256120D1*X254880Y212610D2*X273420D1*X253420Y211160D2*X247980D1*X247810Y211080*X246540*X246370Y211160*X234050*X206000Y183100*Y183020*X205510Y181850*X204610Y180950*X203440Y180460*X203350*X192170Y169280*X143420*X139050Y164910*Y161780*X140850Y159980*X141560*X141730Y159910*X144050*X151550Y167410*X153250*X154040Y167730*X155310*X156100Y167410*X161370*X162160Y167730*X163440*X164110Y167460*X184220*X184270Y167410*X195300*X197100Y169210*Y169290*X197590Y170470*X198490Y171370*X199660Y171850*X200940*X201110Y171780*X210300*X226240Y187720*X226340Y187970*X227240Y188870*X227490Y188970*X231820Y193310*Y193950*X233130Y195260*X235000Y197130*X235650*X236550Y198030*X260920*X273420Y210530*Y216780*X272170Y218030*X260300*X253420Y211160*X273420Y211380D2*X253650D1*D252*X280300Y93660D2*X279050Y94910D1*X269050*X267800Y93660*X265300*X262170Y96780*X249050*D238*X209050Y31160D3*Y211160D3*X299050Y201160D3*D239*X199050Y211160D3*X299050D3*X289050D3*Y201160D3*X209050Y41160D3*X199050D3*X189050D3*X179050D3*X169050D3*X159050D3*X149050D3*Y31160D3*X159050D3*X169050D3*X179050D3*X189050D3*X199050D3*D240*X49050Y53660D3*X65300Y156780D3*D242*X304990Y61160D3*D243*X31550Y56160D3*X329050Y186160D3*D245*X292170Y157410D3*X287800Y160530D3*X280300Y181160D3*X127170Y164910D3*X119050D3*X112800D3*X83420Y166410D3*X94050Y157410D3*X55300Y136160D3*X50300Y134280D3*X42800Y107410D3*X65300Y101160D3*X47800Y62410D3*X51550Y68660D3*X69670Y53660D3*X103420Y56160D3*X96550Y47410D3*X103420Y41160D3*X118420Y31160D3*X299670D3*X285300Y36160D3*X307170Y49910D3*X280300Y93660D3*X249050Y121960D3*Y131780D3*X266550Y133660D3*X281550Y136160D3*X287800Y144280D3*X292170Y140530D3*X287800Y136160D3*X292170Y131160D3*X287800Y126160D3*X292170Y121160D3*X287800Y116160D3*X292170Y111160D3*X287800Y106160D3*X292170Y101160D3*X287800Y96160D3*X292170Y91160D3*X286550Y86160D3*X292170Y81160D3*X287800Y77410D3*X274050Y70530D3*X216550Y36160D3*X229050Y46160D3*X242800Y48660D3*X207170Y76780D3*X210300Y90530D3*X191550Y94910D3*X187800Y87410D3*X179670D3*X174670Y82410D3*X161550Y83030D3*Y91160D3*X143420Y101780D3*X137170Y89910D3*X104050Y84910D3*X87800Y91160D3*X89050Y82410D3*X85300Y74910D3*X100300Y68030D3*X102800Y74910D3*X122800D3*X152170Y53030D3*X162170Y54910D3*X165920Y59910D3*X162170Y66780D3*X175300Y70530D3*X190300Y57410D3*X196550Y64910D3*X203420Y68030D3*X205300Y61160D3*X212800Y61780D3*X226550Y68660D3*X221550Y63660D3*X234050Y57410D3*X249050Y72410D3*Y87410D3*Y96780D3*Y108030D3*Y113030D3*Y117410D3*X239050D3*X233420Y121780D3*X225920Y118660D3*X215300Y119280D3*X174050Y133660D3*X167800Y131780D3*X154050Y128030D3*X132800Y124280D3*X130300Y128660D3*X123420Y128030D3*X100300Y124280D3*X102800Y114910D3*X119050Y103660D3*X127800Y107410D3*X130300Y112410D3*X145300Y111160D3*X155920Y107410D3*X155300Y113030D3*X162800Y116160D3*X170300Y119280D3*X186550Y114910D3*X182800Y121160D3*X204050Y140530D3*X197170Y147410D3*X204050D3*X210920D3*X217170D3*X224670Y140530D3*X232800Y146160D3*X230920Y153660D3*X222800Y166160D3*X229050Y186160D3*X270920Y214280D3*X247170D3*X220920D3*X217800Y201160D3*X195300D3*X202800Y192410D3*X195300D3*Y183660D3*X202800D3*X200300Y168660D3*X175920Y162410D3*X180300Y159280D3*X182800Y154910D3*X181550Y145530D3*X179670Y150530D3*X161550Y147410D3*X154670Y153030D3*X159050Y158030D3*X162800Y164540D3*X154670D3*X141550Y161780D3*X140920Y156780D3*X127800Y144280D3*X117170Y149910D3*X112800Y144280D3*X109050Y149910D3*X100300D3*X95300Y146160D3*X85920Y137410D3*X75920Y141780D3*X72800Y144910D3*X40300Y163030D3*D248*X287800Y110530D3*X218420Y106780D3*X224050Y103660D3*X227800D3*X234050Y99910D3*X221550Y91780D3*Y86160D3*X228420Y86780D3*X261550Y74910D3*X269050Y74280D3*X274050Y78660D3*X260300Y93660D3*X271550Y88660D3*Y92410D3*X266550Y96780D3*X271550Y99910D3*X276550Y102410D3*X279670Y106780D3*X271550Y115530D3*X265920Y118660D3*X262170Y122410D3*X0Y0D2*M02*