
M48
INCH,LZ,00.0000
T01C0.016
T02C0.0236
T03C0.0394
T04C0.04
T05C0.0512
T06C0.0787
T07C0.126
%
M72
G90
T01
X026155Y007491
X026905Y007428
X027405Y007866
X027155Y008866
Y009241
X026217Y012241
X026592Y011866
X027155Y011553
X02878Y011053
X027967Y010678
X027655Y010241
X027155Y009991
X026655Y009678
X02603Y009366
X022155Y008616
X022842Y008678
X022155Y009178
X023405Y009991
X02278Y010366
X022405
X021842Y010678
T02
X00403Y016303
X016155Y014741
X015405Y012803
X01678Y013178
X017405Y013366
X020405Y014053
X026655Y013366
X024905Y013178
X02803Y009366
X029967Y003116
X02853Y003616
X030717Y004991
X027405Y007053
X02878Y007741
X029217Y008116
X028655Y008616
X029217Y009116
X02878Y009616
X029217Y010116
X02878Y010616
X029217Y011116
X02878Y011616
X029217Y012116
X02878Y012616
X029217Y013116
X028155Y013616
X02878
X029217Y014053
X02878Y014428
X029217Y015741
X02878Y016053
X02803Y018116
X022905Y018616
X027092Y021428
X024717
X022092
X02178Y020116
X01953
X02028Y019241
X01953
Y018366
X02028
X02003Y016866
X02228Y016616
X023092Y015366
X02328Y014616
X022467Y014053
X021717Y014741
X021092
X020405
X019717
X018155Y014553
X017967Y015053
X01828Y015491
X01803Y015928
X017592Y016241
X015467Y016454
X01628
X015905Y015803
X015467Y015303
X014092Y015678
X014155Y016178
X012717Y016491
X011905
X01128
X008342Y016641
X009405Y015741
X00953Y014616
X01003Y014991
X010905
X01128Y014428
X011717Y014991
X01278Y014428
X012342Y012803
X01303Y012866
X01328Y012428
X00478Y006241
X005155Y006866
X006967Y005366
X010342Y005616
X009655Y004741
X010342Y004116
X011842Y003116
X015217Y005303
X016217Y005491
X016592Y005991
X016217Y006678
X01753Y007053
X01903Y005741
X021655Y003616
X022905Y004616
X02428Y004866
X023405Y005741
X022655Y006866
X022155Y006366
X02128Y006178
X02053Y006116
X019655Y006491
X020342Y006803
X020717Y007678
X02103Y009053
X019155Y009491
X01878Y008741
X017967
X017467Y008241
X016155Y008303
Y009116
X014342Y010178
X013717Y008991
X01228Y007491
X010405Y008491
X01028Y007491
X01003Y006803
X00853Y007491
X008905Y008241
X00878Y009116
X00653Y010116
X00428Y010741
X00503Y013428
X00553Y013616
X00728Y014491
X007592Y014178
X008592Y013741
X01003Y012428
X01028Y011491
X011905Y010366
X01278Y010741
X01303Y011241
X01453Y011116
X015592Y010741
X01553Y011303
X01628Y011616
X01703Y011928
X01828Y012116
X018655Y011491
X02153Y011928
X022592Y011866
X023342Y012178
X023905Y011741
X024905Y012196
Y011741
Y011303
Y010803
Y009678
Y008741
Y007241
T03
X004905Y005366
X00653Y015678
T04
X019905Y021116
X020905
X028905
X029905
Y020116
X028905
X014905Y003116
X015905
X016905
X017905
X018905
X019905
X020905
Y004116
X019905
X018905
X017905
X016905
X015905
X014905
T05
X028905Y006616
Y017616
T06
X005993Y007858
Y012873
X032905Y017366
X024795Y00607
T07
X032401Y003866
Y020551
X003905
Y003866
M30
