G04 Output by ViewMate Deluxe V11.12.18  PentaLogix*
G04 Wed Mar 06 15:24:07 2019*
%IPPOS*%
%FSLAX25Y25*%
%MOIN*%
%ADD10C,0.0*%
%ADD42R,0.0591X0.0591*%
%ADD43C,0.0394*%
%ADD44R,0.0354X0.0157*%
%ADD45C,0.0089*%
%ADD46R,0.0039X0.0118*%
%ADD47R,0.0531X0.0157*%
%ADD48R,0.0748X0.0709*%
%ADD49C,0.0044*%
%ADD50R,0.0118X0.0039*%
%ADD51R,0.0709X0.0748*%
%ADD100R,0.0276X0.0071*%
%ADD101R,0.0512X0.0591*%
%ADD102R,0.0394X0.0394*%
%ADD103R,0.0591X0.024*%
%ADD104R,0.024X0.0591*%
%ADD105R,0.1299X0.0591*%
%ADD106R,0.0394X0.0591*%
%ADD107R,0.0433X0.0394*%
%ADD108R,0.0709X0.1083*%
%ADD109R,0.0787X0.0787*%
%ADD110R,0.0276X0.0354*%
%ADD111R,0.0354X0.0276*%
%ADD112R,0.0157X0.0531*%
%ADD113R,0.0512X0.0217*%
%ADD114R,0.0591X0.0512*%
%ADD115R,0.0394X0.0433*%
%ADD116R,0.0866X0.0512*%
%ADD117R,0.0591X0.0236*%
%ADD118R,0.0217X0.0512*%
%ADD119R,0.0138X0.0551*%
%ADD120R,0.063X0.0787*%
%ADD121R,0.063X0.0138*%
%ADD122R,0.0118X0.063*%
%ADD123R,0.0138X0.063*%
%ADD124R,0.0394X0.0167*%
%ADD125R,0.0827X0.0472*%
%ADD126R,0.0315X0.0315*%
%ADD127R,0.0354X0.0315*%
%ADD128C,0.011*%
%ADD129R,0.022X0.011*%
%ADD130R,0.011X0.022*%

%LPD*%
X0Y0D2*D10*G1X286490Y176160D2*X286510Y175850D1*X286570Y175540*X286660Y175240*X286790Y174950*X286960Y174680*X287160Y174440*X287380Y174220*X287640Y174030*X287910Y173870*X288200Y173750*X288500Y173660*X288810Y173610*X289130Y173600*X289440Y173630*X289750Y173700*X290050Y173800*X290330Y173940*X290590Y174120*X290830Y174320*X291040Y174560*X291230Y174810*X291380Y175090*X291490Y175380*X291570Y175690*X291610Y176000*Y176320*X291570Y176630*X291490Y176940*X291380Y177230*X291230Y177510*X291040Y177760*X290830Y178000*X290590Y178200*X290330Y178380*X290050Y178520*X289750Y178620*X289440Y178690*X289130Y178720*X288810Y178710*X288500Y178660*X288200Y178570*X287910Y178450*X287640Y178290*X287380Y178100*X287160Y177880*X286960Y177640*X286790Y177370*X286660Y177080*X286570Y176780*X286510Y176470*X286490Y176160*X325110Y173660D2*X325130Y173270D1*X325190Y172880*X325290Y172500*X325420Y172130*X325590Y171780*X325790Y171440*X326030Y171130*X326300Y170840*X326590Y170580*X326910Y170350*X327250Y170150*X327610Y169990*X327980Y169870*X328370Y169780*X328760Y169730*X329150Y169720*X329540Y169750*X329930Y169820*X330300Y169930*X330670Y170070*X331020Y170250*X331350Y170460*X331660Y170710*X331940Y170980*X332190Y171280*X332410Y171610*X332600Y171950*X332750Y172310*X332870Y172690*X332950Y173070*X332990Y173460*Y173860*X332950Y174250*X332870Y174630*X332750Y175010*X332600Y175370*X332410Y175710*X332190Y176040*X331940Y176340*X331660Y176610*X331350Y176860*X331020Y177070*X330670Y177250*X330300Y177390*X329930Y177500*X329540Y177570*X329150Y177600*X328760Y177590*X328370Y177540*X327980Y177450*X327610Y177330*X327250Y177170*X326910Y176970*X326590Y176740*X326300Y176480*X326030Y176190*X325790Y175880*X325590Y175540*X325420Y175190*X325290Y174820*X325190Y174440*X325130Y174050*X325110Y173660*X286490Y66160D2*X286510Y65850D1*X286570Y65540*X286660Y65240*X286790Y64950*X286960Y64680*X287160Y64440*X287380Y64220*X287640Y64030*X287910Y63870*X288200Y63750*X288500Y63660*X288810Y63610*X289130Y63600*X289440Y63630*X289750Y63700*X290050Y63800*X290330Y63940*X290590Y64120*X290830Y64320*X291040Y64560*X291230Y64810*X291380Y65090*X291490Y65380*X291570Y65690*X291610Y66000*Y66320*X291570Y66630*X291490Y66940*X291380Y67230*X291230Y67510*X291040Y67760*X290830Y68000*X290590Y68200*X290330Y68380*X290050Y68520*X289750Y68620*X289440Y68690*X289130Y68720*X288810Y68710*X288500Y68660*X288200Y68570*X287910Y68450*X287640Y68290*X287380Y68100*X287160Y67880*X286960Y67640*X286790Y67370*X286660Y67080*X286570Y66780*X286510Y66470*X286490Y66160*X244010Y60700D2*X244030Y60310D1*X244090Y59920*X244190Y59540*X244320Y59170*X244490Y58820*X244690Y58480*X244930Y58170*X245200Y57880*X245490Y57620*X245810Y57390*X246150Y57190*X246510Y57030*X246880Y56910*X247270Y56820*X247660Y56770*X248050Y56760*X248440Y56790*X248830Y56860*X249200Y56970*X249570Y57110*X249920Y57290*X250250Y57500*X250560Y57750*X250840Y58020*X251090Y58320*X251310Y58650*X251500Y58990*X251650Y59350*X251770Y59730*X251850Y60110*X251890Y60500*Y60900*X251850Y61290*X251770Y61670*X251650Y62050*X251500Y62410*X251310Y62750*X251090Y63080*X250840Y63380*X250560Y63650*X250250Y63900*X249920Y64110*X249570Y64290*X249200Y64430*X248830Y64540*X248440Y64610*X248050Y64640*X247660Y64630*X247270Y64580*X246880Y64490*X246510Y64370*X246150Y64210*X245810Y64010*X245490Y63780*X245200Y63520*X244930Y63230*X244690Y62920*X244490Y62580*X244320Y62230*X244190Y61860*X244090Y61480*X244030Y61090*X244010Y60700*X39800Y220510D2*X38610Y220050D1*X37440Y219520*X36300Y218940*X35190Y218310*X34120Y217620*X33070Y216890*X32070Y216100*X31100Y215260*X30180Y214380*X29300Y213460*X28460Y212490*X27670Y211490*X26940Y210440*X26250Y209370*X25620Y208260*X25040Y207120*X24510Y205950*X24050Y204760*X55990Y128730D2*X56010Y128340D1*X56070Y127950*X56170Y127570*X56300Y127200*X56470Y126850*X56670Y126510*X56910Y126200*X57180Y125910*X57470Y125650*X57790Y125420*X58130Y125220*X58490Y125060*X58860Y124940*X59250Y124850*X59640Y124800*X60030Y124790*X60420Y124820*X60810Y124890*X61180Y125000*X61550Y125140*X61900Y125320*X62230Y125530*X62540Y125780*X62820Y126050*X63070Y126350*X63290Y126680*X63480Y127020*X63630Y127380*X63750Y127760*X63830Y128140*X63870Y128530*Y128930*X63830Y129320*X63750Y129700*X63630Y130080*X63480Y130440*X63290Y130780*X63070Y131110*X62820Y131410*X62540Y131680*X62230Y131930*X61900Y132140*X61550Y132320*X61180Y132460*X60810Y132570*X60420Y132640*X60030Y132670*X59640Y132660*X59250Y132610*X58860Y132520*X58490Y132400*X58130Y132240*X57790Y132040*X57470Y131810*X57180Y131550*X56910Y131260*X56670Y130950*X56470Y130610*X56300Y130260*X56170Y129890*X56070Y129510*X56010Y129120*X55990Y128730*Y78580D2*X56010Y78190D1*X56070Y77800*X56170Y77420*X56300Y77050*X56470Y76700*X56670Y76360*X56910Y76050*X57180Y75760*X57470Y75500*X57790Y75270*X58130Y75070*X58490Y74910*X58860Y74790*X59250Y74700*X59640Y74650*X60030Y74640*X60420Y74670*X60810Y74740*X61180Y74850*X61550Y74990*X61900Y75170*X62230Y75380*X62540Y75630*X62820Y75900*X63070Y76200*X63290Y76530*X63480Y76870*X63630Y77230*X63750Y77610*X63830Y77990*X63870Y78380*Y78780*X63830Y79170*X63750Y79550*X63630Y79930*X63480Y80290*X63290Y80630*X63070Y80960*X62820Y81260*X62540Y81530*X62230Y81780*X61900Y81990*X61550Y82170*X61180Y82310*X60810Y82420*X60420Y82490*X60030Y82520*X59640Y82510*X59250Y82460*X58860Y82370*X58490Y82250*X58130Y82090*X57790Y81890*X57470Y81660*X57180Y81400*X56910Y81110*X56670Y80800*X56470Y80460*X56300Y80110*X56170Y79740*X56070Y79360*X56010Y78970*X55990Y78580*X39800Y23660D2*X38610Y24120D1*X37440Y24650*X36300Y25230*X35190Y25860*X34120Y26550*X33070Y27280*X32070Y28070*X31100Y28910*X30180Y29790*X29300Y30710*X28460Y31680*X27670Y32680*X26940Y33730*X26250Y34800*X25620Y35910*X25040Y37050*X24510Y38220*X24050Y39410*X32750Y38660D2*X32770Y38160D1*X32830Y37660*X32930Y37170*X33070Y36690*X33240Y36220*X33450Y35770*X33700Y35330*X33980Y34920*X34300Y34530*X34640Y34160*X35010Y33820*X35410Y33520*X35830Y33250*X36270Y33010*X36730Y32800*X37200Y32640*X37680Y32510*X38180Y32420*X38670Y32370*X39180Y32360*X39680Y32390*X40170Y32460*X40660Y32570*X41140Y32720*X41600Y32900*X42050Y33120*X42480Y33380*X42890Y33670*X43280Y33990*X43640Y34340*X43960Y34720*X44260Y35120*X44530Y35550*X44760Y35990*X44950Y36450*X45110Y36930*X45230Y37420*X45310Y37910*X45350Y38410*Y38910*X45310Y39410*X45230Y39900*X45110Y40390*X44950Y40870*X44760Y41330*X44530Y41770*X44260Y42200*X43960Y42600*X43640Y42980*X43280Y43330*X42890Y43650*X42480Y43940*X42050Y44200*X41600Y44420*X41140Y44600*X40660Y44750*X40170Y44860*X39680Y44930*X39180Y44960*X38670Y44950*X38180Y44900*X37680Y44810*X37200Y44680*X36730Y44520*X36270Y44310*X35830Y44070*X35410Y43800*X35010Y43500*X34640Y43160*X34300Y42790*X33980Y42400*X33700Y41990*X33450Y41550*X33240Y41100*X33070Y40630*X32930Y40150*X32830Y39660*X32770Y39160*X32750Y38660*X24050Y204760D2*Y39400D1*X32750Y205510D2*X32770Y205010D1*X32830Y204510*X32930Y204020*X33070Y203540*X33240Y203070*X33450Y202620*X33700Y202180*X33980Y201770*X34300Y201380*X34640Y201010*X35010Y200670*X35410Y200370*X35830Y200100*X36270Y199860*X36730Y199650*X37200Y199490*X37680Y199360*X38180Y199270*X38670Y199220*X39180Y199210*X39680Y199240*X40170Y199310*X40660Y199420*X41140Y199570*X41600Y199750*X42050Y199970*X42480Y200230*X42890Y200520*X43280Y200840*X43640Y201190*X43960Y201570*X44260Y201970*X44530Y202400*X44760Y202840*X44950Y203300*X45110Y203780*X45230Y204270*X45310Y204760*X45350Y205260*Y205760*X45310Y206260*X45230Y206750*X45110Y207240*X44950Y207720*X44760Y208180*X44530Y208620*X44260Y209050*X43960Y209450*X43640Y209830*X43280Y210180*X42890Y210500*X42480Y210790*X42050Y211050*X41600Y211270*X41140Y211450*X40660Y211600*X40170Y211710*X39680Y211780*X39180Y211810*X38670Y211800*X38180Y211750*X37680Y211660*X37200Y211530*X36730Y211370*X36270Y211160*X35830Y210920*X35410Y210650*X35010Y210350*X34640Y210010*X34300Y209640*X33980Y209250*X33700Y208840*X33450Y208400*X33240Y207950*X33070Y207480*X32930Y207000*X32830Y206510*X32770Y206010*X32750Y205510*X323260Y220510D2*X39800D1*X339010Y204760D2*X338550Y205950D1*X338020Y207120*X337440Y208260*X336810Y209370*X336120Y210440*X335390Y211490*X334600Y212490*X333760Y213460*X332880Y214380*X331960Y215260*X330990Y216100*X329990Y216890*X328940Y217620*X327870Y218310*X326760Y218940*X325620Y219520*X324450Y220050*X323260Y220510*X317710Y205510D2*X317730Y205010D1*X317790Y204510*X317890Y204020*X318030Y203540*X318200Y203070*X318410Y202620*X318660Y202180*X318940Y201770*X319260Y201380*X319600Y201010*X319970Y200670*X320370Y200370*X320790Y200100*X321230Y199860*X321690Y199650*X322160Y199490*X322640Y199360*X323140Y199270*X323630Y199220*X324140Y199210*X324640Y199240*X325130Y199310*X325620Y199420*X326100Y199570*X326560Y199750*X327010Y199970*X327440Y200230*X327850Y200520*X328240Y200840*X328600Y201190*X328920Y201570*X329220Y201970*X329490Y202400*X329720Y202840*X329910Y203300*X330070Y203780*X330190Y204270*X330270Y204760*X330310Y205260*Y205760*X330270Y206260*X330190Y206750*X330070Y207240*X329910Y207720*X329720Y208180*X329490Y208620*X329220Y209050*X328920Y209450*X328600Y209830*X328240Y210180*X327850Y210500*X327440Y210790*X327010Y211050*X326560Y211270*X326100Y211450*X325620Y211600*X325130Y211710*X324640Y211780*X324140Y211810*X323630Y211800*X323140Y211750*X322640Y211660*X322160Y211530*X321690Y211370*X321230Y211160*X320790Y210920*X320370Y210650*X319970Y210350*X319600Y210010*X319260Y209640*X318940Y209250*X318660Y208840*X318410Y208400*X318200Y207950*X318030Y207480*X317890Y207000*X317790Y206510*X317730Y206010*X317710Y205510*X339010Y39400D2*Y204760D1*Y39410D2*X338550Y38220D1*X338020Y37050*X337440Y35910*X336810Y34800*X336120Y33730*X335390Y32680*X334600Y31680*X333760Y30710*X332880Y29790*X331960Y28910*X330990Y28070*X329990Y27280*X328940Y26550*X327870Y25860*X326760Y25230*X325620Y24650*X324450Y24120*X323260Y23660*X317710Y38660D2*X317730Y38160D1*X317790Y37660*X317890Y37170*X318030Y36690*X318200Y36220*X318410Y35770*X318660Y35330*X318940Y34920*X319260Y34530*X319600Y34160*X319970Y33820*X320370Y33520*X320790Y33250*X321230Y33010*X321690Y32800*X322160Y32640*X322640Y32510*X323140Y32420*X323630Y32370*X324140Y32360*X324640Y32390*X325130Y32460*X325620Y32570*X326100Y32720*X326560Y32900*X327010Y33120*X327440Y33380*X327850Y33670*X328240Y33990*X328600Y34340*X328920Y34720*X329220Y35120*X329490Y35550*X329720Y35990*X329910Y36450*X330070Y36930*X330190Y37420*X330270Y37910*X330310Y38410*Y38910*X330270Y39410*X330190Y39900*X330070Y40390*X329910Y40870*X329720Y41330*X329490Y41770*X329220Y42200*X328920Y42600*X328600Y42980*X328240Y43330*X327850Y43650*X327440Y43940*X327010Y44200*X326560Y44420*X326100Y44600*X325620Y44750*X325130Y44860*X324640Y44930*X324140Y44960*X323630Y44950*X323140Y44900*X322640Y44810*X322160Y44680*X321690Y44520*X321230Y44310*X320790Y44070*X320370Y43800*X319970Y43500*X319600Y43160*X319260Y42790*X318940Y42400*X318660Y41990*X318410Y41550*X318200Y41100*X318030Y40630*X317890Y40150*X317790Y39660*X317730Y39160*X317710Y38660*X39800Y23660D2*X323260D1*D45*X27310Y157120D2*X33910D1*Y156240D2*X27310D1*Y155360D2*X33910D1*X27310Y154480D2*X33910D1*Y157140*X27310*Y154480*X33910Y132810D2*X27310D1*Y131930D2*X33910D1*Y131050D2*X27310D1*X33910Y132830D2*X27310D1*Y130170*X33910*Y132830*D49*X92300Y33970D2*X90980D1*Y33540D2*X92300D1*Y33110D2*X90980D1*Y32680D2*X92300D1*Y32250D2*X90980D1*Y31820D2*X92300D1*Y31390D2*X90980D1*Y30960D2*X92300D1*Y30530D2*X90980D1*Y30100D2*X92300D1*Y29670D2*X90980D1*Y29240D2*X92300D1*Y28810D2*X90980D1*Y28380D2*X92300D1*Y27950D2*X90980D1*Y27520D2*X92300D1*X90980Y34130D2*Y27090D1*X92300*Y34130*X90980*X68870Y33970D2*X70190D1*Y33540D2*X68870D1*Y33110D2*X70190D1*Y32680D2*X68870D1*Y32250D2*X70190D1*Y31820D2*X68870D1*Y31390D2*X70190D1*Y30960D2*X68870D1*Y30530D2*X70190D1*Y30100D2*X68870D1*Y29670D2*X70190D1*Y29240D2*X68870D1*Y28810D2*X70190D1*Y28380D2*X68870D1*Y27950D2*X70190D1*Y27520D2*X68870D1*X70190Y27090D2*Y34130D1*X68870*Y27090*X70190*D42*X204470Y108860D3*X197380D3*Y115950D3*X204470D3*D43*X249050Y48660D3*X174050Y87410D3*X226860Y124280D3*D44*X58470Y141100D3*Y143660D3*Y146220D3*X67130D3*Y143660D3*Y141100D3*D46*X40950Y134900D3*Y152420D3*D47*X41640Y148770D3*Y146220D3*Y143660D3*Y141100D3*Y138540D3*D48*X30610Y139130D3*Y148180D3*D50*X71040Y40460D3*X90130D3*D51*X85110Y30610D3*X76060D3*D100*X243340Y128380D3*Y126810D3*Y125230D3*Y123660D3*Y122080D3*Y120510D3*Y118930D3*Y117360D3*Y115780D3*Y114210D3*Y112630D3*Y111060D3*Y109480D3*Y107910D3*Y106330D3*Y104760D3*Y103180D3*Y101610D3*Y100030D3*Y98460D3*Y96880D3*Y95310D3*Y93730D3*Y92160D3*Y90590D3*Y89010D3*Y87440D3*Y85860D3*Y84290D3*Y82710D3*Y81140D3*Y79560D3*Y77990D3*Y76410D3*Y74840D3*X255470D3*Y76410D3*Y77990D3*Y79560D3*Y81140D3*Y82710D3*Y84290D3*Y85860D3*Y87440D3*Y89010D3*Y90590D3*Y92160D3*Y93730D3*Y95310D3*Y96880D3*Y98460D3*Y100030D3*Y101610D3*Y103180D3*Y104760D3*Y106330D3*Y107910D3*Y109480D3*Y111060D3*Y112630D3*Y114210D3*Y115780D3*Y117360D3*Y118930D3*Y120510D3*Y122080D3*Y123660D3*Y125230D3*Y126810D3*Y128380D3*D101*X40290Y179280D3*X32810D3*Y169280D3*X40290D3*X102810Y31160D3*X110290D3*X135580Y83660D3*X128100D3*X119040D3*X111560D3*X102160Y95530D3*X94680D3*X94490Y104330D3*X101970D3*X109410Y127050D3*X116890D3*X139660Y126890D3*X147140D3*D102*X103680Y213660D3*X134420D3*Y197910D3*X122990Y185110D3*X115110D3*X103680Y197910D3*D103*X135210Y190030D3*Y186100D3*Y182160D3*Y178220D3*Y174290D3*Y170350D3*Y166410D3*Y162470D3*X102890D3*Y166410D3*Y170350D3*Y174290D3*Y178220D3*Y182160D3*Y186100D3*Y190030D3*D104*X105270Y156180D3*X109210D3*X113140D3*X117080D3*X121020D3*X124960D3*X128890D3*X132830D3*D105*X206550Y201060D3*D106*X215410Y176250D3*X197690D3*X203600D3*X209500D3*D107*X131770Y31160D3*X125080D3*X42800Y91190D3*Y97880D3*X43420Y114430D3*Y121130D3*X229050Y160310D3*Y167000D3*Y180750D3*Y174060D3*D108*X194050Y158990D3*X214050D3*Y138320D3*X194050D3*D109*X229050Y210280D3*Y194530D3*D110*X36490Y63280D3*X41610D3*X301890Y39680D3*X307010D3*X307180Y45160D3*X302060D3*X210360Y51160D3*X205240D3*X180870Y81780D3*X185980D3*X197740Y95530D3*X202860D3*Y90530D3*X197740D3*Y85530D3*X202860D3*X207120Y81160D3*X212230D3*X227740Y93660D3*X232860D3*X231610Y113660D3*Y108660D3*X226490D3*Y113660D3*X220980Y124280D3*X215870D3*X184730Y128660D3*X179620D3*X88990Y166410D3*X94110D3*X101490Y144910D3*X106610D3*X133370Y144280D3*X138480D3*X143990Y166410D3*X149110D3*X168370D3*X173480D3*D111*X229670Y138720D3*Y133600D3*X211550Y73090D3*Y67970D3*X167800Y66100D3*Y71220D3*X167170Y82970D3*Y88090D3*X137800Y99850D3*Y104970D3*Y112350D3*Y117470D3*X95300Y124340D3*Y119220D3*D112*X75470Y41150D3*X78030D3*X80590D3*X83140D3*X85700D3*X278400Y30190D3*X280960D3*X283520D3*X286080D3*Y47120D3*X283520D3*X280960D3*X278400D3*D113*X264760Y202420D3*Y209900D3*X253340D3*Y206160D3*Y202420D3*X245550Y40590D3*Y33100D3*X234130D3*Y36850D3*Y40590D3*X143280Y67180D3*X154700D3*Y63440D3*Y59700D3*X143280D3*X69740Y60800D3*Y68280D3*X81160D3*Y64540D3*Y60800D3*D114*X254870Y33850D3*Y41330D3*X223620Y40550D3*Y33070D3*X56550Y32420D3*Y39900D3*X59070Y66020D3*Y58540D3*X92570Y61000D3*Y68480D3*X241550Y202420D3*Y209900D3*X276550D3*Y202420D3*D115*X292730Y39030D3*Y32340D3*D116*X266490Y30390D3*Y46920D3*D117*X109320Y41160D3*Y46120D3*Y51080D3*Y56040D3*Y61000D3*Y65960D3*Y70920D3*X130580D3*Y65960D3*Y61000D3*Y56040D3*Y51080D3*Y46120D3*Y41160D3*D118*X146870Y91550D3*X154350D3*Y80130D3*X150610D3*X146870D3*D119*X131660Y118720D3*X129100D3*X126540D3*X123980D3*X121420D3*X118860D3*X116300D3*X113740D3*X111190D3*X108630D3*Y96090D3*X111190D3*X113740D3*X116300D3*X118860D3*X121420D3*X123980D3*X126540D3*X129100D3*X131660D3*D120*X224050Y55530D3*Y76790D3*D121*X148030Y142820D3*Y145380D3*Y147940D3*Y150500D3*Y153060D3*Y155620D3*Y158180D3*Y160740D3*X170070D3*Y158180D3*Y155620D3*Y153060D3*Y150500D3*Y147940D3*Y145380D3*Y142820D3*D122*X177710Y95710D3*X180270D3*X182830D3*X185390D3*Y109100D3*X182830D3*X180270D3*X177710D3*D123*X181340Y50130D3*X183900D3*X186460D3*X189020D3*X191580D3*X194140D3*X196700D3*X199260D3*Y72180D3*X196700D3*X194140D3*X191580D3*X189020D3*X186460D3*X183900D3*X181340D3*D124*X163200Y97680D3*Y100830D3*Y103980D3*Y107130D3*X169900D3*Y103980D3*Y100830D3*Y97680D3*D125*X79410Y86160D3*X56190Y91160D3*Y101160D3*Y111160D3*Y121160D3*X79410Y116160D3*Y106160D3*Y96160D3*D126*X32800Y116530D3*Y110030D3*Y97780D3*Y91280D3*D127*X40490Y70790D3*X32610Y74530D3*X40490Y78270D3*D128*X194030Y103780D3*X196000D3*X197970D3*X199940D3*X201910D3*X203880D3*X205850D3*X207810D3*X209550Y105520D3*Y107480D3*Y109450D3*Y111420D3*Y113390D3*Y115360D3*Y117330D3*Y119300D3*X207810Y121030D3*X205850D3*X203880D3*X201910D3*X199940D3*X197970D3*X196000D3*X194030D3*X192300Y119300D3*Y117330D3*Y115360D3*Y113390D3*Y111420D3*Y109450D3*Y107480D3*Y105520D3*D129*X210650Y105520D3*Y107480D3*Y109450D3*Y111420D3*Y113390D3*Y115360D3*Y117330D3*Y119300D3*X191200D3*Y117330D3*Y115360D3*Y113390D3*Y111420D3*Y109450D3*Y107480D3*Y105520D3*D130*X207810Y122130D3*X205850D3*X203880D3*X201910D3*X199940D3*X197970D3*X196000D3*X194030D3*Y102680D3*X196000D3*X197970D3*X199940D3*X201910D3*X203880D3*X205850D3*X207810D3*X0Y0D2*M02*