G04 Output by ViewMate Deluxe V11.12.18  PentaLogix*
G04 Wed Mar 06 15:24:07 2019*
%IPPOS*%
%FSLAX25Y25*%
%MOIN*%
%ADD10C,0.0*%
%ADD253C,0.134*%
%ADD254C,0.0867*%
%ADD255C,0.1181*%
%ADD256R,0.068X0.068*%
G04:---LTIenv:A257:16,0.068,0.0 *
%ADD257P,0.073603X8X22.5*%
%ADD258C,0.0671*%
%ADD259C,0.0592*%
%ADD260C,0.0217*%
%ADD261R,0.0867X0.0434*%
%ADD262C,0.005*%
%ADD263C,0.0039*%

%LPD*%
X0Y0D2*D10*G1X286490Y176160D2*X286510Y175850D1*X286570Y175540*X286660Y175240*X286790Y174950*X286960Y174680*X287160Y174440*X287380Y174220*X287640Y174030*X287910Y173870*X288200Y173750*X288500Y173660*X288810Y173610*X289130Y173600*X289440Y173630*X289750Y173700*X290050Y173800*X290330Y173940*X290590Y174120*X290830Y174320*X291040Y174560*X291230Y174810*X291380Y175090*X291490Y175380*X291570Y175690*X291610Y176000*Y176320*X291570Y176630*X291490Y176940*X291380Y177230*X291230Y177510*X291040Y177760*X290830Y178000*X290590Y178200*X290330Y178380*X290050Y178520*X289750Y178620*X289440Y178690*X289130Y178720*X288810Y178710*X288500Y178660*X288200Y178570*X287910Y178450*X287640Y178290*X287380Y178100*X287160Y177880*X286960Y177640*X286790Y177370*X286660Y177080*X286570Y176780*X286510Y176470*X286490Y176160*X325110Y173660D2*X325130Y173270D1*X325190Y172880*X325290Y172500*X325420Y172130*X325590Y171780*X325790Y171440*X326030Y171130*X326300Y170840*X326590Y170580*X326910Y170350*X327250Y170150*X327610Y169990*X327980Y169870*X328370Y169780*X328760Y169730*X329150Y169720*X329540Y169750*X329930Y169820*X330300Y169930*X330670Y170070*X331020Y170250*X331350Y170460*X331660Y170710*X331940Y170980*X332190Y171280*X332410Y171610*X332600Y171950*X332750Y172310*X332870Y172690*X332950Y173070*X332990Y173460*Y173860*X332950Y174250*X332870Y174630*X332750Y175010*X332600Y175370*X332410Y175710*X332190Y176040*X331940Y176340*X331660Y176610*X331350Y176860*X331020Y177070*X330670Y177250*X330300Y177390*X329930Y177500*X329540Y177570*X329150Y177600*X328760Y177590*X328370Y177540*X327980Y177450*X327610Y177330*X327250Y177170*X326910Y176970*X326590Y176740*X326300Y176480*X326030Y176190*X325790Y175880*X325590Y175540*X325420Y175190*X325290Y174820*X325190Y174440*X325130Y174050*X325110Y173660*X286490Y66160D2*X286510Y65850D1*X286570Y65540*X286660Y65240*X286790Y64950*X286960Y64680*X287160Y64440*X287380Y64220*X287640Y64030*X287910Y63870*X288200Y63750*X288500Y63660*X288810Y63610*X289130Y63600*X289440Y63630*X289750Y63700*X290050Y63800*X290330Y63940*X290590Y64120*X290830Y64320*X291040Y64560*X291230Y64810*X291380Y65090*X291490Y65380*X291570Y65690*X291610Y66000*Y66320*X291570Y66630*X291490Y66940*X291380Y67230*X291230Y67510*X291040Y67760*X290830Y68000*X290590Y68200*X290330Y68380*X290050Y68520*X289750Y68620*X289440Y68690*X289130Y68720*X288810Y68710*X288500Y68660*X288200Y68570*X287910Y68450*X287640Y68290*X287380Y68100*X287160Y67880*X286960Y67640*X286790Y67370*X286660Y67080*X286570Y66780*X286510Y66470*X286490Y66160*X244010Y60700D2*X244030Y60310D1*X244090Y59920*X244190Y59540*X244320Y59170*X244490Y58820*X244690Y58480*X244930Y58170*X245200Y57880*X245490Y57620*X245810Y57390*X246150Y57190*X246510Y57030*X246880Y56910*X247270Y56820*X247660Y56770*X248050Y56760*X248440Y56790*X248830Y56860*X249200Y56970*X249570Y57110*X249920Y57290*X250250Y57500*X250560Y57750*X250840Y58020*X251090Y58320*X251310Y58650*X251500Y58990*X251650Y59350*X251770Y59730*X251850Y60110*X251890Y60500*Y60900*X251850Y61290*X251770Y61670*X251650Y62050*X251500Y62410*X251310Y62750*X251090Y63080*X250840Y63380*X250560Y63650*X250250Y63900*X249920Y64110*X249570Y64290*X249200Y64430*X248830Y64540*X248440Y64610*X248050Y64640*X247660Y64630*X247270Y64580*X246880Y64490*X246510Y64370*X246150Y64210*X245810Y64010*X245490Y63780*X245200Y63520*X244930Y63230*X244690Y62920*X244490Y62580*X244320Y62230*X244190Y61860*X244090Y61480*X244030Y61090*X244010Y60700*X39800Y220510D2*X38610Y220050D1*X37440Y219520*X36300Y218940*X35190Y218310*X34120Y217620*X33070Y216890*X32070Y216100*X31100Y215260*X30180Y214380*X29300Y213460*X28460Y212490*X27670Y211490*X26940Y210440*X26250Y209370*X25620Y208260*X25040Y207120*X24510Y205950*X24050Y204760*X55990Y128730D2*X56010Y128340D1*X56070Y127950*X56170Y127570*X56300Y127200*X56470Y126850*X56670Y126510*X56910Y126200*X57180Y125910*X57470Y125650*X57790Y125420*X58130Y125220*X58490Y125060*X58860Y124940*X59250Y124850*X59640Y124800*X60030Y124790*X60420Y124820*X60810Y124890*X61180Y125000*X61550Y125140*X61900Y125320*X62230Y125530*X62540Y125780*X62820Y126050*X63070Y126350*X63290Y126680*X63480Y127020*X63630Y127380*X63750Y127760*X63830Y128140*X63870Y128530*Y128930*X63830Y129320*X63750Y129700*X63630Y130080*X63480Y130440*X63290Y130780*X63070Y131110*X62820Y131410*X62540Y131680*X62230Y131930*X61900Y132140*X61550Y132320*X61180Y132460*X60810Y132570*X60420Y132640*X60030Y132670*X59640Y132660*X59250Y132610*X58860Y132520*X58490Y132400*X58130Y132240*X57790Y132040*X57470Y131810*X57180Y131550*X56910Y131260*X56670Y130950*X56470Y130610*X56300Y130260*X56170Y129890*X56070Y129510*X56010Y129120*X55990Y128730*Y78580D2*X56010Y78190D1*X56070Y77800*X56170Y77420*X56300Y77050*X56470Y76700*X56670Y76360*X56910Y76050*X57180Y75760*X57470Y75500*X57790Y75270*X58130Y75070*X58490Y74910*X58860Y74790*X59250Y74700*X59640Y74650*X60030Y74640*X60420Y74670*X60810Y74740*X61180Y74850*X61550Y74990*X61900Y75170*X62230Y75380*X62540Y75630*X62820Y75900*X63070Y76200*X63290Y76530*X63480Y76870*X63630Y77230*X63750Y77610*X63830Y77990*X63870Y78380*Y78780*X63830Y79170*X63750Y79550*X63630Y79930*X63480Y80290*X63290Y80630*X63070Y80960*X62820Y81260*X62540Y81530*X62230Y81780*X61900Y81990*X61550Y82170*X61180Y82310*X60810Y82420*X60420Y82490*X60030Y82520*X59640Y82510*X59250Y82460*X58860Y82370*X58490Y82250*X58130Y82090*X57790Y81890*X57470Y81660*X57180Y81400*X56910Y81110*X56670Y80800*X56470Y80460*X56300Y80110*X56170Y79740*X56070Y79360*X56010Y78970*X55990Y78580*X39800Y23660D2*X38610Y24120D1*X37440Y24650*X36300Y25230*X35190Y25860*X34120Y26550*X33070Y27280*X32070Y28070*X31100Y28910*X30180Y29790*X29300Y30710*X28460Y31680*X27670Y32680*X26940Y33730*X26250Y34800*X25620Y35910*X25040Y37050*X24510Y38220*X24050Y39410*X32750Y38660D2*X32770Y38160D1*X32830Y37660*X32930Y37170*X33070Y36690*X33240Y36220*X33450Y35770*X33700Y35330*X33980Y34920*X34300Y34530*X34640Y34160*X35010Y33820*X35410Y33520*X35830Y33250*X36270Y33010*X36730Y32800*X37200Y32640*X37680Y32510*X38180Y32420*X38670Y32370*X39180Y32360*X39680Y32390*X40170Y32460*X40660Y32570*X41140Y32720*X41600Y32900*X42050Y33120*X42480Y33380*X42890Y33670*X43280Y33990*X43640Y34340*X43960Y34720*X44260Y35120*X44530Y35550*X44760Y35990*X44950Y36450*X45110Y36930*X45230Y37420*X45310Y37910*X45350Y38410*Y38910*X45310Y39410*X45230Y39900*X45110Y40390*X44950Y40870*X44760Y41330*X44530Y41770*X44260Y42200*X43960Y42600*X43640Y42980*X43280Y43330*X42890Y43650*X42480Y43940*X42050Y44200*X41600Y44420*X41140Y44600*X40660Y44750*X40170Y44860*X39680Y44930*X39180Y44960*X38670Y44950*X38180Y44900*X37680Y44810*X37200Y44680*X36730Y44520*X36270Y44310*X35830Y44070*X35410Y43800*X35010Y43500*X34640Y43160*X34300Y42790*X33980Y42400*X33700Y41990*X33450Y41550*X33240Y41100*X33070Y40630*X32930Y40150*X32830Y39660*X32770Y39160*X32750Y38660*X24050Y204760D2*Y39400D1*X32750Y205510D2*X32770Y205010D1*X32830Y204510*X32930Y204020*X33070Y203540*X33240Y203070*X33450Y202620*X33700Y202180*X33980Y201770*X34300Y201380*X34640Y201010*X35010Y200670*X35410Y200370*X35830Y200100*X36270Y199860*X36730Y199650*X37200Y199490*X37680Y199360*X38180Y199270*X38670Y199220*X39180Y199210*X39680Y199240*X40170Y199310*X40660Y199420*X41140Y199570*X41600Y199750*X42050Y199970*X42480Y200230*X42890Y200520*X43280Y200840*X43640Y201190*X43960Y201570*X44260Y201970*X44530Y202400*X44760Y202840*X44950Y203300*X45110Y203780*X45230Y204270*X45310Y204760*X45350Y205260*Y205760*X45310Y206260*X45230Y206750*X45110Y207240*X44950Y207720*X44760Y208180*X44530Y208620*X44260Y209050*X43960Y209450*X43640Y209830*X43280Y210180*X42890Y210500*X42480Y210790*X42050Y211050*X41600Y211270*X41140Y211450*X40660Y211600*X40170Y211710*X39680Y211780*X39180Y211810*X38670Y211800*X38180Y211750*X37680Y211660*X37200Y211530*X36730Y211370*X36270Y211160*X35830Y210920*X35410Y210650*X35010Y210350*X34640Y210010*X34300Y209640*X33980Y209250*X33700Y208840*X33450Y208400*X33240Y207950*X33070Y207480*X32930Y207000*X32830Y206510*X32770Y206010*X32750Y205510*X323260Y220510D2*X39800D1*X339010Y204760D2*X338550Y205950D1*X338020Y207120*X337440Y208260*X336810Y209370*X336120Y210440*X335390Y211490*X334600Y212490*X333760Y213460*X332880Y214380*X331960Y215260*X330990Y216100*X329990Y216890*X328940Y217620*X327870Y218310*X326760Y218940*X325620Y219520*X324450Y220050*X323260Y220510*X317710Y205510D2*X317730Y205010D1*X317790Y204510*X317890Y204020*X318030Y203540*X318200Y203070*X318410Y202620*X318660Y202180*X318940Y201770*X319260Y201380*X319600Y201010*X319970Y200670*X320370Y200370*X320790Y200100*X321230Y199860*X321690Y199650*X322160Y199490*X322640Y199360*X323140Y199270*X323630Y199220*X324140Y199210*X324640Y199240*X325130Y199310*X325620Y199420*X326100Y199570*X326560Y199750*X327010Y199970*X327440Y200230*X327850Y200520*X328240Y200840*X328600Y201190*X328920Y201570*X329220Y201970*X329490Y202400*X329720Y202840*X329910Y203300*X330070Y203780*X330190Y204270*X330270Y204760*X330310Y205260*Y205760*X330270Y206260*X330190Y206750*X330070Y207240*X329910Y207720*X329720Y208180*X329490Y208620*X329220Y209050*X328920Y209450*X328600Y209830*X328240Y210180*X327850Y210500*X327440Y210790*X327010Y211050*X326560Y211270*X326100Y211450*X325620Y211600*X325130Y211710*X324640Y211780*X324140Y211810*X323630Y211800*X323140Y211750*X322640Y211660*X322160Y211530*X321690Y211370*X321230Y211160*X320790Y210920*X320370Y210650*X319970Y210350*X319600Y210010*X319260Y209640*X318940Y209250*X318660Y208840*X318410Y208400*X318200Y207950*X318030Y207480*X317890Y207000*X317790Y206510*X317730Y206010*X317710Y205510*X339010Y39400D2*Y204760D1*Y39410D2*X338550Y38220D1*X338020Y37050*X337440Y35910*X336810Y34800*X336120Y33730*X335390Y32680*X334600Y31680*X333760Y30710*X332880Y29790*X331960Y28910*X330990Y28070*X329990Y27280*X328940Y26550*X327870Y25860*X326760Y25230*X325620Y24650*X324450Y24120*X323260Y23660*X317710Y38660D2*X317730Y38160D1*X317790Y37660*X317890Y37170*X318030Y36690*X318200Y36220*X318410Y35770*X318660Y35330*X318940Y34920*X319260Y34530*X319600Y34160*X319970Y33820*X320370Y33520*X320790Y33250*X321230Y33010*X321690Y32800*X322160Y32640*X322640Y32510*X323140Y32420*X323630Y32370*X324140Y32360*X324640Y32390*X325130Y32460*X325620Y32570*X326100Y32720*X326560Y32900*X327010Y33120*X327440Y33380*X327850Y33670*X328240Y33990*X328600Y34340*X328920Y34720*X329220Y35120*X329490Y35550*X329720Y35990*X329910Y36450*X330070Y36930*X330190Y37420*X330270Y37910*X330310Y38410*Y38910*X330270Y39410*X330190Y39900*X330070Y40390*X329910Y40870*X329720Y41330*X329490Y41770*X329220Y42200*X328920Y42600*X328600Y42980*X328240Y43330*X327850Y43650*X327440Y43940*X327010Y44200*X326560Y44420*X326100Y44600*X325620Y44750*X325130Y44860*X324640Y44930*X324140Y44960*X323630Y44950*X323140Y44900*X322640Y44810*X322160Y44680*X321690Y44520*X321230Y44310*X320790Y44070*X320370Y43800*X319970Y43500*X319600Y43160*X319260Y42790*X318940Y42400*X318660Y41990*X318410Y41550*X318200Y41100*X318030Y40630*X317890Y40150*X317790Y39660*X317730Y39160*X317710Y38660*X39800Y23660D2*X323260D1*D260*X301740Y182230D2*X308240D1*X301740Y180070D2*X308240D1*Y182250*X301740*Y180070*Y177230D2*X308240D1*X301740Y175070D2*X308240D1*Y177250*X301740*Y175070*Y172230D2*X308240D1*X301740Y170070D2*X308240D1*Y172250*X301740*Y170070*Y167230D2*X308240D1*X301740Y165070D2*X308240D1*Y167250*X301740*Y165070*Y162230D2*X308240D1*X301740Y160070D2*X308240D1*Y162250*X301740*Y160070*Y157230D2*X308240D1*X301740Y155070D2*X308240D1*Y157250*X301740*Y155070*Y152230D2*X308240D1*X301740Y150070D2*X308240D1*Y152250*X301740*Y150070*Y147230D2*X308240D1*X301740Y145070D2*X308240D1*Y147250*X301740*Y145070*Y142230D2*X308240D1*X301740Y140070D2*X308240D1*Y142250*X301740*Y140070*Y137230D2*X308240D1*X301740Y135070D2*X308240D1*Y137250*X301740*Y135070*Y132230D2*X308240D1*X301740Y130070D2*X308240D1*Y132250*X301740*Y130070*Y127230D2*X308240D1*X301740Y125070D2*X308240D1*Y127250*X301740*Y125070*Y122230D2*X308240D1*X301740Y120070D2*X308240D1*Y122250*X301740*Y120070*Y117230D2*X308240D1*X301740Y115070D2*X308240D1*Y117250*X301740*Y115070*Y112230D2*X308240D1*X301740Y110070D2*X308240D1*Y112250*X301740*Y110070*Y107230D2*X308240D1*X301740Y105070D2*X308240D1*Y107250*X301740*Y105070*Y102230D2*X308240D1*X301740Y100070D2*X308240D1*Y102250*X301740*Y100070*Y97230D2*X308240D1*X301740Y95070D2*X308240D1*Y97250*X301740*Y95070*Y92230D2*X308240D1*X301740Y90070D2*X308240D1*Y92250*X301740*Y90070*Y87230D2*X308240D1*X301740Y85070D2*X308240D1*Y87250*X301740*Y85070*Y82230D2*X308240D1*X301740Y80070D2*X308240D1*Y82250*X301740*Y80070*Y77230D2*X308240D1*X301740Y75070D2*X308240D1*Y77250*X301740*Y75070*Y72230D2*X308240D1*X301740Y70070D2*X308240D1*Y72250*X301740*Y70070*Y67230D2*X308240D1*X301740Y65070D2*X308240D1*Y67250*X301740*Y65070*D262*X32240Y60030D2*X30860D1*X29550Y59550D2*X33550D1*X34190Y59060D2*X28910D1*X28460Y58580D2*X34640D1*X34970Y58090D2*X28120D1*X30950Y52270D2*X32150D1*X33530Y52760D2*X29570D1*X28920Y53240D2*X34180D1*X34640Y53730D2*X28460D1*X28130Y54210D2*X34970D1*X35200Y54700D2*X27900D1*X27750Y55180D2*X35350D1*X35440Y55670D2*X27660D1*X27610Y56150D2*X35490D1*X35440Y56640D2*X27650D1*X27750Y57120D2*X35350D1*X35200Y57610D2*X27900D1*X35250Y57500D2*X34960Y58120D1*X34570Y58690*X34080Y59170*X33520Y59570*X32900Y59860*X32230Y60030*X31550Y60090*X30870Y60030*X30200Y59860*X29580Y59570*X29020Y59170*X28530Y58690*X28140Y58120*X27850Y57500*X27670Y56840*X27610Y56160*X27670Y55470*X27850Y54810*X28140Y54190*X28530Y53630*X29020Y53140*X29580Y52750*X30200Y52460*X30870Y52280*X31550Y52220*X32230Y52280*X32900Y52460*X33520Y52750*X34080Y53140*X34570Y53630*X34960Y54190*X35250Y54810*X35430Y55470*X35490Y56160*X35430Y56840*X35250Y57500*X332120Y183710D2*X325980D1*X326440Y183220D2*X331660D1*X331000Y182740D2*X327100D1*X328670Y182250D2*X329420D1*X328370Y182280D2*X329050Y182220D1*X329730Y182280*X330400Y182460*X331020Y182750*X331580Y183140*X332070Y183630*X332460Y184190*X329810Y190010D2*X328290D1*X327030Y189530D2*X331070D1*X331710Y189040D2*X326390D1*X325940Y188560D2*X332160D1*X332480Y188070D2*X325620D1*X325390Y187590D2*X332710D1*X332860Y187100D2*X325240D1*X325150Y186620D2*X332950D1*X332980Y186130D2*X325110D1*X325160Y185650D2*X332940D1*X332840Y185160D2*X325260D1*X325410Y184680D2*X332690D1*X325640Y184190D2*X332460D1*X332750Y184810*X332930Y185470*X332990Y186160*X332930Y186840*X332750Y187500*X332460Y188120*X332070Y188690*X331580Y189170*X331020Y189570*X330400Y189860*X329730Y190030*X329050Y190090*X328370Y190030*X327700Y189860*X327080Y189570*X326520Y189170*X326030Y188690*X325640Y188120*X325350Y187500*X325170Y186840*X325110Y186160*X325170Y185470*X325350Y184810*X325640Y184190*X326030Y183630*X326520Y183140*X327080Y182750*X327700Y182460*X328370Y182280*D263*X28100Y157340D2*X33130D1*X33720Y157720D2*X27510D1*X27150Y158100D2*X34080D1*X32820Y162260D2*X28410D1*X27630Y161880D2*X33590D1*X33990Y161500D2*X27240D1*X26980Y161130D2*X34250D1*X34420Y160750D2*X26810D1*X26710Y160370D2*X34510D1*X26680Y159990D2*X26720Y160460D1*X26860Y160900*X27080Y161310*X27370Y161660*X27730Y161960*X28140Y162180*X28580Y162310*X29040Y162360*X32190*X32650Y162310*X33090Y162180*X33500Y161960*X33860Y161660*X34150Y161310*X34370Y160900*X34510Y160460*X34550Y159990*X26680Y159610D2*X34550D1*X34530Y159230D2*X26700D1*X26780Y158850D2*X34450D1*X34310Y158470D2*X26920D1*X34370Y158600D2*X34510Y159040D1*X34550Y159500*Y159990*X26680*Y159500*X26720Y159040*X26860Y158600*X27080Y158190*X27370Y157830*X27730Y157540*X28140Y157320*X28580Y157190*X29040Y157140*X32190*X32650Y157190*X33090Y157320*X33500Y157540*X33860Y157830*X34150Y158190*X34370Y158600*X44610Y154310D2*X44240Y154510D1*X43830Y154640*X43410Y154680*X42430*X42000Y154640*X41600Y154510*X41220Y154310*X45040Y153930D2*X40800D1*X40540Y153550D2*X45300D1*X45460Y153170D2*X40370D1*X40290Y152790D2*X45550D1*X45580Y152420D2*X40260D1*X40290Y152040D2*X45550D1*X45460Y151660D2*X40370D1*X40540Y151280D2*X45300D1*X45030Y150900D2*X40800D1*X44610Y150520D2*X44940Y150790D1*X45210Y151110*X45410Y151490*X45530Y151900*X45580Y152320*Y152510*X45530Y152940*X45410Y153340*X45210Y153720*X44940Y154050*X44610Y154310*X44620D2*X41220D1*X40890Y154050*X40630Y153720*X40430Y153340*X40300Y152940*X40260Y152510*Y152320*X40300Y151900*X40430Y151490*X40630Y151110*X40890Y150790*X41220Y150520*X42430Y150150D2*X43410D1*X43830Y150190*X44240Y150320*X44610Y150520*X44620D2*X41220D1*X41600Y150320*X42000Y150190*X42430Y150150*X43990Y132720D2*X41840D1*X41400Y136890D2*X44440D1*X44950Y136510D2*X40880D1*X40590Y136130D2*X45250D1*X45430Y135750D2*X40400D1*X40300Y135370D2*X45540D1*X45580Y134990D2*X40260D1*X40280Y134620D2*X45560D1*X45490Y134240D2*X40340D1*X40480Y133860D2*X45350D1*X45120Y133480D2*X40720D1*X41100Y133100D2*X44740D1*X41220Y133000D2*X40890Y133270D1*X40630Y133590*X40430Y133970*X40300Y134380*X40260Y134800*Y134990*X40300Y135420*X40430Y135820*X40630Y136200*X40890Y136530*X41220Y136800*X41600Y137000*X42000Y137120*X42430Y137160*X43410*X43830Y137120*X44240Y137000*X44610Y136800*X44940Y136530*X45210Y136200*X45410Y135820*X45530Y135420*X45580Y134990*Y134800*X45530Y134380*X45410Y133970*X45210Y133590*X44940Y133270*X44610Y133000*X44240Y132800*X43830Y132670*X43410Y132630*X42430*X42000Y132670*X41600Y132800*X41220Y133000*X28110Y125150D2*X33120D1*X32830Y130070D2*X28400D1*X27630Y129690D2*X33600D1*X34000Y129310D2*X27230D1*X26980Y128940D2*X34250D1*X34420Y128560D2*X26810D1*X26710Y128180D2*X34520D1*X34550Y127800D2*X26680D1*Y127420D2*X34550D1*X34520Y127040D2*X26700D1*X26780Y126660D2*X34450D1*X34300Y126280D2*X26930D1*X27160Y125910D2*X34070D1*X33710Y125530D2*X27520D1*X33500Y125350D2*X33860Y125650D1*X34150Y126010*X34370Y126410*X34510Y126860*X34550Y127320*Y127810*X34510Y128270*X34370Y128710*X34150Y129120*X33860Y129480*X33500Y129770*X33090Y129990*X32650Y130130*X32190Y130170*X29040*X28580Y130130*X28140Y129990*X27730Y129770*X27370Y129480*X27080Y129120*X26860Y128710*X26720Y128270*X26680Y127810*Y127320*X26720Y126860*X26860Y126410*X27080Y126010*X27370Y125650*X27730Y125350*X28140Y125140*X28580Y125000*X29040Y124960*X32190*X32650Y125000*X33090Y125140*X33500Y125350*X91810Y29720D2*X97020D1*Y30090D2*X91810D1*Y30470D2*X97020D1*Y30850D2*X91810D1*Y31230D2*X97020D1*Y31610D2*X91810D1*Y31990D2*X97020D1*X97000Y32370D2*X91820D1*X91880Y32740D2*X96950D1*X96830Y33120D2*X92000D1*X96620Y33500D2*X96840Y33090D1*X96980Y32650*X97020Y32190*Y29040*X91810Y29340D2*X97020D1*X94740Y26690D2*X94090D1*X92880Y27060D2*X95950D1*X96390Y27440D2*X92440D1*X92150Y27820D2*X96670D1*X96860Y28200D2*X91970D1*X97020Y29040D2*X96980Y28580D1*X91810Y28960D2*X97010D1*X91850Y28580D2*X91990Y28140D1*X92200Y27730*X92500Y27370*X92860Y27080*X93260Y26860*X93710Y26720*X94170Y26680*X94660*X95120Y26720*X95560Y26860*X95970Y27080*X96330Y27370*X96620Y27730*X96840Y28140*X96980Y28580*X91850*X91810Y29040*Y32190*X91850Y32650*X91990Y33090*X92200Y33500*X96300Y33880D2*X92520D1*X93050Y34260D2*X95770D1*X92860Y34150D2*X92500Y33860D1*X92200Y33500*X96620*X96330Y33860*X95970Y34150*X95560Y34370*X95120Y34510*X94660Y34550*X94170*X93710Y34510*X93260Y34370*X92860Y34150*X91070Y39940D2*X89190D1*X88600Y40320D2*X91660D1*X92000Y40700D2*X88260D1*X89100Y44860D2*X91160D1*X91720Y44480D2*X88550D1*X88230Y44110D2*X92040D1*X92240Y43730D2*X88030D1*X87910Y43350D2*X92350D1*X92390Y42970D2*X87870D1*Y42590D2*X92400D1*Y42210D2*X87870D1*X87880Y41830D2*X92390D1*X92340Y41460D2*X87930D1*X88050Y41080D2*X92220D1*X88030Y41100D2*X88230Y40730D1*X88500Y40400*X88830Y40130*X89210Y39930*X89610Y39810*X90030Y39770*X90230*X90650Y39810*X91060Y39930*X91430Y40130*X91760Y40400*X92030Y40730*X92230Y41100*X92350Y41510*X92400Y41930*Y42920*X92350Y43340*X92230Y43750*X92030Y44120*X91760Y44450*X91430Y44720*X91060Y44920*X90650Y45040*X90230Y45080*X90030*X89610Y45040*X89210Y44920*X88830Y44720*X88500Y44450*X88230Y44120*X88030Y43750*X87910Y43340*X87870Y42920*Y41930*X87910Y41510*X88030Y41100*X64870Y33880D2*X68650D1*X68120Y34260D2*X65400D1*X67460Y34510D2*X67000Y34550D1*X66510*X66050Y34510*X65610Y34370*X65200Y34150*X64840Y33860*X64550Y33500*X66430Y26690D2*X67080D1*X68290Y27060D2*X65220D1*X64780Y27440D2*X68730D1*X69020Y27820D2*X64500D1*X64310Y28200D2*X69200D1*X64190Y28580D2*X64330Y28140D1*X64550Y27730*X64840Y27370*X65200Y27080*X65610Y26860*X66050Y26720*X66510Y26680*X67000*X67460Y26720*X67910Y26860*X68310Y27080*X68670Y27370*X68970Y27730*X69180Y28140*X69320Y28580*X64160Y28960D2*X69360D1*Y29340D2*X64150D1*Y29720D2*X69360D1*Y30090D2*X64150D1*Y30470D2*X69360D1*Y30850D2*X64150D1*Y31230D2*X69360D1*Y31610D2*X64150D1*Y31990D2*X69360D1*X69350Y32370D2*X64170D1*X64220Y32740D2*X69290D1*X69170Y33120D2*X64340D1*X68970Y33500D2*X64550D1*X64330Y33090*X64190Y32650*X64150Y32190*Y29040*X64190Y28580*X69320*X69360Y29040*Y32190*X69320Y32650*X69180Y33090*X68970Y33500*X68670Y33860*X68310Y34150*X67910Y34370*X67460Y34510*X72070Y44860D2*X70010D1*X69450Y44480D2*X72620D1*X72940Y44110D2*X69130D1*X70100Y39940D2*X71980D1*X72570Y40320D2*X69510D1*X69170Y40700D2*X72910D1*X73120Y41080D2*X68950D1*X68830Y41460D2*X73240D1*X73290Y41830D2*X68780D1*X68770Y42210D2*X73300D1*Y42590D2*X68770D1*X68780Y42970D2*X73300D1*X73260Y43350D2*X68820D1*X68930Y43730D2*X73140D1*X68940Y43750D2*X68820Y43340D1*X68770Y42920*Y41930*X68820Y41510*X68940Y41100*X69140Y40730*X69410Y40400*X69740Y40130*X70110Y39930*X70520Y39810*X70940Y39770*X71140*X71560Y39810*X71960Y39930*X72340Y40130*X72670Y40400*X72940Y40730*X73140Y41100*X73260Y41510*X73300Y41930*Y42920*X73260Y43340*X73140Y43750*X72940Y44120*X72670Y44450*X72340Y44720*X71960Y44920*X71560Y45040*X71140Y45080*X70940*X70520Y45040*X70110Y44920*X69740Y44720*X69410Y44450*X69140Y44120*X68940Y43750*D253*X39050Y205510D3*Y38660D3*X324010D3*Y205510D3*D254*X329050Y173660D3*X247950Y60700D3*X59930Y78580D3*Y128730D3*D255*X247950Y60700D3*X329050Y173660D3*D256*X209050Y211160D3*X299050Y201160D3*X209050Y31160D3*D257*X199050Y31160D3*X189050D3*X179050D3*X169050D3*X159050D3*X149050D3*Y41160D3*X159050D3*X169050D3*X179050D3*X189050D3*X199050D3*X209050D3*X289050Y201160D3*X299050Y211160D3*X289050D3*X199050D3*D258*X65300Y156780D3*X49050Y53660D3*D259*X289050Y66160D3*Y176160D3*D261*X304990Y61160D3*X0Y0D2*M02*