G04 Output by ViewMate Deluxe V11.12.18  PentaLogix*
G04 Wed Mar 06 15:24:07 2019*
%IPPOS*%
%FSLAX25Y25*%
%MOIN*%
%ADD10C,0.0*%
%ADD228C,0.06*%
%ADD229C,0.0591*%
%ADD230C,0.012*%
%ADD231C,0.0354*%
%ADD232C,0.016*%
%ADD233C,0.024*%
%ADD234C,0.01*%
%ADD235C,0.025*%
%ADD236C,0.008*%

%LPD*%
X0Y0D2*D10*G1X286490Y176160D2*X286510Y175850D1*X286570Y175540*X286660Y175240*X286790Y174950*X286960Y174680*X287160Y174440*X287380Y174220*X287640Y174030*X287910Y173870*X288200Y173750*X288500Y173660*X288810Y173610*X289130Y173600*X289440Y173630*X289750Y173700*X290050Y173800*X290330Y173940*X290590Y174120*X290830Y174320*X291040Y174560*X291230Y174810*X291380Y175090*X291490Y175380*X291570Y175690*X291610Y176000*Y176320*X291570Y176630*X291490Y176940*X291380Y177230*X291230Y177510*X291040Y177760*X290830Y178000*X290590Y178200*X290330Y178380*X290050Y178520*X289750Y178620*X289440Y178690*X289130Y178720*X288810Y178710*X288500Y178660*X288200Y178570*X287910Y178450*X287640Y178290*X287380Y178100*X287160Y177880*X286960Y177640*X286790Y177370*X286660Y177080*X286570Y176780*X286510Y176470*X286490Y176160*X325110Y173660D2*X325130Y173270D1*X325190Y172880*X325290Y172500*X325420Y172130*X325590Y171780*X325790Y171440*X326030Y171130*X326300Y170840*X326590Y170580*X326910Y170350*X327250Y170150*X327610Y169990*X327980Y169870*X328370Y169780*X328760Y169730*X329150Y169720*X329540Y169750*X329930Y169820*X330300Y169930*X330670Y170070*X331020Y170250*X331350Y170460*X331660Y170710*X331940Y170980*X332190Y171280*X332410Y171610*X332600Y171950*X332750Y172310*X332870Y172690*X332950Y173070*X332990Y173460*Y173860*X332950Y174250*X332870Y174630*X332750Y175010*X332600Y175370*X332410Y175710*X332190Y176040*X331940Y176340*X331660Y176610*X331350Y176860*X331020Y177070*X330670Y177250*X330300Y177390*X329930Y177500*X329540Y177570*X329150Y177600*X328760Y177590*X328370Y177540*X327980Y177450*X327610Y177330*X327250Y177170*X326910Y176970*X326590Y176740*X326300Y176480*X326030Y176190*X325790Y175880*X325590Y175540*X325420Y175190*X325290Y174820*X325190Y174440*X325130Y174050*X325110Y173660*X286490Y66160D2*X286510Y65850D1*X286570Y65540*X286660Y65240*X286790Y64950*X286960Y64680*X287160Y64440*X287380Y64220*X287640Y64030*X287910Y63870*X288200Y63750*X288500Y63660*X288810Y63610*X289130Y63600*X289440Y63630*X289750Y63700*X290050Y63800*X290330Y63940*X290590Y64120*X290830Y64320*X291040Y64560*X291230Y64810*X291380Y65090*X291490Y65380*X291570Y65690*X291610Y66000*Y66320*X291570Y66630*X291490Y66940*X291380Y67230*X291230Y67510*X291040Y67760*X290830Y68000*X290590Y68200*X290330Y68380*X290050Y68520*X289750Y68620*X289440Y68690*X289130Y68720*X288810Y68710*X288500Y68660*X288200Y68570*X287910Y68450*X287640Y68290*X287380Y68100*X287160Y67880*X286960Y67640*X286790Y67370*X286660Y67080*X286570Y66780*X286510Y66470*X286490Y66160*X244010Y60700D2*X244030Y60310D1*X244090Y59920*X244190Y59540*X244320Y59170*X244490Y58820*X244690Y58480*X244930Y58170*X245200Y57880*X245490Y57620*X245810Y57390*X246150Y57190*X246510Y57030*X246880Y56910*X247270Y56820*X247660Y56770*X248050Y56760*X248440Y56790*X248830Y56860*X249200Y56970*X249570Y57110*X249920Y57290*X250250Y57500*X250560Y57750*X250840Y58020*X251090Y58320*X251310Y58650*X251500Y58990*X251650Y59350*X251770Y59730*X251850Y60110*X251890Y60500*Y60900*X251850Y61290*X251770Y61670*X251650Y62050*X251500Y62410*X251310Y62750*X251090Y63080*X250840Y63380*X250560Y63650*X250250Y63900*X249920Y64110*X249570Y64290*X249200Y64430*X248830Y64540*X248440Y64610*X248050Y64640*X247660Y64630*X247270Y64580*X246880Y64490*X246510Y64370*X246150Y64210*X245810Y64010*X245490Y63780*X245200Y63520*X244930Y63230*X244690Y62920*X244490Y62580*X244320Y62230*X244190Y61860*X244090Y61480*X244030Y61090*X244010Y60700*X39800Y220510D2*X38610Y220050D1*X37440Y219520*X36300Y218940*X35190Y218310*X34120Y217620*X33070Y216890*X32070Y216100*X31100Y215260*X30180Y214380*X29300Y213460*X28460Y212490*X27670Y211490*X26940Y210440*X26250Y209370*X25620Y208260*X25040Y207120*X24510Y205950*X24050Y204760*X55990Y128730D2*X56010Y128340D1*X56070Y127950*X56170Y127570*X56300Y127200*X56470Y126850*X56670Y126510*X56910Y126200*X57180Y125910*X57470Y125650*X57790Y125420*X58130Y125220*X58490Y125060*X58860Y124940*X59250Y124850*X59640Y124800*X60030Y124790*X60420Y124820*X60810Y124890*X61180Y125000*X61550Y125140*X61900Y125320*X62230Y125530*X62540Y125780*X62820Y126050*X63070Y126350*X63290Y126680*X63480Y127020*X63630Y127380*X63750Y127760*X63830Y128140*X63870Y128530*Y128930*X63830Y129320*X63750Y129700*X63630Y130080*X63480Y130440*X63290Y130780*X63070Y131110*X62820Y131410*X62540Y131680*X62230Y131930*X61900Y132140*X61550Y132320*X61180Y132460*X60810Y132570*X60420Y132640*X60030Y132670*X59640Y132660*X59250Y132610*X58860Y132520*X58490Y132400*X58130Y132240*X57790Y132040*X57470Y131810*X57180Y131550*X56910Y131260*X56670Y130950*X56470Y130610*X56300Y130260*X56170Y129890*X56070Y129510*X56010Y129120*X55990Y128730*Y78580D2*X56010Y78190D1*X56070Y77800*X56170Y77420*X56300Y77050*X56470Y76700*X56670Y76360*X56910Y76050*X57180Y75760*X57470Y75500*X57790Y75270*X58130Y75070*X58490Y74910*X58860Y74790*X59250Y74700*X59640Y74650*X60030Y74640*X60420Y74670*X60810Y74740*X61180Y74850*X61550Y74990*X61900Y75170*X62230Y75380*X62540Y75630*X62820Y75900*X63070Y76200*X63290Y76530*X63480Y76870*X63630Y77230*X63750Y77610*X63830Y77990*X63870Y78380*Y78780*X63830Y79170*X63750Y79550*X63630Y79930*X63480Y80290*X63290Y80630*X63070Y80960*X62820Y81260*X62540Y81530*X62230Y81780*X61900Y81990*X61550Y82170*X61180Y82310*X60810Y82420*X60420Y82490*X60030Y82520*X59640Y82510*X59250Y82460*X58860Y82370*X58490Y82250*X58130Y82090*X57790Y81890*X57470Y81660*X57180Y81400*X56910Y81110*X56670Y80800*X56470Y80460*X56300Y80110*X56170Y79740*X56070Y79360*X56010Y78970*X55990Y78580*X39800Y23660D2*X38610Y24120D1*X37440Y24650*X36300Y25230*X35190Y25860*X34120Y26550*X33070Y27280*X32070Y28070*X31100Y28910*X30180Y29790*X29300Y30710*X28460Y31680*X27670Y32680*X26940Y33730*X26250Y34800*X25620Y35910*X25040Y37050*X24510Y38220*X24050Y39410*X32750Y38660D2*X32770Y38160D1*X32830Y37660*X32930Y37170*X33070Y36690*X33240Y36220*X33450Y35770*X33700Y35330*X33980Y34920*X34300Y34530*X34640Y34160*X35010Y33820*X35410Y33520*X35830Y33250*X36270Y33010*X36730Y32800*X37200Y32640*X37680Y32510*X38180Y32420*X38670Y32370*X39180Y32360*X39680Y32390*X40170Y32460*X40660Y32570*X41140Y32720*X41600Y32900*X42050Y33120*X42480Y33380*X42890Y33670*X43280Y33990*X43640Y34340*X43960Y34720*X44260Y35120*X44530Y35550*X44760Y35990*X44950Y36450*X45110Y36930*X45230Y37420*X45310Y37910*X45350Y38410*Y38910*X45310Y39410*X45230Y39900*X45110Y40390*X44950Y40870*X44760Y41330*X44530Y41770*X44260Y42200*X43960Y42600*X43640Y42980*X43280Y43330*X42890Y43650*X42480Y43940*X42050Y44200*X41600Y44420*X41140Y44600*X40660Y44750*X40170Y44860*X39680Y44930*X39180Y44960*X38670Y44950*X38180Y44900*X37680Y44810*X37200Y44680*X36730Y44520*X36270Y44310*X35830Y44070*X35410Y43800*X35010Y43500*X34640Y43160*X34300Y42790*X33980Y42400*X33700Y41990*X33450Y41550*X33240Y41100*X33070Y40630*X32930Y40150*X32830Y39660*X32770Y39160*X32750Y38660*X24050Y204760D2*Y39400D1*X32750Y205510D2*X32770Y205010D1*X32830Y204510*X32930Y204020*X33070Y203540*X33240Y203070*X33450Y202620*X33700Y202180*X33980Y201770*X34300Y201380*X34640Y201010*X35010Y200670*X35410Y200370*X35830Y200100*X36270Y199860*X36730Y199650*X37200Y199490*X37680Y199360*X38180Y199270*X38670Y199220*X39180Y199210*X39680Y199240*X40170Y199310*X40660Y199420*X41140Y199570*X41600Y199750*X42050Y199970*X42480Y200230*X42890Y200520*X43280Y200840*X43640Y201190*X43960Y201570*X44260Y201970*X44530Y202400*X44760Y202840*X44950Y203300*X45110Y203780*X45230Y204270*X45310Y204760*X45350Y205260*Y205760*X45310Y206260*X45230Y206750*X45110Y207240*X44950Y207720*X44760Y208180*X44530Y208620*X44260Y209050*X43960Y209450*X43640Y209830*X43280Y210180*X42890Y210500*X42480Y210790*X42050Y211050*X41600Y211270*X41140Y211450*X40660Y211600*X40170Y211710*X39680Y211780*X39180Y211810*X38670Y211800*X38180Y211750*X37680Y211660*X37200Y211530*X36730Y211370*X36270Y211160*X35830Y210920*X35410Y210650*X35010Y210350*X34640Y210010*X34300Y209640*X33980Y209250*X33700Y208840*X33450Y208400*X33240Y207950*X33070Y207480*X32930Y207000*X32830Y206510*X32770Y206010*X32750Y205510*X323260Y220510D2*X39800D1*X339010Y204760D2*X338550Y205950D1*X338020Y207120*X337440Y208260*X336810Y209370*X336120Y210440*X335390Y211490*X334600Y212490*X333760Y213460*X332880Y214380*X331960Y215260*X330990Y216100*X329990Y216890*X328940Y217620*X327870Y218310*X326760Y218940*X325620Y219520*X324450Y220050*X323260Y220510*X317710Y205510D2*X317730Y205010D1*X317790Y204510*X317890Y204020*X318030Y203540*X318200Y203070*X318410Y202620*X318660Y202180*X318940Y201770*X319260Y201380*X319600Y201010*X319970Y200670*X320370Y200370*X320790Y200100*X321230Y199860*X321690Y199650*X322160Y199490*X322640Y199360*X323140Y199270*X323630Y199220*X324140Y199210*X324640Y199240*X325130Y199310*X325620Y199420*X326100Y199570*X326560Y199750*X327010Y199970*X327440Y200230*X327850Y200520*X328240Y200840*X328600Y201190*X328920Y201570*X329220Y201970*X329490Y202400*X329720Y202840*X329910Y203300*X330070Y203780*X330190Y204270*X330270Y204760*X330310Y205260*Y205760*X330270Y206260*X330190Y206750*X330070Y207240*X329910Y207720*X329720Y208180*X329490Y208620*X329220Y209050*X328920Y209450*X328600Y209830*X328240Y210180*X327850Y210500*X327440Y210790*X327010Y211050*X326560Y211270*X326100Y211450*X325620Y211600*X325130Y211710*X324640Y211780*X324140Y211810*X323630Y211800*X323140Y211750*X322640Y211660*X322160Y211530*X321690Y211370*X321230Y211160*X320790Y210920*X320370Y210650*X319970Y210350*X319600Y210010*X319260Y209640*X318940Y209250*X318660Y208840*X318410Y208400*X318200Y207950*X318030Y207480*X317890Y207000*X317790Y206510*X317730Y206010*X317710Y205510*X339010Y39400D2*Y204760D1*Y39410D2*X338550Y38220D1*X338020Y37050*X337440Y35910*X336810Y34800*X336120Y33730*X335390Y32680*X334600Y31680*X333760Y30710*X332880Y29790*X331960Y28910*X330990Y28070*X329990Y27280*X328940Y26550*X327870Y25860*X326760Y25230*X325620Y24650*X324450Y24120*X323260Y23660*X317710Y38660D2*X317730Y38160D1*X317790Y37660*X317890Y37170*X318030Y36690*X318200Y36220*X318410Y35770*X318660Y35330*X318940Y34920*X319260Y34530*X319600Y34160*X319970Y33820*X320370Y33520*X320790Y33250*X321230Y33010*X321690Y32800*X322160Y32640*X322640Y32510*X323140Y32420*X323630Y32370*X324140Y32360*X324640Y32390*X325130Y32460*X325620Y32570*X326100Y32720*X326560Y32900*X327010Y33120*X327440Y33380*X327850Y33670*X328240Y33990*X328600Y34340*X328920Y34720*X329220Y35120*X329490Y35550*X329720Y35990*X329910Y36450*X330070Y36930*X330190Y37420*X330270Y37910*X330310Y38410*Y38910*X330270Y39410*X330190Y39900*X330070Y40390*X329910Y40870*X329720Y41330*X329490Y41770*X329220Y42200*X328920Y42600*X328600Y42980*X328240Y43330*X327850Y43650*X327440Y43940*X327010Y44200*X326560Y44420*X326100Y44600*X325620Y44750*X325130Y44860*X324640Y44930*X324140Y44960*X323630Y44950*X323140Y44900*X322640Y44810*X322160Y44680*X321690Y44520*X321230Y44310*X320790Y44070*X320370Y43800*X319970Y43500*X319600Y43160*X319260Y42790*X318940Y42400*X318660Y41990*X318410Y41550*X318200Y41100*X318030Y40630*X317890Y40150*X317790Y39660*X317730Y39160*X317710Y38660*X39800Y23660D2*X323260D1*D230*X93970Y33570D2*X93770Y33550D1*X93570Y33500*X93380Y33410*X93210Y33290*X93070Y33150*X92950Y32980*X92860Y32790*X92810Y32590*X92790Y32390*Y28840*X92810Y28640*X92860Y28440*X92950Y28250*X93070Y28080*X93210Y27940*X93380Y27820*X93570Y27730*X93770Y27680*X93970Y27660*X94860*X95060Y27680*X95260Y27730*X95450Y27820*X95620Y27940*X95760Y28080*X95880Y28250*X95970Y28440*X96020Y28640*X96040Y28840*Y32390*X96020Y32590*X95970Y32790*X95880Y32980*X95760Y33150*X95620Y33290*X95450Y33410*X95260Y33500*X95060Y33550*X94860Y33570*X93970*X88860Y41740D2*X88870Y41570D1*X88920Y41400*X88990Y41250*X89090Y41110*X89210Y40990*X89350Y40890*X89500Y40820*X89670Y40770*X89840Y40760*X90430Y40750D2*X89840D1*X90430Y40760D2*X90600Y40770D1*X90770Y40820*X90920Y40890*X91060Y40990*X91180Y41110*X91280Y41250*X91350Y41400*X91400Y41570*X91410Y41740*Y43110*X91400Y43280*X91350Y43450*X91280Y43600*X91180Y43740*X91060Y43860*X90920Y43960*X90770Y44030*X90600Y44080*X90430Y44090*X89840Y44100D2*X90430D1*X89840Y44090D2*X89670Y44080D1*X89500Y44030*X89350Y43960*X89210Y43860*X89090Y43740*X88990Y43600*X88920Y43450*X88870Y43280*X88860Y43110*X88850Y41740D2*Y43110D1*X67200Y33570D2*X67400Y33550D1*X67600Y33500*X67790Y33410*X67960Y33290*X68100Y33150*X68220Y32980*X68310Y32790*X68360Y32590*X68380Y32390*Y28840*X68360Y28640*X68310Y28440*X68220Y28250*X68100Y28080*X67960Y27940*X67790Y27820*X67600Y27730*X67400Y27680*X67200Y27660*X66310*X66110Y27680*X65910Y27730*X65720Y27820*X65550Y27940*X65410Y28080*X65290Y28250*X65200Y28440*X65150Y28640*X65130Y28840*Y32390*X65150Y32590*X65200Y32790*X65290Y32980*X65410Y33150*X65550Y33290*X65720Y33410*X65910Y33500*X66110Y33550*X66310Y33570*X67200*X70740Y44090D2*X70570Y44080D1*X70400Y44030*X70250Y43960*X70110Y43860*X69990Y43740*X69890Y43600*X69820Y43450*X69770Y43280*X69760Y43110*Y41740*X69770Y41570*X69820Y41400*X69890Y41250*X69990Y41110*X70110Y40990*X70250Y40890*X70400Y40820*X70570Y40770*X70740Y40760*X71330Y40750D2*X70740D1*X71330Y40760D2*X71500Y40770D1*X71670Y40820*X71820Y40890*X71960Y40990*X72080Y41110*X72180Y41250*X72250Y41400*X72300Y41570*X72310Y41740*X72320Y43110D2*Y41740D1*X72310Y43110D2*X72300Y43280D1*X72250Y43450*X72180Y43600*X72080Y43740*X71960Y43860*X71820Y43960*X71670Y44030*X71500Y44080*X71330Y44090*X70740Y44100D2*X71330D1*X32390Y129190D2*X32590Y129170D1*X32790Y129120*X32980Y129030*X33150Y128910*X33290Y128770*X33410Y128600*X33500Y128410*X33550Y128210*X33570Y128010*Y127120*X33550Y126920*X33500Y126720*X33410Y126530*X33290Y126360*X33150Y126220*X32980Y126100*X32790Y126010*X32590Y125960*X32390Y125940*X28840*X28640Y125960*X28440Y126010*X28250Y126100*X28080Y126220*X27940Y126360*X27820Y126530*X27730Y126720*X27680Y126920*X27660Y127120*Y128010*X27680Y128210*X27730Y128410*X27820Y128600*X27940Y128770*X28080Y128910*X28250Y129030*X28440Y129120*X28640Y129170*X28840Y129190*X32390*X42230Y136170D2*X42060Y136160D1*X41890Y136110*X41740Y136040*X41600Y135940*X41480Y135820*X41380Y135680*X41310Y135530*X41260Y135360*X41250Y135190*X41240Y134600D2*Y135190D1*X41250Y134600D2*X41260Y134430D1*X41310Y134260*X41380Y134110*X41480Y133970*X41600Y133850*X41740Y133750*X41890Y133680*X42060Y133630*X42230Y133620*X43610*X43780Y133630*X43950Y133680*X44100Y133750*X44240Y133850*X44360Y133970*X44460Y134110*X44530Y134260*X44580Y134430*X44590Y134600*Y135190*X44580Y135360*X44530Y135530*X44460Y135680*X44360Y135820*X44240Y135940*X44100Y136040*X43950Y136110*X43780Y136160*X43610Y136170*X42230Y136180D2*X43610D1*X33570Y159310D2*X33550Y159110D1*X33500Y158910*X33410Y158720*X33290Y158550*X33150Y158410*X32980Y158290*X32790Y158200*X32590Y158150*X32390Y158130*X28840Y158120D2*X32390D1*X28840Y158130D2*X28640Y158150D1*X28440Y158200*X28250Y158290*X28080Y158410*X27940Y158550*X27820Y158720*X27730Y158910*X27680Y159110*X27660Y159310*Y160190*X27680Y160390*X27730Y160590*X27820Y160780*X27940Y160950*X28080Y161090*X28250Y161210*X28440Y161300*X28640Y161350*X28840Y161370*X32390*X32590Y161350*X32790Y161300*X32980Y161210*X33150Y161090*X33290Y160950*X33410Y160780*X33500Y160590*X33550Y160390*X33570Y160190*Y159310*X44590Y152710D2*X44580Y152880D1*X44530Y153050*X44460Y153200*X44360Y153340*X44240Y153460*X44100Y153560*X43950Y153630*X43780Y153680*X43610Y153690*X42230Y153700D2*X43610D1*X42230Y153690D2*X42060Y153680D1*X41890Y153630*X41740Y153560*X41600Y153460*X41480Y153340*X41380Y153200*X41310Y153050*X41260Y152880*X41250Y152710*X41240Y152120D2*Y152710D1*X41250Y152120D2*X41260Y151950D1*X41310Y151780*X41380Y151630*X41480Y151490*X41600Y151370*X41740Y151270*X41890Y151200*X42060Y151150*X42230Y151140*X43610*X43780Y151150*X43950Y151200*X44100Y151270*X44240Y151370*X44360Y151490*X44460Y151630*X44530Y151780*X44580Y151950*X44590Y152120*Y152710*D232*X202800Y183660D2*X220300Y166160D1*X222800*D234*X282950Y138900D2*X286400D1*X285220Y137920D2*X284130D1*X284550Y136930D2*X284800D1*X284730Y135950D2*X284620D1*X284380Y134960D2*X284970D1*X285640Y133980D2*X283710D1*X290960D2*X289960D1*X337040Y127080D2*X290740D1*X290870Y126100D2*X337040D1*X281810Y105410D2*X284780D1*X284730Y106400D2*X282170D1*X282130Y107380D2*X284980D1*X270420Y113290D2*X252120D1*X251860Y114280D2*X269360D1*X269050Y115260D2*X251250D1*X266640Y116250D2*X269140D1*X251890D2*X265210D1*X263810Y117230D2*X252120D1*X252040Y118220D2*X263420D1*X280150Y138900D2*X227320D1*X226390Y137920D2*X278970D1*X217750Y121170D2*X224100D1*X223230Y120190D2*X218250D1*X218370Y119200D2*X222850D1*Y118220D2*X218180D1*X217590Y117230D2*X223190D1*X223990Y116250D2*X216000D1*X231170Y104430D2*X230190D1*X229580Y105410D2*X231720D1*X220560D2*X226020D1*X231720Y106400D2*X220920D1*X220880Y107380D2*X231720D1*Y108370D2*X220380D1*X236850Y115260D2*X235120D1*Y116250D2*X236210D1*X235980Y117230D2*X235120D1*Y118220D2*X236060D1*X236500Y119200D2*X235190D1*X237740Y120190D2*X236090D1*X248440Y128710D2*X249660D1*X250790Y129180*X263480Y133980D2*X251200D1*X251870Y132990D2*X263500D1*X263910Y132010D2*X252120D1*X252060Y131020D2*X264880D1*X250790Y129180D2*X251650Y130040D1*X286760Y129050D2*X250490D1*X289940D2*X288840D1*X337040Y128070D2*X290230D1*X294410Y129050D2*X337040D1*Y130040D2*X295040D1*X295250Y131020D2*X337040D1*Y132010D2*X295150D1*X294680Y132990D2*X337040D1*Y133980D2*X293390D1*X290630Y134960D2*X337040D1*Y135950D2*X290870D1*X290800Y136930D2*X337040D1*Y137920D2*X290380D1*X289200Y138900D2*X337040D1*X288410Y139230D2*X289540Y138760D1*X290400Y137900*X290870Y136770*Y135550*X290400Y134420*X289540Y133550*X288410Y133080*X287190*X286060Y133550*X285200Y134420*X284730Y135550*Y136770*X285200Y137900*X286060Y138760*X287190Y139230*X288410*X316210Y204900D2*X301260D1*X302380Y203910D2*X316230D1*X316640Y202930D2*X302970D1*X303350Y201940D2*X317050D1*X317530Y200960D2*X303350D1*X303210Y199970D2*X318520D1*X319500Y198990D2*X302810D1*X301980Y198000D2*X321750D1*X296120D2*X291980D1*X292810Y198990D2*X295290D1*X294890Y199970D2*X293210D1*X293350Y200960D2*X294750D1*Y201940D2*X293350D1*X292970Y202930D2*X295130D1*X295720Y203910D2*X292380D1*X291260Y204900D2*X296840D1*X198550Y214750D2*X199550D1*Y213760D2*X198550D1*Y212780D2*X199550D1*X194750Y209820D2*X191370D1*Y208840D2*X195180D1*X195990Y207850D2*X191370D1*X199550D2*X198550D1*Y208840D2*X199550D1*Y209820D2*X198550D1*X204950D2*X203350D1*X202920Y208840D2*X205360D1*X206270Y207850D2*X202110D1*X197470Y198990D2*X215630D1*X214970Y199970D2*X198130D1*X198370Y200960D2*X214730D1*X214800Y201940D2*X198300D1*X197870Y202930D2*X215230D1*X216430Y203910D2*X196670D1*X286270Y207850D2*X211830D1*X212740Y208840D2*X285360D1*X284950Y209820D2*X213150D1*X274000Y214750D2*X286560D1*X285570Y213760D2*X274000D1*X273630Y212780D2*X285070D1*X284750Y211790D2*X272780D1*X213350Y210810D2*X284750D1*X269070Y211790D2*X213350D1*X213030Y212780D2*X268220D1*X267850Y213760D2*X212530D1*X211540Y214750D2*X267850D1*X201760D2*X206560D1*X205570Y213760D2*X202720D1*X203250Y212780D2*X205070D1*X204750Y211790D2*X203510D1*X199550Y210810D2*X204750D1*X199550Y211660D2*X203530D1*X203440Y212210*X203220Y212880*X202900Y213510*X202480Y214090*X201980Y214590*X201410Y215000*X200780Y215330*X200100Y215550*X199550Y215630*Y211660*X198550Y211790D2*X199550D1*X191370Y210810D2*X198550D1*X194590Y211790D2*X191370D1*Y212780D2*X194840D1*X195380Y213760D2*X191370D1*Y214750D2*X196340D1*X268200Y215730D2*X191370D1*Y216720D2*X269020D1*X324100Y217700D2*X191370D1*X272830Y216720D2*X325080D1*X273530Y216020D2*X274000Y214890D1*Y213670*X273530Y212540*X272660Y211680*X271540Y211210*X270310*X269180Y211680*X268320Y212540*X267850Y213670*Y214890*X268320Y216020*X269180Y216890*X270310Y217350*X271540*X272660Y216890*X273530Y216020*X326070Y215730D2*X273650D1*X301540Y214750D2*X327050D1*X291540D2*X296560D1*X295570Y213760D2*X292530D1*X293030Y212780D2*X295070D1*X294750Y211790D2*X293350D1*Y210810D2*X294750D1*X294950Y209820D2*X293150D1*X292740Y208840D2*X295360D1*X296270Y207850D2*X291830D1*X289930Y206870D2*X298170D1*X288190Y206860D2*X286610Y207510D1*X285400Y208720*X284750Y210300*Y212010*X285400Y213590*X286610Y214800*X288190Y215460*X289910*X291490Y214800*X292700Y213590*X293350Y212010*Y210300*X292700Y208720*X291490Y207510*X289910Y206860*X288190*X209930Y206870D2*X288170D1*X208190Y206860D2*X206610Y207510D1*X205400Y208720*X204750Y210300*Y212010*X205400Y213590*X206610Y214800*X208190Y215460*X209910*X211490Y214800*X212700Y213590*X213350Y212010*Y210300*X212700Y208720*X211490Y207510*X209910Y206860*X208190*X200410Y206870D2*X208170D1*X199550Y206680D2*Y210660D1*X198550*Y211660*X194570*X194660Y212210*X194880Y212880*X195200Y213510*X195620Y214090*X196120Y214590*X196690Y215000*X197320Y215330*X198000Y215550*X198550Y215630*Y211660*X199550*Y210660*X203530*X203440Y210100*X203220Y209430*X202900Y208800*X202480Y208220*X201980Y207720*X201410Y207310*X200780Y206990*X200100Y206770*X199550Y206680*X198550Y206870D2*X199550D1*X198000Y206770D2*X197320Y206990D1*X196690Y207310*X196120Y207720*X195620Y208220*X195200Y208800*X194880Y209430*X194660Y210100*X194570Y210660*X198550*Y206680*X198000Y206770*X191370Y206870D2*X197690D1*X193930Y203910D2*X191370D1*Y202930D2*X192730D1*X192300Y201940D2*X191370D1*Y200960D2*X192230D1*X192470Y199970D2*X191370D1*X192700Y199420D2*X192230Y200550D1*Y201770*X192700Y202900*X193560Y203760*X194690Y204230*X195910*X197040Y203760*X197900Y202900*X198370Y201770*Y200550*X197900Y199420*X197040Y198550*X195910Y198080*X194690*X193560Y198550*X192700Y199420*X191370Y198990D2*X193130D1*X286120Y198000D2*X191370D1*X219970Y198990D2*X285290D1*X284890Y199970D2*X220630D1*X220870Y200960D2*X284750D1*Y201940D2*X220800D1*X220370Y202930D2*X285130D1*X219540Y203760D2*X220400Y202900D1*X220870Y201770*Y200550*X220400Y199420*X219540Y198550*X218410Y198080*X217190*X216060Y198550*X215200Y199420*X214730Y200550*Y201770*X215200Y202900*X216060Y203760*X217190Y204230*X218410*X219540Y203760*X285720Y203910D2*X219170D1*X191370Y204900D2*X286840D1*X316210Y205880D2*X191370D1*X299930Y206870D2*X316210D1*X316540Y207850D2*X301830D1*X302740Y208840D2*X316950D1*X317360Y209820D2*X303150D1*X303350Y210810D2*X318280D1*X319270Y211790D2*X303350D1*X303030Y212780D2*X321180D1*X302700Y213590D2*X303350Y212010D1*Y210300*X302700Y208720*X301490Y207510*X299910Y206860*X298190*X296610Y207510*X295400Y208720*X294750Y210300*Y212010*X295400Y213590*X296610Y214800*X298190Y215460*X299910*X301490Y214800*X302700Y213590*X328040Y213760D2*X302530D1*X329020Y212780D2*X326840D1*X330010Y211790D2*X328760D1*X330990Y210810D2*X329740D1*X331980Y209820D2*X330660D1*X331070Y208840D2*X332960D1*X333950Y207850D2*X331480D1*X331810Y206870D2*X334930D1*X335920Y205880D2*X331810D1*Y204900D2*X336900D1*X337040Y203910D2*X331790D1*X331380Y202930D2*X337040D1*Y201940D2*X330980D1*X330490Y200960D2*X337040D1*Y199970D2*X329510D1*X328520Y198990D2*X337040D1*X325560Y197710D2*X322460D1*X319590Y198890*X317400Y201090*X316210Y203960*Y207060*X317400Y209920*X319590Y212120*X322460Y213310*X325560*X328430Y212120*X330620Y209920*X331810Y207060*Y203960*X330620Y201090*X328430Y198890*X325560Y197710*X337040Y198000D2*X326270D1*X300290Y197020D2*X337040D1*X298190Y196860D2*X296610Y197510D1*X295400Y198720*X294750Y200300*Y202010*X295400Y203590*X296610Y204800*X298190Y205460*X299910*X301490Y204800*X302700Y203590*X303350Y202010*Y200300*X302700Y198720*X301490Y197510*X299910Y196860*X298190*X290290Y197020D2*X297810D1*X288190Y196860D2*X286610Y197510D1*X285400Y198720*X284750Y200300*Y202010*X285400Y203590*X286610Y204800*X288190Y205460*X289910*X291490Y204800*X292700Y203590*X293350Y202010*Y200300*X292700Y198720*X291490Y197510*X289910Y196860*X288190*X191370Y197020D2*X287810D1*X191370Y186180D2*X193480D1*X192610Y185200D2*X191370D1*Y184210D2*X192230D1*Y183230D2*X191370D1*Y182240D2*X192560D1*X193360Y181260D2*X191370D1*X228100Y183230D2*X206200D1*X205870Y184210D2*X226650D1*X226120Y185200D2*X205490D1*X235550Y189140D2*X229880D1*X231400Y188150D2*X235550D1*Y187170D2*X231960D1*X232120Y186180D2*X235550D1*Y185200D2*X231980D1*X231450Y184210D2*X235550D1*Y183230D2*X230000D1*X207180Y182240D2*X235550D1*Y181260D2*X208170D1*X209150Y180270D2*X235550D1*Y179290D2*X210140D1*X211120Y178300D2*X235550D1*Y177320D2*X212110D1*X235550Y163530D2*X224480D1*X225440Y164510D2*X235550D1*Y165500D2*X225850D1*X225870Y166480D2*X235550D1*Y167470D2*X225580D1*X224850Y168450D2*X235550D1*Y169440D2*X219990D1*X219000Y170420D2*X235550D1*Y171410D2*X218020D1*X217030Y172390D2*X235550D1*Y173380D2*X216050D1*X215060Y174360D2*X235550D1*Y175350D2*X214080D1*X213090Y176330D2*X235550D1*X191370Y173380D2*X210110D1*X209120Y174360D2*X191370D1*Y175350D2*X208140D1*X207150Y176330D2*X191370D1*Y177320D2*X206170D1*X205180Y178300D2*X191370D1*Y179290D2*X204200D1*X203210Y180270D2*X191370D1*X197240Y181260D2*X200860D1*X200060Y182240D2*X198040D1*X198370Y183230D2*X199730D1*Y184210D2*X198370D1*X197990Y185200D2*X200110D1*X197040Y186260D2*X197900Y185400D1*X198370Y184270*Y183050*X197900Y181920*X197040Y181050*X195910Y180580*X194690*X193560Y181050*X192700Y181920*X192230Y183050*Y184270*X192700Y185400*X193560Y186260*X194690Y186730*X195910*X197040Y186260*X200980Y186180D2*X197120D1*X197360Y190120D2*X200740D1*X200010Y191110D2*X198090D1*X198370Y192090D2*X199730D1*X199750Y193080D2*X198350D1*X197940Y194060D2*X200160D1*X201150Y195050D2*X196950D1*X337040D2*X204450D1*X191370Y196030D2*X337040D1*X193650Y195050D2*X191370D1*Y194060D2*X192660D1*X192250Y193080D2*X191370D1*Y192090D2*X192230D1*X192510Y191110D2*X191370D1*X193560Y189800D2*X192700Y190670D1*X192230Y191800*Y193020*X192700Y194150*X193560Y195010*X194690Y195480*X195910*X197040Y195010*X197900Y194150*X198370Y193020*Y191800*X197900Y190670*X197040Y189800*X195910Y189330*X194690*X193560Y189800*X191370Y190120D2*X193240D1*X228220Y189140D2*X191370D1*Y188150D2*X226700D1*X226140Y187170D2*X191370D1*X225980Y186770D2*X226450Y187900D1*X227310Y188760*X228440Y189230*X229660*X230790Y188760*X231650Y187900*X232120Y186770*Y185550*X231650Y184420*X230790Y183550*X229660Y183080*X228440*X227310Y183550*X226450Y184420*X225980Y185550*Y186770*X204620Y186180D2*X225980D1*X235550Y190120D2*X204860D1*X205590Y191110D2*X235550D1*Y192090D2*X205870D1*X205850Y193080D2*X235550D1*X205400Y194150D2*X205870Y193020D1*Y191800*X205400Y190670*X204540Y189800*X203410Y189330*X202190*X201060Y189800*X200200Y190670*X199730Y191800*Y193020*X200200Y194150*X201060Y195010*X202190Y195480*X203410*X204540Y195010*X205400Y194150*X337040Y194060D2*X205440D1*X260050Y193080D2*X337040D1*Y192090D2*X260050D1*Y191110D2*X337040D1*X279650Y184210D2*X260050D1*Y183230D2*X278030D1*X277420Y182240D2*X260050D1*Y181260D2*X277230D1*X277340Y180270D2*X260050D1*Y179290D2*X277830D1*X324600Y170420D2*X260050D1*Y169440D2*X325580D1*X327410Y168450D2*X260050D1*X291660Y179290D2*X337040D1*X326060Y178300D2*X292550D1*X292960Y177320D2*X325020D1*X324270Y176330D2*X293110D1*Y175350D2*X323860D1*X323610Y174360D2*X292700D1*X292010Y173380D2*X323610D1*X323690Y172390D2*X290570D1*X260050Y171410D2*X324100D1*X287530Y172390D2*X260050D1*Y173380D2*X286090D1*X285400Y174360D2*X260050D1*Y175350D2*X284990D1*Y176330D2*X260050D1*Y177320D2*X285140D1*X279160Y178300D2*X260050D1*X285540D2*X281430D1*X286750Y179600D2*X288240Y180220D1*X289860*X291350Y179600*X292490Y178460*X293110Y176960*Y175350*X292490Y173860*X291350Y172710*X289860Y172100*X288240*X286750Y172710*X285610Y173860*X284990Y175350*Y176960*X285610Y178460*X286750Y179600*X282770Y179290D2*X286440D1*X337040Y180270D2*X283260D1*X337040Y183230D2*X332730D1*X333300Y184210D2*X337040D1*Y185200D2*X333660D1*X333740Y186180D2*X337040D1*Y187170D2*X333650D1*X333270Y188150D2*X337040D1*Y189140D2*X332680D1*X331600Y190120D2*X337040D1*X260050D2*X326500D1*X325420Y189140D2*X260050D1*Y188150D2*X324830D1*X324450Y187170D2*X260050D1*Y186180D2*X324360D1*X324440Y185200D2*X260050D1*X280950Y184210D2*X324800D1*X325370Y183230D2*X282570D1*X283170Y182240D2*X326470D1*X283370Y181770D2*X282900Y182900D1*X282040Y183760*X280910Y184230*X279690*X278560Y183760*X277700Y182900*X277230Y181770*Y180550*X277700Y179420*X278560Y178550*X279690Y178080*X280910*X282040Y178550*X282900Y179420*X283370Y180550*Y181770*X337040Y181260D2*X283370D1*X331630Y182240D2*X337040D1*X330360Y181670D2*X330430Y181650D1*X330650Y181750*X330890Y181810*X330930Y181880*X331120Y181970*X331190Y181950*X331390Y182090*X331620Y182200*X331640Y182270*X331820Y182390*X331890*X332060Y182560*X332270Y182700*X332280Y182780*X332430Y182930*X332500Y182940*X332640Y183140*X332820Y183310*Y183390*X332940Y183560*X333010Y183590*X333110Y183810*X333250Y184010*X333240Y184080*X333330Y184280*X333390Y184320*X333460Y184550*X333560Y184770*X333530Y184840*X333590Y185050*X333650Y185100*X333670Y185340*X333730Y185580*X333690Y185640*X333710Y185860*X333760Y185910*X333740Y186160*X333760Y186400*X333710Y186460*X333690Y186670*X333730Y186730*X333670Y186970*X333650Y187210*X333590Y187260*X333530Y187470*X333560Y187540*X333460Y187760*X333390Y188000*X333330Y188030*X333240Y188230*X333250Y188300*X333110Y188500*X333010Y188720*X332940Y188750*X332820Y188920*Y189000*X332640Y189170*X332500Y189370*X332430Y189380*X332280Y189540*X332270Y189610*X332060Y189750*X331890Y189920*X331820*X331640Y190040*X331620Y190110*X331390Y190220*X331190Y190360*X331120Y190350*X330930Y190440*X330890Y190500*X330650Y190560*X330430Y190670*X330360Y190640*X330160Y190700*X330110Y190750*X329860Y190770*X329630Y190840*X329560Y190800*X329350Y190820*X329290Y190870*X329050Y190850*X328810Y190870*X328750Y190820*X328540Y190800*X328470Y190840*X328240Y190770*X327990Y190750*X327940Y190700*X327740Y190640*X327670Y190670*X327450Y190560*X327210Y190500*X327170Y190440*X326980Y190350*X326910Y190360*X326700Y190220*X326480Y190110*X326460Y190040*X326280Y189920*X326210*X326040Y189750*X325830Y189610*X325820Y189540*X325670Y189380*X325600Y189370*X325460Y189170*X325280Y189000*Y188920*X325160Y188750*X325090Y188720*X324990Y188500*X324850Y188300*X324860Y188230*X324770Y188030*X324710Y188000*X324640Y187760*X324540Y187540*X324560Y187470*X324510Y187260*X324450Y187210*X324430Y186970*X324370Y186730*X324400Y186670*X324390Y186460*X324340Y186400*X324360Y186160*X324340Y185910*X324390Y185860*X324400Y185640*X324370Y185580*X324430Y185340*X324450Y185100*X324510Y185050*X324560Y184840*X324540Y184770*X324640Y184550*X324710Y184320*X324770Y184280*X324860Y184080*X324850Y184010*X324990Y183810*X325090Y183590*X325160Y183560*X325280Y183390*Y183310*X325460Y183140*X325600Y182940*X325670Y182930*X325820Y182780*X325830Y182700*X326040Y182560*X326210Y182390*X326280*X326460Y182270*X326480Y182200*X326700Y182090*X326910Y181950*X326980Y181970*X327170Y181880*X327210Y181810*X327450Y181750*X327670Y181650*X327740Y181670*X327940Y181620*X327990Y181560*X328240Y181540*X328470Y181470*X328540Y181510*X328750Y181490*X328810Y181440*X329050Y181470*X329290Y181440*X329350Y181490*X329560Y181510*X329630Y181470*X329860Y181540*X330110Y181560*X330160Y181620*X330360Y181670*X337040Y178300D2*X332040D1*X333080Y177320D2*X337040D1*Y176330D2*X333830D1*X334230Y175350D2*X337040D1*Y174360D2*X334490D1*Y173380D2*X337040D1*Y172390D2*X334410D1*X334000Y171410D2*X337040D1*Y170420D2*X333500D1*X332520Y169440D2*X337040D1*X330130Y168220D2*X327970D1*X325970Y169050*X324440Y170580*X323610Y172570*Y174740*X324440Y176740*X325970Y178270*X327970Y179090*X330130*X332130Y178270*X333660Y176740*X334490Y174740*Y172570*X333660Y170580*X332130Y169050*X330130Y168220*X337040Y168450D2*X330690D1*X260050Y167470D2*X337040D1*Y166480D2*X260050D1*Y165500D2*X337040D1*X290770Y154660D2*X260050D1*Y155650D2*X289590D1*X289170Y156630D2*X260050D1*X288790Y157620D2*X289100D1*X260050D2*X286810D1*X285390Y158600D2*X260050D1*Y159590D2*X284870D1*X284730Y160570D2*X260050D1*Y161560D2*X284900D1*X285470Y162540D2*X260050D1*Y163530D2*X287000D1*X337040Y164510D2*X260050D1*X288590Y163530D2*X337040D1*Y162540D2*X290130D1*X290700Y161560D2*X337040D1*Y160570D2*X290870D1*X294340Y159590D2*X337040D1*Y158600D2*X295000D1*X295250Y157620D2*X337040D1*Y156630D2*X295180D1*X294760Y155650D2*X337040D1*X293910Y154800D2*X292790Y154330D1*X291560*X290430Y154800*X289570Y155670*X289100Y156800*Y157750*X288410Y157460*X287190*X286060Y157930*X285200Y158790*X284730Y159920*Y161140*X285200Y162270*X286060Y163140*X287190Y163600*X288410*X289540Y163140*X290400Y162270*X290870Y161140*Y160190*X291560Y160480*X292790*X293910Y160010*X294780Y159150*X295250Y158020*Y156800*X294780Y155670*X293910Y154800*X337040Y154660D2*X293580D1*X260050Y153680D2*X337040D1*Y152690D2*X260050D1*Y151710D2*X337040D1*Y150720D2*X260050D1*Y149740D2*X337040D1*Y148750D2*X260050D1*Y147770D2*X337040D1*Y146780D2*X260050D1*Y145800D2*X337040D1*Y144810D2*X260050D1*Y143830D2*X337040D1*Y142840D2*X260050D1*Y141860D2*X337040D1*Y140870D2*X260050D1*X227730Y139890D2*X337040D1*X235550Y148750D2*X234550D1*X235460Y147770D2*X235550D1*Y143830D2*X234810D1*X227750Y140870D2*X235550D1*Y141860D2*X227450D1*X226710Y142840D2*X235550D1*X212670Y144810D2*X215430D1*X214520Y145800D2*X213580D1*X213990Y146780D2*X214110D1*X214000Y147770D2*X214100D1*X214410Y148750D2*X213690D1*X212940Y149740D2*X215160D1*X208910D2*X206060D1*X206820Y148750D2*X208160D1*X207850Y147770D2*X207120D1*Y146780D2*X207860D1*X208270Y145800D2*X206710D1*X209180Y144800D2*X208320Y145670D1*X207850Y146800*Y148020*X208320Y149150*X209180Y150010*X210310Y150480*X211540*X212660Y150010*X213530Y149150*X214000Y148020*Y146800*X213530Y145670*X212660Y144800*X211540Y144330*X210310*X209180Y144800*X205800Y144810D2*X209180D1*X222640Y142840D2*X206080D1*X206830Y141860D2*X221900D1*X221600Y140870D2*X207120D1*X207110Y139890D2*X221620D1*X222030Y138900D2*X206700D1*X222930Y137930D2*X222070Y138790D1*X221600Y139920*Y141140*X222070Y142270*X222930Y143140*X224060Y143600*X225290*X226410Y143140*X227280Y142270*X227750Y141140*Y139920*X227280Y138790*X226410Y137930*X225290Y137460*X224060*X222930Y137930*X205760Y137920D2*X222960D1*X191370D2*X202340D1*X201400Y138900D2*X191370D1*Y139890D2*X200990D1*X200980Y140870D2*X191370D1*Y142840D2*X202020D1*X201270Y141860D2*X191370D1*X201450Y142270D2*X202310Y143140D1*X203440Y143600*X204660*X205790Y143140*X206650Y142270*X207120Y141140*Y139920*X206650Y138790*X205790Y137930*X204660Y137460*X203440*X202310Y137930*X201450Y138790*X200980Y139920*Y141140*X201450Y142270*X202300Y144810D2*X198920D1*X199830Y145800D2*X201390D1*X200980Y146780D2*X200240D1*X200250Y147770D2*X200980D1*X201280Y148750D2*X199940D1*X202310Y150010D2*X203440Y150480D1*X204660*X205790Y150010*X206650Y149150*X207120Y148020*Y146800*X206650Y145670*X205790Y144800*X204660Y144330*X203440*X202310Y144800*X201450Y145670*X200980Y146800*Y148020*X201450Y149150*X202310Y150010*X199190Y149740D2*X202040D1*X195160D2*X191370D1*Y148750D2*X194410D1*X194100Y147770D2*X191370D1*Y146780D2*X194110D1*X194520Y145800D2*X191370D1*X195430Y144800D2*X194570Y145670D1*X194100Y146800*Y148020*X194570Y149150*X195430Y150010*X196560Y150480*X197790*X198910Y150010*X199780Y149150*X200250Y148020*Y146800*X199780Y145670*X198910Y144800*X197790Y144330*X196560*X195430Y144800*X191370Y144810D2*X195430D1*X230790Y143830D2*X191370D1*X218920Y144810D2*X230030D1*X229730Y145800D2*X219830D1*X220240Y146780D2*X229730D1*X230140Y147770D2*X220250D1*X231060Y148760D2*X232190Y149230D1*X233410*X234540Y148760*X235400Y147900*X235550Y147540*Y193450*X236140Y194030*X259460*X260050Y193450*Y140740*X259460Y140160*X236960*X236140*X235550Y140740*Y144770*X235400Y144420*X234540Y143550*X233410Y143080*X232190*X231060Y143550*X230200Y144420*X229730Y145550*Y146770*X230200Y147900*X231060Y148760*X219940Y148750D2*X231050D1*X218910Y150010D2*X219780Y149150D1*X220250Y148020*Y146800*X219780Y145670*X218910Y144800*X217790Y144330*X216560*X215430Y144800*X214570Y145670*X214100Y146800*Y148020*X214570Y149150*X215430Y150010*X216560Y150480*X217790*X218910Y150010*X235550Y149740D2*X219190D1*X191370Y150720D2*X235550D1*Y151710D2*X191370D1*Y152690D2*X235550D1*Y153680D2*X191370D1*Y154660D2*X235550D1*Y155650D2*X191370D1*Y156630D2*X235550D1*Y157620D2*X191370D1*Y158600D2*X235550D1*Y159590D2*X191370D1*Y160570D2*X235550D1*X198130Y166480D2*X191370D1*Y167470D2*X197470D1*X197230Y168450D2*X191370D1*Y169440D2*X197300D1*X197720Y170420D2*X191370D1*Y171410D2*X198910D1*X211090Y172390D2*X191370D1*X201690Y171410D2*X212080D1*X213060Y170420D2*X202880D1*X203300Y169440D2*X214050D1*X215030Y168450D2*X203370D1*X203130Y167470D2*X216020D1*X202040Y166050D2*X200910Y165580D1*X199690*X198560Y166050*X197700Y166920*X197230Y168050*Y169270*X197700Y170400*X198560Y171260*X199690Y171730*X200910*X202040Y171260*X202900Y170400*X203370Y169270*Y168050*X202900Y166920*X202040Y166050*X217000Y166480D2*X202470D1*X191370Y165500D2*X217990D1*X218970Y164510D2*X191370D1*X221060Y163550D2*X220560Y164060D1*X219430*X202900Y180580*X202190*X201060Y181050*X200200Y181920*X199730Y183050*Y184270*X200200Y185400*X201060Y186260*X202190Y186730*X203410*X204540Y186260*X205400Y185400*X205870Y184270*Y183550*X220860Y168560*X221060Y168760*X222190Y169230*X223410*X224540Y168760*X225400Y167900*X225870Y166770*Y165550*X225400Y164420*X224540Y163550*X223410Y163080*X222190*X221060Y163550*X191370Y163530D2*X221120D1*X235550Y162540D2*X191370D1*Y161560D2*X235550D1*X171470D2*X163630D1*X165710Y163530D2*X173060D1*X172450Y162540D2*X165150D1*X177140Y159590D2*X177230D1*X175730Y158600D2*X177260D1*X177660Y157620D2*X174740D1*X173760Y156630D2*X178670D1*X179780Y155650D2*X172770D1*X171790Y154660D2*X179730D1*X179980Y153680D2*X171600D1*Y152690D2*X177490D1*X176840Y151710D2*X171600D1*Y150720D2*X176600D1*X176680Y149740D2*X171600D1*Y148750D2*X177110D1*X178320Y147770D2*X171600D1*Y146780D2*X178740D1*X178480Y145800D2*X171400D1*X170690Y144810D2*X178520D1*X178930Y143830D2*X169700D1*X168720Y142840D2*X180020D1*X165650Y133980D2*X159850D1*X161820Y135950D2*X172000D1*X171270Y134960D2*X160840D1*X170980Y133980D2*X169950D1*X171000Y132990D2*X170620D1*X171410Y132010D2*X170870D1*X170810Y131020D2*X172380D1*X170400Y130040D2*X170870Y131170D1*Y132390*X170400Y133520*X169540Y134390*X168410Y134850*X167190*X166060Y134390*X165200Y133520*X164730Y132390*X158870Y132990D2*X164980D1*X133370Y129050D2*X133960D1*X134950Y130040D2*X133050D1*X132280Y131020D2*X135930D1*X128320D2*X124230D1*X125760Y130040D2*X127550D1*X127230Y129050D2*X126330D1*X126500Y128070D2*X127230D1*X127630Y127080D2*X126360D1*X125830Y126100D2*X127260D1*X125450Y105410D2*X121640D1*X120460Y106400D2*X124890D1*X48230Y132010D2*X44880D1*X46010Y132990D2*X47510D1*X47230Y133980D2*X46490D1*Y134960D2*X47260D1*X47660Y135950D2*X46490D1*X45930Y136930D2*X48670D1*X53900Y138900D2*X26020D1*X52300Y136930D2*X51930D1*X44660Y137920D2*X52720D1*X26020D2*X41180D1*X39900Y136930D2*X26020D1*Y135950D2*X39340D1*Y134960D2*X26020D1*Y133980D2*X39340D1*X39830Y132990D2*X26020D1*X41420Y131740D2*X40120Y132490D1*X39360Y133790*X39340Y133810*Y135980*X39360Y136000*X40120Y137300*X41420Y138060*X41440Y138080*X44390*X44410Y138060*X45720Y137300*X46470Y136000*X46490Y135980*Y133810*X46470Y133790*X45720Y132490*X44410Y131740*X44390Y131720*X41440*X41420Y131740*X26020Y132010D2*X40950D1*X26020Y131020D2*X27900D1*X26020Y130040D2*X26460D1*X26450Y125110D2*X26020D1*Y124130D2*X27870D1*X97450Y123140D2*X26020D1*Y122160D2*X98080D1*X100780Y117230D2*X26020D1*Y116250D2*X100030D1*X99730Y115260D2*X26020D1*Y114280D2*X99740D1*X100140Y113290D2*X26020D1*Y112310D2*X101060D1*X126850Y110340D2*X43750D1*X45200Y109350D2*X125400D1*X124870Y108370D2*X45730D1*X45870Y107380D2*X124730D1*X116460Y105410D2*X45150D1*X45710Y106400D2*X117640D1*X26020Y103440D2*X63240D1*X62510Y102460D2*X26020D1*Y101470D2*X62230D1*X62250Y100490D2*X26020D1*Y99500D2*X62660D1*X63650Y98520D2*X26020D1*Y93590D2*X85890D1*X85080Y92610D2*X26020D1*Y91620D2*X84730D1*Y90640D2*X26020D1*Y89650D2*X85100D1*X85950Y88670D2*X26020D1*X120460Y72910D2*X105140D1*X105700Y73890D2*X119900D1*X119730Y74880D2*X105870D1*X105730Y75860D2*X119870D1*X120400Y76850D2*X105200D1*X103760Y77830D2*X121840D1*X26020Y87680D2*X102720D1*X101500Y86700D2*X26020D1*X101840Y77830D2*X86260D1*X87700Y76850D2*X100400D1*X99870Y75860D2*X88230D1*X88370Y74880D2*X99730D1*X99900Y73890D2*X88200D1*X87640Y72910D2*X100460D1*X33890Y31540D2*X35860D1*X32900Y32520D2*X34150D1*X31920Y33510D2*X33170D1*X30930Y34490D2*X32330D1*X31930Y35480D2*X29950D1*X28960Y36460D2*X31520D1*X31250Y37450D2*X27980D1*X26990Y38430D2*X31250D1*Y39420D2*X26020D1*Y40400D2*X31330D1*X31740Y41390D2*X26020D1*Y42370D2*X32150D1*X32720Y43360D2*X26020D1*Y44340D2*X33710D1*X34770Y45330D2*X26020D1*Y46310D2*X37150D1*X27890Y53210D2*X26020D1*Y54190D2*X27310D1*X26950Y55180D2*X26020D1*Y57150D2*X26950D1*X27320Y58130D2*X26020D1*Y59120D2*X27900D1*X28980Y60100D2*X26020D1*Y73890D2*X57030D1*X82960Y72910D2*X26020D1*X62820Y73890D2*X82400D1*X82230Y74880D2*X63910D1*X64690Y75860D2*X82370D1*X82900Y76850D2*X65090D1*X65360Y77830D2*X84340D1*X26020Y83740D2*X58180D1*X56420Y82760D2*X26020D1*Y81770D2*X55430D1*X54960Y80790D2*X26020D1*Y79800D2*X54550D1*X54490Y78820D2*X26020D1*Y77830D2*X54490D1*X54760Y76850D2*X26020D1*Y75860D2*X55170D1*X55940Y74880D2*X26020D1*Y69950D2*X48760D1*X48480Y68970D2*X26020D1*Y67980D2*X48500D1*X48910Y67000D2*X26020D1*X101680Y38550D2*X100820Y39420D1*X104870Y38430D2*X145690D1*X144750Y41390D2*X106500D1*X106250Y42370D2*X144900D1*X145310Y43360D2*X105570D1*X154370Y55180D2*X159100D1*X159150Y54190D2*X155020D1*X155250Y53210D2*X159550D1*X160630Y52220D2*X155160D1*X161950Y44340D2*X166150D1*X165310Y43360D2*X162790D1*X163200Y42370D2*X164900D1*X164750Y41390D2*X163350D1*Y40400D2*X164750D1*X165120Y39420D2*X162980D1*X162410Y38430D2*X165690D1*X166770Y37450D2*X161330D1*X161800Y34490D2*X166300D1*X165370Y33510D2*X162730D1*X163140Y32520D2*X164960D1*X164750Y31540D2*X163350D1*Y30550D2*X164750D1*X165050Y29570D2*X163050D1*X162560Y28580D2*X165540D1*X166530Y27600D2*X161570D1*X171570D2*X176530D1*X175540Y28580D2*X172560D1*X173050Y29570D2*X175050D1*X174750Y30550D2*X173350D1*Y31540D2*X174750D1*X174960Y32520D2*X173140D1*X172730Y33510D2*X175370D1*X171490Y34800D2*X172700Y33590D1*X173350Y32010*Y30300*X172700Y28720*X171490Y27510*X169910Y26860*X168190*X166610Y27510*X165400Y28720*X164750Y30300*Y32010*X165400Y33590*X166610Y34800*X168190Y35460*X169910*X171490Y34800*X176300Y34490D2*X171800D1*X171330Y37450D2*X176770D1*X175690Y38430D2*X172410D1*X172980Y39420D2*X175120D1*X174750Y40400D2*X173350D1*Y41390D2*X174750D1*X174900Y42370D2*X173200D1*X172790Y43360D2*X175310D1*X176150Y44340D2*X171950D1*X196150D2*X191950D1*X192790Y43360D2*X195310D1*X194900Y42370D2*X193200D1*X193350Y41390D2*X194750D1*Y40400D2*X193350D1*X192980Y39420D2*X195120D1*X195690Y38430D2*X192410D1*X191370Y37450D2*X196770D1*X196300Y34490D2*X191800D1*X192730Y33510D2*X195370D1*X194960Y32520D2*X193140D1*X193350Y31540D2*X194750D1*Y30550D2*X193350D1*X193050Y29570D2*X195050D1*X195540Y28580D2*X192560D1*X191570Y27600D2*X196530D1*X260670Y25630D2*X191370D1*Y26610D2*X260550D1*X181570Y27600D2*X186530D1*X185540Y28580D2*X182560D1*X183050Y29570D2*X185050D1*X184750Y30550D2*X183350D1*Y31540D2*X184750D1*X184960Y32520D2*X183140D1*X182730Y33510D2*X185370D1*X181490Y34800D2*X182700Y33590D1*X183350Y32010*Y30300*X182700Y28720*X181490Y27510*X179910Y26860*X178190*X176610Y27510*X175400Y28720*X174750Y30300*Y32010*X175400Y33590*X176610Y34800*X178190Y35460*X179910*X181490Y34800*X186300Y34490D2*X181800D1*X46170Y35480D2*X187440D1*Y36460D2*X46580D1*X181330Y37450D2*X186770D1*X185690Y38430D2*X182410D1*X182980Y39420D2*X185120D1*X184750Y40400D2*X183350D1*Y41390D2*X184750D1*X184900Y42370D2*X183200D1*X182790Y43360D2*X185310D1*X186150Y44340D2*X181950D1*X165250Y55180D2*X187440D1*Y54190D2*X165200D1*X164800Y53210D2*X187440D1*Y52220D2*X163720D1*X154720Y51240D2*X187440D1*Y50250D2*X153490D1*X99030Y49270D2*X187440D1*Y48280D2*X99510D1*X99620Y47300D2*X187440D1*X101280Y43360D2*X93310D1*Y42370D2*X100600D1*X100350Y41390D2*X93310D1*X92990Y40400D2*X100410D1*X92180Y39420D2*X100820D1*X100350Y40550*Y41770*X100820Y42900*X101680Y43760*X102810Y44230*X104040*X105160Y43760*X106030Y42900*X106500Y41770*Y40550*X106030Y39420*X144750Y40400D2*X106440D1*X145120Y39420D2*X106030D1*X105160Y38550*X104040Y38080*X102810*X101680Y38550*X46850Y38430D2*X101980D1*X146770Y37450D2*X46850D1*X120190Y28580D2*X145540D1*X121500Y30550D2*Y31770D1*X145050Y29570D2*X121090D1*X121180Y32520D2*X144960D1*X145370Y33510D2*X120420D1*X97200Y34490D2*X146300D1*X116430Y33510D2*X97770D1*X97940Y32520D2*X115670D1*X115350Y31540D2*X97940D1*X115350Y30550D2*X115820Y29420D1*X116680Y28550*X97940Y29570D2*X115760D1*X97940Y30550D2*X115350D1*Y31770*X115820Y32900*X116680Y33760*X117810Y34230*X119040*X120160Y33760*X121030Y32900*X121500Y31770*X144750Y31540D2*X121500D1*X144750Y30550D2*X121500D1*X121030Y29420*X120160Y28550*X119040Y28080*X117810*X116680Y28550*X97940Y28580D2*X116660D1*X146530Y27600D2*X97690D1*X156530D2*X151570D1*X152560Y28580D2*X155540D1*X155050Y29570D2*X153050D1*X153350Y30550D2*X154750D1*Y31540D2*X153350D1*X153140Y32520D2*X154960D1*X155370Y33510D2*X152730D1*X156610Y34800D2*X158190Y35460D1*X159910*X161490Y34800*X162700Y33590*X163350Y32010*Y30300*X162700Y28720*X161490Y27510*X159910Y26860*X158190*X156610Y27510*X155400Y28720*X154750Y30300*Y32010*X155400Y33590*X156610Y34800*X151800Y34490D2*X156300D1*X149910Y35460D2*X151490Y34800D1*X152700Y33590*X153350Y32010*Y30300*X152700Y28720*X151490Y27510*X149910Y26860*X148190*X146610Y27510*X145400Y28720*X144750Y30300*Y32010*X145400Y33590*X146610Y34800*X148190Y35460*X149910*X156770Y37450D2*X151330D1*X152410Y38430D2*X155690D1*X155120Y39420D2*X152980D1*X153350Y40400D2*X154750D1*Y41390D2*X153350D1*X153200Y42370D2*X154900D1*X155310Y43360D2*X152790D1*X151950Y44340D2*X156150D1*X157880Y45330D2*X150220D1*X159910Y45460D2*X161490Y44800D1*X162700Y43590*X163350Y42010*Y40300*X162700Y38720*X161490Y37510*X159910Y36860*X158190*X156610Y37510*X155400Y38720*X154750Y40300*Y42010*X155400Y43590*X156610Y44800*X158190Y45460*X159910*X167880Y45330D2*X160220D1*X169910Y45460D2*X168190D1*X166610Y44800*X165400Y43590*X164750Y42010*Y40300*X165400Y38720*X166610Y37510*X168190Y36860*X169910*X171490Y37510*X172700Y38720*X173350Y40300*Y42010*X172700Y43590*X171490Y44800*X169910Y45460*X177880Y45330D2*X170220D1*X179910Y45460D2*X178190D1*X176610Y44800*X175400Y43590*X174750Y42010*Y40300*X175400Y38720*X176610Y37510*X178190Y36860*X179910*X181490Y37510*X182700Y38720*X183350Y40300*Y42010*X182700Y43590*X181490Y44800*X179910Y45460*X187440Y45330D2*X180220D1*X99420Y46310D2*X187440D1*X147880Y45330D2*X98810D1*X146610Y44800D2*X148190Y45460D1*X149910*X151490Y44800*X152700Y43590*X153350Y42010*Y40300*X152700Y38720*X151490Y37510*X149910Y36860*X148190*X146610Y37510*X145400Y38720*X144750Y40300*Y42010*X145400Y43590*X146610Y44800*X97180Y44340D2*X146150D1*X93050D2*X95920D1*X92370Y45330D2*X94290D1*X73270D2*X87900D1*X87210Y44340D2*X73960D1*X74220Y43360D2*X86950D1*Y42370D2*X74220D1*Y41390D2*X86950D1*X87280Y40400D2*X73890D1*X87730Y39630D2*X86970Y40930D1*X86950Y40950*Y43900*X86970Y43920*X87730Y45230*X89030Y45980*X89050Y46000*X91210*X91230Y45980*X92540Y45230*X93290Y43920*X93310Y43900*Y40950*X93290Y40930*X92540Y39630*X91230Y38870*X91210Y38850*X89050*X89030Y38870*X87730Y39630*X73080Y39420D2*X88090D1*X45770Y34490D2*X63970D1*X63400Y33510D2*X44930D1*X43940Y32520D2*X63230D1*Y31540D2*X42240D1*X34870Y30550D2*X63230D1*Y29570D2*X35860D1*X36840Y28580D2*X63230D1*X63480Y27600D2*X37830D1*X38810Y26610D2*X64040D1*X187440Y25630D2*X39800D1*X97130Y26610D2*X187440D1*X69470D2*X91700D1*X91130Y27600D2*X70040D1*X70280Y28580D2*X90890D1*Y29570D2*X70280D1*Y30550D2*X90890D1*Y31540D2*X70280D1*Y32520D2*X90890D1*X91060Y33510D2*X70110D1*X91720Y34640D2*X93150Y35470D1*X95640*X95680*X97110Y34640*X97940Y33210*Y28020*X97110Y26590*X95680Y25760*X93150*X91720Y26590*X90890Y28020*Y33210*X91720Y34640*X69540Y34490D2*X91630D1*X68020Y35470D2*X69450Y34640D1*X70280Y33210*Y28020*X69450Y26590*X68020Y25760*X65490*X64060Y26590*X63230Y28020*Y33210*X64060Y34640*X65490Y35470*X67990*X68020*X46850Y39420D2*X68990D1*X68180Y40400D2*X46770D1*X46360Y41390D2*X67860D1*Y42370D2*X45950D1*X45380Y43360D2*X67860D1*X68120Y44340D2*X44390D1*X68630Y45230D2*X69940Y45980D1*X69960Y46000*X72120*X72140Y45980*X73440Y45230*X74200Y43920*X74220Y43900*Y40950*X74200Y40930*X73440Y39630*X72140Y38870*X72120Y38850*X69960*X69940Y38870*X68630Y39630*X67880Y40930*X67860Y40950*Y43900*X67880Y43920*X68630Y45230*X43330Y45330D2*X68800D1*X40600Y46460D2*X37500D1*X34630Y45270*X32440Y43070*X31250Y40210*Y37100*X32440Y34240*X34630Y32040*X37500Y30860*X40600*X43470Y32040*X45660Y34240*X46850Y37100*Y40210*X45660Y43070*X43470Y45270*X40600Y46460*X93680Y46310D2*X40950D1*X26020Y47300D2*X93480D1*X93590Y48280D2*X26020D1*Y49270D2*X94070D1*X46440Y50250D2*X26020D1*Y51240D2*X45460D1*X28970Y52220D2*X26020D1*X45040D2*X34130D1*X35210Y53210D2*X44800D1*Y54190D2*X35790D1*X36150Y57150D2*X46530D1*X101060Y58130D2*X35780D1*X72750Y53210D2*X102520D1*X101050Y54190D2*X72750D1*X72370Y55180D2*X100510D1*X100350Y56160D2*X71510D1*X51570Y57150D2*X100510D1*X67840Y56160D2*X52560D1*X53020Y55180D2*X66980D1*X66600Y54190D2*X53300D1*Y53210D2*X66600D1*X66940Y52220D2*X53060D1*X52640Y51240D2*X67750D1*X95390Y50250D2*X51660D1*X97160Y50480D2*X98290Y50010D1*X99150Y49150*X99620Y48020*Y46800*X99150Y45670*X98290Y44800*X97160Y44330*X95940*X94810Y44800*X93950Y45670*X93480Y46800*Y48020*X93950Y49150*X94810Y50010*X95940Y50480*X97160*X150860Y50250D2*X97710D1*X71600Y51240D2*X149630D1*X72280Y51920D2*X71410Y51050D1*X70290Y50580*X69060*X67930Y51050*X67070Y51920*X66600Y53050*Y54270*X67070Y55400*X67930Y56260*X69060Y56730*X70290*X71410Y56260*X72280Y55400*X72750Y54270*Y53050*X72280Y51920*X149190Y52220D2*X72410D1*X104330Y53210D2*X149100D1*X149330Y54190D2*X105800D1*X149570Y54770D2*X149100Y53640D1*Y52420*X149570Y51290*X150430Y50430*X151560Y49960*X152790*X153910Y50430*X154780Y51290*X155250Y52420*Y53640*X154780Y54770*X153910Y55640*X152790Y56100*X151560*X150430Y55640*X149570Y54770*X106340Y55180D2*X149980D1*X159370Y56160D2*X106500D1*X106340Y57150D2*X160070D1*X163360Y58130D2*X105790D1*X164560Y57150D2*X164280D1*X164780Y56650D2*X165250Y55520D1*Y54300*X164780Y53170*X163910Y52300*X162790Y51830*X161560*X160430Y52300*X159570Y53170*X159100Y54300*Y55520*X159570Y56650*X160430Y57510*X161560Y57980*X162790*X163910Y57510*X164780Y56650*X187440Y56160D2*X164980D1*X167290Y57150D2*X187230D1*X187280Y58130D2*X168490D1*X168920Y59120D2*X187440D1*Y60100D2*X169000D1*X168760Y61090D2*X187440D1*Y62070D2*X168100D1*X107120Y84730D2*X178120D1*X177050Y85710D2*X107040D1*X138680Y92610D2*X158830D1*X158480Y91620D2*X139790D1*X140200Y90640D2*X158480D1*X158850Y89650D2*X140250D1*X139990Y88670D2*X159700D1*X176600Y87680D2*X139290D1*X106600Y86700D2*X176640D1*X135060Y87680D2*X105380D1*X89650Y88670D2*X134360D1*X134100Y89650D2*X90500D1*X90870Y90640D2*X134150D1*X134560Y91620D2*X90870D1*X135430Y92510D2*X136560Y92980D1*X137790*X138910Y92510*X139780Y91650*X140250Y90520*Y89300*X139780Y88170*X138910Y87300*X137790Y86830*X136560*X135430Y87300*X134570Y88170*X134100Y89300*Y90520*X134570Y91650*X135430Y92510*X90520Y92610D2*X135670D1*X89540Y93760D2*X90400Y92900D1*X90870Y91770*Y90550*X90400Y89420*X89540Y88550*X88410Y88080*X87190*X86060Y88550*X85200Y89420*X84730Y90550*Y91770*X85200Y92900*X86060Y93760*X87190Y94230*X88410*X89540Y93760*X159640Y93590D2*X89710D1*X130710Y106400D2*X153020D1*X153580Y105410D2*X130150D1*X145070Y104430D2*X155090D1*X128630D2*X141780D1*X122060D2*X126970D1*X140790Y103440D2*X122120D1*X121880Y102460D2*X140380D1*X140350Y101470D2*X121210D1*X187440Y99500D2*X145490D1*X146210Y100490D2*X187440D1*Y101470D2*X146500D1*X146470Y102460D2*X187440D1*Y103440D2*X146060D1*X156760Y104430D2*X187440D1*Y105410D2*X158270D1*X158830Y106400D2*X187440D1*Y107380D2*X159000D1*X158850Y108370D2*X187440D1*Y109350D2*X158320D1*X214600Y116250D2*X191370D1*Y117230D2*X213010D1*X212420Y118220D2*X191370D1*Y119200D2*X212230D1*X212350Y120190D2*X191370D1*Y121170D2*X212850D1*X169240Y129050D2*X187440D1*X165200Y130040D2*X166060Y129180D1*X154860Y131020D2*X164790D1*X187440Y128070D2*X157120D1*X156980Y127080D2*X187440D1*Y126100D2*X156460D1*X136250Y124130D2*X181940D1*X180440Y123140D2*X135650D1*X180410Y119200D2*X173370D1*X173250Y120190D2*X179880D1*X179730Y121170D2*X172750D1*X171380Y122160D2*X179890D1*X135020D2*X169210D1*X167850Y121170D2*X129550D1*X26020Y120190D2*X167350D1*X103550Y121170D2*X26020D1*X121020Y126100D2*X105840D1*X101570Y127080D2*X120490D1*X58300Y136930D2*X82850D1*X83200Y135950D2*X58370D1*X58130Y134960D2*X84030D1*X57460Y133980D2*X58370D1*X53090Y132990D2*X56490D1*X55510Y132010D2*X52370D1*X33330Y131020D2*X54990D1*X54580Y130040D2*X34770D1*X35340Y129050D2*X54490D1*Y128070D2*X35470D1*Y127080D2*X54730D1*X55130Y126100D2*X35350D1*X34780Y125110D2*X55860D1*X56850Y124130D2*X33360D1*X63010D2*X61010Y123300D1*X58840*X56850Y124130*X55320Y125650*X54490Y127650*Y129820*X55320Y131810*X56850Y133340*X58840Y134170*X61010*X137900Y132990D2*X63360D1*X64340Y132010D2*X136920D1*X122620Y131020D2*X64860D1*X65270Y130040D2*X121090D1*X120520Y129050D2*X65360D1*Y128070D2*X120350D1*X99030Y127080D2*X65130D1*X64720Y126100D2*X97770D1*X97320Y125110D2*X63990D1*X97230Y124130D2*X63010D1*X64530Y125650*X65360Y127650*Y129820*X64530Y131810*X63010Y133340*X61010Y134170*X138890Y133980D2*X61480D1*X87820Y134960D2*X139870D1*X140860Y135950D2*X88640D1*X89000Y136930D2*X141840D1*X156580Y137920D2*X89000D1*X88630Y138900D2*X157560D1*X26020Y166480D2*X80350D1*X38960Y217700D2*X47670D1*Y216720D2*X37980D1*X36990Y215730D2*X47670D1*Y214750D2*X36010D1*X41310Y198000D2*X47670D1*Y198990D2*X43560D1*X44540Y199970D2*X47670D1*Y200960D2*X45530D1*X46010Y201940D2*X47670D1*Y202930D2*X46420D1*X46830Y203910D2*X47670D1*Y204900D2*X46850D1*Y205880D2*X47670D1*Y206870D2*X46850D1*X46520Y207850D2*X47670D1*Y208840D2*X46110D1*X45700Y209820D2*X47670D1*Y210810D2*X44780D1*X43790Y211790D2*X47670D1*Y212780D2*X41880D1*X35020Y213760D2*X47670D1*X34040Y212780D2*X36220D1*X33050Y211790D2*X34310D1*X32070Y210810D2*X33320D1*X31080Y209820D2*X32400D1*X31990Y208840D2*X30100D1*X29110Y207850D2*X31580D1*X31250Y206870D2*X28130D1*X27140Y205880D2*X31250D1*Y204900D2*X26160D1*X26020Y203910D2*X31270D1*X31680Y202930D2*X26020D1*Y201940D2*X32080D1*X32570Y200960D2*X26020D1*Y199970D2*X33550D1*X34540Y198990D2*X26020D1*X37500Y197710D2*X40600D1*X43470Y198890*X45660Y201090*X46850Y203960*Y207060*X45660Y209920*X43470Y212120*X40600Y213310*X37500*X34630Y212120*X32440Y209920*X31250Y207060*Y203960*X32440Y201090*X34630Y198890*X37500Y197710*X26020Y198000D2*X36790D1*X47670Y197020D2*X26020D1*Y196030D2*X47670D1*Y195050D2*X26020D1*Y194060D2*X47670D1*Y193080D2*X26020D1*Y192090D2*X47670D1*Y191110D2*X26020D1*Y190120D2*X47670D1*Y189140D2*X26020D1*Y188150D2*X47670D1*Y187170D2*X26020D1*Y186180D2*X47670D1*Y185200D2*X26020D1*Y184210D2*X47670D1*Y183230D2*X26020D1*Y182240D2*X47670D1*Y181260D2*X26020D1*Y180270D2*X47670D1*Y179290D2*X26020D1*Y178300D2*X47670D1*Y177320D2*X26020D1*Y176330D2*X47670D1*Y175350D2*X26020D1*Y174360D2*X47670D1*Y173380D2*X26020D1*Y172390D2*X47670D1*Y171410D2*X26020D1*Y167470D2*X51500D1*X50510Y168450D2*X26020D1*Y169440D2*X49530D1*X48540Y170420D2*X26020D1*X80480Y165500D2*X42180D1*X43010Y164510D2*X80980D1*X82360Y163530D2*X43370D1*X68510Y159590D2*X91890D1*X91220Y158600D2*X69150D1*X69550Y157620D2*X90980D1*X91050Y156630D2*X69550D1*X69430Y155650D2*X91470D1*X92650Y154660D2*X69020D1*X73920Y147770D2*X92640D1*X92230Y146780D2*X75270D1*X75760Y145800D2*X92230D1*X92530Y144810D2*X76640D1*X78220Y143830D2*X93290D1*X159530Y140870D2*X78870D1*X87790Y139890D2*X158550D1*X78370D2*X84060D1*X83220Y138900D2*X77000D1*X82850Y138020D2*X83320Y139150D1*X84180Y140010*X85310Y140480*X86540*X87660Y140010*X88530Y139150*X89000Y138020*Y136800*X88530Y135670*X87660Y134800*X86540Y134330*X85310*X84180Y134800*X83320Y135670*X82850Y136800*Y138020*X57880Y137920D2*X82850D1*X57040Y138760D2*X57900Y137900D1*X58370Y136770*Y135550*X57900Y134420*X57040Y133550*X55910Y133080*X54690*X53560Y133550*X53370Y133740*Y133670*X52900Y132540*X52040Y131680*X50910Y131210*X49690*X48560Y131680*X47700Y132540*X47230Y133670*Y134890*X47700Y136020*X48560Y136890*X49690Y137350*X50910*X52040Y136890*X52230Y136700*Y136770*X52700Y137900*X53560Y138760*X54690Y139230*X55910*X57040Y138760*X74850Y138900D2*X56700D1*X26020Y139890D2*X73480D1*X72980Y140870D2*X26020D1*Y141860D2*X72140D1*X70520Y142840D2*X26020D1*Y143830D2*X69920D1*X69730Y144810D2*X26020D1*Y145800D2*X69840D1*X70330Y146780D2*X26020D1*Y147770D2*X71680D1*X93550Y148750D2*X26020D1*X97450D2*X97050D1*X98100Y147770D2*X97960D1*X102500D2*X106850D1*X106200Y148750D2*X103150D1*X103370Y149740D2*X105980D1*X106060Y150720D2*X103290D1*X102840Y151710D2*X106510D1*X107750Y152690D2*X101600D1*X110350D2*X115870D1*X114630Y151710D2*X111590D1*X112040Y150720D2*X114190D1*X114100Y149740D2*X112120D1*X111900Y148750D2*X114330D1*X111650Y148170D2*X110790Y147300D1*X109660Y146830*X108440*X107310Y147300*X106450Y148170*X105980Y149300*Y150520*X106450Y151650*X107310Y152510*X108440Y152980*X109660*X110790Y152510*X111650Y151650*X112120Y150520*Y149300*X111650Y148170*X114970Y147770D2*X111250D1*X79000Y141860D2*X125880D1*X79000Y142390D2*Y141170D1*X78530Y140040*X77660Y139180*X76540Y138710*X75310*X74180Y139180*X73320Y140040*X72850Y141170*Y141830*X72190*X71060Y142300*X70200Y143170*X69730Y144300*Y145520*X70200Y146650*X71060Y147510*X72190Y147980*X73410*X74540Y147510*X75400Y146650*X75870Y145520*Y144850*X76540*X77660Y144390*X78530Y143520*X79000Y142390*X125070Y142840D2*X78810D1*X97310Y143830D2*X124730D1*Y144810D2*X98070D1*X98370Y145800D2*X125100D1*X98370Y146770D2*Y145550D1*X97900Y144420*X97040Y143550*X95910Y143080*X94690*X93560Y143550*X92700Y144420*X92230Y145550*Y146770*X92700Y147900*X93560Y148760*X94690Y149230*X95910*X97040Y148760*X97900Y147900*X98370Y146770*X125960Y146780D2*X98370D1*X95450Y154660D2*X138700D1*X138070Y155650D2*X96630D1*X97050Y156630D2*X137850D1*X137950Y157620D2*X97120D1*X96880Y158600D2*X138400D1*X95790Y160010D2*X96650Y159150D1*X97120Y158020*Y156800*X96650Y155670*X95790Y154800*X94660Y154330*X93440*X92310Y154800*X91450Y155670*X90980Y156800*Y158020*X91450Y159150*X92310Y160010*X93440Y160480*X94660*X95790Y160010*X139670Y159590D2*X96210D1*X129150Y162540D2*X152330D1*X151770Y163530D2*X129930D1*X130250Y164510D2*X151600D1*X151750Y165500D2*X130250D1*X129850Y166480D2*X152280D1*X121720D2*X124500D1*X124100Y165500D2*X122120D1*Y164510D2*X124100D1*X124420Y163530D2*X121800D1*X121030Y162540D2*X125200D1*X114780D2*X117070D1*X116300Y163530D2*X115550D1*X115870Y164510D2*X115980D1*Y165500D2*X115870D1*X115470Y166480D2*X116380D1*X86500D2*X110130D1*X109730Y165500D2*X86370D1*X85870Y164510D2*X109730D1*X110050Y163530D2*X84480D1*X43370Y162540D2*X110820D1*X153840Y161560D2*X43010D1*X143150Y154660D2*X152030D1*X152960Y155650D2*X143780D1*X156390D2*X157090D1*X144000Y156630D2*X156300D1*X155980Y157620D2*X143900D1*X143450Y158600D2*X155980D1*X142660Y159390D2*X143530Y158520D1*X144000Y157390*Y156170*X143530Y155040*X142660Y154180*X141540Y153710*X140310*X139180Y154180*X138320Y155040*X137850Y156170*Y157390*X138320Y158520*X139180Y159390*X140310Y159850*X141540*X142660Y159390*X156370Y159590D2*X142180D1*X67260Y160570D2*X157250D1*X42180D2*X63340D1*X26020Y149740D2*X40590D1*X39710Y150720D2*X26020D1*Y151710D2*X39340D1*Y152690D2*X26020D1*Y154660D2*X40020D1*X39460Y153680D2*X26020D1*X61050Y156630D2*X33920D1*X34970Y157620D2*X61050D1*X61450Y158600D2*X35470D1*Y159590D2*X62090D1*X38420Y160570D2*X35470D1*X35160Y161560D2*X37590D1*X37230Y162540D2*X34480D1*X26020Y165500D2*X38420D1*X37590Y164510D2*X26020D1*X37230Y163640D2*X37700Y164770D1*X38560Y165640*X39690Y166100*X40910*X42040Y165640*X42900Y164770*X43370Y163640*Y162420*X42900Y161290*X42040Y160430*X40910Y159960*X39690*X38560Y160430*X37700Y161290*X37230Y162420*Y163640*X26020Y163530D2*X37230D1*X26020Y162540D2*X26750D1*X26020Y161560D2*X26070D1*X26260Y157620D2*X26020D1*Y156630D2*X27310D1*X61170Y155650D2*X26020D1*X45810Y154660D2*X61570D1*X62390Y153680D2*X46380D1*X46490Y152690D2*X64060D1*X97230Y149740D2*X45250D1*X46130Y150720D2*X97310D1*X46490Y151330D2*Y153500D1*X46470Y153520*X45720Y154820*X44410Y155580*X44390Y155600*X41440*X41420Y155580*X40120Y154820*X39360Y153520*X39340Y153500*Y151330*X39360Y151310*X40120Y150010*X41420Y149260*X41440Y149240*X44390*X44410Y149260*X45720Y150010*X46470Y151310*X46490Y151330*X97760Y151710D2*X46490D1*X98560Y152510D2*X97700Y151650D1*X97230Y150520*Y149300*X97700Y148170*X98560Y147300*X99690Y146830*X100910*X102040Y147300*X102900Y148170*X103370Y149300*Y150520*X102900Y151650*X102040Y152510*X100910Y152980*X99690*X98560Y152510*X66540Y152690D2*X99000D1*X67710Y153180D2*X66150Y152530D1*X64450*X62890Y153180*X61690Y154370*X61050Y155940*Y157630*X61690Y159190*X62890Y160390*X64450Y161030*X66150*X67710Y160390*X68910Y159190*X69550Y157630*Y155940*X68910Y154370*X67710Y153180*X151620Y153680D2*X68210D1*X118480Y152690D2*X151600D1*X151900Y151710D2*X119720D1*X120160Y150720D2*X152640D1*X159540Y149740D2*X120250D1*X120020Y148750D2*X158780D1*X119780Y148170D2*X118910Y147300D1*X117790Y146830*X116560*X115430Y147300*X114570Y148170*X114100Y149300*Y150520*X114570Y151650*X115430Y152510*X116560Y152980*X117790*X118910Y152510*X119780Y151650*X120250Y150520*Y149300*X119780Y148170*X158480Y147770D2*X119380D1*X129640Y146780D2*X158480D1*X158890Y145800D2*X130500D1*X130870Y144810D2*X159800D1*X160520Y141860D2*X129720D1*X130530Y142840D2*X161500D1*X130870Y143670D2*Y144890D1*X130400Y146020*X129540Y146890*X128410Y147350*X127190*X126060Y146890*X125200Y146020*X124730Y144890*Y143670*X125200Y142540*X126060Y141680*X127190Y141210*X128410*X129540Y141680*X130400Y142540*X130870Y143670*X162490Y143830D2*X130870D1*X163470Y144810D2*X163300D1*X164460Y145800D2*X164210D1*X164620Y146780D2*X165440D1*X166430Y147770D2*X164620D1*X164320Y148750D2*X166500D1*X163290Y150010D2*X164150Y149150D1*X164620Y148020*Y146800*X164150Y145670*X163290Y144800*X162160Y144330*X160940*X159810Y144800*X158950Y145670*X158480Y146800*Y148020*X158950Y149150*X159810Y150010*X160940Y150480*X162160*X163290Y150010*X166500Y149740D2*X163560D1*X156710Y150720D2*X166500D1*Y151710D2*X157450D1*X157750Y152690D2*X166500D1*X157750Y153640D2*Y152420D1*X157280Y151290*X156410Y150430*X155290Y149960*X154060*X152930Y150430*X152070Y151290*X151600Y152420*Y153640*X152070Y154770*X152930Y155640*X154060Y156100*X155290*X156410Y155640*X157280Y154770*X157750Y153640*X166500Y153680D2*X157730D1*X157320Y154660D2*X166500D1*Y155650D2*X161010D1*X161790Y156630D2*X166750D1*X167530Y157620D2*X162120D1*Y158600D2*X168510D1*X161650Y159770D2*X162120Y158640D1*Y157420*X161650Y156290*X160790Y155430*X159660Y154960*X158440*X157310Y155430*X156450Y156290*X155980Y157420*Y158640*X156450Y159770*X157310Y160640*X158440Y161100*X159660*X160790Y160640*X161650Y159770*X169500Y159590D2*X161730D1*X160850Y160570D2*X170480D1*X155510Y161560D2*X161970D1*X160450Y162540D2*X157020D1*X157580Y163530D2*X159890D1*X159730Y164510D2*X157750D1*X157600Y165500D2*X159870D1*X160400Y166480D2*X157070D1*X187440D2*X165200D1*X165730Y165500D2*X187440D1*X173690Y164510D2*X165870D1*X187440D2*X178160D1*X178790Y163530D2*X187440D1*Y162540D2*X179000D1*X182370Y161560D2*X187440D1*Y160570D2*X183090D1*X183370Y159590D2*X187440D1*Y158600D2*X183340D1*X184280Y157620D2*X187440D1*Y156630D2*X185410D1*X185820Y155650D2*X187440D1*Y154660D2*X185870D1*X185620Y153680D2*X187440D1*Y152690D2*X184930D1*X182510Y151710D2*X187440D1*Y150720D2*X182750D1*X182670Y149740D2*X187440D1*Y148750D2*X182240D1*X183660Y147770D2*X187440D1*Y146780D2*X184360D1*X184620Y145800D2*X187440D1*Y144810D2*X184580D1*X184170Y143830D2*X187440D1*X183290Y142930D2*X182160Y142460D1*X180940*X179810Y142930*X178950Y143790*X178480Y144920*Y146140*X178950Y147270*X179130Y147460*X179060*X177930Y147930*X177070Y148790*X176600Y149920*Y151140*X177070Y152270*X177930Y153140*X179060Y153600*X180010*X179730Y154300*Y155520*X180010Y156210*X179690*X178560Y156680*X177700Y157540*X177230Y158670*Y159620*X176540Y159330*X176460*X171600Y154470*Y146270*X171210Y145340*X170490Y144620*X158620Y132740*X157680Y132360*X144480*X135870Y123750*Y123670*X135400Y122540*X134540Y121680*X133410Y121210*X132190*X131060Y121680*X131010Y121730*X130110*X129240Y120870*X128310Y120480*X104790*X103860Y120870*X103140Y121590*X102990Y121730*X102090*X102040Y121680*X100910Y121210*X99690*X98560Y121680*X97700Y122540*X97230Y123670*Y124890*X97700Y126020*X98560Y126890*X99690Y127350*X100910*X102040Y126890*X102090Y126830*X104560*X105490Y126440*X106360Y125580*X121530*X120820Y126290*X120350Y127420*Y128640*X120820Y129770*X121680Y130640*X122810Y131100*X124040*X125160Y130640*X126030Y129770*X126500Y128640*Y127420*X126030Y126290*X125320Y125580*X126740*X126890Y125730*X127610Y126440*X128000Y126610*X127700Y126920*X127230Y128050*Y129270*X127700Y130400*X128560Y131260*X129690Y131730*X130910*X132040Y131260*X132900Y130400*X133370Y129270*Y128460*X141260Y136350*X141980Y137070*X142920Y137460*X156120*X166500Y147840*Y156040*X166890Y156980*X172850Y162940*Y163020*X173320Y164150*X174180Y165010*X175310Y165480*X176540*X177660Y165010*X178530Y164150*X179000Y163020*Y162070*X179690Y162350*X180910*X182040Y161890*X182900Y161020*X183370Y159890*Y158670*X183080Y157980*X183410*X184540Y157510*X185400Y156650*X185870Y155520*Y154300*X185400Y153170*X184540Y152300*X183410Y151830*X182460*X182750Y151140*Y149920*X182280Y148790*X182090Y148600*X182160*X183290Y148140*X184150Y147270*X184620Y146140*Y144920*X184150Y143790*X183290Y142930*X187440Y142840D2*X183080D1*X167730Y141860D2*X187440D1*Y140870D2*X166750D1*X165760Y139890D2*X187440D1*Y138900D2*X164780D1*X163790Y137920D2*X187440D1*Y136930D2*X162810D1*X176100Y135950D2*X187440D1*Y134960D2*X176830D1*X177120Y133980D2*X187440D1*Y132990D2*X177100D1*X176690Y132010D2*X187440D1*X175790Y131050D2*X174660Y130580D1*X173440*X172310Y131050*X171450Y131920*X170980Y133050*Y134270*X171450Y135400*X172310Y136260*X173440Y136730*X174660*X175790Y136260*X176650Y135400*X177120Y134270*Y133050*X176650Y131920*X175790Y131050*X187440Y131020D2*X175720D1*X187440Y130040D2*X170400D1*X169540Y129180*X168410Y128710*X167190*X166060Y129180*X156950Y129050D2*X166360D1*X156390Y130040D2*X165200D1*X164730Y131170*Y132390*X144130Y132010D2*X164730D1*X153240Y131020D2*X143150D1*X142160Y130040D2*X151710D1*X151150Y129050D2*X141180D1*X140190Y128070D2*X150980D1*X151120Y127080D2*X139210D1*X138220Y126100D2*X151640D1*X153070Y125110D2*X137240D1*X154660Y124960D2*X153440D1*X152310Y125430*X151450Y126290*X150980Y127420*Y128640*X151450Y129770*X152310Y130640*X153440Y131100*X154660*X155790Y130640*X156650Y129770*X157120Y128640*Y127420*X156650Y126290*X155790Y125430*X154660Y124960*X187440Y125110D2*X155030D1*X183660Y124130D2*X187440D1*Y123140D2*X185160D1*X185710Y122160D2*X187440D1*Y121170D2*X185870D1*X185720Y120190D2*X187440D1*Y119200D2*X185190D1*X183730Y118220D2*X187440D1*X182190Y118080D2*X181060Y118550D1*X180200Y119420*X179730Y120550*Y121770*X180200Y122900*X181060Y123760*X182190Y124230*X183410*X184540Y123760*X185400Y122900*X185870Y121770*Y120550*X185400Y119420*X184540Y118550*X183410Y118080*X182190*X173180Y118220D2*X181870D1*X184530Y117230D2*X172590D1*X171000Y116250D2*X183780D1*X183490Y114280D2*X165260D1*X165750Y115260D2*X183480D1*X169600Y116250D2*X165870D1*X165680Y117230D2*X168010D1*X167420Y118220D2*X165080D1*X167230Y118670D2*Y119890D1*X167700Y121020*X168560Y121890*X169690Y122350*X170910*X172040Y121890*X172900Y121020*X173370Y119890*Y118670*X172900Y117540*X172040Y116680*X170910Y116210*X169690*X168560Y116680*X167700Y117540*X167230Y118670*X163470Y119200D2*X167230D1*X26020D2*X162130D1*X160520Y118220D2*X26020D1*X104820Y117230D2*X159920D1*X159730Y116250D2*X105570D1*X159850Y115260D2*X157410D1*X158110Y114280D2*X160340D1*X161690Y113290D2*X158370D1*X163410Y113080D2*X162190D1*X161060Y113550*X160200Y114420*X159730Y115550*Y116770*X160200Y117900*X161060Y118760*X162190Y119230*X163410*X164540Y118760*X165400Y117900*X165870Y116770*Y115550*X165400Y114420*X164540Y113550*X163410Y113080*X183890Y113290D2*X163910D1*X158320Y112310D2*X184810D1*X187440Y111320D2*X157920D1*X156880Y110340D2*X187440D1*X147510Y113290D2*X152230D1*X152280Y112310D2*X148150D1*X148370Y111320D2*X152680D1*X153780Y110340D2*X148280D1*X147840Y109350D2*X153530D1*X153000Y108370D2*X146590D1*X130870Y107380D2*X152850D1*X144010Y108370D2*X130730D1*X130950Y109350D2*X142760D1*X142310Y110340D2*X132570D1*X133180Y111320D2*X142230D1*X142450Y112310D2*X133370D1*X142700Y112900D2*X142230Y111770D1*Y110550*X142700Y109420*X143560Y108550*X144690Y108080*X145910*X147040Y108550*X147900Y109420*X148370Y110550*Y111770*X147900Y112900*X147040Y113760*X145910Y114230*X144690*X143560Y113760*X142700Y112900*X133260Y113290D2*X143090D1*X152490Y114280D2*X132770D1*X153560Y115640D2*X154690Y116100D1*X155910*X157040Y115640*X157900Y114770*X158370Y113640*Y112420*X157900Y111290*X157040Y110430*X156850Y110350*X157660Y110010*X158530Y109150*X159000Y108020*Y106800*X158530Y105670*X157660Y104800*X156540Y104330*X155310*X154180Y104800*X153320Y105670*X152850Y106800*Y108020*X153320Y109150*X154180Y110010*X154380Y110090*X153560Y110430*X152700Y111290*X152230Y112420*Y113640*X152700Y114770*X153560Y115640*X131430Y115260D2*X153190D1*X105870D2*X129170D1*X127830Y114280D2*X105860D1*X105460Y113290D2*X127340D1*X104540Y112300D2*X103410Y111830D1*X102190*X101060Y112300*X100200Y113170*X99730Y114300*Y115520*X100200Y116650*X101060Y117510*X102190Y117980*X103410*X104540Y117510*X105400Y116650*X105870Y115520*Y114300*X105400Y113170*X104540Y112300*X127230Y112310D2*X104540D1*X127230Y111800D2*Y113020D1*X127700Y114150*X128560Y115010*X129690Y115480*X130910*X132040Y115010*X132900Y114150*X133370Y113020*Y111800*X132900Y110670*X132040Y109800*X130910Y109330*X130220*X130400Y109150*X130870Y108020*Y106800*X130400Y105670*X129540Y104800*X128410Y104330*X127190*X126060Y104800*X125200Y105670*X124730Y106800*Y108020*X125200Y109150*X126060Y110010*X127190Y110480*X127880*X127700Y110670*X127230Y111800*X26020Y111320D2*X127420D1*X41850Y110340D2*X26020D1*Y109350D2*X40400D1*X39870Y108370D2*X26020D1*Y107380D2*X39730D1*X39890Y106400D2*X26020D1*Y105410D2*X40450D1*X41970Y104430D2*X26020D1*X43410Y104330D2*X42190D1*X41060Y104800*X40200Y105670*X39730Y106800*Y108020*X40200Y109150*X41060Y110010*X42190Y110480*X43410*X44540Y110010*X45400Y109150*X45870Y108020*Y106800*X45400Y105670*X44540Y104800*X43410Y104330*X116040Y104430D2*X43630D1*X67360Y103440D2*X115980D1*X116220Y102460D2*X68090D1*X117310Y101050D2*X116450Y101920D1*X115980Y103050*Y104270*X116450Y105400*X117310Y106260*X118440Y106730*X119660*X120790Y106260*X121650Y105400*X122120Y104270*Y103050*X121650Y101920*X120790Y101050*X119660Y100580*X118440*X117310Y101050*X68370Y101470D2*X116890D1*X140640Y100490D2*X68350D1*X141680Y99180D2*X140820Y100040D1*X140350Y101170*Y102390*X140820Y103520*X141680Y104390*X142810Y104850*X144040*X145160Y104390*X146030Y103520*X146500Y102390*Y101170*X146030Y100040*X145160Y99180*X144040Y98710*X142810*X141680Y99180*X67940Y99500D2*X141360D1*X67040Y98550D2*X65910Y98080D1*X64690*X63560Y98550*X62700Y99420*X62230Y100550*Y101770*X62700Y102900*X63560Y103760*X64690Y104230*X65910*X67040Y103760*X67900Y102900*X68370Y101770*Y100550*X67900Y99420*X67040Y98550*X187440Y98520D2*X66950D1*X26020Y97530D2*X187440D1*Y96550D2*X26020D1*Y95560D2*X187440D1*Y94580D2*X26020D1*X163460Y93590D2*X187440D1*Y92610D2*X164270D1*X164620Y91620D2*X187440D1*X176870Y88670D2*X163400D1*X164250Y89650D2*X177580D1*X164620Y90550D2*Y91770D1*X164150Y92900*X163290Y93760*X162160Y94230*X160940*X159810Y93760*X158950Y92900*X158480Y91770*Y90550*X158950Y89420*X159810Y88550*X160940Y88080*X162160*X163290Y88550*X164150Y89420*X164620Y90550*X187440Y90640D2*X164620D1*X181770Y89650D2*X185700D1*X185000Y88670D2*X182480D1*X182750Y87680D2*X184730D1*X184770Y86700D2*X182710D1*X182300Y85710D2*X185180D1*X181410Y84800D2*X180290Y84330D1*X179060*X177930Y84800*X177070Y85670*X176600Y86800*Y88020*X177070Y89150*X177930Y90010*X179060Y90480*X180290*X181410Y90010*X182280Y89150*X182750Y88020*Y86800*X182280Y85670*X181410Y84800*X186240Y84730D2*X181230D1*X187440Y84330D2*X187190D1*X186060Y84800*X185200Y85670*X184730Y86800*Y88020*X185200Y89150*X186060Y90010*X187190Y90480*X187440*Y111950*X187160Y111830*X185940*X184810Y112300*X183950Y113170*X183480Y114300*Y115520*X183950Y116650*X184810Y117510*X185940Y117980*X187160*X187440Y117860*Y167360*X164020*X164540Y167140*X165400Y166280*X165870Y165150*Y163930*X165400Y162800*X164540Y161930*X163410Y161470*X162190*X161060Y161930*X160200Y162800*X159730Y163930*Y165150*X160200Y166280*X161060Y167140*X161580Y167360*X155890*X156410Y167140*X157280Y166280*X157750Y165150*Y163930*X157280Y162800*X156410Y161930*X155290Y161470*X154060*X152930Y161930*X152070Y162800*X151600Y163930*Y165150*X152070Y166280*X152930Y167140*X153460Y167360*X129070*X129780Y166650*X130250Y165520*Y164300*X129780Y163170*X128910Y162300*X127790Y161830*X126560*X125430Y162300*X124570Y163170*X124100Y164300*Y165520*X124570Y166650*X125280Y167360*X120940*X121650Y166650*X122120Y165520*Y164300*X121650Y163170*X120790Y162300*X119660Y161830*X118440*X117310Y162300*X116450Y163170*X115980Y164300*Y165520*X116450Y166650*X117160Y167360*X114690*X115400Y166650*X115870Y165520*Y164300*X115400Y163170*X114540Y162300*X113410Y161830*X112190*X111060Y162300*X110200Y163170*X109730Y164300*Y165520*X110200Y166650*X110910Y167360*X86360*X86500Y167020*Y165800*X86030Y164670*X85160Y163810*X84040Y163340*X82810*X81680Y163810*X80820Y164670*X80350Y165800*Y167020*X80490Y167360*X51610*X47670Y171290*Y218540*X39800*X26020Y204760*Y161460*X26590Y162450*X28020Y163270*X33210*X34640Y162450*X35470Y161020*Y158480*X34640Y157050*X33210Y156220*X28020*X26590Y157050*X26020Y158040*Y129280*X26590Y130260*X28020Y131090*X33210*X34640Y130260*X35470Y128830*Y126300*X34640Y124870*X33210Y124040*X28020*X26590Y124870*X26020Y125850*Y39400*X39800Y25620*X187440*Y27170*X186610Y27510*X185400Y28720*X184750Y30300*Y32010*X185400Y33590*X186610Y34800*X187440Y35140*Y37170*X186610Y37510*X185400Y38720*X184750Y40300*Y42010*X185400Y43590*X186610Y44800*X187440Y45140*Y56290*X187230Y56800*Y58020*X187440Y58520*Y84330*X106890Y83740D2*X187440D1*Y82760D2*X106240D1*X90790Y79800D2*X187440D1*Y80790D2*X91700D1*X92110Y81770D2*X187440D1*X101860Y82760D2*X92120D1*X91820Y83740D2*X101210D1*X100980Y84730D2*X91070D1*X100980Y85520D2*X101450Y86650D1*X102310Y87510*X103440Y87980*X104660*X105790Y87510*X106650Y86650*X107120Y85520*Y84300*X106650Y83170*X105790Y82300*X104660Y81830*X103440*X102310Y82300*X101450Y83170*X100980Y84300*Y85520*X26020Y85710D2*X101060D1*X87030Y84730D2*X26020D1*X61670Y83740D2*X86280D1*X85980Y82760D2*X63440D1*X64420Y81770D2*X85990D1*X86400Y80790D2*X64900D1*X87310Y79800D2*X86450Y80670D1*X85980Y81800*Y83020*X86450Y84150*X87310Y85010*X88440Y85480*X89660*X90790Y85010*X91650Y84150*X92120Y83020*Y81800*X91650Y80670*X90790Y79800*X89660Y79330*X88440*X87310Y79800*X65300*X65360Y79660D2*Y77500D1*X64530Y75500*X63010Y73970*X61010Y73140*X58840*X56850Y73970*X55320Y75500*X54490Y77500*Y79660*X55320Y81660*X56850Y83190*X58840Y84010*X61010*X63010Y83190*X64530Y81660*X65360Y79660*X187440Y78820D2*X65360D1*X123760Y77830D2*X187440D1*Y76850D2*X125200D1*X125730Y75860D2*X187440D1*Y74880D2*X125870D1*X178370Y69950D2*X187440D1*Y70940D2*X178370D1*X178050Y71920D2*X187440D1*Y72910D2*X177270D1*X125700Y73890D2*X187440D1*X173330Y72910D2*X125140D1*X123620Y71920D2*X172550D1*X122190Y71830D2*X121060Y72300D1*X120200Y73170*X119730Y74300*Y75520*X120200Y76650*X121060Y77510*X122190Y77980*X123410*X124540Y77510*X125400Y76650*X125870Y75520*Y74300*X125400Y73170*X124540Y72300*X123410Y71830*X122190*X103620Y71920D2*X121980D1*X172230Y69950D2*X102720D1*X101310Y70940D2*X172230D1*X102190Y71830D2*X103410D1*X104540Y72300*X105400Y73170*X105870Y74300*Y75520*X105400Y76650*X104540Y77510*X103410Y77980*X102190*X101060Y77510*X100200Y76650*X99730Y75520*Y74300*X100200Y73170*X101060Y72300*X102190Y71830*X86120Y71920D2*X101980D1*X84690Y71830D2*X83560Y72300D1*X82700Y73170*X82230Y74300*Y75520*X82700Y76650*X83560Y77510*X84690Y77980*X85910*X87040Y77510*X87900Y76650*X88370Y75520*Y74300*X87900Y73170*X87040Y72300*X85910Y71830*X84690*X26020Y71920D2*X84480D1*X49490Y70940D2*X26020D1*X99290D2*X53610D1*X54340Y69950D2*X97880D1*X97360Y68970D2*X54620D1*X54590Y67980D2*X97230D1*X97400Y67000D2*X54190D1*X53190Y66010D2*X97980D1*X50940Y65580D2*X49810Y66050D1*X48950Y66920*X48480Y68050*Y69270*X48950Y70400*X49810Y71260*X50940Y71730*X52160*X53290Y71260*X54150Y70400*X54620Y69270*Y68050*X54150Y66920*X53290Y66050*X52160Y65580*X50940*X160760Y64040D2*X50450D1*X187440Y66010D2*X165180D1*X164760Y65030D2*X187440D1*Y64040D2*X163590D1*X50860Y63060D2*X187440D1*X163750Y62070D2*X50870D1*X50580Y61090D2*X163090D1*X162850Y60100D2*X49840D1*X162850Y59300D2*Y60520D1*X163320Y61650*X164180Y62510*X165310Y62980*X166540*X167660Y62510*X168530Y61650*X169000Y60520*Y59300*X168530Y58170*X167660Y57300*X166540Y56830*X165310*X164180Y57300*X163320Y58170*X162850Y59300*X104310Y59120D2*X162930D1*X102810Y59230D2*X104040D1*X105160Y58760*X106030Y57900*X106500Y56770*Y55550*X106030Y54420*X105160Y53550*X104040Y53080*X102810*X101680Y53550*X100820Y54420*X100350Y55550*Y56770*X100820Y57900*X101680Y58760*X102810Y59230*X35200Y59120D2*X102540D1*X34120Y60110D2*X34140Y60040D1*X34320Y59920*X34390*X34560Y59750*X34770Y59610*X34780Y59540*X34930Y59380*X35000Y59370*X35140Y59170*X35320Y59000*Y58920*X35440Y58750*X35510Y58720*X35610Y58500*X35750Y58300*X35740Y58230*X35830Y58030*X35890Y58000*X35960Y57760*X36060Y57540*X36030Y57470*X36090Y57260*X36150Y57210*X36170Y56970*X36230Y56730*X36190Y56670*X36210Y56460*X36260Y56400*X36240Y56160*X45080Y55180D2*X36150D1*X45440Y56070D2*X46640Y57260D1*X48200Y57910*X49900*X51460Y57260*X52660Y56070*X53300Y54500*Y52810*X52660Y51250*X51460Y50050*X49900Y49400*X48200*X46640Y50050*X45440Y51250*X44800Y52810*Y54500*X45440Y56070*X45540Y56160D2*X36240D1*X36260Y55910*X36210Y55860*X36190Y55640*X36230Y55580*X36170Y55340*X36150Y55100*X36090Y55050*X36030Y54840*X36060Y54770*X35960Y54550*X35890Y54320*X35830Y54280*X35740Y54080*X35750Y54010*X35610Y53810*X35510Y53590*X35440Y53560*X35320Y53390*Y53310*X35140Y53140*X35000Y52940*X34930Y52930*X34780Y52780*X34770Y52700*X34560Y52560*X34390Y52390*X34320*X34140Y52270*X34120Y52200*X33890Y52090*X33690Y51950*X33620Y51970*X33430Y51880*X33390Y51810*X33150Y51750*X32930Y51650*X32860Y51670*X32660Y51620*X32610Y51560*X32360Y51540*X32130Y51470*X32060Y51510*X31850Y51490*X31790Y51440*X31550Y51470*X31310Y51440*X31250Y51490*X31040Y51510*X30970Y51470*X30740Y51540*X30490Y51560*X30440Y51620*X30240Y51670*X30170Y51650*X29950Y51750*X29710Y51810*X29670Y51880*X29480Y51970*X29410Y51950*X29200Y52090*X28980Y52200*X28960Y52270*X28780Y52390*X28710*X28540Y52560*X28330Y52700*X28320Y52780*X28170Y52930*X28100Y52940*X27960Y53140*X27780Y53310*Y53390*X27660Y53560*X27590Y53590*X27490Y53810*X27350Y54010*X27360Y54080*X27270Y54280*X27210Y54320*X27140Y54550*X27040Y54770*X27060Y54840*X27010Y55050*X26950Y55100*X26930Y55340*X26870Y55580*X26900Y55640*X26890Y55860*X26840Y55910*X26860Y56160*X26020D2*X26860D1*X26840Y56400*X26890Y56460*X26900Y56670*X26870Y56730*X26930Y56970*X26950Y57210*X27010Y57260*X27060Y57470*X27040Y57540*X27140Y57760*X27210Y58000*X27270Y58030*X27360Y58230*X27350Y58300*X27490Y58500*X27590Y58720*X27660Y58750*X27780Y58920*Y59000*X27960Y59170*X28100Y59370*X28170Y59380*X28320Y59540*X28330Y59610*X28540Y59750*X28710Y59920*X28780*X28960Y60040*X28980Y60110*X29200Y60220*X29410Y60360*X29480Y60350*X29670Y60440*X29710Y60500*X29950Y60560*X30170Y60670*X30240Y60640*X30440Y60700*X30490Y60750*X30740Y60770*X30970Y60840*X31040Y60800*X31250Y60820*X31310Y60870*X31550Y60850*X31790Y60870*X31850Y60820*X32060Y60800*X32130Y60840*X32360Y60770*X32610Y60750*X32660Y60700*X32860Y60640*X32930Y60670*X33150Y60560*X33390Y60500*X33430Y60440*X33620Y60350*X33690Y60360*X33890Y60220*X34120Y60110*X45760Y60100D2*X34120D1*X26020Y61090D2*X45020D1*X44730Y62070D2*X26020D1*Y63060D2*X44740D1*X45150Y64040D2*X26020D1*Y65030D2*X46100D1*X49910Y66010D2*X26020D1*X49540Y65010D2*X50400Y64150D1*X50870Y63020*Y61800*X50400Y60670*X49540Y59800*X48410Y59330*X47190*X46060Y59800*X45200Y60670*X44730Y61800*Y63020*X45200Y64150*X46060Y65010*X47190Y65480*X48410*X49540Y65010*X99530Y65030D2*X49500D1*X159590D2*X101070D1*X102620Y66010D2*X159170D1*X159100Y67000D2*X103200D1*X103370Y67980D2*X159350D1*X103370Y68640D2*Y67420D1*X102900Y66290*X102040Y65430*X100910Y64960*X99690*X98560Y65430*X97700Y66290*X97230Y67420*Y68640*X97700Y69770*X98560Y70640*X99690Y71100*X100910*X102040Y70640*X102900Y69770*X103370Y68640*X160020Y68970D2*X103240D1*X172620D2*X164330D1*X165000Y67980D2*X173510D1*X165250Y67390D2*Y66170D1*X164780Y65040*X163910Y64180*X162790Y63710*X161560*X160430Y64180*X159570Y65040*X159100Y66170*Y67390*X159570Y68520*X160430Y69390*X161560Y69850*X162790*X163910Y69390*X164780Y68520*X165250Y67390*X187440Y67000D2*X165250D1*X177090Y67980D2*X187440D1*X177900Y68790D2*X177040Y67930D1*X175910Y67460*X174690*X173560Y67930*X172700Y68790*X172230Y69920*Y71140*X172700Y72270*X173560Y73140*X174690Y73600*X175910*X177040Y73140*X177900Y72270*X178370Y71140*Y69920*X177900Y68790*X187440Y68970D2*X177980D1*X191370D2*X200490D1*X201000Y69950D2*X191370D1*X205750Y66010D2*X219560D1*X210720Y64040D2*X206360D1*X207740Y63060D2*X210000D1*X209730Y62070D2*X208250D1*X208370Y61090D2*X209760D1*X210170Y60100D2*X208190D1*X207600Y59120D2*X211210D1*X192920D2*X203000D1*X202410Y60100D2*X191820D1*X199040Y63060D2*X202860D1*X202350Y62070D2*X197730D1*X191370Y61090D2*X202230D1*X195370Y62070D2*X191370D1*Y63060D2*X194060D1*X193580Y64040D2*X191370D1*Y65030D2*X193480D1*X193680Y66010D2*X191370D1*Y67000D2*X194300D1*X200350Y67980D2*X191370D1*X198800Y67000D2*X200530D1*X201100Y66010D2*X199420D1*X199620Y65030D2*X202650D1*X199620Y64300D2*Y65520D1*X199150Y66650*X198290Y67510*X197160Y67980*X195940*X194810Y67510*X193950Y66650*X193480Y65520*Y64300*X193950Y63170*X194810Y62300*X195940Y61830*X197160*X198290Y62300*X199150Y63170*X199620Y64300*X204240Y64040D2*X199520D1*X218790Y65030D2*X204200D1*X214880Y64040D2*X218480D1*Y63060D2*X215600D1*X215870Y62070D2*X218880D1*X219780Y61090D2*X215840D1*X215430Y60100D2*X232530D1*X214540Y59180D2*X213410Y58710D1*X212190*X211060Y59180*X210200Y60040*X209730Y61170*Y62390*X210200Y63520*X211060Y64390*X212190Y64850*X213410*X214540Y64390*X215400Y63520*X215870Y62390*Y61170*X215400Y60040*X214540Y59180*X231430Y59120D2*X214390D1*X206020Y58130D2*X231030D1*X204690Y58080D2*X203560Y58550D1*X202700Y59420*X202230Y60550*Y61770*X202700Y62900*X203560Y63760*X204690Y64230*X205910*X207040Y63760*X207900Y62900*X208370Y61770*Y60550*X207900Y59420*X207040Y58550*X205910Y58080*X204690*X193320Y58130D2*X204580D1*X230980Y57150D2*X193370D1*X193110Y56160D2*X231240D1*X231940Y55180D2*X192410D1*X191370Y50250D2*X260550D1*Y49270D2*X191370D1*Y48280D2*X260550D1*Y47300D2*X191370D1*X213350Y40400D2*X260550D1*Y41390D2*X213350D1*X213200Y42370D2*X260550D1*Y43360D2*X212790D1*X211950Y44340D2*X260550D1*Y45330D2*X210220D1*X191370Y46310D2*X260550D1*X197880Y45330D2*X191370D1*X207880D2*X200220D1*X201950Y44340D2*X206150D1*X205310Y43360D2*X202790D1*X203200Y42370D2*X204900D1*X204750Y41390D2*X203350D1*Y40400D2*X204750D1*X205120Y39420D2*X202980D1*X202410Y38430D2*X205690D1*X201490Y37510D2*X199910Y36860D1*X198190*X196610Y37510*X195400Y38720*X194750Y40300*Y42010*X195400Y43590*X196610Y44800*X198190Y45460*X199910*X201490Y44800*X202700Y43590*X203350Y42010*Y40300*X202700Y38720*X201490Y37510*X206770Y37450D2*X201330D1*X201800Y34490D2*X206300D1*X205370Y33510D2*X202730D1*X203140Y32520D2*X204960D1*X204750Y31540D2*X203350D1*Y30550D2*X204750D1*X205050Y29570D2*X203050D1*X202560Y28580D2*X205540D1*X201490Y27510D2*X199910Y26860D1*X198190*X196610Y27510*X195400Y28720*X194750Y30300*Y32010*X195400Y33590*X196610Y34800*X198190Y35460*X199910*X201490Y34800*X202700Y33590*X203350Y32010*Y30300*X202700Y28720*X201490Y27510*X206530Y27600D2*X201570D1*X260550D2*X211570D1*X212560Y28580D2*X260550D1*Y29570D2*X213050D1*X213350Y30550D2*X260550D1*X212730Y33510D2*X214920D1*X213910Y34490D2*X211800D1*X191370Y35480D2*X213510D1*X213480Y36460D2*X191370D1*X213760Y37450D2*X211330D1*X212410Y38430D2*X214480D1*X212700Y38720D2*X211490Y37510D1*X209910Y36860*X208190*X206610Y37510*X205400Y38720*X204750Y40300*Y42010*X205400Y43590*X206610Y44800*X208190Y45460*X209910*X211490Y44800*X212700Y43590*X213350Y42010*Y40300*X212700Y38720*X260550Y39420D2*X212980D1*X218620Y38430D2*X260550D1*Y37450D2*X219340D1*X219620Y36460D2*X260550D1*Y35480D2*X219590D1*X219180Y34490D2*X260550D1*X218290Y33550D2*X217160Y33080D1*X215940*X214810Y33550*X213950Y34420*X213480Y35550*Y36770*X213950Y37900*X214810Y38760*X215940Y39230*X217160*X218290Y38760*X219150Y37900*X219620Y36770*Y35550*X219150Y34420*X218290Y33550*X260550Y33510D2*X218180D1*X213140Y32520D2*X260550D1*X213350Y32010D2*Y30300D1*X212700Y28720*X211490Y27510*X209910Y26860*X208190*X206610Y27510*X205400Y28720*X204750Y30300*Y32010*X205400Y33590*X206610Y34800*X208190Y35460*X209910*X211490Y34800*X212700Y33590*X213350Y32010*X260550Y31540D2*X213350D1*X296600D2*X272550D1*X297070Y29420D2*X296600Y30550D1*X272550Y28580D2*X297910D1*X323260Y25630D2*X272430D1*X302340Y29570D2*X327200D1*X326220Y28580D2*X301440D1*X272550Y27600D2*X325230D1*X324250Y26610D2*X272550D1*X301670Y33510D2*X318130D1*X319120Y32520D2*X302430D1*X302750Y31540D2*X320820D1*X302750Y30550D2*Y31770D1*X302280Y32900*X301410Y33760*X300290Y34230*X299060*X297930Y33760*X297070Y32900*X286930Y33510D2*X297680D1*X317290Y34490D2*X287930D1*X288340Y35480D2*X316890D1*X316480Y36460D2*X288370D1*X288090Y37450D2*X316210D1*Y38430D2*X287370D1*X191370Y54190D2*X337040D1*Y53210D2*X191370D1*X309200Y52220D2*X337040D1*Y51240D2*X309950D1*X310250Y50250D2*X337040D1*Y49270D2*X310230D1*X309830Y48280D2*X337040D1*Y47300D2*X308900D1*X325910Y46310D2*X337040D1*Y45330D2*X328290D1*X329360Y44340D2*X337040D1*Y43360D2*X330340D1*X330910Y42370D2*X337040D1*Y41390D2*X331320D1*X331730Y40400D2*X337040D1*Y39420D2*X331810D1*Y38430D2*X336070D1*X335080Y37450D2*X331810D1*X331540Y36460D2*X334100D1*X333110Y35480D2*X331130D1*X330730Y34490D2*X332130D1*X329890Y33510D2*X331140D1*X328910Y32520D2*X330160D1*X329170Y31540D2*X327200D1*X328190Y30550D2*X302750D1*X302280Y29420*X301410Y28550*X300290Y28080*X299060*X297930Y28550*X297070Y29420*X272550Y29570D2*X297010D1*X272550Y30550D2*X296600D1*Y31770*X297070Y32900*X272550Y32520D2*X296920D1*X283670Y33510D2*X272550D1*Y34490D2*X282660D1*X282260Y35480D2*X272550D1*Y36460D2*X282230D1*X282510Y37450D2*X272550D1*X283560Y38760D2*X284690Y39230D1*X285910*X287040Y38760*X287900Y37900*X288370Y36770*Y35550*X287900Y34420*X287040Y33550*X285910Y33080*X284690*X283560Y33550*X282700Y34420*X282230Y35550*Y36770*X282700Y37900*X283560Y38760*X272550Y38430D2*X283230D1*X316210Y39420D2*X272550D1*Y40400D2*X316290D1*X316700Y41390D2*X272550D1*Y42370D2*X317110D1*X317680Y43360D2*X272550D1*Y44340D2*X318670D1*X319730Y45330D2*X272550D1*X322460Y46460D2*X325560D1*X328430Y45270*X330620Y43070*X331810Y40210*Y37100*X330620Y34240*X328430Y32040*X325560Y30860*X322460*X319590Y32040*X317400Y34240*X316210Y37100*Y40210*X317400Y43070*X319590Y45270*X322460Y46460*X272550Y46310D2*X322110D1*X305450Y47300D2*X272550D1*Y48280D2*X304520D1*X304120Y49270D2*X272550D1*Y50250D2*X304100D1*X304400Y51240D2*X272550D1*X305430Y52510D2*X306560Y52980D1*X307790*X308910Y52510*X309780Y51650*X310250Y50520*Y49300*X309780Y48170*X308910Y47300*X307790Y46830*X306560*X305430Y47300*X304570Y48170*X304100Y49300*Y50520*X304570Y51650*X305430Y52510*X191370Y52220D2*X305150D1*X260550Y51240D2*X191370D1*X337040Y62070D2*X253270D1*X253380Y61090D2*X337040D1*Y60100D2*X253380D1*X253170Y59120D2*X337040D1*Y58130D2*X252770D1*X252080Y57150D2*X337040D1*Y56160D2*X251090D1*X236160Y55180D2*X337040D1*X244800Y56160D2*X236860D1*X237120Y57150D2*X243820D1*X243130Y58130D2*X237070D1*X236670Y59120D2*X242720D1*X235790Y60010D2*X236650Y59150D1*X237120Y58020*Y56800*X236650Y55670*X235790Y54800*X234660Y54330*X233440*X232310Y54800*X231450Y55670*X230980Y56800*Y58020*X231450Y59150*X232310Y60010*X233440Y60480*X234660*X235790Y60010*X242510Y60100D2*X235570D1*X223320Y61090D2*X242510D1*X242630Y62070D2*X224220D1*X224620Y63060D2*X243040D1*X243600Y64040D2*X224620D1*X224310Y65030D2*X244580D1*X205850Y69950D2*X223760D1*X223480Y68970D2*X206360D1*X206500Y67980D2*X223500D1*X223910Y67000D2*X206320D1*X223290Y66260D2*X224150Y65400D1*X224620Y64270*Y63050*X224150Y61920*X223290Y61050*X222160Y60580*X220940*X219810Y61050*X218950Y61920*X218480Y63050*Y64270*X218950Y65400*X219810Y66260*X220940Y66730*X222160*X223290Y66260*X224910Y66010D2*X223540D1*X246550D2*X228190D1*X191370Y79800D2*X271820D1*X271550Y78820D2*X191370D1*Y77830D2*X271690D1*X259950Y76850D2*X191370D1*X272320D2*X263150D1*X250940Y69950D2*X270980D1*Y70940D2*X251770D1*X271300Y71920D2*X269890D1*X272080Y72910D2*X271190D1*X275840Y67980D2*X285410D1*X286120Y68970D2*X276730D1*X191370Y81770D2*X289100D1*X272660Y80790D2*X191370D1*X289100D2*X275440D1*X276280Y79800D2*X285850D1*X285060Y78820D2*X276550D1*X276410Y77830D2*X284730D1*X275470Y76540D2*X274550Y76160D1*X273550*X272630Y76540*X271930Y77240*X271550Y78160*Y79150*X271930Y80070*X272630Y80780*X273550Y81160*X274550*X275470Y80780*X276170Y80070*X276550Y79150*Y78160*X276170Y77240*X275470Y76540*X284730Y76850D2*X275780D1*X271010Y75860D2*X285110D1*X263860D2*X267090D1*X266590Y74880D2*X264050D1*X263840Y73890D2*X266550D1*X266910Y72910D2*X263090D1*X252120Y71920D2*X268210D1*X260010Y72910D2*X252120D1*X251760Y73890D2*X259260D1*X259050Y74880D2*X250920D1*X259050Y75400D2*X259430Y76320D1*X260130Y77030*X261050Y77410*X262050*X262970Y77030*X263670Y76320*X264050Y75400*Y74410*X263670Y73490*X262970Y72790*X262050Y72410*X261050*X260130Y72790*X259430Y73490*X259050Y74410*Y75400*X191370Y75860D2*X259240D1*X247180Y74880D2*X191370D1*Y73890D2*X246340D1*X245980Y72910D2*X191370D1*Y71920D2*X245980D1*X202410Y70940D2*X191370D1*X204040Y71100D2*X205160Y70640D1*X206030Y69770*X206500Y68640*Y67420*X206030Y66290*X205160Y65430*X204040Y64960*X202810*X201680Y65430*X200820Y66290*X200350Y67420*Y68640*X200820Y69770*X201680Y70640*X202810Y71100*X204040*X224490Y70940D2*X204440D1*X246330D2*X228610D1*X247310Y69800D2*X246450Y70670D1*X245980Y71800*Y73020*X246450Y74150*X247310Y75010*X248440Y75480*X249660*X250790Y75010*X251650Y74150*X252120Y73020*Y71800*X251650Y70670*X250790Y69800*X249660Y69330*X248440*X247310Y69800*X229340Y69950D2*X247160D1*X271370Y68970D2*X229620D1*X229590Y67980D2*X272260D1*X229150Y66920D2*X228290Y66050D1*X227160Y65580*X225940*X224810Y66050*X223950Y66920*X223480Y68050*Y69270*X223950Y70400*X224810Y71260*X225940Y71730*X227160*X228290Y71260*X229150Y70400*X229620Y69270*Y68050*X229150Y66920*X285000Y67000D2*X229190D1*X249340Y66010D2*X284990D1*X285120Y65030D2*X251310D1*X252300Y64040D2*X285530D1*X252560Y63780D2*X253380Y61780D1*Y59620*X252560Y57620*X251030Y56090*X249030Y55270*X246870*X244870Y56090*X243340Y57620*X242510Y59620*Y61780*X243340Y63780*X244870Y65310*X246870Y66140*X249030*X251030Y65310*X252560Y63780*X286410Y63060D2*X252860D1*X337040D2*X291690D1*X292570Y64040D2*X337040D1*Y65030D2*X292980D1*X293110Y66010D2*X337040D1*Y67000D2*X293100D1*X292690Y67980D2*X337040D1*Y68970D2*X291980D1*X290490Y69950D2*X337040D1*X288240Y70220D2*X289860D1*X291350Y69600*X292490Y68460*X293110Y66960*Y65350*X292490Y63860*X291350Y62710*X289860Y62100*X288240*X286750Y62710*X285610Y63860*X284990Y65350*Y66960*X285610Y68460*X286750Y69600*X288240Y70220*X277120Y69950D2*X287610D1*X337040Y70940D2*X277120D1*X276800Y71920D2*X337040D1*X275790Y73140D2*X274660Y73600D1*X273440*X272310Y73140*X271450Y72270*X270980Y71140*Y69920*X271450Y68790*X272310Y67930*X273440Y67460*X274660*X275790Y67930*X276650Y68790*X277120Y69920*Y71140*X276650Y72270*X275790Y73140*X337040Y72910D2*X276020D1*X271550Y73890D2*X337040D1*X271550Y74780D2*Y73780D1*X271170Y72860*X270470Y72160*X269550Y71780*X268550*X267630Y72160*X266930Y72860*X266550Y73780*Y74780*X266930Y75700*X267630Y76400*X268550Y76780*X269550*X270470Y76400*X271170Y75700*X271550Y74780*X285990Y74880D2*X271510D1*X337040D2*X289610D1*X290480Y75860D2*X337040D1*Y76850D2*X290870D1*Y77830D2*X337040D1*Y78820D2*X294180D1*X294940Y79800D2*X337040D1*Y80790D2*X295250D1*X295240Y81770D2*X337040D1*Y82760D2*X294840D1*X293930Y83740D2*X337040D1*Y88670D2*X294030D1*X294880Y89650D2*X337040D1*Y90640D2*X295250D1*Y91620D2*X337040D1*Y92610D2*X294900D1*X294080Y93590D2*X337040D1*Y98520D2*X293830D1*X294810Y99500D2*X337040D1*Y100490D2*X295220D1*X295250Y101470D2*X337040D1*Y102460D2*X294960D1*X294230Y103440D2*X337040D1*Y108370D2*X293470D1*X294710Y109350D2*X337040D1*Y110340D2*X295160D1*X295250Y111320D2*X337040D1*Y112310D2*X295020D1*X294380Y113290D2*X337040D1*X289970D2*X288910D1*X337040Y114280D2*X290260D1*X290750Y115260D2*X337040D1*Y116250D2*X290870D1*X290680Y117230D2*X337040D1*X289790Y119200D2*X288470D1*X291250Y118220D2*X290080D1*X337040D2*X293100D1*X294560Y119200D2*X337040D1*Y120190D2*X295100D1*X295250Y121170D2*X337040D1*Y122160D2*X295090D1*X294530Y123140D2*X337040D1*Y124130D2*X293030D1*X290690Y125110D2*X337040D1*X290110Y124130D2*X291320D1*X289820Y123140D2*X288550D1*X264670Y122160D2*X289260D1*X287050Y123140D2*X264580D1*X191370Y126100D2*X284730D1*X284860Y127080D2*X191370D1*Y128070D2*X285370D1*X247610Y129050D2*X191370D1*Y132010D2*X245980D1*X246230Y132990D2*X191370D1*Y133980D2*X246900D1*X263770Y134960D2*X191370D1*Y135950D2*X264500D1*X278550Y136930D2*X191370D1*X268600Y135950D2*X278480D1*X278720Y134960D2*X269330D1*X279810Y133550D2*X278950Y134420D1*X278480Y135550*Y136770*X278950Y137900*X279810Y138760*X280940Y139230*X282160*X283290Y138760*X284150Y137900*X284620Y136770*Y135550*X284150Y134420*X283290Y133550*X282160Y133080*X280940*X279810Y133550*X269620Y133980D2*X279390D1*X289670Y132990D2*X269600D1*X269190Y132010D2*X289200D1*X268290Y131050D2*X267160Y130580D1*X265940*X264810Y131050*X263950Y131920*X263480Y133050*Y134270*X263950Y135400*X264810Y136260*X265940Y136730*X267160*X268290Y136260*X269150Y135400*X269620Y134270*Y133050*X269150Y131920*X268290Y131050*X289100Y131020D2*X268220D1*X289100Y130550D2*Y131770D1*X289570Y132900*X290430Y133760*X291560Y134230*X292790*X293910Y133760*X294780Y132900*X295250Y131770*Y130550*X294780Y129420*X293910Y128550*X292790Y128080*X291560*X290430Y128550*X289570Y129420*X289100Y130550*X289310Y130040D2*X251650D1*X252120Y131170*Y132390*X251650Y133520*X250790Y134390*X249660Y134850*X248440*X247310Y134390*X246450Y133520*X245980Y132390*Y131170*X246450Y130040*X191370Y131020D2*X246040D1*X191370Y130040D2*X246450D1*X247310Y129180*X248440Y128710*X235420Y124130D2*X246880D1*X246220Y123140D2*X236190D1*X236500Y122160D2*X245980D1*X246050Y121170D2*X236500D1*X240360Y120190D2*X246480D1*X246500Y119200D2*X241600D1*X242040Y118220D2*X246060D1*X245980Y117230D2*X242120D1*X241890Y116250D2*X246210D1*X241650Y115670D2*X242120Y116800D1*Y118020*X241650Y119150*X240790Y120010*X239660Y120480*X238440*X237310Y120010*X236450Y119150*X235980Y118020*Y116800*X236450Y115670*X237310Y114800*X238440Y114330*X239660*X240790Y114800*X241650Y115670*X246850Y115260D2*X241250D1*X235120Y114280D2*X246240D1*X245980Y113290D2*X235120D1*Y112310D2*X246030D1*X246430Y111320D2*X235120D1*Y110340D2*X247010D1*X246270Y109350D2*X235120D1*Y108370D2*X245980D1*X245990Y107380D2*X235120D1*Y106400D2*X246400D1*X247350Y105410D2*X235120D1*X236180Y98520D2*X246440D1*X269580Y101470D2*X236020D1*X236520Y100490D2*X269080D1*X247590Y99500D2*X236550D1*X251190Y94580D2*X257970D1*X258670Y95560D2*X251870D1*X262620Y94580D2*X265340D1*X264350Y95560D2*X261930D1*X252120Y96550D2*X264050D1*X264150Y97530D2*X252060D1*X251660Y98520D2*X264750D1*X269050Y99500D2*X250510D1*X269420Y98520D2*X268350D1*X272840Y94580D2*X277360D1*X277230Y93590D2*X273760D1*X274050Y92610D2*X277410D1*X277990Y91620D2*X273930D1*X286020Y93590D2*X283370D1*X283240Y94580D2*X285130D1*X284730Y95560D2*X282740D1*X281350Y96550D2*X284730D1*X289130Y100490D2*X278170D1*X278870Y101470D2*X289100D1*X235120Y104430D2*X275030D1*X274270Y103440D2*X234990D1*X274020Y100490D2*X274930D1*X274230Y101470D2*X273520D1*X234000Y102460D2*X274050D1*X231550Y99500D2*X231050D1*X230120Y98520D2*X231920D1*X233250Y97530D2*X230120D1*X246040D2*X234850D1*X230120Y96550D2*X245980D1*X246230Y95560D2*X230120D1*X247310Y94180D2*X246450Y95040D1*X245980Y96170*Y97390*X246450Y98520*X247310Y99390*X248440Y99850*X249660*X250790Y99390*X251650Y98520*X252120Y97390*Y96170*X251650Y95040*X250790Y94180*X249660Y93710*X248440*X247310Y94180*X230120Y94580D2*X246910D1*X257800Y93590D2*X230120D1*Y92610D2*X258030D1*X258800Y91620D2*X230120D1*X269170D2*X261800D1*X262570Y92610D2*X269050D1*X262800Y93160D2*Y94150D1*X262420Y95070*X261720Y95780*X260800Y96160*X259800*X258880Y95780*X258180Y95070*X257800Y94150*Y93160*X258180Y92240*X258880Y91540*X259800Y91160*X260800*X261720Y91540*X262420Y92240*X262800Y93160*X269330Y93590D2*X262800D1*X267760Y94580D2*X270260D1*X277860Y95560D2*X268750D1*X269050Y96550D2*X279250D1*X269050Y97280D2*Y96280D1*X268670Y95360*X267970Y94660*X267050Y94280*X266050*X265130Y94660*X264430Y95360*X264050Y96280*Y97280*X264430Y98200*X265130Y98900*X266050Y99280*X267050*X267970Y98900*X268670Y98200*X269050Y97280*X270750Y97530D2*X268940D1*X285040D2*X272350D1*X273680Y98520D2*X285820D1*X274050Y99410D2*Y100400D1*X273670Y101320*X272970Y102030*X272050Y102410*X271050*X270130Y102030*X269430Y101320*X269050Y100400*Y99410*X269430Y98490*X270130Y97790*X271050Y97410*X272050*X272970Y97790*X273670Y98490*X274050Y99410*X289540Y99500D2*X274050D1*X290520Y98520D2*X289780D1*X337040Y97530D2*X290550D1*X290870Y96550D2*X337040D1*Y95560D2*X290870D1*X290470Y94580D2*X337040D1*X289580Y93590D2*X290270D1*X289540Y93550D2*X290400Y94420D1*X290870Y95550*Y96770*X290400Y97900*X289540Y98760*X288410Y99230*X287190*X286060Y98760*X285200Y97900*X284730Y96770*Y95550*X285200Y94420*X286060Y93550*X287190Y93080*X288410*X289540Y93550*X283190Y92610D2*X289450D1*X289100Y91620D2*X282610D1*X281040Y90640D2*X289100D1*X279690Y90580D2*X278560Y91050D1*X277700Y91920*X277230Y93050*Y94270*X277700Y95400*X278560Y96260*X279690Y96730*X280910*X282040Y96260*X282900Y95400*X283370Y94270*Y93050*X282900Y91920*X282040Y91050*X280910Y90580*X279690*X273320Y90640D2*X279560D1*X252080Y86700D2*X269970D1*X269250Y87680D2*X252120D1*X251850Y88670D2*X269050D1*X269260Y89650D2*X251150D1*X230120Y90640D2*X269780D1*X246950Y89650D2*X230120D1*X229910Y84730D2*X247490D1*X246430Y85710D2*X230690D1*X230920Y86700D2*X246020D1*X245980Y87680D2*X230760D1*X230120Y88670D2*X246250D1*X212780D2*X226720D1*X191370D2*X207820D1*X207340Y89650D2*X191370D1*Y90640D2*X207230D1*X207430Y91620D2*X191370D1*X193590Y92610D2*X208030D1*X209660Y93590D2*X194330D1*X219820D2*X210940D1*X212570Y92610D2*X219190D1*X219050Y91620D2*X213170D1*X213370Y90640D2*X219320D1*X220160Y89650D2*X213260D1*X211450Y87680D2*X219540D1*X209690Y87460D2*X208560Y87930D1*X207700Y88790*X207230Y89920*Y91140*X207700Y92270*X208560Y93140*X209690Y93600*X210910*X212040Y93140*X212900Y92270*X213370Y91140*Y89920*X212900Y88790*X212040Y87930*X210910Y87460*X209690*X191370Y87680D2*X209150D1*X219070Y86700D2*X191370D1*Y85710D2*X219050D1*X219440Y84730D2*X191370D1*Y83740D2*X220850D1*X289510Y82760D2*X191370D1*X290430Y83760D2*X291560Y84230D1*X292790*X293910Y83760*X294780Y82900*X295250Y81770*Y80550*X294780Y79420*X293910Y78550*X292790Y78080*X291560*X290690Y78440*X290870Y78020*Y76800*X290400Y75670*X289540Y74800*X288410Y74330*X287190*X286060Y74800*X285200Y75670*X284730Y76800*Y78020*X285200Y79150*X286060Y80010*X287190Y80480*X288410*X289280Y80120*X289100Y80550*Y81770*X289570Y82900*X290430Y83760*X288480Y83740D2*X290420D1*X337040Y84730D2*X289280D1*X289620Y85710D2*X337040D1*Y86700D2*X289620D1*X289240Y87680D2*X337040D1*X290320Y88670D2*X288380D1*X289570Y89420D2*X289100Y90550D1*Y91770*X289570Y92900*X290430Y93760*X291560Y94230*X292790*X293910Y93760*X294780Y92900*X295250Y91770*Y90550*X294780Y89420*X293910Y88550*X292790Y88080*X291560*X290430Y88550*X289570Y89420*X273840Y89650D2*X289470D1*X284720Y88670D2*X274050D1*X273850Y87680D2*X283860D1*X272970Y86540D2*X272050Y86160D1*X271050*X270130Y86540*X269430Y87240*X269050Y88160*Y89150*X269430Y90070*X269890Y90530*X269430Y90990*X269050Y91910*Y92900*X269430Y93820*X270130Y94530*X271050Y94910*X272050*X272970Y94530*X273670Y93820*X274050Y92900*Y91910*X273670Y90990*X273210Y90530*X273670Y90070*X274050Y89150*Y88160*X273670Y87240*X272970Y86540*X283480Y86700D2*X273130D1*X251670Y85710D2*X283480D1*X250790Y84800D2*X249660Y84330D1*X248440*X247310Y84800*X246450Y85670*X245980Y86800*Y88020*X246450Y89150*X247310Y90010*X248440Y90480*X249660*X250790Y90010*X251650Y89150*X252120Y88020*Y86800*X251650Y85670*X250790Y84800*X283820Y84730D2*X250610D1*X284810Y83550D2*X283950Y84420D1*X283480Y85550*Y86770*X283950Y87900*X284810Y88760*X285940Y89230*X287160*X288290Y88760*X289150Y87900*X289620Y86770*Y85550*X289150Y84420*X288290Y83550*X287160Y83080*X285940*X284810Y83550*X222250Y83740D2*X284620D1*X226940Y84730D2*X223660D1*X224050Y85710D2*X226160D1*X225920Y86700D2*X224030D1*X223560Y87680D2*X226090D1*X222050Y88660D2*X222970Y88280D1*X223670Y87570*X224050Y86650*Y85660*X223670Y84740*X222970Y84040*X222050Y83660*X221050*X220130Y84040*X219430Y84740*X219050Y85660*Y86650*X219430Y87570*X220130Y88280*X221050Y88660*X222050*X226720Y89650D2*X222940D1*X223780Y90640D2*X226720D1*Y91620D2*X224050D1*X223910Y92610D2*X226720D1*X222970Y93900D2*X223670Y93200D1*X224050Y92280*Y91280*X223670Y90360*X222970Y89660*X222050Y89280*X221050*X220130Y89660*X219430Y90360*X219050Y91280*Y92280*X219430Y93200*X220130Y93900*X221050Y94280*X222050*X222970Y93900*X226720Y93590D2*X223280D1*X194620Y94580D2*X226720D1*Y95560D2*X194600D1*X194200Y96550D2*X226720D1*X193290Y97510D2*X194150Y96650D1*X194620Y95520*Y94300*X194150Y93170*X193290Y92300*X192160Y91830*X191370*Y60290*X192040Y60010*X192900Y59150*X193370Y58020*Y56800*X192900Y55670*X192040Y54800*X191370Y54530*Y44850*X191490Y44800*X192700Y43590*X193350Y42010*Y40300*X192700Y38720*X191490Y37510*X191370Y37460*Y34850*X191490Y34800*X192700Y33590*X193350Y32010*Y30300*X192700Y28720*X191490Y27510*X191370Y27460*Y25620*X260670*X260550Y25740*Y51570*X261140Y52160*X271960*X272550Y51570*Y25740*X272430Y25620*X323260*X337040Y39400*Y204760*X323260Y218540*X191370*Y97980*X192160*X193290Y97510*X226720Y97530D2*X193240D1*X191370Y98520D2*X226720D1*Y99500D2*X191370D1*Y100490D2*X227230D1*X226540Y101470D2*X191370D1*Y102460D2*X225590D1*X225300Y103440D2*X191370D1*X219270Y104430D2*X225410D1*X191370D2*X217580D1*X216290Y105410D2*X191370D1*Y106400D2*X215920D1*X215970Y107380D2*X191370D1*X216310Y108200D2*X217010Y108900D1*X217930Y109280*X218920*X219840Y108900*X220540Y108200*X220920Y107280*Y106280*X220540Y105360*X219840Y104660*X218920Y104280*X217930*X217010Y104660*X216310Y105360*X215920Y106280*Y107280*X216310Y108200*X191370Y108370D2*X216470D1*X231720Y109350D2*X191370D1*Y110340D2*X231720D1*Y111320D2*X191370D1*Y112310D2*X231720D1*Y113290D2*X191370D1*Y114280D2*X231720D1*Y115260D2*X191370D1*X227860Y116250D2*X231720D1*Y117230D2*X228660D1*X229000Y118220D2*X231720D1*X231660Y119200D2*X229000D1*X228620Y120190D2*X230760D1*X227660Y121260D2*X228530Y120400D1*X229000Y119270*Y118050*X228530Y116920*X227660Y116050*X226540Y115580*X225310*X224180Y116050*X223320Y116920*X222850Y118050*Y119270*X223320Y120400*X224180Y121260*X225310Y121730*X226540*X227660Y121260*X230350Y121170D2*X227750D1*X216380Y122160D2*X230350D1*X214690Y122350D2*X215910D1*X217040Y121890*X217900Y121020*X218370Y119890*Y118670*X217900Y117540*X217040Y116680*X215910Y116210*X214690*X213560Y116680*X212700Y117540*X212230Y118670*Y119890*X212700Y121020*X213560Y121890*X214690Y122350*X191370Y122160D2*X214210D1*X230660Y123140D2*X191370D1*X231680Y124390D2*X232810Y124850D1*X234040*X235160Y124390*X236030Y123520*X236500Y122390*Y121170*X236030Y120040*X235160Y119180*X235120Y119160*Y103580*X234130Y102580*X233950Y102410*X234550*X235470Y102030*X236170Y101320*X236550Y100400*Y99410*X236170Y98490*X235470Y97790*X234550Y97410*X233550*X232630Y97790*X231930Y98490*X231550Y99410*Y100000*X230120Y98580*Y88620*X230540Y88200*X230920Y87280*Y86280*X230540Y85360*X229840Y84660*X228920Y84280*X227930*X227010Y84660*X226310Y85360*X225920Y86280*Y87280*X226310Y88200*X226720Y88620*Y99990*X227900Y101160*X227300*X226380Y101540*X225680Y102240*X225300Y103160*Y104150*X225680Y105070*X226380Y105780*X227300Y106160*X228300*X229220Y105780*X229920Y105070*X230300Y104150*Y103560*X231720Y104990*Y119160*X231680Y119180*X230820Y120040*X230350Y121170*Y122390*X230820Y123520*X231680Y124390*X191370Y124130D2*X231430D1*X284910Y125110D2*X191370D1*X285200Y124420D2*X284730Y125550D1*Y126770*X285200Y127900*X286060Y128760*X287190Y129230*X288410*X289540Y128760*X290400Y127900*X290870Y126770*Y125550*X290400Y124420*X289540Y123550*X288410Y123080*X287190*X286060Y123550*X285200Y124420*X263990Y124130D2*X285490D1*X251220D2*X260360D1*X259770Y123140D2*X251880D1*X252120Y122160D2*X259670D1*X259980Y121170D2*X252050D1*X251620Y120190D2*X261000D1*X263440Y119200D2*X251600D1*X263920Y120190D2*X263350D1*X264290Y120990D2*X263590Y120290D1*X262670Y119910*X261680*X260760Y120290*X260060Y120990*X259670Y121910*Y122900*X260060Y123820*X260760Y124530*X261680Y124910*X262670*X263590Y124530*X264290Y123820*X264670Y122900*Y121910*X264290Y120990*X289100Y121170D2*X264370D1*X289100Y120550D2*Y121770D1*X289570Y122900*X290430Y123760*X291560Y124230*X292790*X293910Y123760*X294780Y122900*X295250Y121770*Y120550*X294780Y119420*X293910Y118550*X292790Y118080*X291560*X290430Y118550*X289570Y119420*X289100Y120550*X267930Y120190D2*X289250D1*X287130Y119200D2*X268400D1*X268420Y118220D2*X285520D1*X268040Y117240D2*X267340Y116540D1*X266420Y116160*X265430*X264510Y116540*X263810Y117240*X263420Y118160*Y119150*X263810Y120070*X264510Y120780*X265430Y121160*X266420*X267340Y120780*X268040Y120070*X268420Y119150*Y118160*X268040Y117240*X269710Y117230D2*X268040D1*X284920D2*X273390D1*X273960Y116250D2*X284730D1*X284850Y115260D2*X274050D1*X285200Y114420D2*X284730Y115550D1*Y116770*X285200Y117900*X286060Y118760*X287190Y119230*X288410*X289540Y118760*X290400Y117900*X290870Y116770*Y115550*X290400Y114420*X289540Y113550*X288410Y113080*X287190*X286060Y113550*X285200Y114420*X273740Y114280D2*X285340D1*X272970Y113410D2*X272050Y113030D1*X271050*X270130Y113410*X269430Y114110*X269050Y115030*Y116030*X269430Y116950*X270130Y117650*X271050Y118030*X272050*X272970Y117650*X273670Y116950*X274050Y116030*Y115030*X273670Y114110*X272970Y113410*X286690Y113290D2*X272680D1*X252070Y112310D2*X286040D1*X285420Y111320D2*X251670D1*X251090Y110340D2*X285300D1*X285580Y109350D2*X251830D1*X281630Y108370D2*X285670D1*X252120D2*X277720D1*X277220Y107380D2*X252110D1*X251700Y106400D2*X277170D1*X250790Y105430D2*X249660Y104960D1*X248440*X247310Y105430*X246450Y106290*X245980Y107420*Y108640*X246450Y109770*X247210Y110530*X246450Y111290*X245980Y112420*Y113640*X246450Y114770*X246890Y115220*X246450Y115670*X245980Y116800*Y118020*X246450Y119150*X246980Y119680*X246450Y120220*X245980Y121350*Y122570*X246450Y123700*X247310Y124560*X248440Y125030*X249660*X250790Y124560*X251650Y123700*X252120Y122570*Y121350*X251650Y120220*X251120Y119680*X251650Y119150*X252120Y118020*Y116800*X251650Y115670*X251210Y115220*X251650Y114770*X252120Y113640*Y112420*X251650Y111290*X250890Y110530*X251650Y109770*X252120Y108640*Y107420*X251650Y106290*X250790Y105430*X277540Y105410D2*X250750D1*X278830Y104430D2*X278070D1*X280170Y104280D2*X279180D1*X278260Y104660*X277560Y105360*X277170Y106280*Y107280*X277560Y108200*X278260Y108900*X279180Y109280*X280170*X281090Y108900*X281790Y108200*X282170Y107280*Y106280*X281790Y105360*X281090Y104660*X280170Y104280*X285190Y104430D2*X280520D1*X278830Y103440D2*X286330D1*X279050Y102900D2*Y101910D1*X278670Y100990*X277970Y100290*X277050Y99910*X276050*X275130Y100290*X274430Y100990*X274050Y101910*Y102900*X274430Y103820*X275130Y104530*X276050Y104910*X277050*X277970Y104530*X278670Y103820*X279050Y102900*X289390Y102460D2*X279050D1*X290120Y103440D2*X289270D1*X290430Y103760D2*X289570Y102900D1*X289100Y101770*Y100550*X289570Y99420*X290430Y98550*X291560Y98080*X292790*X293910Y98550*X294780Y99420*X295250Y100550*Y101770*X294780Y102900*X293910Y103760*X292790Y104230*X291560*X290430Y103760*X337040Y104430D2*X290410D1*X290820Y105410D2*X337040D1*Y106400D2*X290870D1*X290620Y107380D2*X337040D1*X289930Y108370D2*X290880D1*X289550Y108750D2*X289900Y109090D1*X290430Y108550*X291560Y108080*X292790*X293910Y108550*X294780Y109420*X295250Y110550*Y111770*X294780Y112900*X293910Y113760*X292790Y114230*X291560*X290430Y113760*X289570Y112900*X289390Y112470*X289220Y112650*X288300Y113030*X287300*X286380Y112650*X285680Y111950*X285300Y111030*Y110030*X285680Y109110*X286050Y108750*X285200Y107900*X284730Y106770*Y105550*X285200Y104420*X286060Y103550*X287190Y103080*X288410*X289540Y103550*X290400Y104420*X290870Y105550*Y106770*X290400Y107900*X289550Y108750*D235*X100300Y124280D2*X104050D1*X105300Y123030*X127800*X129050Y124280*X132800*X143420Y134910*X157170*X169050Y146780*Y155530*X175920Y162410*D236*X233420Y121780D2*Y104280D1*X228420Y99280*Y86780*D228*X189050Y41160D3*X179050D3*X169050D3*X159050D3*X149050D3*Y31160D3*X159050D3*X169050D3*X179050D3*X189050D3*X199050D3*X209050D3*Y41160D3*X199050D3*Y211160D3*X209050D3*X289050D3*X299050D3*Y201160D3*X289050D3*D229*X65300Y156780D3*X49050Y53660D3*D231*X292170Y157410D3*X287800Y160530D3*X280300Y181160D3*X40300Y163030D3*X127170Y164910D3*X119050D3*X112800D3*X83420Y166410D3*X94050Y157410D3*X47800Y62410D3*X51550Y68660D3*X69670Y53660D3*X118420Y31160D3*X299670D3*X285300Y36160D3*X307170Y49910D3*X280300Y93660D3*X249050Y121960D3*Y131780D3*X266550Y133660D3*X281550Y136160D3*X287800Y144280D3*X292170Y140530D3*X287800Y136160D3*X292170Y131160D3*X287800Y126160D3*X292170Y121160D3*X287800Y116160D3*X292170Y111160D3*X287800Y106160D3*X292170Y101160D3*X287800Y96160D3*X292170Y91160D3*X286550Y86160D3*X292170Y81160D3*X287800Y77410D3*X274050Y70530D3*X216550Y36160D3*X229050Y46160D3*X242800Y48660D3*X207170Y76780D3*X210300Y90530D3*X191550Y94910D3*X187800Y87410D3*X179670D3*X174670Y82410D3*X161550Y83030D3*Y91160D3*X143420Y101780D3*X137170Y89910D3*X122800Y74910D3*X152170Y53030D3*X162170Y54910D3*X165920Y59910D3*X162170Y66780D3*X175300Y70530D3*X190300Y57410D3*X196550Y64910D3*X203420Y68030D3*X205300Y61160D3*X212800Y61780D3*X226550Y68660D3*X221550Y63660D3*X234050Y57410D3*X249050Y72410D3*Y87410D3*Y96780D3*Y108030D3*Y113030D3*Y117410D3*X239050D3*X233420Y121780D3*X225920Y118660D3*X215300Y119280D3*X174050Y133660D3*X167800Y131780D3*X154050Y128030D3*X132800Y124280D3*X130300Y128660D3*X123420Y128030D3*X100300Y124280D3*X102800Y114910D3*X119050Y103660D3*X127800Y107410D3*X130300Y112410D3*X145300Y111160D3*X155920Y107410D3*X155300Y113030D3*X162800Y116160D3*X170300Y119280D3*X186550Y114910D3*X182800Y121160D3*X204050Y140530D3*X197170Y147410D3*X204050D3*X210920D3*X217170D3*X224670Y140530D3*X232800Y146160D3*X230920Y153660D3*X222800Y166160D3*X229050Y186160D3*X270920Y214280D3*X247170D3*X220920D3*X217800Y201160D3*X195300D3*X202800Y192410D3*X195300D3*Y183660D3*X202800D3*X200300Y168660D3*X175920Y162410D3*X180300Y159280D3*X182800Y154910D3*X181550Y145530D3*X179670Y150530D3*X161550Y147410D3*X154670Y153030D3*X159050Y158030D3*X162800Y164540D3*X154670D3*X141550Y161780D3*X140920Y156780D3*X127800Y144280D3*X117170Y149910D3*X112800Y144280D3*X109050Y149910D3*X100300D3*X95300Y146160D3*X85920Y137410D3*X75920Y141780D3*X72800Y144910D3*X55300Y136160D3*X50300Y134280D3*X42800Y107410D3*X65300Y101160D3*X87800Y91160D3*X104050Y84910D3*X85300Y74910D3*X89050Y82410D3*X102800Y74910D3*X100300Y68030D3*X103420Y56160D3*X96550Y47410D3*X103420Y41160D3*D233*X287800Y110530D3*X218420Y106780D3*X224050Y103660D3*X227800D3*X234050Y99910D3*X221550Y91780D3*Y86160D3*X228420Y86780D3*X261550Y74910D3*X269050Y74280D3*X274050Y78660D3*X260300Y93660D3*X271550Y88660D3*Y92410D3*X266550Y96780D3*X271550Y99910D3*X276550Y102410D3*X279670Y106780D3*X271550Y115530D3*X265920Y118660D3*X262170Y122410D3*D234*X45720Y132490D3*D3*X40120Y137300D3*D3*Y132490D3*D3*X45720Y137300D3*X26590Y130260D3*D3*Y124870D3*D3*X97110Y34640D3*D3*X92540Y45230D3*D3*Y39630D3*D3*X73440Y45230D3*D3*Y39630D3*D3*X87730D3*Y45230D3*D3*X69450Y26590D3*X64060Y34640D3*D3*Y26590D3*D3*X91720D3*D3*Y34640D3*D3*X97110Y26590D3*X69450Y34640D3*Y26590D3*X68630Y45230D3*Y39630D3*D3*X34640Y130260D3*D3*Y124870D3*D3*X45720Y154820D3*X34640Y157050D3*Y162450D3*D3*X26590Y157050D3*D3*X45720Y154820D3*X40120D3*D3*Y150010D3*D3*X45720D3*D3*X26590Y162450D3*D3*X34640Y157050D3*X0Y0D2*M02*