G04 Output by ViewMate Deluxe V11.12.18  PentaLogix*
G04 Wed Mar 06 15:24:07 2019*
%IPPOS*%
%FSLAX25Y25*%
%MOIN*%
%ADD10C,0.0*%
%ADD237C,0.0004*%

%LPD*%
X0Y0D2*D10*G1X286490Y176160D2*X286510Y175850D1*X286570Y175540*X286660Y175240*X286790Y174950*X286960Y174680*X287160Y174440*X287380Y174220*X287640Y174030*X287910Y173870*X288200Y173750*X288500Y173660*X288810Y173610*X289130Y173600*X289440Y173630*X289750Y173700*X290050Y173800*X290330Y173940*X290590Y174120*X290830Y174320*X291040Y174560*X291230Y174810*X291380Y175090*X291490Y175380*X291570Y175690*X291610Y176000*Y176320*X291570Y176630*X291490Y176940*X291380Y177230*X291230Y177510*X291040Y177760*X290830Y178000*X290590Y178200*X290330Y178380*X290050Y178520*X289750Y178620*X289440Y178690*X289130Y178720*X288810Y178710*X288500Y178660*X288200Y178570*X287910Y178450*X287640Y178290*X287380Y178100*X287160Y177880*X286960Y177640*X286790Y177370*X286660Y177080*X286570Y176780*X286510Y176470*X286490Y176160*X325110Y173660D2*X325130Y173270D1*X325190Y172880*X325290Y172500*X325420Y172130*X325590Y171780*X325790Y171440*X326030Y171130*X326300Y170840*X326590Y170580*X326910Y170350*X327250Y170150*X327610Y169990*X327980Y169870*X328370Y169780*X328760Y169730*X329150Y169720*X329540Y169750*X329930Y169820*X330300Y169930*X330670Y170070*X331020Y170250*X331350Y170460*X331660Y170710*X331940Y170980*X332190Y171280*X332410Y171610*X332600Y171950*X332750Y172310*X332870Y172690*X332950Y173070*X332990Y173460*Y173860*X332950Y174250*X332870Y174630*X332750Y175010*X332600Y175370*X332410Y175710*X332190Y176040*X331940Y176340*X331660Y176610*X331350Y176860*X331020Y177070*X330670Y177250*X330300Y177390*X329930Y177500*X329540Y177570*X329150Y177600*X328760Y177590*X328370Y177540*X327980Y177450*X327610Y177330*X327250Y177170*X326910Y176970*X326590Y176740*X326300Y176480*X326030Y176190*X325790Y175880*X325590Y175540*X325420Y175190*X325290Y174820*X325190Y174440*X325130Y174050*X325110Y173660*X286490Y66160D2*X286510Y65850D1*X286570Y65540*X286660Y65240*X286790Y64950*X286960Y64680*X287160Y64440*X287380Y64220*X287640Y64030*X287910Y63870*X288200Y63750*X288500Y63660*X288810Y63610*X289130Y63600*X289440Y63630*X289750Y63700*X290050Y63800*X290330Y63940*X290590Y64120*X290830Y64320*X291040Y64560*X291230Y64810*X291380Y65090*X291490Y65380*X291570Y65690*X291610Y66000*Y66320*X291570Y66630*X291490Y66940*X291380Y67230*X291230Y67510*X291040Y67760*X290830Y68000*X290590Y68200*X290330Y68380*X290050Y68520*X289750Y68620*X289440Y68690*X289130Y68720*X288810Y68710*X288500Y68660*X288200Y68570*X287910Y68450*X287640Y68290*X287380Y68100*X287160Y67880*X286960Y67640*X286790Y67370*X286660Y67080*X286570Y66780*X286510Y66470*X286490Y66160*X244010Y60700D2*X244030Y60310D1*X244090Y59920*X244190Y59540*X244320Y59170*X244490Y58820*X244690Y58480*X244930Y58170*X245200Y57880*X245490Y57620*X245810Y57390*X246150Y57190*X246510Y57030*X246880Y56910*X247270Y56820*X247660Y56770*X248050Y56760*X248440Y56790*X248830Y56860*X249200Y56970*X249570Y57110*X249920Y57290*X250250Y57500*X250560Y57750*X250840Y58020*X251090Y58320*X251310Y58650*X251500Y58990*X251650Y59350*X251770Y59730*X251850Y60110*X251890Y60500*Y60900*X251850Y61290*X251770Y61670*X251650Y62050*X251500Y62410*X251310Y62750*X251090Y63080*X250840Y63380*X250560Y63650*X250250Y63900*X249920Y64110*X249570Y64290*X249200Y64430*X248830Y64540*X248440Y64610*X248050Y64640*X247660Y64630*X247270Y64580*X246880Y64490*X246510Y64370*X246150Y64210*X245810Y64010*X245490Y63780*X245200Y63520*X244930Y63230*X244690Y62920*X244490Y62580*X244320Y62230*X244190Y61860*X244090Y61480*X244030Y61090*X244010Y60700*X39800Y220510D2*X38610Y220050D1*X37440Y219520*X36300Y218940*X35190Y218310*X34120Y217620*X33070Y216890*X32070Y216100*X31100Y215260*X30180Y214380*X29300Y213460*X28460Y212490*X27670Y211490*X26940Y210440*X26250Y209370*X25620Y208260*X25040Y207120*X24510Y205950*X24050Y204760*X55990Y128730D2*X56010Y128340D1*X56070Y127950*X56170Y127570*X56300Y127200*X56470Y126850*X56670Y126510*X56910Y126200*X57180Y125910*X57470Y125650*X57790Y125420*X58130Y125220*X58490Y125060*X58860Y124940*X59250Y124850*X59640Y124800*X60030Y124790*X60420Y124820*X60810Y124890*X61180Y125000*X61550Y125140*X61900Y125320*X62230Y125530*X62540Y125780*X62820Y126050*X63070Y126350*X63290Y126680*X63480Y127020*X63630Y127380*X63750Y127760*X63830Y128140*X63870Y128530*Y128930*X63830Y129320*X63750Y129700*X63630Y130080*X63480Y130440*X63290Y130780*X63070Y131110*X62820Y131410*X62540Y131680*X62230Y131930*X61900Y132140*X61550Y132320*X61180Y132460*X60810Y132570*X60420Y132640*X60030Y132670*X59640Y132660*X59250Y132610*X58860Y132520*X58490Y132400*X58130Y132240*X57790Y132040*X57470Y131810*X57180Y131550*X56910Y131260*X56670Y130950*X56470Y130610*X56300Y130260*X56170Y129890*X56070Y129510*X56010Y129120*X55990Y128730*Y78580D2*X56010Y78190D1*X56070Y77800*X56170Y77420*X56300Y77050*X56470Y76700*X56670Y76360*X56910Y76050*X57180Y75760*X57470Y75500*X57790Y75270*X58130Y75070*X58490Y74910*X58860Y74790*X59250Y74700*X59640Y74650*X60030Y74640*X60420Y74670*X60810Y74740*X61180Y74850*X61550Y74990*X61900Y75170*X62230Y75380*X62540Y75630*X62820Y75900*X63070Y76200*X63290Y76530*X63480Y76870*X63630Y77230*X63750Y77610*X63830Y77990*X63870Y78380*Y78780*X63830Y79170*X63750Y79550*X63630Y79930*X63480Y80290*X63290Y80630*X63070Y80960*X62820Y81260*X62540Y81530*X62230Y81780*X61900Y81990*X61550Y82170*X61180Y82310*X60810Y82420*X60420Y82490*X60030Y82520*X59640Y82510*X59250Y82460*X58860Y82370*X58490Y82250*X58130Y82090*X57790Y81890*X57470Y81660*X57180Y81400*X56910Y81110*X56670Y80800*X56470Y80460*X56300Y80110*X56170Y79740*X56070Y79360*X56010Y78970*X55990Y78580*X39800Y23660D2*X38610Y24120D1*X37440Y24650*X36300Y25230*X35190Y25860*X34120Y26550*X33070Y27280*X32070Y28070*X31100Y28910*X30180Y29790*X29300Y30710*X28460Y31680*X27670Y32680*X26940Y33730*X26250Y34800*X25620Y35910*X25040Y37050*X24510Y38220*X24050Y39410*X32750Y38660D2*X32770Y38160D1*X32830Y37660*X32930Y37170*X33070Y36690*X33240Y36220*X33450Y35770*X33700Y35330*X33980Y34920*X34300Y34530*X34640Y34160*X35010Y33820*X35410Y33520*X35830Y33250*X36270Y33010*X36730Y32800*X37200Y32640*X37680Y32510*X38180Y32420*X38670Y32370*X39180Y32360*X39680Y32390*X40170Y32460*X40660Y32570*X41140Y32720*X41600Y32900*X42050Y33120*X42480Y33380*X42890Y33670*X43280Y33990*X43640Y34340*X43960Y34720*X44260Y35120*X44530Y35550*X44760Y35990*X44950Y36450*X45110Y36930*X45230Y37420*X45310Y37910*X45350Y38410*Y38910*X45310Y39410*X45230Y39900*X45110Y40390*X44950Y40870*X44760Y41330*X44530Y41770*X44260Y42200*X43960Y42600*X43640Y42980*X43280Y43330*X42890Y43650*X42480Y43940*X42050Y44200*X41600Y44420*X41140Y44600*X40660Y44750*X40170Y44860*X39680Y44930*X39180Y44960*X38670Y44950*X38180Y44900*X37680Y44810*X37200Y44680*X36730Y44520*X36270Y44310*X35830Y44070*X35410Y43800*X35010Y43500*X34640Y43160*X34300Y42790*X33980Y42400*X33700Y41990*X33450Y41550*X33240Y41100*X33070Y40630*X32930Y40150*X32830Y39660*X32770Y39160*X32750Y38660*X24050Y204760D2*Y39400D1*X32750Y205510D2*X32770Y205010D1*X32830Y204510*X32930Y204020*X33070Y203540*X33240Y203070*X33450Y202620*X33700Y202180*X33980Y201770*X34300Y201380*X34640Y201010*X35010Y200670*X35410Y200370*X35830Y200100*X36270Y199860*X36730Y199650*X37200Y199490*X37680Y199360*X38180Y199270*X38670Y199220*X39180Y199210*X39680Y199240*X40170Y199310*X40660Y199420*X41140Y199570*X41600Y199750*X42050Y199970*X42480Y200230*X42890Y200520*X43280Y200840*X43640Y201190*X43960Y201570*X44260Y201970*X44530Y202400*X44760Y202840*X44950Y203300*X45110Y203780*X45230Y204270*X45310Y204760*X45350Y205260*Y205760*X45310Y206260*X45230Y206750*X45110Y207240*X44950Y207720*X44760Y208180*X44530Y208620*X44260Y209050*X43960Y209450*X43640Y209830*X43280Y210180*X42890Y210500*X42480Y210790*X42050Y211050*X41600Y211270*X41140Y211450*X40660Y211600*X40170Y211710*X39680Y211780*X39180Y211810*X38670Y211800*X38180Y211750*X37680Y211660*X37200Y211530*X36730Y211370*X36270Y211160*X35830Y210920*X35410Y210650*X35010Y210350*X34640Y210010*X34300Y209640*X33980Y209250*X33700Y208840*X33450Y208400*X33240Y207950*X33070Y207480*X32930Y207000*X32830Y206510*X32770Y206010*X32750Y205510*X323260Y220510D2*X39800D1*X339010Y204760D2*X338550Y205950D1*X338020Y207120*X337440Y208260*X336810Y209370*X336120Y210440*X335390Y211490*X334600Y212490*X333760Y213460*X332880Y214380*X331960Y215260*X330990Y216100*X329990Y216890*X328940Y217620*X327870Y218310*X326760Y218940*X325620Y219520*X324450Y220050*X323260Y220510*X317710Y205510D2*X317730Y205010D1*X317790Y204510*X317890Y204020*X318030Y203540*X318200Y203070*X318410Y202620*X318660Y202180*X318940Y201770*X319260Y201380*X319600Y201010*X319970Y200670*X320370Y200370*X320790Y200100*X321230Y199860*X321690Y199650*X322160Y199490*X322640Y199360*X323140Y199270*X323630Y199220*X324140Y199210*X324640Y199240*X325130Y199310*X325620Y199420*X326100Y199570*X326560Y199750*X327010Y199970*X327440Y200230*X327850Y200520*X328240Y200840*X328600Y201190*X328920Y201570*X329220Y201970*X329490Y202400*X329720Y202840*X329910Y203300*X330070Y203780*X330190Y204270*X330270Y204760*X330310Y205260*Y205760*X330270Y206260*X330190Y206750*X330070Y207240*X329910Y207720*X329720Y208180*X329490Y208620*X329220Y209050*X328920Y209450*X328600Y209830*X328240Y210180*X327850Y210500*X327440Y210790*X327010Y211050*X326560Y211270*X326100Y211450*X325620Y211600*X325130Y211710*X324640Y211780*X324140Y211810*X323630Y211800*X323140Y211750*X322640Y211660*X322160Y211530*X321690Y211370*X321230Y211160*X320790Y210920*X320370Y210650*X319970Y210350*X319600Y210010*X319260Y209640*X318940Y209250*X318660Y208840*X318410Y208400*X318200Y207950*X318030Y207480*X317890Y207000*X317790Y206510*X317730Y206010*X317710Y205510*X339010Y39400D2*Y204760D1*Y39410D2*X338550Y38220D1*X338020Y37050*X337440Y35910*X336810Y34800*X336120Y33730*X335390Y32680*X334600Y31680*X333760Y30710*X332880Y29790*X331960Y28910*X330990Y28070*X329990Y27280*X328940Y26550*X327870Y25860*X326760Y25230*X325620Y24650*X324450Y24120*X323260Y23660*X317710Y38660D2*X317730Y38160D1*X317790Y37660*X317890Y37170*X318030Y36690*X318200Y36220*X318410Y35770*X318660Y35330*X318940Y34920*X319260Y34530*X319600Y34160*X319970Y33820*X320370Y33520*X320790Y33250*X321230Y33010*X321690Y32800*X322160Y32640*X322640Y32510*X323140Y32420*X323630Y32370*X324140Y32360*X324640Y32390*X325130Y32460*X325620Y32570*X326100Y32720*X326560Y32900*X327010Y33120*X327440Y33380*X327850Y33670*X328240Y33990*X328600Y34340*X328920Y34720*X329220Y35120*X329490Y35550*X329720Y35990*X329910Y36450*X330070Y36930*X330190Y37420*X330270Y37910*X330310Y38410*Y38910*X330270Y39410*X330190Y39900*X330070Y40390*X329910Y40870*X329720Y41330*X329490Y41770*X329220Y42200*X328920Y42600*X328600Y42980*X328240Y43330*X327850Y43650*X327440Y43940*X327010Y44200*X326560Y44420*X326100Y44600*X325620Y44750*X325130Y44860*X324640Y44930*X324140Y44960*X323630Y44950*X323140Y44900*X322640Y44810*X322160Y44680*X321690Y44520*X321230Y44310*X320790Y44070*X320370Y43800*X319970Y43500*X319600Y43160*X319260Y42790*X318940Y42400*X318660Y41990*X318410Y41550*X318200Y41100*X318030Y40630*X317890Y40150*X317790Y39660*X317730Y39160*X317710Y38660*X39800Y23660D2*X323260D1*D237*X33570Y159310D2*X33550Y159110D1*X33500Y158910*X33410Y158720*X33290Y158550*X33150Y158410*X32980Y158290*X32790Y158200*X32590Y158150*X32390Y158130*X28840Y158120D2*X32390D1*X28840Y158130D2*X28640Y158150D1*X28440Y158200*X28250Y158290*X28080Y158410*X27940Y158550*X27820Y158720*X27730Y158910*X27680Y159110*X27660Y159310*Y160190*X27680Y160390*X27730Y160590*X27820Y160780*X27940Y160950*X28080Y161090*X28250Y161210*X28440Y161300*X28640Y161350*X28840Y161370*X32390*X32590Y161350*X32790Y161300*X32980Y161210*X33150Y161090*X33290Y160950*X33410Y160780*X33500Y160590*X33550Y160390*X33570Y160190*Y159310*X42230Y151140D2*X42060Y151150D1*X41890Y151200*X41740Y151270*X41600Y151370*X41480Y151490*X41380Y151630*X41310Y151780*X41260Y151950*X41250Y152120*X41240Y152710D2*Y152120D1*X41250Y152710D2*X41260Y152880D1*X41310Y153050*X41380Y153200*X41480Y153340*X41600Y153460*X41740Y153560*X41890Y153630*X42060Y153680*X42230Y153690*X43610Y153700D2*X42230D1*X43610Y153690D2*X43780Y153680D1*X43950Y153630*X44100Y153560*X44240Y153460*X44360Y153340*X44460Y153200*X44530Y153050*X44580Y152880*X44590Y152710*Y152120*X44580Y151950*X44530Y151780*X44460Y151630*X44360Y151490*X44240Y151370*X44100Y151270*X43950Y151200*X43780Y151150*X43610Y151140*X42230*X41250Y134600D2*X41260Y134430D1*X41310Y134260*X41380Y134110*X41480Y133970*X41600Y133850*X41740Y133750*X41890Y133680*X42060Y133630*X42230Y133620*X43610*X43780Y133630*X43950Y133680*X44100Y133750*X44240Y133850*X44360Y133970*X44460Y134110*X44530Y134260*X44580Y134430*X44590Y134600*Y135190*X44580Y135360*X44530Y135530*X44460Y135680*X44360Y135820*X44240Y135940*X44100Y136040*X43950Y136110*X43780Y136160*X43610Y136170*X42230Y136180D2*X43610D1*X42230Y136170D2*X42060Y136160D1*X41890Y136110*X41740Y136040*X41600Y135940*X41480Y135820*X41380Y135680*X41310Y135530*X41260Y135360*X41250Y135190*X41240Y134600D2*Y135190D1*X32390Y125940D2*X32590Y125960D1*X32790Y126010*X32980Y126100*X33150Y126220*X33290Y126360*X33410Y126530*X33500Y126720*X33550Y126920*X33570Y127120*Y128010*X33550Y128210*X33500Y128410*X33410Y128600*X33290Y128770*X33150Y128910*X32980Y129030*X32790Y129120*X32590Y129170*X32390Y129190*X28840*X28640Y129170*X28440Y129120*X28250Y129030*X28080Y128910*X27940Y128770*X27820Y128600*X27730Y128410*X27680Y128210*X27660Y128010*Y127120*X27680Y126920*X27730Y126720*X27820Y126530*X27940Y126360*X28080Y126220*X28250Y126100*X28440Y126010*X28640Y125960*X28840Y125940*X32390*X67200Y33570D2*X67400Y33550D1*X67600Y33500*X67790Y33410*X67960Y33290*X68100Y33150*X68220Y32980*X68310Y32790*X68360Y32590*X68380Y32390*Y28840*X68360Y28640*X68310Y28440*X68220Y28250*X68100Y28080*X67960Y27940*X67790Y27820*X67600Y27730*X67400Y27680*X67200Y27660*X66310*X66110Y27680*X65910Y27730*X65720Y27820*X65550Y27940*X65410Y28080*X65290Y28250*X65200Y28440*X65150Y28640*X65130Y28840*Y32390*X65150Y32590*X65200Y32790*X65290Y32980*X65410Y33150*X65550Y33290*X65720Y33410*X65910Y33500*X66110Y33550*X66310Y33570*X67200*X69760Y42030D2*X69780Y41830D1*X69820Y41630*X69900Y41450*X70000Y41280*X70130Y41120*X70290Y40990*X70460Y40890*X70640Y40810*X70840Y40770*X71040Y40750*X72320Y42030D2*X72300Y41830D1*X72260Y41630*X72180Y41450*X72080Y41280*X71950Y41120*X71790Y40990*X71620Y40890*X71440Y40810*X71240Y40770*X71040Y40750*X69760Y42030D2*Y42820D1*X69780Y43020*X69820Y43220*X69900Y43400*X70000Y43570*X70130Y43730*X70290Y43860*X70460Y43960*X70640Y44040*X70840Y44080*X71040Y44100*X71240Y44080*X71440Y44040*X71620Y43960*X71790Y43860*X71950Y43730*X72080Y43570*X72180Y43400*X72260Y43220*X72300Y43020*X72320Y42820*Y42030*X93970Y33570D2*X93770Y33550D1*X93570Y33500*X93380Y33410*X93210Y33290*X93070Y33150*X92950Y32980*X92860Y32790*X92810Y32590*X92790Y32390*Y28840*X92810Y28640*X92860Y28440*X92950Y28250*X93070Y28080*X93210Y27940*X93380Y27820*X93570Y27730*X93770Y27680*X93970Y27660*X94860*X95060Y27680*X95260Y27730*X95450Y27820*X95620Y27940*X95760Y28080*X95880Y28250*X95970Y28440*X96020Y28640*X96040Y28840*Y32390*X96020Y32590*X95970Y32790*X95880Y32980*X95760Y33150*X95620Y33290*X95450Y33410*X95260Y33500*X95060Y33550*X94860Y33570*X93970*X91410Y42030D2*X91390Y41830D1*X91350Y41630*X91270Y41450*X91170Y41280*X91040Y41120*X90880Y40990*X90710Y40890*X90530Y40810*X90330Y40770*X90130Y40750*X88850Y42820D2*X88870Y43020D1*X88910Y43220*X88990Y43400*X89090Y43570*X89220Y43730*X89380Y43860*X89550Y43960*X89730Y44040*X89930Y44080*X90130Y44100*X91410Y42820D2*X91390Y43020D1*X91350Y43220*X91270Y43400*X91170Y43570*X91040Y43730*X90880Y43860*X90710Y43960*X90530Y44040*X90330Y44080*X90130Y44100*X88850Y42820D2*Y42030D1*X88870Y41830*X88910Y41630*X88990Y41450*X89090Y41280*X89220Y41120*X89380Y40990*X89550Y40890*X89730Y40810*X89930Y40770*X90130Y40750*X91410Y42820D2*Y42030D1*X0Y0D2*M02*