G04 Output by ViewMate Deluxe V11.12.18  PentaLogix*
G04 Wed Mar 06 15:24:07 2019*
%IPPOS*%
%FSLAX25Y25*%
%MOIN*%
%ADD10C,0.0*%
%ADD222C,0.06*%
%ADD223C,0.0591*%
%ADD224C,0.012*%
%ADD225C,0.01*%
%ADD226C,0.0354*%
%ADD227C,0.024*%

%LPD*%
X0Y0D2*D10*G1X286490Y176160D2*X286510Y175850D1*X286570Y175540*X286660Y175240*X286790Y174950*X286960Y174680*X287160Y174440*X287380Y174220*X287640Y174030*X287910Y173870*X288200Y173750*X288500Y173660*X288810Y173610*X289130Y173600*X289440Y173630*X289750Y173700*X290050Y173800*X290330Y173940*X290590Y174120*X290830Y174320*X291040Y174560*X291230Y174810*X291380Y175090*X291490Y175380*X291570Y175690*X291610Y176000*Y176320*X291570Y176630*X291490Y176940*X291380Y177230*X291230Y177510*X291040Y177760*X290830Y178000*X290590Y178200*X290330Y178380*X290050Y178520*X289750Y178620*X289440Y178690*X289130Y178720*X288810Y178710*X288500Y178660*X288200Y178570*X287910Y178450*X287640Y178290*X287380Y178100*X287160Y177880*X286960Y177640*X286790Y177370*X286660Y177080*X286570Y176780*X286510Y176470*X286490Y176160*X325110Y173660D2*X325130Y173270D1*X325190Y172880*X325290Y172500*X325420Y172130*X325590Y171780*X325790Y171440*X326030Y171130*X326300Y170840*X326590Y170580*X326910Y170350*X327250Y170150*X327610Y169990*X327980Y169870*X328370Y169780*X328760Y169730*X329150Y169720*X329540Y169750*X329930Y169820*X330300Y169930*X330670Y170070*X331020Y170250*X331350Y170460*X331660Y170710*X331940Y170980*X332190Y171280*X332410Y171610*X332600Y171950*X332750Y172310*X332870Y172690*X332950Y173070*X332990Y173460*Y173860*X332950Y174250*X332870Y174630*X332750Y175010*X332600Y175370*X332410Y175710*X332190Y176040*X331940Y176340*X331660Y176610*X331350Y176860*X331020Y177070*X330670Y177250*X330300Y177390*X329930Y177500*X329540Y177570*X329150Y177600*X328760Y177590*X328370Y177540*X327980Y177450*X327610Y177330*X327250Y177170*X326910Y176970*X326590Y176740*X326300Y176480*X326030Y176190*X325790Y175880*X325590Y175540*X325420Y175190*X325290Y174820*X325190Y174440*X325130Y174050*X325110Y173660*X286490Y66160D2*X286510Y65850D1*X286570Y65540*X286660Y65240*X286790Y64950*X286960Y64680*X287160Y64440*X287380Y64220*X287640Y64030*X287910Y63870*X288200Y63750*X288500Y63660*X288810Y63610*X289130Y63600*X289440Y63630*X289750Y63700*X290050Y63800*X290330Y63940*X290590Y64120*X290830Y64320*X291040Y64560*X291230Y64810*X291380Y65090*X291490Y65380*X291570Y65690*X291610Y66000*Y66320*X291570Y66630*X291490Y66940*X291380Y67230*X291230Y67510*X291040Y67760*X290830Y68000*X290590Y68200*X290330Y68380*X290050Y68520*X289750Y68620*X289440Y68690*X289130Y68720*X288810Y68710*X288500Y68660*X288200Y68570*X287910Y68450*X287640Y68290*X287380Y68100*X287160Y67880*X286960Y67640*X286790Y67370*X286660Y67080*X286570Y66780*X286510Y66470*X286490Y66160*X244010Y60700D2*X244030Y60310D1*X244090Y59920*X244190Y59540*X244320Y59170*X244490Y58820*X244690Y58480*X244930Y58170*X245200Y57880*X245490Y57620*X245810Y57390*X246150Y57190*X246510Y57030*X246880Y56910*X247270Y56820*X247660Y56770*X248050Y56760*X248440Y56790*X248830Y56860*X249200Y56970*X249570Y57110*X249920Y57290*X250250Y57500*X250560Y57750*X250840Y58020*X251090Y58320*X251310Y58650*X251500Y58990*X251650Y59350*X251770Y59730*X251850Y60110*X251890Y60500*Y60900*X251850Y61290*X251770Y61670*X251650Y62050*X251500Y62410*X251310Y62750*X251090Y63080*X250840Y63380*X250560Y63650*X250250Y63900*X249920Y64110*X249570Y64290*X249200Y64430*X248830Y64540*X248440Y64610*X248050Y64640*X247660Y64630*X247270Y64580*X246880Y64490*X246510Y64370*X246150Y64210*X245810Y64010*X245490Y63780*X245200Y63520*X244930Y63230*X244690Y62920*X244490Y62580*X244320Y62230*X244190Y61860*X244090Y61480*X244030Y61090*X244010Y60700*X39800Y220510D2*X38610Y220050D1*X37440Y219520*X36300Y218940*X35190Y218310*X34120Y217620*X33070Y216890*X32070Y216100*X31100Y215260*X30180Y214380*X29300Y213460*X28460Y212490*X27670Y211490*X26940Y210440*X26250Y209370*X25620Y208260*X25040Y207120*X24510Y205950*X24050Y204760*X55990Y128730D2*X56010Y128340D1*X56070Y127950*X56170Y127570*X56300Y127200*X56470Y126850*X56670Y126510*X56910Y126200*X57180Y125910*X57470Y125650*X57790Y125420*X58130Y125220*X58490Y125060*X58860Y124940*X59250Y124850*X59640Y124800*X60030Y124790*X60420Y124820*X60810Y124890*X61180Y125000*X61550Y125140*X61900Y125320*X62230Y125530*X62540Y125780*X62820Y126050*X63070Y126350*X63290Y126680*X63480Y127020*X63630Y127380*X63750Y127760*X63830Y128140*X63870Y128530*Y128930*X63830Y129320*X63750Y129700*X63630Y130080*X63480Y130440*X63290Y130780*X63070Y131110*X62820Y131410*X62540Y131680*X62230Y131930*X61900Y132140*X61550Y132320*X61180Y132460*X60810Y132570*X60420Y132640*X60030Y132670*X59640Y132660*X59250Y132610*X58860Y132520*X58490Y132400*X58130Y132240*X57790Y132040*X57470Y131810*X57180Y131550*X56910Y131260*X56670Y130950*X56470Y130610*X56300Y130260*X56170Y129890*X56070Y129510*X56010Y129120*X55990Y128730*Y78580D2*X56010Y78190D1*X56070Y77800*X56170Y77420*X56300Y77050*X56470Y76700*X56670Y76360*X56910Y76050*X57180Y75760*X57470Y75500*X57790Y75270*X58130Y75070*X58490Y74910*X58860Y74790*X59250Y74700*X59640Y74650*X60030Y74640*X60420Y74670*X60810Y74740*X61180Y74850*X61550Y74990*X61900Y75170*X62230Y75380*X62540Y75630*X62820Y75900*X63070Y76200*X63290Y76530*X63480Y76870*X63630Y77230*X63750Y77610*X63830Y77990*X63870Y78380*Y78780*X63830Y79170*X63750Y79550*X63630Y79930*X63480Y80290*X63290Y80630*X63070Y80960*X62820Y81260*X62540Y81530*X62230Y81780*X61900Y81990*X61550Y82170*X61180Y82310*X60810Y82420*X60420Y82490*X60030Y82520*X59640Y82510*X59250Y82460*X58860Y82370*X58490Y82250*X58130Y82090*X57790Y81890*X57470Y81660*X57180Y81400*X56910Y81110*X56670Y80800*X56470Y80460*X56300Y80110*X56170Y79740*X56070Y79360*X56010Y78970*X55990Y78580*X39800Y23660D2*X38610Y24120D1*X37440Y24650*X36300Y25230*X35190Y25860*X34120Y26550*X33070Y27280*X32070Y28070*X31100Y28910*X30180Y29790*X29300Y30710*X28460Y31680*X27670Y32680*X26940Y33730*X26250Y34800*X25620Y35910*X25040Y37050*X24510Y38220*X24050Y39410*X32750Y38660D2*X32770Y38160D1*X32830Y37660*X32930Y37170*X33070Y36690*X33240Y36220*X33450Y35770*X33700Y35330*X33980Y34920*X34300Y34530*X34640Y34160*X35010Y33820*X35410Y33520*X35830Y33250*X36270Y33010*X36730Y32800*X37200Y32640*X37680Y32510*X38180Y32420*X38670Y32370*X39180Y32360*X39680Y32390*X40170Y32460*X40660Y32570*X41140Y32720*X41600Y32900*X42050Y33120*X42480Y33380*X42890Y33670*X43280Y33990*X43640Y34340*X43960Y34720*X44260Y35120*X44530Y35550*X44760Y35990*X44950Y36450*X45110Y36930*X45230Y37420*X45310Y37910*X45350Y38410*Y38910*X45310Y39410*X45230Y39900*X45110Y40390*X44950Y40870*X44760Y41330*X44530Y41770*X44260Y42200*X43960Y42600*X43640Y42980*X43280Y43330*X42890Y43650*X42480Y43940*X42050Y44200*X41600Y44420*X41140Y44600*X40660Y44750*X40170Y44860*X39680Y44930*X39180Y44960*X38670Y44950*X38180Y44900*X37680Y44810*X37200Y44680*X36730Y44520*X36270Y44310*X35830Y44070*X35410Y43800*X35010Y43500*X34640Y43160*X34300Y42790*X33980Y42400*X33700Y41990*X33450Y41550*X33240Y41100*X33070Y40630*X32930Y40150*X32830Y39660*X32770Y39160*X32750Y38660*X24050Y204760D2*Y39400D1*X32750Y205510D2*X32770Y205010D1*X32830Y204510*X32930Y204020*X33070Y203540*X33240Y203070*X33450Y202620*X33700Y202180*X33980Y201770*X34300Y201380*X34640Y201010*X35010Y200670*X35410Y200370*X35830Y200100*X36270Y199860*X36730Y199650*X37200Y199490*X37680Y199360*X38180Y199270*X38670Y199220*X39180Y199210*X39680Y199240*X40170Y199310*X40660Y199420*X41140Y199570*X41600Y199750*X42050Y199970*X42480Y200230*X42890Y200520*X43280Y200840*X43640Y201190*X43960Y201570*X44260Y201970*X44530Y202400*X44760Y202840*X44950Y203300*X45110Y203780*X45230Y204270*X45310Y204760*X45350Y205260*Y205760*X45310Y206260*X45230Y206750*X45110Y207240*X44950Y207720*X44760Y208180*X44530Y208620*X44260Y209050*X43960Y209450*X43640Y209830*X43280Y210180*X42890Y210500*X42480Y210790*X42050Y211050*X41600Y211270*X41140Y211450*X40660Y211600*X40170Y211710*X39680Y211780*X39180Y211810*X38670Y211800*X38180Y211750*X37680Y211660*X37200Y211530*X36730Y211370*X36270Y211160*X35830Y210920*X35410Y210650*X35010Y210350*X34640Y210010*X34300Y209640*X33980Y209250*X33700Y208840*X33450Y208400*X33240Y207950*X33070Y207480*X32930Y207000*X32830Y206510*X32770Y206010*X32750Y205510*X323260Y220510D2*X39800D1*X339010Y204760D2*X338550Y205950D1*X338020Y207120*X337440Y208260*X336810Y209370*X336120Y210440*X335390Y211490*X334600Y212490*X333760Y213460*X332880Y214380*X331960Y215260*X330990Y216100*X329990Y216890*X328940Y217620*X327870Y218310*X326760Y218940*X325620Y219520*X324450Y220050*X323260Y220510*X317710Y205510D2*X317730Y205010D1*X317790Y204510*X317890Y204020*X318030Y203540*X318200Y203070*X318410Y202620*X318660Y202180*X318940Y201770*X319260Y201380*X319600Y201010*X319970Y200670*X320370Y200370*X320790Y200100*X321230Y199860*X321690Y199650*X322160Y199490*X322640Y199360*X323140Y199270*X323630Y199220*X324140Y199210*X324640Y199240*X325130Y199310*X325620Y199420*X326100Y199570*X326560Y199750*X327010Y199970*X327440Y200230*X327850Y200520*X328240Y200840*X328600Y201190*X328920Y201570*X329220Y201970*X329490Y202400*X329720Y202840*X329910Y203300*X330070Y203780*X330190Y204270*X330270Y204760*X330310Y205260*Y205760*X330270Y206260*X330190Y206750*X330070Y207240*X329910Y207720*X329720Y208180*X329490Y208620*X329220Y209050*X328920Y209450*X328600Y209830*X328240Y210180*X327850Y210500*X327440Y210790*X327010Y211050*X326560Y211270*X326100Y211450*X325620Y211600*X325130Y211710*X324640Y211780*X324140Y211810*X323630Y211800*X323140Y211750*X322640Y211660*X322160Y211530*X321690Y211370*X321230Y211160*X320790Y210920*X320370Y210650*X319970Y210350*X319600Y210010*X319260Y209640*X318940Y209250*X318660Y208840*X318410Y208400*X318200Y207950*X318030Y207480*X317890Y207000*X317790Y206510*X317730Y206010*X317710Y205510*X339010Y39400D2*Y204760D1*Y39410D2*X338550Y38220D1*X338020Y37050*X337440Y35910*X336810Y34800*X336120Y33730*X335390Y32680*X334600Y31680*X333760Y30710*X332880Y29790*X331960Y28910*X330990Y28070*X329990Y27280*X328940Y26550*X327870Y25860*X326760Y25230*X325620Y24650*X324450Y24120*X323260Y23660*X317710Y38660D2*X317730Y38160D1*X317790Y37660*X317890Y37170*X318030Y36690*X318200Y36220*X318410Y35770*X318660Y35330*X318940Y34920*X319260Y34530*X319600Y34160*X319970Y33820*X320370Y33520*X320790Y33250*X321230Y33010*X321690Y32800*X322160Y32640*X322640Y32510*X323140Y32420*X323630Y32370*X324140Y32360*X324640Y32390*X325130Y32460*X325620Y32570*X326100Y32720*X326560Y32900*X327010Y33120*X327440Y33380*X327850Y33670*X328240Y33990*X328600Y34340*X328920Y34720*X329220Y35120*X329490Y35550*X329720Y35990*X329910Y36450*X330070Y36930*X330190Y37420*X330270Y37910*X330310Y38410*Y38910*X330270Y39410*X330190Y39900*X330070Y40390*X329910Y40870*X329720Y41330*X329490Y41770*X329220Y42200*X328920Y42600*X328600Y42980*X328240Y43330*X327850Y43650*X327440Y43940*X327010Y44200*X326560Y44420*X326100Y44600*X325620Y44750*X325130Y44860*X324640Y44930*X324140Y44960*X323630Y44950*X323140Y44900*X322640Y44810*X322160Y44680*X321690Y44520*X321230Y44310*X320790Y44070*X320370Y43800*X319970Y43500*X319600Y43160*X319260Y42790*X318940Y42400*X318660Y41990*X318410Y41550*X318200Y41100*X318030Y40630*X317890Y40150*X317790Y39660*X317730Y39160*X317710Y38660*X39800Y23660D2*X323260D1*D224*X93970Y33570D2*X93770Y33550D1*X93570Y33500*X93380Y33410*X93210Y33290*X93070Y33150*X92950Y32980*X92860Y32790*X92810Y32590*X92790Y32390*Y28840*X92810Y28640*X92860Y28440*X92950Y28250*X93070Y28080*X93210Y27940*X93380Y27820*X93570Y27730*X93770Y27680*X93970Y27660*X94860*X95060Y27680*X95260Y27730*X95450Y27820*X95620Y27940*X95760Y28080*X95880Y28250*X95970Y28440*X96020Y28640*X96040Y28840*Y32390*X96020Y32590*X95970Y32790*X95880Y32980*X95760Y33150*X95620Y33290*X95450Y33410*X95260Y33500*X95060Y33550*X94860Y33570*X93970*X88860Y41740D2*X88870Y41570D1*X88920Y41400*X88990Y41250*X89090Y41110*X89210Y40990*X89350Y40890*X89500Y40820*X89670Y40770*X89840Y40760*X90430Y40750D2*X89840D1*X90430Y40760D2*X90600Y40770D1*X90770Y40820*X90920Y40890*X91060Y40990*X91180Y41110*X91280Y41250*X91350Y41400*X91400Y41570*X91410Y41740*Y43110*X91400Y43280*X91350Y43450*X91280Y43600*X91180Y43740*X91060Y43860*X90920Y43960*X90770Y44030*X90600Y44080*X90430Y44090*X89840Y44100D2*X90430D1*X89840Y44090D2*X89670Y44080D1*X89500Y44030*X89350Y43960*X89210Y43860*X89090Y43740*X88990Y43600*X88920Y43450*X88870Y43280*X88860Y43110*X88850Y41740D2*Y43110D1*X67200Y33570D2*X67400Y33550D1*X67600Y33500*X67790Y33410*X67960Y33290*X68100Y33150*X68220Y32980*X68310Y32790*X68360Y32590*X68380Y32390*Y28840*X68360Y28640*X68310Y28440*X68220Y28250*X68100Y28080*X67960Y27940*X67790Y27820*X67600Y27730*X67400Y27680*X67200Y27660*X66310*X66110Y27680*X65910Y27730*X65720Y27820*X65550Y27940*X65410Y28080*X65290Y28250*X65200Y28440*X65150Y28640*X65130Y28840*Y32390*X65150Y32590*X65200Y32790*X65290Y32980*X65410Y33150*X65550Y33290*X65720Y33410*X65910Y33500*X66110Y33550*X66310Y33570*X67200*X70740Y44090D2*X70570Y44080D1*X70400Y44030*X70250Y43960*X70110Y43860*X69990Y43740*X69890Y43600*X69820Y43450*X69770Y43280*X69760Y43110*Y41740*X69770Y41570*X69820Y41400*X69890Y41250*X69990Y41110*X70110Y40990*X70250Y40890*X70400Y40820*X70570Y40770*X70740Y40760*X71330Y40750D2*X70740D1*X71330Y40760D2*X71500Y40770D1*X71670Y40820*X71820Y40890*X71960Y40990*X72080Y41110*X72180Y41250*X72250Y41400*X72300Y41570*X72310Y41740*X72320Y43110D2*Y41740D1*X72310Y43110D2*X72300Y43280D1*X72250Y43450*X72180Y43600*X72080Y43740*X71960Y43860*X71820Y43960*X71670Y44030*X71500Y44080*X71330Y44090*X70740Y44100D2*X71330D1*X32390Y129190D2*X32590Y129170D1*X32790Y129120*X32980Y129030*X33150Y128910*X33290Y128770*X33410Y128600*X33500Y128410*X33550Y128210*X33570Y128010*Y127120*X33550Y126920*X33500Y126720*X33410Y126530*X33290Y126360*X33150Y126220*X32980Y126100*X32790Y126010*X32590Y125960*X32390Y125940*X28840*X28640Y125960*X28440Y126010*X28250Y126100*X28080Y126220*X27940Y126360*X27820Y126530*X27730Y126720*X27680Y126920*X27660Y127120*Y128010*X27680Y128210*X27730Y128410*X27820Y128600*X27940Y128770*X28080Y128910*X28250Y129030*X28440Y129120*X28640Y129170*X28840Y129190*X32390*X42230Y136170D2*X42060Y136160D1*X41890Y136110*X41740Y136040*X41600Y135940*X41480Y135820*X41380Y135680*X41310Y135530*X41260Y135360*X41250Y135190*X41240Y134600D2*Y135190D1*X41250Y134600D2*X41260Y134430D1*X41310Y134260*X41380Y134110*X41480Y133970*X41600Y133850*X41740Y133750*X41890Y133680*X42060Y133630*X42230Y133620*X43610*X43780Y133630*X43950Y133680*X44100Y133750*X44240Y133850*X44360Y133970*X44460Y134110*X44530Y134260*X44580Y134430*X44590Y134600*Y135190*X44580Y135360*X44530Y135530*X44460Y135680*X44360Y135820*X44240Y135940*X44100Y136040*X43950Y136110*X43780Y136160*X43610Y136170*X42230Y136180D2*X43610D1*X33570Y159310D2*X33550Y159110D1*X33500Y158910*X33410Y158720*X33290Y158550*X33150Y158410*X32980Y158290*X32790Y158200*X32590Y158150*X32390Y158130*X28840Y158120D2*X32390D1*X28840Y158130D2*X28640Y158150D1*X28440Y158200*X28250Y158290*X28080Y158410*X27940Y158550*X27820Y158720*X27730Y158910*X27680Y159110*X27660Y159310*Y160190*X27680Y160390*X27730Y160590*X27820Y160780*X27940Y160950*X28080Y161090*X28250Y161210*X28440Y161300*X28640Y161350*X28840Y161370*X32390*X32590Y161350*X32790Y161300*X32980Y161210*X33150Y161090*X33290Y160950*X33410Y160780*X33500Y160590*X33550Y160390*X33570Y160190*Y159310*X44590Y152710D2*X44580Y152880D1*X44530Y153050*X44460Y153200*X44360Y153340*X44240Y153460*X44100Y153560*X43950Y153630*X43780Y153680*X43610Y153690*X42230Y153700D2*X43610D1*X42230Y153690D2*X42060Y153680D1*X41890Y153630*X41740Y153560*X41600Y153460*X41480Y153340*X41380Y153200*X41310Y153050*X41260Y152880*X41250Y152710*X41240Y152120D2*Y152710D1*X41250Y152120D2*X41260Y151950D1*X41310Y151780*X41380Y151630*X41480Y151490*X41600Y151370*X41740Y151270*X41890Y151200*X42060Y151150*X42230Y151140*X43610*X43780Y151150*X43950Y151200*X44100Y151270*X44240Y151370*X44360Y151490*X44460Y151630*X44530Y151780*X44580Y151950*X44590Y152120*Y152710*D225*X201830Y207850D2*X205990D1*X205180Y208840D2*X202740D1*X203150Y209820D2*X204750D1*X206340Y214750D2*X201540D1*X202530Y213760D2*X205380D1*X204840Y212780D2*X203030D1*X203350Y211790D2*X204590D1*X208550Y210810D2*X203350D1*X209550Y209820D2*X208550D1*Y208840D2*X209550D1*Y207850D2*X208550D1*X203300Y169440D2*X235550D1*Y170420D2*X202880D1*X201690Y171410D2*X235550D1*X200860Y181260D2*X197240D1*X198040Y182240D2*X200060D1*X199730Y183230D2*X198370D1*Y184210D2*X199730D1*X200110Y185200D2*X197990D1*X197120Y186180D2*X200980D1*X193480D2*X187550D1*Y185200D2*X192610D1*X192230Y184210D2*X187550D1*Y183230D2*X192230D1*X192560Y182240D2*X187550D1*X193560Y181050D2*X192700Y181920D1*X192230Y183050*Y184270*X192700Y185400*X193560Y186260*X194690Y186730*X195910*X197040Y186260*X197900Y185400*X198370Y184270*Y183050*X197900Y181920*X197040Y181050*X195910Y180580*X194690*X193560Y181050*X187550Y181260D2*X193360D1*X26020Y164510D2*X109730D1*Y165500D2*X26020D1*Y166480D2*X110130D1*X111020Y167470D2*X26020D1*X114580D2*X117270D1*X116380Y166480D2*X115470D1*X115870Y165500D2*X115980D1*Y164510D2*X115870D1*X115550Y163530D2*X116300D1*X117070Y162540D2*X114780D1*X174710Y159590D2*X143700D1*X177140D2*X177230D1*X143450Y158600D2*X177260D1*X177660Y157620D2*X143900D1*X144000Y156630D2*X178670D1*X143780Y155650D2*X152960D1*X152030Y154660D2*X143150D1*X272430Y25630D2*X323260D1*X324250Y26610D2*X272550D1*Y27600D2*X325230D1*X326220Y28580D2*X272550D1*Y29570D2*X327200D1*X163400Y88670D2*X176870D1*X177580Y89650D2*X164250D1*X185700D2*X181770D1*X182480Y88670D2*X185000D1*X184730Y87680D2*X182750D1*X182710Y86700D2*X184770D1*X185180Y85710D2*X182300D1*X181230Y84730D2*X186240D1*X161950Y44340D2*X166150D1*X165310Y43360D2*X162790D1*X163200Y42370D2*X164900D1*X164750Y41390D2*X163350D1*Y40400D2*X164750D1*X165120Y39420D2*X162980D1*X162410Y38430D2*X165690D1*X166770Y37450D2*X161330D1*X161800Y34490D2*X166300D1*X165370Y33510D2*X162730D1*X163140Y32520D2*X164960D1*X164750Y31540D2*X163350D1*Y30550D2*X164750D1*X165050Y29570D2*X163050D1*X162560Y28580D2*X165540D1*X166530Y27600D2*X161570D1*X171570D2*X176530D1*X175540Y28580D2*X172560D1*X173050Y29570D2*X175050D1*X174750Y30550D2*X173350D1*Y31540D2*X174750D1*X174960Y32520D2*X173140D1*X172730Y33510D2*X175370D1*X171490Y34800D2*X172700Y33590D1*X173350Y32010*Y30300*X172700Y28720*X171490Y27510*X169910Y26860*X168190*X166610Y27510*X165400Y28720*X164750Y30300*Y32010*X165400Y33590*X166610Y34800*X168190Y35460*X169910*X171490Y34800*X176300Y34490D2*X171800D1*X171330Y37450D2*X176770D1*X175690Y38430D2*X172410D1*X172980Y39420D2*X175120D1*X174750Y40400D2*X173350D1*Y41390D2*X174750D1*X174900Y42370D2*X173200D1*X172790Y43360D2*X175310D1*X176150Y44340D2*X171950D1*X181950D2*X186150D1*X185310Y43360D2*X182790D1*X183200Y42370D2*X184900D1*X184750Y41390D2*X183350D1*Y40400D2*X184750D1*X185120Y39420D2*X182980D1*X182410Y38430D2*X185690D1*X186770Y37450D2*X181330D1*X181800Y34490D2*X186300D1*X185370Y33510D2*X182730D1*X183140Y32520D2*X184960D1*X184750Y31540D2*X183350D1*Y30550D2*X184750D1*X185050Y29570D2*X183050D1*X182560Y28580D2*X185540D1*X181490Y27510D2*X179910Y26860D1*X178190*X176610Y27510*X175400Y28720*X174750Y30300*Y32010*X175400Y33590*X176610Y34800*X178190Y35460*X179910*X181490Y34800*X182700Y33590*X183350Y32010*Y30300*X182700Y28720*X181490Y27510*X186530Y27600D2*X181570D1*X204590Y30550D2*X203350D1*X203050Y29570D2*X204830D1*X205360Y28580D2*X202560D1*X201570Y27600D2*X206290D1*X191570D2*X196530D1*X195540Y28580D2*X192560D1*X193050Y29570D2*X195050D1*X194750Y30550D2*X193350D1*Y31540D2*X194750D1*X194960Y32520D2*X193140D1*X192730Y33510D2*X195370D1*X191490Y34800D2*X192700Y33590D1*X193350Y32010*Y30300*X192700Y28720*X191490Y27510*X189910Y26860*X188190*X186610Y27510*X185400Y28720*X184750Y30300*Y32010*X185400Y33590*X186610Y34800*X188190Y35460*X189910*X191490Y34800*X196300Y34490D2*X191800D1*X191330Y37450D2*X196770D1*X195690Y38430D2*X192410D1*X192980Y39420D2*X195120D1*X194750Y40400D2*X193350D1*Y41390D2*X194750D1*X194900Y42370D2*X193200D1*X192790Y43360D2*X195310D1*X196150Y44340D2*X191950D1*X201950D2*X206150D1*X205310Y43360D2*X202790D1*X203200Y42370D2*X204900D1*X204750Y41390D2*X203350D1*Y40400D2*X204750D1*X205120Y39420D2*X202980D1*X202410Y38430D2*X205690D1*X206770Y37450D2*X201330D1*X212080Y34490D2*X213910D1*X209550Y33510D2*X208550D1*Y34490D2*X209550D1*Y35480D2*X208550D1*X213510D2*X210320D1*X263090Y72910D2*X266910D1*X266550Y73890D2*X263840D1*X264050Y74880D2*X266590D1*X267090Y75860D2*X263860D1*X285110D2*X271010D1*X271510Y74880D2*X285990D1*X284730Y76850D2*X275780D1*X276410Y77830D2*X284730D1*X285060Y78820D2*X276550D1*X276280Y79800D2*X285850D1*X272840Y94580D2*X277360D1*X277230Y93590D2*X273760D1*X274050Y92610D2*X277410D1*X277990Y91620D2*X273930D1*X273850Y87680D2*X283860D1*X284720Y88670D2*X274050D1*X283370Y93590D2*X286020D1*X285130Y94580D2*X283240D1*X282740Y95560D2*X284730D1*Y96550D2*X281350D1*X290080Y118220D2*X291250D1*X289790Y119200D2*X288470D1*X290380Y137920D2*X290460D1*X289200Y138900D2*X289530D1*X285640Y133980D2*X283710D1*X284380Y134960D2*X284970D1*X284730Y135950D2*X284620D1*X284550Y136930D2*X284800D1*X285220Y137920D2*X284130D1*X282950Y138900D2*X286400D1*X88630D2*X280150D1*X278970Y137920D2*X89000D1*X289200Y132010D2*X269190D1*X268220Y131020D2*X289100D1*X176830Y134960D2*X263770D1*X264500Y135950D2*X176100D1*X285960Y146780D2*X260050D1*Y145800D2*X285100D1*X284730Y144810D2*X260050D1*Y143830D2*X284730D1*X285070Y142840D2*X260050D1*Y141860D2*X285880D1*X289100Y140870D2*X260050D1*X87790Y139890D2*X289120D1*X97450Y148750D2*X97050D1*X98100Y147770D2*X97960D1*X284860Y127080D2*X134070D1*X135330Y126100D2*X284730D1*X124890Y106400D2*X120460D1*X121640Y105410D2*X125450D1*X126970Y104430D2*X122060D1*X155090D2*X128630D1*X130150Y105410D2*X153580D1*X153020Y106400D2*X130710D1*X180410Y119200D2*X173370D1*X173250Y120190D2*X179880D1*X179730Y121170D2*X172750D1*X171380Y122160D2*X179890D1*X135020D2*X169210D1*X180440Y123140D2*X135650D1*X135870Y124130D2*X181940D1*X284910Y125110D2*X135780D1*X263990Y124130D2*X285490D1*X287050Y123140D2*X264580D1*X289820D2*X288550D1*X264670Y122160D2*X289260D1*X240360Y120190D2*X261000D1*X169240Y129050D2*X247610D1*X165200Y130040D2*X166060Y129180D1*X63360Y132990D2*X164980D1*X165650Y133980D2*X61480D1*X170980D2*X169950D1*X171000Y132990D2*X170620D1*X171410Y132010D2*X170870D1*X170810Y131020D2*X172380D1*X170400Y130040D2*X169540Y129180D1*X168410Y128710*X167190*X166060Y129180*X133370Y129050D2*X166360D1*X285370Y128070D2*X133370D1*X250490Y129050D2*X286760D1*X263480Y133980D2*X251200D1*X251870Y132990D2*X263500D1*X263910Y132010D2*X252120D1*X252060Y131020D2*X264880D1*X251650Y130040D2*X250790Y129180D1*X249660Y128710*X248440*X247310Y129180*X246450Y130040*X175720Y131020D2*X246040D1*X245980Y132010D2*X176690D1*X177100Y132990D2*X246230D1*X246900Y133980D2*X177120D1*X235550Y148750D2*X234550D1*X235460Y147770D2*X235550D1*Y143830D2*X234810D1*X183080Y142840D2*X235550D1*X230790Y143830D2*X184170D1*X184580Y144810D2*X230030D1*X229730Y145800D2*X184620D1*X184360Y146780D2*X229730D1*X230140Y147770D2*X183660D1*X182240Y148750D2*X231050D1*X156710Y150720D2*X176600D1*X176840Y151710D2*X157450D1*X157750Y152690D2*X177490D1*X179980Y153680D2*X157730D1*X157320Y154660D2*X179730D1*X179780Y155650D2*X156390D1*X228570D2*X185820D1*X185870Y154660D2*X228020D1*X227850Y153680D2*X185620D1*X184930Y152690D2*X228000D1*X228530Y151710D2*X182510D1*X182750Y150720D2*X229980D1*X235550Y149740D2*X182670D1*X231870Y150720D2*X235550D1*Y151710D2*X233320D1*X233850Y152690D2*X235550D1*Y153680D2*X234000D1*X233830Y154660D2*X235550D1*Y155650D2*X233280D1*X231770Y156630D2*X235550D1*X230310Y156730D2*X231540D1*X232660Y156260*X233530Y155400*X234000Y154270*Y153050*X233530Y151920*X232660Y151050*X231540Y150580*X230310*X229180Y151050*X228320Y151920*X227850Y153050*Y154270*X228320Y155400*X229180Y156260*X230310Y156730*X185410Y156630D2*X230080D1*X235550Y157620D2*X184280D1*X183340Y158600D2*X235550D1*Y159590D2*X183370D1*X183090Y160570D2*X235550D1*Y161560D2*X182370D1*X179000Y162540D2*X235550D1*X221120Y163530D2*X178790D1*X235550D2*X224480D1*X225440Y164510D2*X235550D1*Y165500D2*X225850D1*X225870Y166480D2*X235550D1*Y167470D2*X225580D1*X224850Y168450D2*X235550D1*X203370D2*X220750D1*X220020Y167470D2*X203130D1*X202470Y166480D2*X219730D1*X165200D2*X198130D1*X219750Y165500D2*X165730D1*X220200Y164420D2*X219730Y165550D1*Y166770*X220200Y167900*X221060Y168760*X222190Y169230*X223410*X224540Y168760*X225400Y167900*X225870Y166770*Y165550*X225400Y164420*X224540Y163550*X223410Y163080*X222190*X221060Y163550*X220200Y164420*X178160Y164510D2*X220160D1*X165870D2*X173690D1*X173060Y163530D2*X165710D1*X165150Y162540D2*X172850D1*X172950Y161560D2*X163630D1*X144370Y160570D2*X173420D1*X161970Y161560D2*X144620D1*X144560Y162540D2*X160450D1*X159890Y163530D2*X144150D1*X142980Y164510D2*X159730D1*X121030Y162540D2*X138540D1*X138950Y163530D2*X121800D1*X122120Y164510D2*X140110D1*X159870Y165500D2*X122120D1*X121720Y166480D2*X160400D1*X120790Y167510D2*X121650Y166650D1*X122120Y165520*Y164300*X121650Y163170*X120790Y162300*X119660Y161830*X118440*X117310Y162300*X116450Y163170*X115980Y164300*Y165520*X116450Y166650*X117310Y167510*X118440Y167980*X119660*X120790Y167510*X161850Y167470D2*X120830D1*X163410Y167610D2*X164540Y167140D1*X165400Y166280*X165870Y165150*Y163930*X165400Y162800*X164540Y161930*X163410Y161470*X162190*X161060Y161930*X160200Y162800*X159730Y163930*Y165150*X160200Y166280*X161060Y167140*X162190Y167610*X163410*X197470Y167470D2*X163750D1*X26020Y168450D2*X197230D1*X38960Y217700D2*X50550D1*Y216720D2*X37980D1*X36990Y215730D2*X50550D1*Y214750D2*X36010D1*X41310Y198000D2*X50550D1*Y198990D2*X43560D1*X44540Y199970D2*X50550D1*Y200960D2*X45530D1*X46010Y201940D2*X50550D1*Y202930D2*X46420D1*X46830Y203910D2*X50550D1*Y204900D2*X46850D1*Y205880D2*X50550D1*Y206870D2*X46850D1*X46520Y207850D2*X50550D1*Y208840D2*X46110D1*X45700Y209820D2*X50550D1*Y210810D2*X44780D1*X43790Y211790D2*X50550D1*Y212780D2*X41880D1*X35020Y213760D2*X50550D1*X34040Y212780D2*X36220D1*X33050Y211790D2*X34310D1*X32070Y210810D2*X33320D1*X31080Y209820D2*X32400D1*X31990Y208840D2*X30100D1*X29110Y207850D2*X31580D1*X31250Y206870D2*X28130D1*X27140Y205880D2*X31250D1*Y204900D2*X26160D1*X26020Y203910D2*X31270D1*X31680Y202930D2*X26020D1*Y201940D2*X32080D1*X32570Y200960D2*X26020D1*Y199970D2*X33550D1*X34540Y198990D2*X26020D1*X37500Y197710D2*X40600D1*X43470Y198890*X45660Y201090*X46850Y203960*Y207060*X45660Y209920*X43470Y212120*X40600Y213310*X37500*X34630Y212120*X32440Y209920*X31250Y207060*Y203960*X32440Y201090*X34630Y198890*X37500Y197710*X26020Y198000D2*X36790D1*X50550Y197020D2*X26020D1*Y196030D2*X50550D1*Y195050D2*X26020D1*Y194060D2*X50550D1*Y193080D2*X26020D1*Y192090D2*X50550D1*Y191110D2*X26020D1*Y190120D2*X50550D1*Y189140D2*X26020D1*Y188150D2*X50550D1*Y187170D2*X26020D1*Y186180D2*X50550D1*Y185200D2*X26020D1*Y184210D2*X50550D1*Y183230D2*X26020D1*Y182240D2*X50550D1*Y181260D2*X26020D1*Y180270D2*X50550D1*Y179290D2*X26020D1*Y178300D2*X50550D1*Y177320D2*X26020D1*Y176330D2*X50550D1*Y175350D2*X26020D1*Y174360D2*X50550D1*Y173380D2*X26020D1*Y172390D2*X50550D1*Y171410D2*X26020D1*Y170420D2*X50870D1*X197300Y169440D2*X26020D1*X197720Y170420D2*X187230D1*X198560Y171260D2*X199690Y171730D1*X200910*X202040Y171260*X202900Y170400*X203370Y169270*Y168050*X202900Y166920*X202040Y166050*X200910Y165580*X199690*X198560Y166050*X197700Y166920*X197230Y168050*Y169270*X197700Y170400*X198560Y171260*X187550Y171410D2*X198910D1*X235550Y172390D2*X187550D1*Y173380D2*X235550D1*Y174360D2*X187550D1*Y175350D2*X235550D1*Y176330D2*X187550D1*Y177320D2*X235550D1*Y178300D2*X187550D1*Y179290D2*X235550D1*Y180270D2*X187550D1*X204740Y181260D2*X235550D1*Y182240D2*X205540D1*X205870Y183230D2*X235550D1*Y184210D2*X205870D1*X205490Y185200D2*X235550D1*X204540Y186260D2*X205400Y185400D1*X205870Y184270*Y183050*X205400Y181920*X204540Y181050*X203410Y180580*X202190*X201060Y181050*X200200Y181920*X199730Y183050*Y184270*X200200Y185400*X201060Y186260*X202190Y186730*X203410*X204540Y186260*X235550Y186180D2*X204620D1*X187550Y187170D2*X235550D1*Y188150D2*X187550D1*Y189140D2*X235550D1*Y190120D2*X187550D1*Y191110D2*X235550D1*Y192090D2*X187550D1*X222830Y216720D2*X245270D1*X244450Y215730D2*X223650D1*X224000Y214750D2*X244100D1*Y213760D2*X224000D1*X223630Y212780D2*X244470D1*X245320Y211790D2*X222780D1*X249030D2*X269070D1*X268220Y212780D2*X249880D1*X250250Y213760D2*X267850D1*Y214750D2*X250250D1*X249900Y215730D2*X268200D1*X248910Y216890D2*X249780Y216020D1*X250250Y214890*Y213670*X249780Y212540*X248910Y211680*X247790Y211210*X246560*X245430Y211680*X244570Y212540*X244100Y213670*Y214890*X244570Y216020*X245430Y216890*X246560Y217350*X247790*X248910Y216890*X269020Y216720D2*X249080D1*X274000Y214750D2*X286560D1*X285570Y213760D2*X274000D1*X273630Y212780D2*X285070D1*X284750Y211790D2*X272780D1*X209550Y210810D2*X284750D1*X208550Y211790D2*X209550D1*Y212780D2*X208550D1*Y213760D2*X209550D1*Y214750D2*X208550D1*X217850D2*X211760D1*X212720Y213760D2*X217850D1*X218220Y212780D2*X213250D1*X213510Y211790D2*X219070D1*X213530Y211660D2*X213440Y212210D1*X213220Y212880*X212900Y213510*X212480Y214090*X211980Y214590*X211410Y215000*X210780Y215330*X210100Y215550*X209550Y215630*Y211660*X213530*X284950Y209820D2*X213350D1*X212920Y208840D2*X285360D1*X286270Y207850D2*X212110D1*X289550Y202930D2*X288550D1*Y203910D2*X289550D1*Y204900D2*X288550D1*X299930Y206870D2*X316210D1*X316540Y207850D2*X301830D1*X302740Y208840D2*X316950D1*X317360Y209820D2*X303150D1*X303350Y210810D2*X318280D1*X319270Y211790D2*X303350D1*X303030Y212780D2*X321180D1*X291540Y214750D2*X296560D1*X295570Y213760D2*X292530D1*X293030Y212780D2*X295070D1*X294750Y211790D2*X293350D1*Y210810D2*X294750D1*X294950Y209820D2*X293150D1*X292740Y208840D2*X295360D1*X296270Y207850D2*X291830D1*X291560Y204900D2*X296540D1*X295490Y203910D2*X292610D1*X293200Y202930D2*X294900D1*X294620Y201940D2*X293480D1*X293400Y199970D2*X294700D1*X295100Y198990D2*X292990D1*X292260Y198000D2*X295840D1*X297260Y197020D2*X290840D1*X318520Y199970D2*X303400D1*X302990Y198990D2*X319500D1*X321750Y198000D2*X302260D1*X337040D2*X326270D1*X328520Y198990D2*X337040D1*Y199970D2*X329510D1*X330490Y200960D2*X337040D1*Y201940D2*X330980D1*X331380Y202930D2*X337040D1*Y203910D2*X331790D1*X331810Y204900D2*X336900D1*X335920Y205880D2*X331810D1*Y206870D2*X334930D1*X333950Y207850D2*X331480D1*X331070Y208840D2*X332960D1*X330660Y209820D2*X331980D1*X329740Y210810D2*X330990D1*X328760Y211790D2*X330010D1*X329020Y212780D2*X326840D1*X302530Y213760D2*X328040D1*X327050Y214750D2*X301540D1*X273650Y215730D2*X326070D1*X272660Y216890D2*X273530Y216020D1*X274000Y214890*Y213670*X273530Y212540*X272660Y211680*X271540Y211210*X270310*X269180Y211680*X268320Y212540*X267850Y213670*Y214890*X268320Y216020*X269180Y216890*X270310Y217350*X271540*X272660Y216890*X325080Y216720D2*X272830D1*X187550Y217700D2*X324100D1*X219020Y216720D2*X187550D1*X218320Y216020D2*X219180Y216890D1*X220310Y217350*X221540*X222660Y216890*X223530Y216020*X224000Y214890*Y213670*X223530Y212540*X222660Y211680*X221540Y211210*X220310*X219180Y211680*X218320Y212540*X217850Y213670*Y214890*X218320Y216020*X187550Y215730D2*X218200D1*X196560Y214750D2*X187550D1*Y213760D2*X195570D1*X195070Y212780D2*X187550D1*Y211790D2*X194750D1*Y210810D2*X187550D1*Y209820D2*X194950D1*X195360Y208840D2*X187550D1*Y207850D2*X196270D1*X198170Y206870D2*X187550D1*X199910Y206860D2*X198190D1*X196610Y207510*X195400Y208720*X194750Y210300*Y212010*X195400Y213590*X196610Y214800*X198190Y215460*X199910*X201490Y214800*X202700Y213590*X203350Y212010*Y210300*X202700Y208720*X201490Y207510*X199910Y206860*X207690Y206870D2*X199930D1*X209550D2*X208550D1*X210100Y206770D2*X209550Y206680D1*Y210660*X208550*Y206680*X208000Y206770*X207320Y206990*X206690Y207310*X206120Y207720*X205620Y208220*X205200Y208800*X204880Y209430*X204660Y210100*X204570Y210660*X208550*Y211660*X204570*X204660Y212210*X204880Y212880*X205200Y213510*X205620Y214090*X206120Y214590*X206690Y215000*X207320Y215330*X208000Y215550*X208550Y215630*Y211660*X209550*Y210660*X213530*X213440Y210100*X213220Y209430*X212900Y208800*X212480Y208220*X211980Y207720*X211410Y207310*X210780Y206990*X210100Y206770*X288170Y206870D2*X210410D1*X289910Y206860D2*X288190D1*X286610Y207510*X285400Y208720*X284750Y210300*Y212010*X285400Y213590*X286610Y214800*X288190Y215460*X289910*X291490Y214800*X292700Y213590*X293350Y212010*Y210300*X292700Y208720*X291490Y207510*X289910Y206860*X298170Y206870D2*X289930D1*X298190Y206860D2*X296610Y207510D1*X295400Y208720*X294750Y210300*Y212010*X295400Y213590*X296610Y214800*X298190Y215460*X299910*X301490Y214800*X302700Y213590*X303350Y212010*Y210300*X302700Y208720*X301490Y207510*X299910Y206860*X298190*X299550Y204900D2*X298550D1*Y203910D2*X299550D1*Y202930D2*X298550D1*Y201940D2*X299550D1*X289550Y200960D2*X298550D1*X288550Y201940D2*X289550D1*X187550Y199970D2*X284700D1*X285100Y198990D2*X187550D1*Y198000D2*X285840D1*X287260Y197020D2*X187550D1*X289550D2*X288550D1*Y198000D2*X289550D1*Y198990D2*X288550D1*Y199970D2*X289550D1*X288550Y200660D2*X289550D1*Y196680*X290100Y196770*X290780Y196990*X291410Y197310*X291980Y197720*X292480Y198220*X292900Y198800*X293220Y199430*X293440Y200100*X293530Y200660*X289550*Y201660*X293530*X293440Y202210*X293220Y202880*X292900Y203510*X292480Y204090*X291980Y204590*X291410Y205000*X290780Y205330*X290100Y205550*X289550Y205630*Y201660*X288550*Y200660*Y196680*X288000Y196770*X287320Y196990*X286690Y197310*X286120Y197720*X285620Y198220*X285200Y198800*X284880Y199430*X284660Y200100*X284570Y200660*X288550*X187550Y200960D2*X288550D1*X284620Y201940D2*X187550D1*Y202930D2*X284900D1*X285490Y203910D2*X187550D1*X286690Y205000D2*X287320Y205330D1*X288000Y205550*X288550Y205630*Y201660*X284570*X284660Y202210*X284880Y202880*X285200Y203510*X285620Y204090*X286120Y204590*X286690Y205000*X187550Y204900D2*X286540D1*X316210Y205880D2*X187550D1*X301560Y204900D2*X316210D1*X316230Y203910D2*X302610D1*X303200Y202930D2*X316640D1*X303440Y202210D2*X303530Y201660D1*X299550*Y205630*X300100Y205550*X300780Y205330*X301410Y205000*X301980Y204590*X302480Y204090*X302900Y203510*X303220Y202880*X303440Y202210*X317050Y201940D2*X303480D1*X317400Y201090D2*X316210Y203960D1*Y207060*X317400Y209920*X319590Y212120*X322460Y213310*X325560*X328430Y212120*X330620Y209920*X331810Y207060*Y203960*X330620Y201090*X328430Y198890*X325560Y197710*X322460*X319590Y198890*X317400Y201090*X299550Y200960D2*X317530D1*X298550Y199970D2*X299550D1*Y198990D2*X298550D1*Y198000D2*X299550D1*Y197020D2*X298550D1*X300780Y196990D2*X300100Y196770D1*X299550Y196680*Y200660*X298550*Y196680*X298000Y196770*X297320Y196990*X296690Y197310*X296120Y197720*X295620Y198220*X295200Y198800*X294880Y199430*X294660Y200100*X294570Y200660*X298550*Y201660*X294570*X294660Y202210*X294880Y202880*X295200Y203510*X295620Y204090*X296120Y204590*X296690Y205000*X297320Y205330*X298000Y205550*X298550Y205630*Y201660*X299550*Y200660*X303530*X303440Y200100*X303220Y199430*X302900Y198800*X302480Y198220*X301980Y197720*X301410Y197310*X300780Y196990*X337040Y197020D2*X300840D1*X187550Y196030D2*X337040D1*Y195050D2*X187550D1*Y194060D2*X337040D1*X235550Y193080D2*X187550D1*X337040D2*X260050D1*Y192090D2*X337040D1*Y191110D2*X260050D1*X330690Y168450D2*X337040D1*Y169440D2*X332520D1*X333500Y170420D2*X337040D1*Y171410D2*X334000D1*X334410Y172390D2*X337040D1*Y173380D2*X334490D1*Y174360D2*X337040D1*Y175350D2*X334230D1*X333830Y176330D2*X337040D1*Y177320D2*X333080D1*X332040Y178300D2*X337040D1*X282570Y183230D2*X325370D1*X337040Y179290D2*X291660D1*X283260Y180270D2*X337040D1*X282770Y179290D2*X286440D1*X285540Y178300D2*X281430D1*X260050Y173380D2*X286090D1*X285400Y174360D2*X260050D1*Y175350D2*X284990D1*Y176330D2*X260050D1*Y177320D2*X285140D1*X279160Y178300D2*X260050D1*Y179290D2*X277830D1*X277340Y180270D2*X260050D1*Y181260D2*X277230D1*X277420Y182240D2*X260050D1*Y183230D2*X278030D1*X279650Y184210D2*X260050D1*X324800D2*X280950D1*X260050Y185200D2*X324440D1*X324360Y186180D2*X260050D1*Y187170D2*X324450D1*X324830Y188150D2*X260050D1*Y189140D2*X325420D1*X326500Y190120D2*X260050D1*X337040D2*X331600D1*X332680Y189140D2*X337040D1*Y188150D2*X333270D1*X333650Y187170D2*X337040D1*Y186180D2*X333740D1*X333660Y185200D2*X337040D1*Y184210D2*X333300D1*X332730Y183230D2*X337040D1*Y182240D2*X331630D1*X283370Y181260D2*X337040D1*X283370Y181770D2*Y180550D1*X282900Y179420*X282040Y178550*X280910Y178080*X279690*X278560Y178550*X277700Y179420*X277230Y180550*Y181770*X277700Y182900*X278560Y183760*X279690Y184230*X280910*X282040Y183760*X282900Y182900*X283370Y181770*X326470Y182240D2*X283170D1*X327740Y181670D2*X327670Y181650D1*X327450Y181750*X327210Y181810*X327170Y181880*X326980Y181970*X326910Y181950*X326700Y182090*X326480Y182200*X326460Y182270*X326280Y182390*X326210*X326040Y182560*X325830Y182700*X325820Y182780*X325670Y182930*X325600Y182940*X325460Y183140*X325280Y183310*Y183390*X325160Y183560*X325090Y183590*X324990Y183810*X324850Y184010*X324860Y184080*X324770Y184280*X324710Y184320*X324640Y184550*X324540Y184770*X324560Y184840*X324510Y185050*X324450Y185100*X324430Y185340*X324370Y185580*X324400Y185640*X324390Y185860*X324340Y185910*X324360Y186160*X324340Y186400*X324390Y186460*X324400Y186670*X324370Y186730*X324430Y186970*X324450Y187210*X324510Y187260*X324560Y187470*X324540Y187540*X324640Y187760*X324710Y188000*X324770Y188030*X324860Y188230*X324850Y188300*X324990Y188500*X325090Y188720*X325160Y188750*X325280Y188920*Y189000*X325460Y189170*X325600Y189370*X325670Y189380*X325820Y189540*X325830Y189610*X326040Y189750*X326210Y189920*X326280*X326460Y190040*X326480Y190110*X326700Y190220*X326910Y190360*X326980Y190350*X327170Y190440*X327210Y190500*X327450Y190560*X327670Y190670*X327740Y190640*X327940Y190700*X327990Y190750*X328240Y190770*X328470Y190840*X328540Y190800*X328750Y190820*X328810Y190870*X329050Y190850*X329290Y190870*X329350Y190820*X329560Y190800*X329630Y190840*X329860Y190770*X330110Y190750*X330160Y190700*X330360Y190640*X330430Y190670*X330650Y190560*X330890Y190500*X330930Y190440*X331120Y190350*X331190Y190360*X331390Y190220*X331620Y190110*X331640Y190040*X331820Y189920*X331890*X332060Y189750*X332270Y189610*X332280Y189540*X332430Y189380*X332500Y189370*X332640Y189170*X332820Y189000*Y188920*X332940Y188750*X333010Y188720*X333110Y188500*X333250Y188300*X333240Y188230*X333330Y188030*X333390Y188000*X333460Y187760*X333560Y187540*X333530Y187470*X333590Y187260*X333650Y187210*X333670Y186970*X333730Y186730*X333690Y186670*X333710Y186460*X333760Y186400*X333740Y186160*X333760Y185910*X333710Y185860*X333690Y185640*X333730Y185580*X333670Y185340*X333650Y185100*X333590Y185050*X333530Y184840*X333560Y184770*X333460Y184550*X333390Y184320*X333330Y184280*X333240Y184080*X333250Y184010*X333110Y183810*X333010Y183590*X332940Y183560*X332820Y183390*Y183310*X332640Y183140*X332500Y182940*X332430Y182930*X332280Y182780*X332270Y182700*X332060Y182560*X331890Y182390*X331820*X331640Y182270*X331620Y182200*X331390Y182090*X331190Y181950*X331120Y181970*X330930Y181880*X330890Y181810*X330650Y181750*X330430Y181650*X330360Y181670*X330160Y181620*X330110Y181560*X329860Y181540*X329630Y181470*X329560Y181510*X329350Y181490*X329290Y181440*X329050Y181470*X328810Y181440*X328750Y181490*X328540Y181510*X328470Y181470*X328240Y181540*X327990Y181560*X327940Y181620*X327740Y181670*X292550Y178300D2*X326060D1*X325020Y177320D2*X292960D1*X293110Y176330D2*X324270D1*X323860Y175350D2*X293110D1*X292700Y174360D2*X323610D1*Y173380D2*X292010D1*X290570Y172390D2*X323690D1*X288240Y172100D2*X286750Y172710D1*X285610Y173860*X284990Y175350*Y176960*X285610Y178460*X286750Y179600*X288240Y180220*X289860*X291350Y179600*X292490Y178460*X293110Y176960*Y175350*X292490Y173860*X291350Y172710*X289860Y172100*X288240*X260050Y172390D2*X287530D1*X324100Y171410D2*X260050D1*Y170420D2*X324600D1*X325580Y169440D2*X260050D1*X327970Y168220D2*X325970Y169050D1*X324440Y170580*X323610Y172570*Y174740*X324440Y176740*X325970Y178270*X327970Y179090*X330130*X332130Y178270*X333660Y176740*X334490Y174740*Y172570*X333660Y170580*X332130Y169050*X330130Y168220*X327970*X260050Y168450D2*X327410D1*X337040Y167470D2*X260050D1*Y166480D2*X337040D1*Y165500D2*X260050D1*Y164510D2*X337040D1*Y163530D2*X260050D1*Y162540D2*X337040D1*Y161560D2*X260050D1*Y160570D2*X337040D1*Y159590D2*X260050D1*Y158600D2*X337040D1*Y157620D2*X260050D1*Y156630D2*X337040D1*Y155650D2*X260050D1*Y154660D2*X337040D1*Y153680D2*X260050D1*Y152690D2*X337040D1*Y151710D2*X260050D1*Y150720D2*X337040D1*Y149740D2*X260050D1*Y148750D2*X337040D1*Y147770D2*X260050D1*X289640Y146780D2*X337040D1*Y145800D2*X290500D1*X290870Y144810D2*X337040D1*Y143830D2*X290870D1*X294210Y142840D2*X337040D1*Y141860D2*X294950D1*X295250Y140870D2*X337040D1*Y139890D2*X295230D1*X294820Y138900D2*X337040D1*X293910Y137930D2*X292790Y137460D1*X291560*X290430Y137930*X289570Y138790*X289100Y139920*Y141140*X289280Y141570*X288410Y141210*X287190*X286060Y141680*X285200Y142540*X284730Y143670*Y144890*X285200Y146020*X286060Y146890*X287190Y147350*X288410*X289540Y146890*X290400Y146020*X290870Y144890*Y143670*X290690Y143240*X291560Y143600*X292790*X293910Y143140*X294780Y142270*X295250Y141140*Y139920*X294780Y138790*X293910Y137930*X337040Y137920D2*X293890D1*X290800Y136930D2*X337040D1*Y135950D2*X290870D1*X294410Y129050D2*X337040D1*Y130040D2*X295040D1*X295250Y131020D2*X337040D1*Y132010D2*X295150D1*X294680Y132990D2*X337040D1*Y133980D2*X293390D1*X290630Y134960D2*X337040D1*X289960Y133980D2*X290960D1*X289540Y133550D2*X288410Y133080D1*X287190*X286060Y133550*X285200Y134420*X284730Y135550*Y136770*X285200Y137900*X286060Y138760*X287190Y139230*X288410*X289540Y138760*X290400Y137900*X290870Y136770*Y135550*X290400Y134420*X289540Y133550*X269600Y132990D2*X289670D1*X279390Y133980D2*X269620D1*X269330Y134960D2*X278720D1*X268290Y136260D2*X269150Y135400D1*X269620Y134270*Y133050*X269150Y131920*X268290Y131050*X267160Y130580*X265940*X264810Y131050*X263950Y131920*X263480Y133050*Y134270*X263950Y135400*X264810Y136260*X265940Y136730*X267160*X268290Y136260*X278480Y135950D2*X268600D1*X278480Y136770D2*X278950Y137900D1*X279810Y138760*X280940Y139230*X282160*X283290Y138760*X284150Y137900*X284620Y136770*Y135550*X284150Y134420*X283290Y133550*X282160Y133080*X280940*X279810Y133550*X278950Y134420*X278480Y135550*Y136770*X89000Y136930D2*X278550D1*X171270Y134960D2*X87820D1*X172310Y136260D2*X173440Y136730D1*X174660*X175790Y136260*X176650Y135400*X177120Y134270*Y133050*X176650Y131920*X175790Y131050*X174660Y130580*X173440*X172310Y131050*X171450Y131920*X170980Y133050*Y134270*X171450Y135400*X172310Y136260*X88640Y135950D2*X172000D1*X127630Y127080D2*X101570D1*X102830Y126100D2*X128520D1*X129820Y125110D2*X103280D1*X103370Y124130D2*X129730D1*X129950Y123140D2*X103150D1*X102520Y122160D2*X130580D1*X55940Y74880D2*X26020D1*Y75860D2*X55170D1*X54760Y76850D2*X26020D1*Y77830D2*X54490D1*Y78820D2*X26020D1*Y79800D2*X54550D1*X54960Y80790D2*X26020D1*Y81770D2*X55430D1*X56420Y82760D2*X26020D1*Y83740D2*X58180D1*X159700Y88670D2*X26020D1*Y89650D2*X158850D1*X158480Y90640D2*X26020D1*Y91620D2*X158480D1*X158830Y92610D2*X26020D1*Y93590D2*X159640D1*X126850Y110340D2*X26020D1*Y109350D2*X125400D1*X124870Y108370D2*X26020D1*Y107380D2*X124730D1*X117640Y106400D2*X26020D1*Y105410D2*X116460D1*X116040Y104430D2*X26020D1*Y103440D2*X115980D1*X116220Y102460D2*X26020D1*Y86700D2*X101500D1*X102720Y87680D2*X26020D1*X176600D2*X105380D1*X106600Y86700D2*X176640D1*X159990Y85710D2*X107040D1*X107120Y84730D2*X158930D1*X158520Y83740D2*X106890D1*X106240Y82760D2*X158480D1*X121980Y71920D2*X103620D1*X105140Y72910D2*X120460D1*X119900Y73890D2*X105700D1*X105870Y74880D2*X119730D1*X119870Y75860D2*X105730D1*X105200Y76850D2*X120400D1*X87700D2*X100400D1*X99870Y75860D2*X88230D1*X88370Y74880D2*X99730D1*X99900Y73890D2*X88200D1*X87640Y72910D2*X100460D1*X101980Y71920D2*X86120D1*X71510Y56160D2*X100350D1*X100510Y55180D2*X72370D1*X149330Y54190D2*X105800D1*X71600Y51240D2*X149630D1*X149190Y52220D2*X72410D1*X104330Y53210D2*X149100D1*X72750D2*X102520D1*X101050Y54190D2*X72750D1*X260550Y26610D2*X97130D1*X39800Y25630D2*X260670D1*X63230Y31540D2*X42240D1*X43940Y32520D2*X63230D1*X63400Y33510D2*X44930D1*X45770Y34490D2*X63970D1*X207780Y35480D2*X46170D1*X201800Y34490D2*X206020D1*X205200Y33510D2*X202730D1*X203140Y32520D2*X204760D1*X203350Y32010D2*Y30300D1*X202700Y28720*X201490Y27510*X199910Y26860*X198190*X196610Y27510*X195400Y28720*X194750Y30300*Y32010*X195400Y33590*X196610Y34800*X198190Y35460*X199910*X201490Y34800*X202700Y33590*X203350Y32010*X208550Y31540D2*X203350D1*X209550Y32520D2*X208550D1*X260550Y30550D2*X213510D1*X213260Y29570D2*X260550D1*Y28580D2*X212740D1*X211810Y27600D2*X260550D1*X208550D2*X209550D1*Y28580D2*X208550D1*Y29570D2*X209550D1*Y30550D2*X208550D1*X209550Y30660D2*Y26680D1*X210100Y26770*X210780Y26990*X211410Y27310*X211980Y27720*X212480Y28220*X212900Y28800*X213220Y29430*X213440Y30100*X213530Y30660*X209550*X260550Y31540D2*X209550D1*X213340Y32520D2*X260550D1*X212900Y33510D2*X213220Y32880D1*X213440Y32210*X213530Y31660*X209550*Y30660*X208550*Y26680*X208000Y26770*X207320Y26990*X206690Y27310*X206120Y27720*X205620Y28220*X205200Y28800*X204880Y29430*X204660Y30100*X204570Y30660*X208550*Y31660*X204570*X204660Y32210*X204880Y32880*X205200Y33510*X205620Y34090*X206120Y34590*X206690Y35000*X207320Y35330*X208000Y35550*X208550Y35630*Y31660*X209550*Y35630*X210100Y35550*X210780Y35330*X211410Y35000*X211980Y34590*X212480Y34090*X212900Y33510*X214920*X260550D2*X218180D1*X219180Y34490D2*X260550D1*Y35480D2*X219590D1*X219620Y36460D2*X260550D1*Y37450D2*X219340D1*X218620Y38430D2*X260550D1*Y42370D2*X213200D1*X213350Y41390D2*X260550D1*Y40400D2*X213350D1*X212980Y39420D2*X260550D1*X212410Y38430D2*X214480D1*X213760Y37450D2*X211330D1*X213480Y36770D2*X213950Y37900D1*X214810Y38760*X215940Y39230*X217160*X218290Y38760*X219150Y37900*X219620Y36770*Y35550*X219150Y34420*X218290Y33550*X217160Y33080*X215940*X214810Y33550*X213950Y34420*X213480Y35550*Y36770*X46580Y36460D2*X213480D1*X146770Y37450D2*X46850D1*X97200Y34490D2*X146300D1*X145370Y33510D2*X97770D1*X97940Y32520D2*X144960D1*X144750Y31540D2*X97940D1*Y30550D2*X144750D1*X145050Y29570D2*X97940D1*Y28580D2*X145540D1*X146530Y27600D2*X97690D1*X156530D2*X151570D1*X152560Y28580D2*X155540D1*X155050Y29570D2*X153050D1*X153350Y30550D2*X154750D1*Y31540D2*X153350D1*X153140Y32520D2*X154960D1*X155370Y33510D2*X152730D1*X156610Y34800D2*X158190Y35460D1*X159910*X161490Y34800*X162700Y33590*X163350Y32010*Y30300*X162700Y28720*X161490Y27510*X159910Y26860*X158190*X156610Y27510*X155400Y28720*X154750Y30300*Y32010*X155400Y33590*X156610Y34800*X151800Y34490D2*X156300D1*X149910Y35460D2*X151490Y34800D1*X152700Y33590*X153350Y32010*Y30300*X152700Y28720*X151490Y27510*X149910Y26860*X148190*X146610Y27510*X145400Y28720*X144750Y30300*Y32010*X145400Y33590*X146610Y34800*X148190Y35460*X149910*X156770Y37450D2*X151330D1*X152410Y38430D2*X155690D1*X155120Y39420D2*X152980D1*X153350Y40400D2*X154750D1*Y41390D2*X153350D1*X153200Y42370D2*X154900D1*X155310Y43360D2*X152790D1*X151950Y44340D2*X156150D1*X93050D2*X146150D1*X145310Y43360D2*X93310D1*Y42370D2*X144900D1*X144750Y41390D2*X93310D1*X92990Y40400D2*X144750D1*X145120Y39420D2*X92180D1*X46850Y38430D2*X145690D1*X49530Y50250D2*X48570D1*Y51240D2*X49530D1*Y52220D2*X48570D1*Y54190D2*X49530D1*X46280Y57150D2*X36150D1*X49530D2*X48570D1*Y56160D2*X49530D1*Y55180D2*X48570D1*X66980D2*X53240D1*X52730Y56160D2*X67840D1*X100510Y57150D2*X51820D1*X35780Y58130D2*X101060D1*X26020Y60100D2*X28980D1*X27900Y59120D2*X26020D1*Y58130D2*X27320D1*X26950Y57150D2*X26020D1*Y55180D2*X26950D1*X27310Y54190D2*X26020D1*Y53210D2*X27890D1*X46160Y50250D2*X26020D1*Y51240D2*X45300D1*X28970Y52220D2*X26020D1*X44830D2*X34130D1*X44620Y53170D2*X48570D1*Y49220*X48010Y49310*X47340Y49530*X46720Y49850*X46150Y50260*X45650Y50760*X45240Y51320*X44920Y51950*X44710Y52610*X44620Y53170*X35790Y54190D2*X44630D1*X48570Y53210D2*X35210D1*X66600D2*X49530D1*X53470Y54190D2*X66600D1*X53480Y54140D2*X53390Y54700D1*X53180Y55370*X52860Y55990*X52450Y56560*X51950Y57050*X51380Y57460*X50760Y57780*X50090Y58000*X49530Y58090*Y54140*Y53170*X48570*Y54140*X49530*X53480*X66940Y52220D2*X53270D1*X67930Y51050D2*X67070Y51920D1*X66600Y53050*Y54270*X67070Y55400*X67930Y56260*X69060Y56730*X70290*X71410Y56260*X72280Y55400*X72750Y54270*Y53050*X72280Y51920*X71410Y51050*X70290Y50580*X69060*X67930Y51050*X52800Y51240D2*X67750D1*X150860Y50250D2*X51940D1*X240140D2*X153490D1*X240800Y46310D2*X232120D1*X231900Y47300D2*X240040D1*X239730Y48280D2*X231270D1*X49800Y49270D2*X239730D1*X49530Y49220D2*Y53170D1*X53480*X53390Y52610*X53180Y51950*X52860Y51320*X52450Y50760*X51950Y50260*X51380Y49850*X50760Y49530*X50090Y49310*X49530Y49220*X48570Y49270D2*X49530D1*X26020D2*X48300D1*X226830Y48280D2*X26020D1*X197730Y62070D2*X202350D1*X202860Y63060D2*X199040D1*X247180Y74880D2*X209610D1*X229340Y69950D2*X247160D1*X246330Y70940D2*X228610D1*X123620Y71920D2*X245980D1*Y72910D2*X125140D1*X208220Y73890D2*X246340D1*X125700D2*X206120D1*X204740Y74880D2*X125870D1*X125730Y75860D2*X204230D1*X204100Y76850D2*X125200D1*X212570Y92610D2*X219190D1*X219050Y91620D2*X213170D1*X213370Y90640D2*X219320D1*X220160Y89650D2*X213260D1*X246950D2*X222940D1*X230080Y88670D2*X246250D1*X245980Y87680D2*X230760D1*X230920Y86700D2*X246020D1*X246430Y85710D2*X230690D1*X229910Y84730D2*X247490D1*X223660D2*X226940D1*X226160Y85710D2*X224050D1*X224030Y86700D2*X225920D1*X226090Y87680D2*X223560D1*X227010Y88900D2*X227930Y89280D1*X228920*X229840Y88900*X230540Y88200*X230920Y87280*Y86280*X230540Y85360*X229840Y84660*X228920Y84280*X227930*X227010Y84660*X226310Y85360*X225920Y86280*Y87280*X226310Y88200*X227010Y88900*X212780Y88670D2*X226770D1*X219540Y87680D2*X211450D1*X189360Y84730D2*X219440D1*X219050Y85710D2*X190420D1*X190830Y86700D2*X219070D1*X209150Y87680D2*X190870D1*X190600Y88670D2*X207820D1*X189540Y90010D2*X190400Y89150D1*X190870Y88020*Y86800*X190400Y85670*X189540Y84800*X188410Y84330*X187190*X186060Y84800*X185200Y85670*X184730Y86800*Y88020*X185200Y89150*X186060Y90010*X187190Y90480*X188410*X189540Y90010*X207340Y89650D2*X189900D1*X164620Y90640D2*X207230D1*X207430Y91620D2*X164620D1*X164270Y92610D2*X208030D1*X163290Y93760D2*X164150Y92900D1*X164620Y91770*Y90550*X164150Y89420*X163290Y88550*X162160Y88080*X160940*X159810Y88550*X158950Y89420*X158480Y90550*Y91770*X158950Y92900*X159810Y93760*X160940Y94230*X162160*X163290Y93760*X209660Y93590D2*X163460D1*X210910Y93600D2*X212040Y93140D1*X212900Y92270*X213370Y91140*Y89920*X212900Y88790*X212040Y87930*X210910Y87460*X209690*X208560Y87930*X207700Y88790*X207230Y89920*Y91140*X207700Y92270*X208560Y93140*X209690Y93600*X210910*X219820Y93590D2*X210940D1*X222270Y105410D2*X220560D1*X225830D2*X226020D1*X226540Y101470D2*X225310D1*X232080D2*X229060D1*X246040Y97530D2*X234850D1*X236180Y98520D2*X246440D1*X269580Y101470D2*X236020D1*X236520Y100490D2*X269080D1*X247590Y99500D2*X236550D1*X269050D2*X250510D1*X268350Y98520D2*X269420D1*X262620Y94580D2*X265340D1*X264350Y95560D2*X261930D1*X251660Y98520D2*X264750D1*X264150Y97530D2*X252060D1*X252120Y96550D2*X264050D1*X258670Y95560D2*X251870D1*X223910Y92610D2*X258030D1*X257800Y93590D2*X223280D1*X251190Y94580D2*X257970D1*X26020D2*X246910D1*X246230Y95560D2*X26020D1*X245980Y96170D2*Y97390D1*X246450Y98520*X247310Y99390*X248440Y99850*X249660*X250790Y99390*X251650Y98520*X252120Y97390*Y96170*X251650Y95040*X250790Y94180*X249660Y93710*X248440*X247310Y94180*X246450Y95040*X245980Y96170*X26020Y96550D2*X245980D1*X233250Y97530D2*X26020D1*Y98520D2*X231920D1*X231550Y99500D2*X26020D1*X231550Y100400D2*X231930Y101320D1*X232630Y102030*X233550Y102410*X234550*X235470Y102030*X236170Y101320*X236550Y100400*Y99410*X236170Y98490*X235470Y97790*X234550Y97410*X233550*X232630Y97790*X231930Y98490*X231550Y99410*Y100400*X26020Y100490D2*X231580D1*X116890Y101470D2*X26020D1*X222790D2*X121210D1*X121880Y102460D2*X221840D1*X122120Y103050D2*Y104270D1*X121650Y105400*X120790Y106260*X119660Y106730*X118440*X117310Y106260*X116450Y105400*X115980Y104270*Y103050*X116450Y101920*X117310Y101050*X118440Y100580*X119660*X120790Y101050*X121650Y101920*X122120Y103050*X221550Y103440D2*X122120D1*X219270Y104430D2*X221660D1*X156760D2*X217580D1*X216290Y105410D2*X158270D1*X158830Y106400D2*X215920D1*X215970Y107380D2*X159000D1*X158850Y108370D2*X216470D1*X246270Y109350D2*X158320D1*X156880Y110340D2*X247010D1*X147510Y113290D2*X152230D1*X152280Y112310D2*X148150D1*X148370Y111320D2*X152680D1*X153780Y110340D2*X148280D1*X147840Y109350D2*X153530D1*X153000Y108370D2*X146590D1*X130870Y107380D2*X152850D1*X144010Y108370D2*X130730D1*X130950Y109350D2*X142760D1*X142310Y110340D2*X132570D1*X133180Y111320D2*X142230D1*X142450Y112310D2*X133370D1*X142700Y112900D2*X142230Y111770D1*Y110550*X142700Y109420*X143560Y108550*X144690Y108080*X145910*X147040Y108550*X147900Y109420*X148370Y110550*Y111770*X147900Y112900*X147040Y113760*X145910Y114230*X144690*X143560Y113760*X142700Y112900*X133260Y113290D2*X143090D1*X152490Y114280D2*X132770D1*X131430Y115260D2*X153190D1*X105870D2*X129170D1*X127830Y114280D2*X105860D1*X105460Y113290D2*X127340D1*X127230Y112310D2*X104540D1*X127230Y111800D2*Y113020D1*X127700Y114150*X128560Y115010*X129690Y115480*X130910*X132040Y115010*X132900Y114150*X133370Y113020*Y111800*X132900Y110670*X132040Y109800*X130910Y109330*X130220*X130400Y109150*X130870Y108020*Y106800*X130400Y105670*X129540Y104800*X128410Y104330*X127190*X126060Y104800*X125200Y105670*X124730Y106800*Y108020*X125200Y109150*X126060Y110010*X127190Y110480*X127880*X127700Y110670*X127230Y111800*X26020Y111320D2*X127420D1*X101060Y112310D2*X26020D1*Y113290D2*X100140D1*X99740Y114280D2*X26020D1*Y115260D2*X99730D1*X100030Y116250D2*X26020D1*Y117230D2*X100780D1*X160520Y118220D2*X26020D1*X104820Y117230D2*X159920D1*X105400Y116650D2*X105870Y115520D1*Y114300*X105400Y113170*X104540Y112300*X103410Y111830*X102190*X101060Y112300*X100200Y113170*X99730Y114300*Y115520*X100200Y116650*X101060Y117510*X102190Y117980*X103410*X104540Y117510*X105400Y116650*X159730Y116250D2*X105570D1*X159850Y115260D2*X157410D1*X158110Y114280D2*X160340D1*X161690Y113290D2*X158370D1*X270420D2*X163910D1*X165260Y114280D2*X269360D1*X165680Y117230D2*X168010D1*X167420Y118220D2*X165080D1*X163470Y119200D2*X167230D1*X26020D2*X162130D1*X167350Y120190D2*X26020D1*Y121170D2*X167850D1*X26020Y124130D2*X27870D1*X26020Y125110D2*X26450D1*X26460Y130040D2*X26020D1*Y131020D2*X27900D1*X41180Y137920D2*X26020D1*Y136930D2*X39900D1*X39340Y135950D2*X26020D1*Y134960D2*X39340D1*Y133980D2*X26020D1*Y132990D2*X39830D1*X40950Y132010D2*X26020D1*X53140Y133980D2*X46490D1*Y134960D2*X52470D1*X52230Y135950D2*X46490D1*X45930Y136930D2*X52300D1*X52720Y137920D2*X44660D1*X26020Y138900D2*X53900D1*X73480Y139890D2*X26020D1*Y140870D2*X72980D1*X72850Y141860D2*X26020D1*Y142840D2*X73040D1*X73630Y143830D2*X26020D1*X110880Y141860D2*X79000D1*X102500Y147770D2*X106850D1*X106200Y148750D2*X103150D1*X103370Y149740D2*X105980D1*X106060Y150720D2*X103290D1*X102840Y151710D2*X106510D1*X107750Y152690D2*X101600D1*X115870D2*X110350D1*X111590Y151710D2*X114630D1*X114190Y150720D2*X112040D1*X112120Y149740D2*X114100D1*X114330Y148750D2*X111900D1*X111250Y147770D2*X114970D1*X110790Y147300D2*X109660Y146830D1*X108440*X107310Y147300*X106450Y148170*X105980Y149300*Y150520*X106450Y151650*X107310Y152510*X108440Y152980*X109660*X110790Y152510*X111650Y151650*X112120Y150520*Y149300*X111650Y148170*X110790Y147300*X98370Y146780D2*X110960D1*X110100Y145800D2*X98370D1*X98070Y144810D2*X109730D1*Y143830D2*X97310D1*X78810Y142840D2*X110070D1*X93290Y143830D2*X78220D1*X76640Y144810D2*X92530D1*X26020D2*X75210D1*X92230Y145800D2*X26020D1*Y146780D2*X92230D1*X92640Y147770D2*X26020D1*X93560Y148760D2*X94690Y149230D1*X95910*X97040Y148760*X97900Y147900*X98370Y146770*Y145550*X97900Y144420*X97040Y143550*X95910Y143080*X94690*X93560Y143550*X92700Y144420*X92230Y145550*Y146770*X92700Y147900*X93560Y148760*X26020Y148750D2*X93550D1*X26020Y149740D2*X40590D1*X39710Y150720D2*X26020D1*Y151710D2*X39340D1*Y152690D2*X26020D1*Y154660D2*X40020D1*X39460Y153680D2*X26020D1*X61050Y156630D2*X33920D1*X34970Y157620D2*X61050D1*X63340Y160570D2*X35470D1*Y159590D2*X62090D1*X61450Y158600D2*X35470D1*X138700Y154660D2*X69020D1*X69430Y155650D2*X138070D1*X137850Y156630D2*X69550D1*Y157620D2*X137950D1*X138400Y158600D2*X69150D1*X68510Y159590D2*X139400D1*X138730Y160570D2*X67260D1*X138480Y161170D2*Y162390D1*X138950Y163520*X139810Y164390*X140940Y164850*X142160*X143290Y164390*X144150Y163520*X144620Y162390*Y161170*X144150Y160040*X143290Y159180*X142990Y159050*X143530Y158520*X144000Y157390*Y156170*X143530Y155040*X142660Y154180*X141540Y153710*X140310*X139180Y154180*X138320Y155040*X137850Y156170*Y157390*X138320Y158520*X139180Y159390*X139480Y159510*X138950Y160040*X138480Y161170*X35160Y161560D2*X138480D1*X110820Y162540D2*X34480D1*X110200Y163170D2*X109730Y164300D1*Y165520*X110200Y166650*X111060Y167510*X112190Y167980*X113410*X114540Y167510*X115400Y166650*X115870Y165520*Y164300*X115400Y163170*X114540Y162300*X113410Y161830*X112190*X111060Y162300*X110200Y163170*X26020Y163530D2*X110050D1*X26020Y162540D2*X26750D1*X26020Y161560D2*X26070D1*X26260Y157620D2*X26020D1*Y156630D2*X27310D1*X61170Y155650D2*X26020D1*X45810Y154660D2*X61570D1*X62390Y153680D2*X46380D1*X46490Y152690D2*X64060D1*X97230Y149740D2*X45250D1*X46130Y150720D2*X97310D1*X46490Y151330D2*Y153500D1*X46470Y153520*X45720Y154820*X44410Y155580*X44390Y155600*X41440*X41420Y155580*X40120Y154820*X39360Y153520*X39340Y153500*Y151330*X39360Y151310*X40120Y150010*X41420Y149260*X41440Y149240*X44390*X44410Y149260*X45720Y150010*X46470Y151310*X46490Y151330*X97760Y151710D2*X46490D1*X98560Y152510D2*X97700Y151650D1*X97230Y150520*Y149300*X97700Y148170*X98560Y147300*X99690Y146830*X100910*X102040Y147300*X102900Y148170*X103370Y149300*Y150520*X102900Y151650*X102040Y152510*X100910Y152980*X99690*X98560Y152510*X66540Y152690D2*X99000D1*X67710Y153180D2*X66150Y152530D1*X64450*X62890Y153180*X61690Y154370*X61050Y155940*Y157630*X61690Y159190*X62890Y160390*X64450Y161030*X66150*X67710Y160390*X68910Y159190*X69550Y157630*Y155940*X68910Y154370*X67710Y153180*X151620Y153680D2*X68210D1*X118480Y152690D2*X151600D1*X151900Y151710D2*X119720D1*X152930Y150430D2*X154060Y149960D1*X155290*X156410Y150430*X157280Y151290*X157750Y152420*Y153640*X157280Y154770*X156410Y155640*X155290Y156100*X154060*X152930Y155640*X152070Y154770*X151600Y153640*Y152420*X152070Y151290*X152930Y150430*X120160Y150720D2*X152640D1*X176680Y149740D2*X120250D1*X120020Y148750D2*X177110D1*X119780Y148170D2*X118910Y147300D1*X117790Y146830*X116560*X115430Y147300*X114570Y148170*X114100Y149300*Y150520*X114570Y151650*X115430Y152510*X116560Y152980*X117790*X118910Y152510*X119780Y151650*X120250Y150520*Y149300*X119780Y148170*X178320Y147770D2*X119380D1*X114640Y146780D2*X178740D1*X178480Y145800D2*X115500D1*X115870Y144810D2*X178520D1*X178930Y143830D2*X115870D1*X179810Y142930D2*X178950Y143790D1*X178480Y144920*Y146140*X178950Y147270*X179130Y147460*X179060*X177930Y147930*X177070Y148790*X176600Y149920*Y151140*X177070Y152270*X177930Y153140*X179060Y153600*X180010*X179730Y154300*Y155520*X180010Y156210*X179690*X178560Y156680*X177700Y157540*X177230Y158670*Y159620*X176540Y159330*X175310*X174180Y159800*X173320Y160670*X172850Y161800*Y163020*X173320Y164150*X174180Y165010*X175310Y165480*X176540*X177660Y165010*X178530Y164150*X179000Y163020*Y162070*X179690Y162350*X180910*X182040Y161890*X182900Y161020*X183370Y159890*Y158670*X183080Y157980*X183410*X184540Y157510*X185400Y156650*X185870Y155520*Y154300*X185400Y153170*X184540Y152300*X183410Y151830*X182460*X182750Y151140*Y149920*X182280Y148790*X182090Y148600*X182160*X183290Y148140*X184150Y147270*X184620Y146140*Y144920*X184150Y143790*X183290Y142930*X182160Y142460*X180940*X179810Y142930*X115530Y142840D2*X180020D1*X114540Y141680D2*X113410Y141210D1*X112190*X111060Y141680*X110200Y142540*X109730Y143670*Y144890*X110200Y146020*X111060Y146890*X112190Y147350*X113410*X114540Y146890*X115400Y146020*X115870Y144890*Y143670*X115400Y142540*X114540Y141680*X235550Y141860D2*X114720D1*X235550Y140740D2*Y144770D1*X235400Y144420*X234540Y143550*X233410Y143080*X232190*X231060Y143550*X230200Y144420*X229730Y145550*Y146770*X230200Y147900*X231060Y148760*X232190Y149230*X233410*X234540Y148760*X235400Y147900*X235550Y147540*Y193450*X236140Y194030*X259460*X260050Y193450*Y140740*X259460Y140160*X236960*X236140*X235550Y140740*X78870Y140870D2*X235550D1*X84060Y139890D2*X78370D1*X77000Y138900D2*X83220D1*X75310Y138710D2*X74180Y139180D1*X73320Y140040*X72850Y141170*Y142390*X73320Y143520*X74180Y144390*X75310Y144850*X76540*X77660Y144390*X78530Y143520*X79000Y142390*Y141170*X78530Y140040*X77660Y139180*X76540Y138710*X75310*X56700Y138900D2*X74850D1*X82850Y137920D2*X57880D1*X58300Y136930D2*X82850D1*X83200Y135950D2*X58370D1*X84180Y134800D2*X83320Y135670D1*X82850Y136800*Y138020*X83320Y139150*X84180Y140010*X85310Y140480*X86540*X87660Y140010*X88530Y139150*X89000Y138020*Y136800*X88530Y135670*X87660Y134800*X86540Y134330*X85310*X84180Y134800*X58130Y134960D2*X84030D1*X57460Y133980D2*X58370D1*X55910Y133080D2*X54690D1*X53560Y133550*X52700Y134420*X52230Y135550*Y136770*X52700Y137900*X53560Y138760*X54690Y139230*X55910*X57040Y138760*X57900Y137900*X58370Y136770*Y135550*X57900Y134420*X57040Y133550*X55910Y133080*X46010Y132990D2*X56490D1*X44410Y131740D2*X44390Y131720D1*X41440*X41420Y131740*X40120Y132490*X39360Y133790*X39340Y133810*Y135980*X39360Y136000*X40120Y137300*X41420Y138060*X41440Y138080*X44390*X44410Y138060*X45720Y137300*X46470Y136000*X46490Y135980*Y133810*X46470Y133790*X45720Y132490*X44410Y131740*X55510Y132010D2*X44880D1*X33330Y131020D2*X54990D1*X54580Y130040D2*X34770D1*X35340Y129050D2*X54490D1*Y128070D2*X35470D1*Y127080D2*X54730D1*X55130Y126100D2*X35350D1*X34780Y125110D2*X55860D1*X56850Y124130D2*X33360D1*X64530Y125650D2*X63010Y124130D1*X97770Y126100D2*X64720D1*X65130Y127080D2*X99030D1*X127230Y128070D2*X65360D1*Y129050D2*X127230D1*X127550Y130040D2*X65270D1*X64860Y131020D2*X128320D1*X64530Y131810D2*X65360Y129820D1*Y127650*X64530Y125650*X97320Y125110D2*X63990D1*X26020Y122160D2*X98080D1*X97450Y123140D2*X26020D1*X97230Y123670D2*X97700Y122540D1*X98560Y121680*X99690Y121210*X100910*X102040Y121680*X102900Y122540*X103370Y123670*Y124890*X102900Y126020*X102040Y126890*X100910Y127350*X99690*X98560Y126890*X97700Y126020*X97230Y124890*Y123670*Y124130D2*X63010D1*X61010Y123300*X58840*X56850Y124130*X55320Y125650*X54490Y127650*Y129820*X55320Y131810*X56850Y133340*X58840Y134170*X61010*X63010Y133340*X64530Y131810*X164730Y132010D2*X64340D1*X132280Y131020D2*X164790D1*X132900Y130400D2*X133370Y129270D1*Y128050*X133080Y127350*X133410*X134540Y126890*X135400Y126020*X135870Y124890*Y123670*X135400Y122540*X134540Y121680*X133410Y121210*X132190*X131060Y121680*X130200Y122540*X129730Y123670*Y124890*X130010Y125580*X129690*X128560Y126050*X127700Y126920*X127230Y128050*Y129270*X127700Y130400*X128560Y131260*X129690Y131730*X130910*X132040Y131260*X132900Y130400*X133050Y130040D2*X165200D1*X164730Y131170*Y132390*X165200Y133520*X166060Y134390*X167190Y134850*X168410*X169540Y134390*X170400Y133520*X170870Y132390*Y131170*X170400Y130040*X246450*X245980Y131170*Y132390*X246450Y133520*X247310Y134390*X248440Y134850*X249660*X250790Y134390*X251650Y133520*X252120Y132390*Y131170*X251650Y130040*X289310*X289940Y129050D2*X288840D1*X290430Y128550D2*X289570Y129420D1*X289100Y130550*Y131770*X289570Y132900*X290430Y133760*X291560Y134230*X292790*X293910Y133760*X294780Y132900*X295250Y131770*Y130550*X294780Y129420*X293910Y128550*X292790Y128080*X291560*X290430Y128550*X337040Y128070D2*X290230D1*X290740Y127080D2*X337040D1*Y126100D2*X290870D1*X290690Y125110D2*X337040D1*X290400Y124420D2*X289540Y123550D1*X288410Y123080*X287190*X286060Y123550*X285200Y124420*X284730Y125550*Y126770*X285200Y127900*X286060Y128760*X287190Y129230*X288410*X289540Y128760*X290400Y127900*X290870Y126770*Y125550*X290400Y124420*X291320Y124130D2*X290110D1*X337040D2*X293030D1*X294530Y123140D2*X337040D1*Y122160D2*X295090D1*X295250Y121170D2*X337040D1*Y120190D2*X295100D1*X294560Y119200D2*X337040D1*Y118220D2*X293100D1*X290680Y117230D2*X337040D1*Y116250D2*X290870D1*X290750Y115260D2*X337040D1*X289970Y113290D2*X288910D1*X337040Y114280D2*X290260D1*X294380Y113290D2*X337040D1*Y112310D2*X295020D1*X295250Y111320D2*X337040D1*Y110340D2*X295160D1*X294710Y109350D2*X337040D1*Y108370D2*X293470D1*X290820Y105410D2*X337040D1*Y106400D2*X290870D1*X290620Y107380D2*X337040D1*X289930Y108370D2*X290880D1*X282130Y107380D2*X284980D1*X284730Y106400D2*X282170D1*X281810Y105410D2*X284780D1*X289100Y101470D2*X278870D1*X278170Y100490D2*X289130D1*X274020D2*X274930D1*X274230Y101470D2*X273520D1*X230010Y102460D2*X274050D1*X274270Y103440D2*X230300D1*X230190Y104430D2*X275030D1*X229920Y105070D2*X230300Y104150D1*Y103160*X229920Y102240*X229220Y101540*X228300Y101160*X227300*X226380Y101540*X225920Y102000*X225470Y101540*X224550Y101160*X223550*X222630Y101540*X221930Y102240*X221550Y103160*Y104150*X221930Y105070*X222630Y105780*X223550Y106160*X224550*X225470Y105780*X225920Y105320*X226380Y105780*X227300Y106160*X228300*X229220Y105780*X229920Y105070*X247350Y105410D2*X229580D1*X220920Y106400D2*X246400D1*X245990Y107380D2*X220880D1*X220380Y108370D2*X245980D1*X219840Y108900D2*X220540Y108200D1*X220920Y107280*Y106280*X220540Y105360*X219840Y104660*X218920Y104280*X217930*X217010Y104660*X216310Y105360*X215920Y106280*Y107280*X216310Y108200*X217010Y108900*X217930Y109280*X218920*X219840Y108900*X236210Y116250D2*X227860D1*X228660Y117230D2*X235980D1*X227750Y121170D2*X230350D1*X230760Y120190D2*X228620D1*X229000Y119200D2*X231660D1*X236060Y118220D2*X229000D1*X236500Y119200D2*X235190D1*X236090Y120190D2*X237740D1*X259980Y121170D2*X236500D1*Y122160D2*X259670D1*X259770Y123140D2*X236190D1*X235420Y124130D2*X260360D1*X183660D2*X231430D1*X230660Y123140D2*X185160D1*X230350Y122390D2*X230820Y123520D1*X231680Y124390*X232810Y124850*X234040*X235160Y124390*X236030Y123520*X236500Y122390*Y121170*X236030Y120040*X235160Y119180*X234040Y118710*X232810*X231680Y119180*X230820Y120040*X230350Y121170*Y122390*X185710Y122160D2*X230350D1*X224100Y121170D2*X185870D1*X185720Y120190D2*X223230D1*X222850Y119200D2*X185190D1*X183730Y118220D2*X222850D1*X182190Y118080D2*X181060Y118550D1*X180200Y119420*X179730Y120550*Y121770*X180200Y122900*X181060Y123760*X182190Y124230*X183410*X184540Y123760*X185400Y122900*X185870Y121770*Y120550*X185400Y119420*X184540Y118550*X183410Y118080*X182190*X173180Y118220D2*X181870D1*X223190Y117230D2*X172590D1*X224180Y116050D2*X223320Y116920D1*X222850Y118050*Y119270*X223320Y120400*X224180Y121260*X225310Y121730*X226540*X227660Y121260*X228530Y120400*X229000Y119270*Y118050*X228530Y116920*X227660Y116050*X226540Y115580*X225310*X224180Y116050*X171000Y116250D2*X223990D1*X169690Y116210D2*X168560Y116680D1*X167700Y117540*X167230Y118670*Y119890*X167700Y121020*X168560Y121890*X169690Y122350*X170910*X172040Y121890*X172900Y121020*X173370Y119890*Y118670*X172900Y117540*X172040Y116680*X170910Y116210*X169690*X165870Y116250D2*X169600D1*X165870Y115550D2*Y116770D1*X165400Y117900*X164540Y118760*X163410Y119230*X162190*X161060Y118760*X160200Y117900*X159730Y116770*Y115550*X160200Y114420*X161060Y113550*X162190Y113080*X163410*X164540Y113550*X165400Y114420*X165870Y115550*X236850Y115260D2*X165750D1*X269050D2*X241250D1*X266640Y116250D2*X269140D1*X241890D2*X265210D1*X263810Y117230D2*X242120D1*X242040Y118220D2*X263420D1*X241650Y119150D2*X242120Y118020D1*Y116800*X241650Y115670*X240790Y114800*X239660Y114330*X238440*X237310Y114800*X236450Y115670*X235980Y116800*Y118020*X236450Y119150*X237310Y120010*X238440Y120480*X239660*X240790Y120010*X241650Y119150*X263440Y119200D2*X241600D1*X263920Y120190D2*X263350D1*X264290Y120990D2*X263590Y120290D1*X262670Y119910*X261680*X260760Y120290*X260060Y120990*X259670Y121910*Y122900*X260060Y123820*X260760Y124530*X261680Y124910*X262670*X263590Y124530*X264290Y123820*X264670Y122900*Y121910*X264290Y120990*X289100Y121170D2*X264370D1*X289100Y120550D2*Y121770D1*X289570Y122900*X290430Y123760*X291560Y124230*X292790*X293910Y123760*X294780Y122900*X295250Y121770*Y120550*X294780Y119420*X293910Y118550*X292790Y118080*X291560*X290430Y118550*X289570Y119420*X289100Y120550*X267930Y120190D2*X289250D1*X287130Y119200D2*X268400D1*X268420Y118220D2*X285520D1*X268040Y117240D2*X267340Y116540D1*X266420Y116160*X265430*X264510Y116540*X263810Y117240*X263420Y118160*Y119150*X263810Y120070*X264510Y120780*X265430Y121160*X266420*X267340Y120780*X268040Y120070*X268420Y119150*Y118160*X268040Y117240*X269710Y117230D2*X268040D1*X284920D2*X273390D1*X273960Y116250D2*X284730D1*X284850Y115260D2*X274050D1*X285200Y114420D2*X284730Y115550D1*Y116770*X285200Y117900*X286060Y118760*X287190Y119230*X288410*X289540Y118760*X290400Y117900*X290870Y116770*Y115550*X290400Y114420*X289540Y113550*X288410Y113080*X287190*X286060Y113550*X285200Y114420*X273740Y114280D2*X285340D1*X272970Y113410D2*X272050Y113030D1*X271050*X270130Y113410*X269430Y114110*X269050Y115030*Y116030*X269430Y116950*X270130Y117650*X271050Y118030*X272050*X272970Y117650*X273670Y116950*X274050Y116030*Y115030*X273670Y114110*X272970Y113410*X286690Y113290D2*X272680D1*X158320Y112310D2*X286040D1*X157900Y111290D2*X157040Y110430D1*X156850Y110350*X157660Y110010*X158530Y109150*X159000Y108020*Y106800*X158530Y105670*X157660Y104800*X156540Y104330*X155310*X154180Y104800*X153320Y105670*X152850Y106800*Y108020*X153320Y109150*X154180Y110010*X154380Y110090*X153560Y110430*X152700Y111290*X152230Y112420*Y113640*X152700Y114770*X153560Y115640*X154690Y116100*X155910*X157040Y115640*X157900Y114770*X158370Y113640*Y112420*X157900Y111290*X285420Y111320D2*X157920D1*X251090Y110340D2*X285300D1*X285580Y109350D2*X251830D1*X281630Y108370D2*X285670D1*X252120D2*X277720D1*X277220Y107380D2*X252110D1*X251700Y106400D2*X277170D1*X250790Y105430D2*X249660Y104960D1*X248440*X247310Y105430*X246450Y106290*X245980Y107420*Y108640*X246450Y109770*X247310Y110640*X248440Y111100*X249660*X250790Y110640*X251650Y109770*X252120Y108640*Y107420*X251650Y106290*X250790Y105430*X277540Y105410D2*X250750D1*X278830Y104430D2*X278070D1*X280170Y104280D2*X279180D1*X278260Y104660*X277560Y105360*X277170Y106280*Y107280*X277560Y108200*X278260Y108900*X279180Y109280*X280170*X281090Y108900*X281790Y108200*X282170Y107280*Y106280*X281790Y105360*X281090Y104660*X280170Y104280*X285190Y104430D2*X280520D1*X278830Y103440D2*X286330D1*X279050Y102900D2*Y101910D1*X278670Y100990*X277970Y100290*X277050Y99910*X276050*X275130Y100290*X274430Y100990*X274050Y101910*Y102900*X274430Y103820*X275130Y104530*X276050Y104910*X277050*X277970Y104530*X278670Y103820*X279050Y102900*X289390Y102460D2*X279050D1*X290120Y103440D2*X289270D1*X290400Y104420D2*X289540Y103550D1*X288410Y103080*X287190*X286060Y103550*X285200Y104420*X284730Y105550*Y106770*X285200Y107900*X286050Y108750*X285680Y109110*X285300Y110030*Y111030*X285680Y111950*X286380Y112650*X287300Y113030*X288300*X289220Y112650*X289390Y112470*X289570Y112900*X290430Y113760*X291560Y114230*X292790*X293910Y113760*X294780Y112900*X295250Y111770*Y110550*X294780Y109420*X293910Y108550*X292790Y108080*X291560*X290430Y108550*X289900Y109090*X289550Y108750*X290400Y107900*X290870Y106770*Y105550*X290400Y104420*X337040Y104430D2*X290410D1*X294230Y103440D2*X337040D1*Y102460D2*X294960D1*X295250Y101470D2*X337040D1*Y100490D2*X295220D1*X294810Y99500D2*X337040D1*Y98520D2*X293830D1*X294080Y93590D2*X337040D1*Y92610D2*X294900D1*X295250Y91620D2*X337040D1*Y90640D2*X295250D1*X294880Y89650D2*X337040D1*Y88670D2*X294030D1*X293930Y83740D2*X337040D1*Y82760D2*X294840D1*X295240Y81770D2*X337040D1*Y80790D2*X295250D1*X294940Y79800D2*X337040D1*Y78820D2*X294180D1*X290870Y77830D2*X337040D1*Y76850D2*X290870D1*X290480Y75860D2*X337040D1*Y74880D2*X289610D1*X290490Y69950D2*X337040D1*Y68970D2*X291980D1*X292690Y67980D2*X337040D1*Y67000D2*X293100D1*X293110Y66010D2*X337040D1*Y65030D2*X292980D1*X292570Y64040D2*X337040D1*Y63060D2*X291690D1*X309200Y52220D2*X337040D1*Y51240D2*X309950D1*X310250Y50250D2*X337040D1*Y49270D2*X310230D1*X309830Y48280D2*X337040D1*Y47300D2*X308900D1*X325910Y46310D2*X337040D1*Y45330D2*X328290D1*X329360Y44340D2*X337040D1*Y43360D2*X330340D1*X330910Y42370D2*X337040D1*Y41390D2*X331320D1*X331730Y40400D2*X337040D1*Y39420D2*X331810D1*Y38430D2*X336070D1*X335080Y37450D2*X331810D1*X331540Y36460D2*X334100D1*X333110Y35480D2*X331130D1*X330730Y34490D2*X332130D1*X329890Y33510D2*X331140D1*X328910Y32520D2*X330160D1*X329170Y31540D2*X327200D1*X272550Y30550D2*X328190D1*X320820Y31540D2*X272550D1*X287370Y38430D2*X316210D1*Y37450D2*X288090D1*X288370Y36460D2*X316480D1*X316890Y35480D2*X288340D1*X287930Y34490D2*X317290D1*X318130Y33510D2*X286930D1*X272550Y32520D2*X319120D1*X283670Y33510D2*X272550D1*Y34490D2*X282660D1*X282260Y35480D2*X272550D1*Y36460D2*X282230D1*X282510Y37450D2*X272550D1*X283560Y38760D2*X284690Y39230D1*X285910*X287040Y38760*X287900Y37900*X288370Y36770*Y35550*X287900Y34420*X287040Y33550*X285910Y33080*X284690*X283560Y33550*X282700Y34420*X282230Y35550*Y36770*X282700Y37900*X283560Y38760*X272550Y38430D2*X283230D1*X316210Y39420D2*X272550D1*Y40400D2*X316290D1*X316700Y41390D2*X272550D1*Y42370D2*X317110D1*X317680Y43360D2*X272550D1*Y44340D2*X318670D1*X319730Y45330D2*X272550D1*X322460Y46460D2*X325560D1*X328430Y45270*X330620Y43070*X331810Y40210*Y37100*X330620Y34240*X328430Y32040*X325560Y30860*X322460*X319590Y32040*X317400Y34240*X316210Y37100*Y40210*X317400Y43070*X319590Y45270*X322460Y46460*X272550Y46310D2*X322110D1*X305450Y47300D2*X272550D1*Y48280D2*X304520D1*X304120Y49270D2*X272550D1*Y50250D2*X304100D1*X304400Y51240D2*X272550D1*X305430Y52510D2*X306560Y52980D1*X307790*X308910Y52510*X309780Y51650*X310250Y50520*Y49300*X309780Y48170*X308910Y47300*X307790Y46830*X306560*X305430Y47300*X304570Y48170*X304100Y49300*Y50520*X304570Y51650*X305430Y52510*X163720Y52220D2*X305150D1*X337040Y53210D2*X164800D1*X165200Y54190D2*X337040D1*X188190Y55180D2*X165250D1*X169000Y60100D2*X188780D1*X187680Y59120D2*X168920D1*X168490Y58130D2*X187280D1*X187230Y57150D2*X167290D1*X164980Y56160D2*X187490D1*X164280Y57150D2*X164560D1*X105790Y58130D2*X163360D1*X160070Y57150D2*X106340D1*X106500Y56160D2*X159370D1*X149980Y55180D2*X106340D1*X159100D2*X154370D1*X155020Y54190D2*X159150D1*X159550Y53210D2*X155250D1*X160430Y52300D2*X159570Y53170D1*X159100Y54300*Y55520*X159570Y56650*X160430Y57510*X161560Y57980*X162790*X163910Y57510*X164780Y56650*X165250Y55520*Y54300*X164780Y53170*X163910Y52300*X162790Y51830*X161560*X160430Y52300*X155160Y52220D2*X160630D1*X154780Y51290D2*X153910Y50430D1*X152790Y49960*X151560*X150430Y50430*X149570Y51290*X149100Y52420*Y53640*X149570Y54770*X150430Y55640*X151560Y56100*X152790*X153910Y55640*X154780Y54770*X155250Y53640*Y52420*X154780Y51290*X241040Y51240D2*X154720D1*X337040Y56160D2*X251090D1*X192410Y55180D2*X337040D1*X244800Y56160D2*X193110D1*X214390Y59120D2*X242720D1*X218480Y64040D2*X214880D1*X215600Y63060D2*X218480D1*X218880Y62070D2*X215870D1*X215840Y61090D2*X219780D1*X242510Y60100D2*X215430D1*X223320Y61090D2*X242510D1*X242630Y62070D2*X224220D1*X224620Y63060D2*X243040D1*X243600Y64040D2*X224620D1*X224310Y65030D2*X244580D1*X223540Y66010D2*X224910D1*X198800Y67000D2*X223910D1*X219560Y66010D2*X199420D1*X218950Y65400D2*X219810Y66260D1*X220940Y66730*X222160*X223290Y66260*X224150Y65400*X224620Y64270*Y63050*X224150Y61920*X223290Y61050*X222160Y60580*X220940*X219810Y61050*X218950Y61920*X218480Y63050*Y64270*X218950Y65400*X199620Y65030D2*X218790D1*X204240Y64040D2*X199520D1*X210720D2*X206360D1*X207740Y63060D2*X210000D1*X209730Y62070D2*X208250D1*X208370Y61090D2*X209760D1*X210170Y60100D2*X208190D1*X211060Y59180D2*X210200Y60040D1*X209730Y61170*Y62390*X210200Y63520*X211060Y64390*X212190Y64850*X213410*X214540Y64390*X215400Y63520*X215870Y62390*Y61170*X215400Y60040*X214540Y59180*X213410Y58710*X212190*X211060Y59180*X207600Y59120D2*X211210D1*X243130Y58130D2*X206020D1*X193370Y57150D2*X243820D1*X204580Y58130D2*X193320D1*X192920Y59120D2*X203000D1*X192040Y60010D2*X192900Y59150D1*X193370Y58020*Y56800*X192900Y55670*X192040Y54800*X190910Y54330*X189690*X188560Y54800*X187700Y55670*X187230Y56800*Y58020*X187700Y59150*X188560Y60010*X189690Y60480*X190910*X192040Y60010*X202410Y60100D2*X191820D1*X202230Y60550D2*Y61770D1*X202700Y62900*X203560Y63760*X204690Y64230*X205910*X207040Y63760*X207900Y62900*X208370Y61770*Y60550*X207900Y59420*X207040Y58550*X205910Y58080*X204690*X203560Y58550*X202700Y59420*X202230Y60550*X168760Y61090D2*X202230D1*X195370Y62070D2*X168100D1*X49500Y65030D2*X193480D1*X193580Y64040D2*X50450D1*X50860Y63060D2*X194060D1*X163750Y62070D2*X50870D1*X50580Y61090D2*X163090D1*X162850Y60100D2*X49840D1*X162850Y59300D2*Y60520D1*X163320Y61650*X164180Y62510*X165310Y62980*X166540*X167660Y62510*X168530Y61650*X169000Y60520*Y59300*X168530Y58170*X167660Y57300*X166540Y56830*X165310*X164180Y57300*X163320Y58170*X162850Y59300*X104310Y59120D2*X162930D1*X102810Y59230D2*X104040D1*X105160Y58760*X106030Y57900*X106500Y56770*Y55550*X106030Y54420*X105160Y53550*X104040Y53080*X102810*X101680Y53550*X100820Y54420*X100350Y55550*Y56770*X100820Y57900*X101680Y58760*X102810Y59230*X35200Y59120D2*X102540D1*X34120Y60110D2*X34140Y60040D1*X34320Y59920*X34390*X34560Y59750*X34770Y59610*X34780Y59540*X34930Y59380*X35000Y59370*X35140Y59170*X35320Y59000*Y58920*X35440Y58750*X35510Y58720*X35610Y58500*X35750Y58300*X35740Y58230*X35830Y58030*X35890Y58000*X35960Y57760*X36060Y57540*X36030Y57470*X36090Y57260*X36150Y57210*X36170Y56970*X36230Y56730*X36190Y56670*X36210Y56460*X36260Y56400*X36240Y56160*X44860Y55180D2*X36150D1*X45240Y55990D2*X45650Y56560D1*X46150Y57050*X46720Y57460*X47340Y57780*X48010Y58000*X48570Y58090*Y54140*X44620*X44710Y54700*X44920Y55370*X45240Y55990*X45370Y56160D2*X36240D1*X36260Y55910*X36210Y55860*X36190Y55640*X36230Y55580*X36170Y55340*X36150Y55100*X36090Y55050*X36030Y54840*X36060Y54770*X35960Y54550*X35890Y54320*X35830Y54280*X35740Y54080*X35750Y54010*X35610Y53810*X35510Y53590*X35440Y53560*X35320Y53390*Y53310*X35140Y53140*X35000Y52940*X34930Y52930*X34780Y52780*X34770Y52700*X34560Y52560*X34390Y52390*X34320*X34140Y52270*X34120Y52200*X33890Y52090*X33690Y51950*X33620Y51970*X33430Y51880*X33390Y51810*X33150Y51750*X32930Y51650*X32860Y51670*X32660Y51620*X32610Y51560*X32360Y51540*X32130Y51470*X32060Y51510*X31850Y51490*X31790Y51440*X31550Y51470*X31310Y51440*X31250Y51490*X31040Y51510*X30970Y51470*X30740Y51540*X30490Y51560*X30440Y51620*X30240Y51670*X30170Y51650*X29950Y51750*X29710Y51810*X29670Y51880*X29480Y51970*X29410Y51950*X29200Y52090*X28980Y52200*X28960Y52270*X28780Y52390*X28710*X28540Y52560*X28330Y52700*X28320Y52780*X28170Y52930*X28100Y52940*X27960Y53140*X27780Y53310*Y53390*X27660Y53560*X27590Y53590*X27490Y53810*X27350Y54010*X27360Y54080*X27270Y54280*X27210Y54320*X27140Y54550*X27040Y54770*X27060Y54840*X27010Y55050*X26950Y55100*X26930Y55340*X26870Y55580*X26900Y55640*X26890Y55860*X26840Y55910*X26860Y56160*X26020D2*X26860D1*X26840Y56400*X26890Y56460*X26900Y56670*X26870Y56730*X26930Y56970*X26950Y57210*X27010Y57260*X27060Y57470*X27040Y57540*X27140Y57760*X27210Y58000*X27270Y58030*X27360Y58230*X27350Y58300*X27490Y58500*X27590Y58720*X27660Y58750*X27780Y58920*Y59000*X27960Y59170*X28100Y59370*X28170Y59380*X28320Y59540*X28330Y59610*X28540Y59750*X28710Y59920*X28780*X28960Y60040*X28980Y60110*X29200Y60220*X29410Y60360*X29480Y60350*X29670Y60440*X29710Y60500*X29950Y60560*X30170Y60670*X30240Y60640*X30440Y60700*X30490Y60750*X30740Y60770*X30970Y60840*X31040Y60800*X31250Y60820*X31310Y60870*X31550Y60850*X31790Y60870*X31850Y60820*X32060Y60800*X32130Y60840*X32360Y60770*X32610Y60750*X32660Y60700*X32860Y60640*X32930Y60670*X33150Y60560*X33390Y60500*X33430Y60440*X33620Y60350*X33690Y60360*X33890Y60220*X34120Y60110*X45760Y60100D2*X34120D1*X26020Y61090D2*X45020D1*X44730Y62070D2*X26020D1*Y63060D2*X44740D1*X45150Y64040D2*X26020D1*X46060Y65010D2*X47190Y65480D1*X48410*X49540Y65010*X50400Y64150*X50870Y63020*Y61800*X50400Y60670*X49540Y59800*X48410Y59330*X47190*X46060Y59800*X45200Y60670*X44730Y61800*Y63020*X45200Y64150*X46060Y65010*X26020Y65030D2*X46100D1*X193680Y66010D2*X26020D1*X193950Y66650D2*X194810Y67510D1*X195940Y67980*X197160*X198290Y67510*X199150Y66650*X199620Y65520*Y64300*X199150Y63170*X198290Y62300*X197160Y61830*X195940*X194810Y62300*X193950Y63170*X193480Y64300*Y65520*X193950Y66650*X26020Y67000D2*X194300D1*X223500Y67980D2*X26020D1*Y68970D2*X223480D1*X223760Y69950D2*X26020D1*Y70940D2*X224490D1*X84480Y71920D2*X26020D1*Y72910D2*X82960D1*X57030Y73890D2*X26020D1*X82400D2*X62820D1*X63910Y74880D2*X82230D1*X82370Y75860D2*X64690D1*X65090Y76850D2*X82900D1*X84340Y77830D2*X65360D1*X85910Y77980D2*X87040Y77510D1*X87900Y76650*X88370Y75520*Y74300*X87900Y73170*X87040Y72300*X85910Y71830*X84690*X83560Y72300*X82700Y73170*X82230Y74300*Y75520*X82700Y76650*X83560Y77510*X84690Y77980*X85910*X101840Y77830D2*X86260D1*X103410Y77980D2*X104540Y77510D1*X105400Y76650*X105870Y75520*Y74300*X105400Y73170*X104540Y72300*X103410Y71830*X102190*X101060Y72300*X100200Y73170*X99730Y74300*Y75520*X100200Y76650*X101060Y77510*X102190Y77980*X103410*X121840Y77830D2*X103760D1*X123410Y77980D2*X124540Y77510D1*X125400Y76650*X125870Y75520*Y74300*X125400Y73170*X124540Y72300*X123410Y71830*X122190*X121060Y72300*X120200Y73170*X119730Y74300*Y75520*X120200Y76650*X121060Y77510*X122190Y77980*X123410*X204280Y77830D2*X123760D1*X65360Y78820D2*X204870D1*X87310Y79800D2*X65300D1*X64900Y80790D2*X86400D1*X85990Y81770D2*X64420D1*X63440Y82760D2*X85980D1*X61010Y84010D2*X58840D1*X56850Y83190*X55320Y81660*X54490Y79660*Y77500*X55320Y75500*X56850Y73970*X58840Y73140*X61010*X63010Y73970*X64530Y75500*X65360Y77500*Y79660*X64530Y81660*X63010Y83190*X61010Y84010*X86280Y83740D2*X61670D1*X26020Y84730D2*X87030D1*X101060Y85710D2*X26020D1*X91070Y84730D2*X100980D1*X101210Y83740D2*X91820D1*X101450Y83170D2*X100980Y84300D1*Y85520*X101450Y86650*X102310Y87510*X103440Y87980*X104660*X105790Y87510*X106650Y86650*X107120Y85520*Y84300*X106650Y83170*X105790Y82300*X104660Y81830*X103440*X102310Y82300*X101450Y83170*X92120Y82760D2*X101860D1*X158750Y81770D2*X92110D1*X91700Y80790D2*X159450D1*X90790Y79800D2*X89660Y79330D1*X88440*X87310Y79800*X86450Y80670*X85980Y81800*Y83020*X86450Y84150*X87310Y85010*X88440Y85480*X89660*X90790Y85010*X91650Y84150*X92120Y83020*Y81800*X91650Y80670*X90790Y79800*X172940*X163650Y80790D2*X172020D1*X171610Y81770D2*X164350D1*X164620Y82760D2*X171600D1*X171900Y83740D2*X164580D1*X164170Y84730D2*X172650D1*X163290Y85640D2*X164150Y84770D1*X164620Y83640*Y82420*X164150Y81290*X163290Y80430*X162160Y79960*X160940*X159810Y80430*X158950Y81290*X158480Y82420*Y83640*X158950Y84770*X159810Y85640*X160940Y86100*X162160*X163290Y85640*X177050Y85710D2*X163110D1*X178120Y84730D2*X176700D1*X177930Y84800D2*X177070Y85670D1*X176600Y86800*Y88020*X177070Y89150*X177930Y90010*X179060Y90480*X180290*X181410Y90010*X182280Y89150*X182750Y88020*Y86800*X182280Y85670*X181410Y84800*X180290Y84330*X179060*X177930Y84800*X220850Y83740D2*X177450D1*X222050Y83660D2*X221050D1*X220130Y84040*X219430Y84740*X219050Y85660*Y86650*X219430Y87570*X220130Y88280*X221050Y88660*X222050*X222970Y88280*X223670Y87570*X224050Y86650*Y85660*X223670Y84740*X222970Y84040*X222050Y83660*X284620Y83740D2*X222250D1*X250610Y84730D2*X283820D1*X283480Y85710D2*X251670D1*X273130Y86700D2*X283480D1*X252080D2*X269970D1*X269250Y87680D2*X252120D1*X251850Y88670D2*X269050D1*X250790Y90010D2*X251650Y89150D1*X252120Y88020*Y86800*X251650Y85670*X250790Y84800*X249660Y84330*X248440*X247310Y84800*X246450Y85670*X245980Y86800*Y88020*X246450Y89150*X247310Y90010*X248440Y90480*X249660*X250790Y90010*X269260Y89650D2*X251150D1*X223780Y90640D2*X269780D1*X224050Y91280D2*Y92280D1*X223670Y93200*X222970Y93900*X222050Y94280*X221050*X220130Y93900*X219430Y93200*X219050Y92280*Y91280*X219430Y90360*X220130Y89660*X221050Y89280*X222050*X222970Y89660*X223670Y90360*X224050Y91280*X258800Y91620D2*X224050D1*X269170D2*X261800D1*X262570Y92610D2*X269050D1*X262800Y93160D2*Y94150D1*X262420Y95070*X261720Y95780*X260800Y96160*X259800*X258880Y95780*X258180Y95070*X257800Y94150*Y93160*X258180Y92240*X258880Y91540*X259800Y91160*X260800*X261720Y91540*X262420Y92240*X262800Y93160*X269330Y93590D2*X262800D1*X267760Y94580D2*X270260D1*X277860Y95560D2*X268750D1*X269050Y96550D2*X279250D1*X269050Y97280D2*Y96280D1*X268670Y95360*X267970Y94660*X267050Y94280*X266050*X265130Y94660*X264430Y95360*X264050Y96280*Y97280*X264430Y98200*X265130Y98900*X266050Y99280*X267050*X267970Y98900*X268670Y98200*X269050Y97280*X270750Y97530D2*X268940D1*X285040D2*X272350D1*X273680Y98520D2*X285820D1*X274050Y99410D2*Y100400D1*X273670Y101320*X272970Y102030*X272050Y102410*X271050*X270130Y102030*X269430Y101320*X269050Y100400*Y99410*X269430Y98490*X270130Y97790*X271050Y97410*X272050*X272970Y97790*X273670Y98490*X274050Y99410*X289540Y99500D2*X274050D1*X290430Y98550D2*X289570Y99420D1*X289100Y100550*Y101770*X289570Y102900*X290430Y103760*X291560Y104230*X292790*X293910Y103760*X294780Y102900*X295250Y101770*Y100550*X294780Y99420*X293910Y98550*X292790Y98080*X291560*X290430Y98550*X290520Y98520D2*X289780D1*X337040Y97530D2*X290550D1*X290870Y96550D2*X337040D1*Y95560D2*X290870D1*X290470Y94580D2*X337040D1*X289580Y93590D2*X290270D1*X289540Y93550D2*X290400Y94420D1*X290870Y95550*Y96770*X290400Y97900*X289540Y98760*X288410Y99230*X287190*X286060Y98760*X285200Y97900*X284730Y96770*Y95550*X285200Y94420*X286060Y93550*X287190Y93080*X288410*X289540Y93550*X283190Y92610D2*X289450D1*X289100Y91620D2*X282610D1*X281040Y90640D2*X289100D1*X279690Y90580D2*X278560Y91050D1*X277700Y91920*X277230Y93050*Y94270*X277700Y95400*X278560Y96260*X279690Y96730*X280910*X282040Y96260*X282900Y95400*X283370Y94270*Y93050*X282900Y91920*X282040Y91050*X280910Y90580*X279690*X273320Y90640D2*X279560D1*X273670Y90070D2*X274050Y89150D1*Y88160*X273670Y87240*X272970Y86540*X272050Y86160*X271050*X270130Y86540*X269430Y87240*X269050Y88160*Y89150*X269430Y90070*X269890Y90530*X269430Y90990*X269050Y91910*Y92900*X269430Y93820*X270130Y94530*X271050Y94910*X272050*X272970Y94530*X273670Y93820*X274050Y92900*Y91910*X273670Y90990*X273210Y90530*X273670Y90070*X289470Y89650D2*X273840D1*X290430Y88550D2*X291560Y88080D1*X292790*X293910Y88550*X294780Y89420*X295250Y90550*Y91770*X294780Y92900*X293910Y93760*X292790Y94230*X291560*X290430Y93760*X289570Y92900*X289100Y91770*Y90550*X289570Y89420*X290430Y88550*X288380Y88670D2*X290320D1*X337040Y87680D2*X289240D1*X289620Y86700D2*X337040D1*Y85710D2*X289620D1*X289280Y84730D2*X337040D1*X288290Y83550D2*X287160Y83080D1*X285940*X284810Y83550*X283950Y84420*X283480Y85550*Y86770*X283950Y87900*X284810Y88760*X285940Y89230*X287160*X288290Y88760*X289150Y87900*X289620Y86770*Y85550*X289150Y84420*X288290Y83550*X290420Y83740D2*X288480D1*X177750Y82760D2*X289510D1*X177740Y81770D2*X289100D1*Y80550D2*Y81770D1*X289570Y82900*X290430Y83760*X291560Y84230*X292790*X293910Y83760*X294780Y82900*X295250Y81770*Y80550*X294780Y79420*X293910Y78550*X292790Y78080*X291560*X290690Y78440*X290870Y78020*Y76800*X290400Y75670*X289540Y74800*X288410Y74330*X287190*X286060Y74800*X285200Y75670*X284730Y76800*Y78020*X285200Y79150*X286060Y80010*X287190Y80480*X288410*X289280Y80120*X289100Y80550*X275440Y80790D2*X289100D1*X177330D2*X272660D1*X176410Y79800D2*X175290Y79330D1*X174060*X172930Y79800*X172070Y80670*X171600Y81800*Y83020*X172070Y84150*X172930Y85010*X174060Y85480*X175290*X176410Y85010*X177280Y84150*X177750Y83020*Y81800*X177280Y80670*X176410Y79800*X206440*X271820D2*X207910D1*X209480Y78820D2*X271550D1*X271690Y77830D2*X210060D1*X272630Y76540D2*X271930Y77240D1*X271550Y78160*Y79150*X271930Y80070*X272630Y80780*X273550Y81160*X274550*X275470Y80780*X276170Y80070*X276550Y79150*Y78160*X276170Y77240*X275470Y76540*X274550Y76160*X273550*X272630Y76540*X263150Y76850D2*X272320D1*X210250D2*X259950D1*X210250Y76170D2*Y77390D1*X209780Y78520*X208910Y79390*X207790Y79850*X206560*X205430Y79390*X204570Y78520*X204100Y77390*Y76170*X204570Y75040*X205430Y74180*X206560Y73710*X207790*X208910Y74180*X209780Y75040*X210250Y76170*X259240Y75860D2*X210120D1*X250920Y74880D2*X259050D1*X259260Y73890D2*X251760D1*X260130Y72790D2*X259430Y73490D1*X259050Y74410*Y75400*X259430Y76320*X260130Y77030*X261050Y77410*X262050*X262970Y77030*X263670Y76320*X264050Y75400*Y74410*X263670Y73490*X262970Y72790*X262050Y72410*X261050*X260130Y72790*X252120Y72910D2*X260010D1*X268210Y71920D2*X252120D1*X229590Y67980D2*X272260D1*X271370Y68970D2*X229620D1*X250940Y69950D2*X270980D1*X251650Y70670D2*X250790Y69800D1*X249660Y69330*X248440*X247310Y69800*X246450Y70670*X245980Y71800*Y73020*X246450Y74150*X247310Y75010*X248440Y75480*X249660*X250790Y75010*X251650Y74150*X252120Y73020*Y71800*X251650Y70670*X270980Y70940D2*X251770D1*X271300Y71920D2*X269890D1*X271190Y72910D2*X272080D1*X271550Y73780D2*Y74780D1*X271170Y75700*X270470Y76400*X269550Y76780*X268550*X267630Y76400*X266930Y75700*X266550Y74780*Y73780*X266930Y72860*X267630Y72160*X268550Y71780*X269550*X270470Y72160*X271170Y72860*X271550Y73780*X337040Y73890D2*X271550D1*X276020Y72910D2*X337040D1*Y71920D2*X276800D1*X277120Y70940D2*X337040D1*X287610Y69950D2*X277120D1*X276730Y68970D2*X286120D1*X275790Y67930D2*X274660Y67460D1*X273440*X272310Y67930*X271450Y68790*X270980Y69920*Y71140*X271450Y72270*X272310Y73140*X273440Y73600*X274660*X275790Y73140*X276650Y72270*X277120Y71140*Y69920*X276650Y68790*X275790Y67930*X285410Y67980D2*X275840D1*X229190Y67000D2*X285000D1*X228290Y66050D2*X227160Y65580D1*X225940*X224810Y66050*X223950Y66920*X223480Y68050*Y69270*X223950Y70400*X224810Y71260*X225940Y71730*X227160*X228290Y71260*X229150Y70400*X229620Y69270*Y68050*X229150Y66920*X228290Y66050*X246550Y66010D2*X228190D1*X284990D2*X249340D1*X251310Y65030D2*X285120D1*X285530Y64040D2*X252300D1*X286750Y62710D2*X285610Y63860D1*X284990Y65350*Y66960*X285610Y68460*X286750Y69600*X288240Y70220*X289860*X291350Y69600*X292490Y68460*X293110Y66960*Y65350*X292490Y63860*X291350Y62710*X289860Y62100*X288240*X286750Y62710*X252860Y63060D2*X286410D1*X337040Y62070D2*X253270D1*X253380Y61090D2*X337040D1*Y60100D2*X253380D1*X253170Y59120D2*X337040D1*X252560Y57620D2*X251030Y56090D1*X249030Y55270*X246870*X244870Y56090*X243340Y57620*X242510Y59620*Y61780*X243340Y63780*X244870Y65310*X246870Y66140*X249030*X251030Y65310*X252560Y63780*X253380Y61780*Y59620*X252560Y57620*X337040Y58130D2*X252770D1*X252080Y57150D2*X337040D1*X244560Y51240D2*X260550D1*Y50250D2*X245460D1*X245870Y49270D2*X260550D1*Y48280D2*X245870D1*X245560Y47300D2*X260550D1*X244540Y46050D2*X243410Y45580D1*X242190*X241060Y46050*X240200Y46920*X239730Y48050*Y49270*X240200Y50400*X241060Y51260*X242190Y51730*X243410*X244540Y51260*X245400Y50400*X245870Y49270*Y48050*X245400Y46920*X244540Y46050*X260550Y46310D2*X244800D1*X232030Y45330D2*X260550D1*Y44340D2*X231580D1*X230320Y43360D2*X260550D1*X212790D2*X227780D1*X226520Y44340D2*X211950D1*X210220Y45330D2*X226070D1*X208190Y45460D2*X209910D1*X211490Y44800*X212700Y43590*X213350Y42010*Y40300*X212700Y38720*X211490Y37510*X209910Y36860*X208190*X206610Y37510*X205400Y38720*X204750Y40300*Y42010*X205400Y43590*X206610Y44800*X208190Y45460*X200220Y45330D2*X207880D1*X198190Y45460D2*X199910D1*X201490Y44800*X202700Y43590*X203350Y42010*Y40300*X202700Y38720*X201490Y37510*X199910Y36860*X198190*X196610Y37510*X195400Y38720*X194750Y40300*Y42010*X195400Y43590*X196610Y44800*X198190Y45460*X190220Y45330D2*X197880D1*X188190Y45460D2*X189910D1*X191490Y44800*X192700Y43590*X193350Y42010*Y40300*X192700Y38720*X191490Y37510*X189910Y36860*X188190*X186610Y37510*X185400Y38720*X184750Y40300*Y42010*X185400Y43590*X186610Y44800*X188190Y45460*X180220Y45330D2*X187880D1*X178190Y45460D2*X179910D1*X181490Y44800*X182700Y43590*X183350Y42010*Y40300*X182700Y38720*X181490Y37510*X179910Y36860*X178190*X176610Y37510*X175400Y38720*X174750Y40300*Y42010*X175400Y43590*X176610Y44800*X178190Y45460*X170220Y45330D2*X177880D1*X168190Y45460D2*X169910D1*X171490Y44800*X172700Y43590*X173350Y42010*Y40300*X172700Y38720*X171490Y37510*X169910Y36860*X168190*X166610Y37510*X165400Y38720*X164750Y40300*Y42010*X165400Y43590*X166610Y44800*X168190Y45460*X160220Y45330D2*X167880D1*X158190Y45460D2*X159910D1*X161490Y44800*X162700Y43590*X163350Y42010*Y40300*X162700Y38720*X161490Y37510*X159910Y36860*X158190*X156610Y37510*X155400Y38720*X154750Y40300*Y42010*X155400Y43590*X156610Y44800*X158190Y45460*X150220Y45330D2*X157880D1*X148190Y45460D2*X149910D1*X151490Y44800*X152700Y43590*X153350Y42010*Y40300*X152700Y38720*X151490Y37510*X149910Y36860*X148190*X146610Y37510*X145400Y38720*X144750Y40300*Y42010*X145400Y43590*X146610Y44800*X148190Y45460*X92370Y45330D2*X147880D1*X73270D2*X87900D1*X87210Y44340D2*X73960D1*X74220Y43360D2*X86950D1*Y42370D2*X74220D1*Y41390D2*X86950D1*X87280Y40400D2*X73890D1*X87730Y39630D2*X86970Y40930D1*X86950Y40950*Y43900*X86970Y43920*X87730Y45230*X89030Y45980*X89050Y46000*X91210*X91230Y45980*X92540Y45230*X93290Y43920*X93310Y43900*Y40950*X93290Y40930*X92540Y39630*X91230Y38870*X91210Y38850*X89050*X89030Y38870*X87730Y39630*X73080Y39420D2*X88090D1*X46850D2*X68990D1*X68180Y40400D2*X46770D1*X46360Y41390D2*X67860D1*Y42370D2*X45950D1*X45380Y43360D2*X67860D1*X68120Y44340D2*X44390D1*X68630Y45230D2*X67880Y43920D1*X67860Y43900*Y40950*X67880Y40930*X68630Y39630*X69940Y38870*X69960Y38850*X72120*X72140Y38870*X73440Y39630*X74200Y40930*X74220Y40950*Y43900*X74200Y43920*X73440Y45230*X72140Y45980*X72120Y46000*X69960*X69940Y45980*X68630Y45230*X43330Y45330D2*X68800D1*X225980Y46310D2*X40950D1*X225980Y46770D2*X226450Y47900D1*X227310Y48760*X228440Y49230*X229660*X230790Y48760*X231650Y47900*X232120Y46770*Y45550*X231650Y44420*X230790Y43550*X229660Y43080*X228440*X227310Y43550*X226450Y44420*X225980Y45550*Y46770*X26020Y47300D2*X226200D1*X37150Y46310D2*X26020D1*Y45330D2*X34770D1*X33710Y44340D2*X26020D1*Y43360D2*X32720D1*X32150Y42370D2*X26020D1*Y41390D2*X31740D1*X31330Y40400D2*X26020D1*Y39420D2*X31250D1*X26020Y39400D2*X39800Y25620D1*X260670*X260550Y25740*Y51570*X261140Y52160*X271960*X272550Y51570*Y25740*X272430Y25620*X323260*X337040Y39400*Y204760*X323260Y218540*X187550*Y170740*X186960Y170160*X51140*X50550Y170740*Y218540*X39800*X26020Y204760*Y161460*X26590Y162450*X28020Y163270*X33210*X34640Y162450*X35470Y161020*Y158480*X34640Y157050*X33210Y156220*X28020*X26590Y157050*X26020Y158040*Y129280*X26590Y130260*X28020Y131090*X33210*X34640Y130260*X35470Y128830*Y126300*X34640Y124870*X33210Y124040*X28020*X26590Y124870*X26020Y125850*Y39400*X31250Y38430D2*X26990D1*X27980Y37450D2*X31250D1*X31520Y36460D2*X28960D1*X29950Y35480D2*X31930D1*X32330Y34490D2*X30930D1*X33170Y33510D2*X31920D1*X34150Y32520D2*X32900D1*X34630Y32040D2*X32440Y34240D1*X31250Y37100*Y40210*X32440Y43070*X34630Y45270*X37500Y46460*X40600*X43470Y45270*X45660Y43070*X46850Y40210*Y37100*X45660Y34240*X43470Y32040*X40600Y30860*X37500*X34630Y32040*X33890Y31540D2*X35860D1*X63230Y30550D2*X34870D1*X35860Y29570D2*X63230D1*Y28580D2*X36840D1*X37830Y27600D2*X63480D1*X64040Y26610D2*X38810D1*X91700D2*X69470D1*X70040Y27600D2*X91130D1*X90890Y28580D2*X70280D1*Y29570D2*X90890D1*Y30550D2*X70280D1*Y31540D2*X90890D1*Y32520D2*X70280D1*X70110Y33510D2*X91060D1*X69450Y34640D2*X70280Y33210D1*Y28020*X69450Y26590*X68020Y25760*X65490*X64060Y26590*X63230Y28020*Y33210*X64060Y34640*X65490Y35470*X67990*X68020*X69450Y34640*X91630Y34490D2*X69540D1*X93150Y35470D2*X95680D1*X97110Y34640*X97940Y33210*Y28020*X97110Y26590*X95680Y25760*X93150*X91720Y26590*X90890Y28020*Y33170*Y33210*X91720Y34640*X93150Y35470*D222*X189050Y41160D3*X179050D3*X169050D3*X159050D3*X149050D3*Y31160D3*X159050D3*X169050D3*X179050D3*X189050D3*X199050D3*X209050D3*Y41160D3*X199050D3*Y211160D3*X209050D3*X289050D3*X299050D3*Y201160D3*X289050D3*D223*X65300Y156780D3*X49050Y53660D3*D225*X92540Y45230D3*X97110Y34640D3*D3*X91720Y26590D3*D3*X97110D3*D3*X64060Y34640D3*X92540Y39630D3*D3*X26590Y124870D3*D3*Y130260D3*D3*X40120Y137300D3*D3*Y132490D3*D3*X45720Y137300D3*Y154820D3*X34640Y157050D3*Y162450D3*X26590Y157050D3*D3*X45720Y154820D3*X40120D3*D3*Y150010D3*D3*X45720D3*D3*Y132490D3*D3*Y137300D3*X34640Y130260D3*D3*Y124870D3*D3*X87730Y39630D3*D3*Y45230D3*D3*X68630Y39630D3*D3*X73440D3*Y45230D3*D3*X68630D3*D3*X26590Y162450D3*D3*X33210Y163270D3*X34640Y157050D3*X64060Y26590D3*D3*X69450D3*Y34640D3*Y26590D3*Y34640D3*X91720D3*D3*D226*X40300Y163030D3*X299670Y31160D3*X285300Y36160D3*X307170Y49910D3*X280300Y93660D3*X266550Y133660D3*X249050Y131780D3*X204050Y140530D3*X154050Y128030D3*X167800Y131780D3*X174050Y133660D3*X161550Y147410D3*X175920Y162410D3*X154670Y164540D3*X162800D3*X159050Y158030D3*X154670Y153030D3*X140920Y156780D3*X141550Y161780D3*X127170Y164910D3*X119050D3*X112800D3*X83420Y166410D3*X94050Y157410D3*X95300Y146160D3*X100300Y149910D3*X109050D3*X112800Y144280D3*X117170Y149910D3*X127800Y144280D3*X123420Y128030D3*X130300Y128660D3*X132800Y124280D3*X47800Y62410D3*X51550Y68660D3*X69670Y53660D3*X103420Y56160D3*X96550Y47410D3*X103420Y41160D3*X118420Y31160D3*X152170Y53030D3*X162170Y54910D3*X165920Y59910D3*X162170Y66780D3*X175300Y70530D3*X190300Y57410D3*X216550Y36160D3*X229050Y46160D3*X242800Y48660D3*X234050Y57410D3*X226550Y68660D3*X221550Y63660D3*X212800Y61780D3*X205300Y61160D3*X196550Y64910D3*X203420Y68030D3*X207170Y76780D3*X210300Y90530D3*X191550Y94910D3*X187800Y87410D3*X179670D3*X174670Y82410D3*X161550Y83030D3*Y91160D3*X143420Y101780D3*X137170Y89910D3*X122800Y74910D3*X104050Y84910D3*X102800Y74910D3*X100300Y68030D3*X85300Y74910D3*X89050Y82410D3*X87800Y91160D3*X65300Y101160D3*X42800Y107410D3*X50300Y134280D3*X55300Y136160D3*X72800Y144910D3*X75920Y141780D3*X85920Y137410D3*X100300Y124280D3*X102800Y114910D3*X119050Y103660D3*X127800Y107410D3*X130300Y112410D3*X145300Y111160D3*X155920Y107410D3*X155300Y113030D3*X162800Y116160D3*X170300Y119280D3*X182800Y121160D3*X186550Y114910D3*X215300Y119280D3*X225920Y118660D3*X233420Y121780D3*X239050Y117410D3*X249050Y121960D3*Y117410D3*Y113030D3*Y108030D3*Y96780D3*Y87410D3*Y72410D3*X274050Y70530D3*X287800Y77410D3*X292170Y81160D3*X286550Y86160D3*X292170Y91160D3*X287800Y96160D3*X292170Y101160D3*X287800Y106160D3*X292170Y111160D3*X287800Y116160D3*X292170Y121160D3*X287800Y126160D3*X292170Y131160D3*X281550Y136160D3*X287800D3*X292170Y140530D3*X287800Y144280D3*X292170Y157410D3*X287800Y160530D3*X280300Y181160D3*X270920Y214280D3*X247170D3*X220920D3*X217800Y201160D3*X229050Y186160D3*X222800Y166160D3*X230920Y153660D3*X232800Y146160D3*X224670Y140530D3*X217170Y147410D3*X210920D3*X204050D3*X197170D3*X181550Y145530D3*X179670Y150530D3*X182800Y154910D3*X180300Y159280D3*X200300Y168660D3*X195300Y183660D3*X202800D3*Y192410D3*X195300D3*Y201160D3*D227*X261550Y74910D3*X269050Y74280D3*X274050Y78660D3*X271550Y88660D3*Y92410D3*X262170Y122410D3*X265920Y118660D3*X271550Y115530D3*X287800Y110530D3*X279670Y106780D3*X276550Y102410D3*X271550Y99910D3*X266550Y96780D3*X260300Y93660D3*X221550Y86160D3*X228420Y86780D3*X221550Y91780D3*X234050Y99910D3*X227800Y103660D3*X224050D3*X218420Y106780D3*X0Y0D2*M02*