G04 Output by ViewMate Deluxe V11.12.18  PentaLogix*
G04 Wed Mar 06 15:24:07 2019*
%IPPOS*%
%FSLAX25Y25*%
%MOIN*%
%ADD10C,0.0*%
%ADD61C,0.0125*%
%ADD62C,0.024*%
%ADD63C,0.0071*%
%ADD64C,0.0071*%
%ADD172R,0.0276X0.0071*%
%ADD173R,0.0512X0.0591*%
%ADD174R,0.0394X0.0394*%
%ADD175R,0.0591X0.024*%
%ADD176R,0.024X0.0591*%
%ADD177R,0.1299X0.0591*%
%ADD178R,0.0394X0.0591*%
%ADD179R,0.0433X0.0394*%
%ADD180R,0.0709X0.1083*%
%ADD181R,0.0787X0.0787*%
%ADD182R,0.0276X0.0354*%
%ADD183R,0.0354X0.0276*%
%ADD184R,0.0157X0.0531*%
%ADD185R,0.0512X0.0217*%
%ADD186R,0.0591X0.0512*%
%ADD187R,0.0394X0.0433*%
%ADD188R,0.0866X0.0512*%
%ADD189R,0.0591X0.0236*%
%ADD190R,0.0217X0.0512*%
%ADD191R,0.0138X0.0551*%
%ADD192R,0.063X0.0787*%
%ADD193R,0.063X0.0138*%
%ADD194R,0.0118X0.063*%
%ADD195R,0.0138X0.063*%
%ADD196R,0.06X0.06*%
G04:---LTIenv:A197:16,0.06,0.0 *
%ADD197P,0.064944X8X22.5*%
%ADD198R,0.0394X0.0167*%
%ADD199C,0.0591*%
%ADD200R,0.0827X0.0472*%
%ADD201R,0.0315X0.0315*%
%ADD202R,0.0354X0.0315*%
%ADD203C,0.011*%
%ADD204R,0.1437X0.1437*%
%ADD205C,0.0394*%
%ADD206R,0.0354X0.0157*%
%ADD207C,0.0039*%
%ADD208C,0.0089*%
%ADD209R,0.0039X0.0118*%
%ADD210R,0.0531X0.0157*%
%ADD211R,0.0748X0.0709*%
%ADD212C,0.0044*%
%ADD213R,0.0118X0.0039*%
%ADD214R,0.0709X0.0748*%
%ADD215C,0.01*%
%ADD216C,0.0354*%
%ADD217C,0.0071*%
%ADD218C,0.008*%
%ADD219C,0.016*%
%ADD220C,0.032*%
%ADD221C,0.0375*%

%LPD*%
X0Y0D2*D10*G1X286490Y176160D2*X286510Y175850D1*X286570Y175540*X286660Y175240*X286790Y174950*X286960Y174680*X287160Y174440*X287380Y174220*X287640Y174030*X287910Y173870*X288200Y173750*X288500Y173660*X288810Y173610*X289130Y173600*X289440Y173630*X289750Y173700*X290050Y173800*X290330Y173940*X290590Y174120*X290830Y174320*X291040Y174560*X291230Y174810*X291380Y175090*X291490Y175380*X291570Y175690*X291610Y176000*Y176320*X291570Y176630*X291490Y176940*X291380Y177230*X291230Y177510*X291040Y177760*X290830Y178000*X290590Y178200*X290330Y178380*X290050Y178520*X289750Y178620*X289440Y178690*X289130Y178720*X288810Y178710*X288500Y178660*X288200Y178570*X287910Y178450*X287640Y178290*X287380Y178100*X287160Y177880*X286960Y177640*X286790Y177370*X286660Y177080*X286570Y176780*X286510Y176470*X286490Y176160*X325110Y173660D2*X325130Y173270D1*X325190Y172880*X325290Y172500*X325420Y172130*X325590Y171780*X325790Y171440*X326030Y171130*X326300Y170840*X326590Y170580*X326910Y170350*X327250Y170150*X327610Y169990*X327980Y169870*X328370Y169780*X328760Y169730*X329150Y169720*X329540Y169750*X329930Y169820*X330300Y169930*X330670Y170070*X331020Y170250*X331350Y170460*X331660Y170710*X331940Y170980*X332190Y171280*X332410Y171610*X332600Y171950*X332750Y172310*X332870Y172690*X332950Y173070*X332990Y173460*Y173860*X332950Y174250*X332870Y174630*X332750Y175010*X332600Y175370*X332410Y175710*X332190Y176040*X331940Y176340*X331660Y176610*X331350Y176860*X331020Y177070*X330670Y177250*X330300Y177390*X329930Y177500*X329540Y177570*X329150Y177600*X328760Y177590*X328370Y177540*X327980Y177450*X327610Y177330*X327250Y177170*X326910Y176970*X326590Y176740*X326300Y176480*X326030Y176190*X325790Y175880*X325590Y175540*X325420Y175190*X325290Y174820*X325190Y174440*X325130Y174050*X325110Y173660*X286490Y66160D2*X286510Y65850D1*X286570Y65540*X286660Y65240*X286790Y64950*X286960Y64680*X287160Y64440*X287380Y64220*X287640Y64030*X287910Y63870*X288200Y63750*X288500Y63660*X288810Y63610*X289130Y63600*X289440Y63630*X289750Y63700*X290050Y63800*X290330Y63940*X290590Y64120*X290830Y64320*X291040Y64560*X291230Y64810*X291380Y65090*X291490Y65380*X291570Y65690*X291610Y66000*Y66320*X291570Y66630*X291490Y66940*X291380Y67230*X291230Y67510*X291040Y67760*X290830Y68000*X290590Y68200*X290330Y68380*X290050Y68520*X289750Y68620*X289440Y68690*X289130Y68720*X288810Y68710*X288500Y68660*X288200Y68570*X287910Y68450*X287640Y68290*X287380Y68100*X287160Y67880*X286960Y67640*X286790Y67370*X286660Y67080*X286570Y66780*X286510Y66470*X286490Y66160*X244010Y60700D2*X244030Y60310D1*X244090Y59920*X244190Y59540*X244320Y59170*X244490Y58820*X244690Y58480*X244930Y58170*X245200Y57880*X245490Y57620*X245810Y57390*X246150Y57190*X246510Y57030*X246880Y56910*X247270Y56820*X247660Y56770*X248050Y56760*X248440Y56790*X248830Y56860*X249200Y56970*X249570Y57110*X249920Y57290*X250250Y57500*X250560Y57750*X250840Y58020*X251090Y58320*X251310Y58650*X251500Y58990*X251650Y59350*X251770Y59730*X251850Y60110*X251890Y60500*Y60900*X251850Y61290*X251770Y61670*X251650Y62050*X251500Y62410*X251310Y62750*X251090Y63080*X250840Y63380*X250560Y63650*X250250Y63900*X249920Y64110*X249570Y64290*X249200Y64430*X248830Y64540*X248440Y64610*X248050Y64640*X247660Y64630*X247270Y64580*X246880Y64490*X246510Y64370*X246150Y64210*X245810Y64010*X245490Y63780*X245200Y63520*X244930Y63230*X244690Y62920*X244490Y62580*X244320Y62230*X244190Y61860*X244090Y61480*X244030Y61090*X244010Y60700*X39800Y220510D2*X38610Y220050D1*X37440Y219520*X36300Y218940*X35190Y218310*X34120Y217620*X33070Y216890*X32070Y216100*X31100Y215260*X30180Y214380*X29300Y213460*X28460Y212490*X27670Y211490*X26940Y210440*X26250Y209370*X25620Y208260*X25040Y207120*X24510Y205950*X24050Y204760*X55990Y128730D2*X56010Y128340D1*X56070Y127950*X56170Y127570*X56300Y127200*X56470Y126850*X56670Y126510*X56910Y126200*X57180Y125910*X57470Y125650*X57790Y125420*X58130Y125220*X58490Y125060*X58860Y124940*X59250Y124850*X59640Y124800*X60030Y124790*X60420Y124820*X60810Y124890*X61180Y125000*X61550Y125140*X61900Y125320*X62230Y125530*X62540Y125780*X62820Y126050*X63070Y126350*X63290Y126680*X63480Y127020*X63630Y127380*X63750Y127760*X63830Y128140*X63870Y128530*Y128930*X63830Y129320*X63750Y129700*X63630Y130080*X63480Y130440*X63290Y130780*X63070Y131110*X62820Y131410*X62540Y131680*X62230Y131930*X61900Y132140*X61550Y132320*X61180Y132460*X60810Y132570*X60420Y132640*X60030Y132670*X59640Y132660*X59250Y132610*X58860Y132520*X58490Y132400*X58130Y132240*X57790Y132040*X57470Y131810*X57180Y131550*X56910Y131260*X56670Y130950*X56470Y130610*X56300Y130260*X56170Y129890*X56070Y129510*X56010Y129120*X55990Y128730*Y78580D2*X56010Y78190D1*X56070Y77800*X56170Y77420*X56300Y77050*X56470Y76700*X56670Y76360*X56910Y76050*X57180Y75760*X57470Y75500*X57790Y75270*X58130Y75070*X58490Y74910*X58860Y74790*X59250Y74700*X59640Y74650*X60030Y74640*X60420Y74670*X60810Y74740*X61180Y74850*X61550Y74990*X61900Y75170*X62230Y75380*X62540Y75630*X62820Y75900*X63070Y76200*X63290Y76530*X63480Y76870*X63630Y77230*X63750Y77610*X63830Y77990*X63870Y78380*Y78780*X63830Y79170*X63750Y79550*X63630Y79930*X63480Y80290*X63290Y80630*X63070Y80960*X62820Y81260*X62540Y81530*X62230Y81780*X61900Y81990*X61550Y82170*X61180Y82310*X60810Y82420*X60420Y82490*X60030Y82520*X59640Y82510*X59250Y82460*X58860Y82370*X58490Y82250*X58130Y82090*X57790Y81890*X57470Y81660*X57180Y81400*X56910Y81110*X56670Y80800*X56470Y80460*X56300Y80110*X56170Y79740*X56070Y79360*X56010Y78970*X55990Y78580*X39800Y23660D2*X38610Y24120D1*X37440Y24650*X36300Y25230*X35190Y25860*X34120Y26550*X33070Y27280*X32070Y28070*X31100Y28910*X30180Y29790*X29300Y30710*X28460Y31680*X27670Y32680*X26940Y33730*X26250Y34800*X25620Y35910*X25040Y37050*X24510Y38220*X24050Y39410*X32750Y38660D2*X32770Y38160D1*X32830Y37660*X32930Y37170*X33070Y36690*X33240Y36220*X33450Y35770*X33700Y35330*X33980Y34920*X34300Y34530*X34640Y34160*X35010Y33820*X35410Y33520*X35830Y33250*X36270Y33010*X36730Y32800*X37200Y32640*X37680Y32510*X38180Y32420*X38670Y32370*X39180Y32360*X39680Y32390*X40170Y32460*X40660Y32570*X41140Y32720*X41600Y32900*X42050Y33120*X42480Y33380*X42890Y33670*X43280Y33990*X43640Y34340*X43960Y34720*X44260Y35120*X44530Y35550*X44760Y35990*X44950Y36450*X45110Y36930*X45230Y37420*X45310Y37910*X45350Y38410*Y38910*X45310Y39410*X45230Y39900*X45110Y40390*X44950Y40870*X44760Y41330*X44530Y41770*X44260Y42200*X43960Y42600*X43640Y42980*X43280Y43330*X42890Y43650*X42480Y43940*X42050Y44200*X41600Y44420*X41140Y44600*X40660Y44750*X40170Y44860*X39680Y44930*X39180Y44960*X38670Y44950*X38180Y44900*X37680Y44810*X37200Y44680*X36730Y44520*X36270Y44310*X35830Y44070*X35410Y43800*X35010Y43500*X34640Y43160*X34300Y42790*X33980Y42400*X33700Y41990*X33450Y41550*X33240Y41100*X33070Y40630*X32930Y40150*X32830Y39660*X32770Y39160*X32750Y38660*X24050Y204760D2*Y39400D1*X32750Y205510D2*X32770Y205010D1*X32830Y204510*X32930Y204020*X33070Y203540*X33240Y203070*X33450Y202620*X33700Y202180*X33980Y201770*X34300Y201380*X34640Y201010*X35010Y200670*X35410Y200370*X35830Y200100*X36270Y199860*X36730Y199650*X37200Y199490*X37680Y199360*X38180Y199270*X38670Y199220*X39180Y199210*X39680Y199240*X40170Y199310*X40660Y199420*X41140Y199570*X41600Y199750*X42050Y199970*X42480Y200230*X42890Y200520*X43280Y200840*X43640Y201190*X43960Y201570*X44260Y201970*X44530Y202400*X44760Y202840*X44950Y203300*X45110Y203780*X45230Y204270*X45310Y204760*X45350Y205260*Y205760*X45310Y206260*X45230Y206750*X45110Y207240*X44950Y207720*X44760Y208180*X44530Y208620*X44260Y209050*X43960Y209450*X43640Y209830*X43280Y210180*X42890Y210500*X42480Y210790*X42050Y211050*X41600Y211270*X41140Y211450*X40660Y211600*X40170Y211710*X39680Y211780*X39180Y211810*X38670Y211800*X38180Y211750*X37680Y211660*X37200Y211530*X36730Y211370*X36270Y211160*X35830Y210920*X35410Y210650*X35010Y210350*X34640Y210010*X34300Y209640*X33980Y209250*X33700Y208840*X33450Y208400*X33240Y207950*X33070Y207480*X32930Y207000*X32830Y206510*X32770Y206010*X32750Y205510*X323260Y220510D2*X39800D1*X339010Y204760D2*X338550Y205950D1*X338020Y207120*X337440Y208260*X336810Y209370*X336120Y210440*X335390Y211490*X334600Y212490*X333760Y213460*X332880Y214380*X331960Y215260*X330990Y216100*X329990Y216890*X328940Y217620*X327870Y218310*X326760Y218940*X325620Y219520*X324450Y220050*X323260Y220510*X317710Y205510D2*X317730Y205010D1*X317790Y204510*X317890Y204020*X318030Y203540*X318200Y203070*X318410Y202620*X318660Y202180*X318940Y201770*X319260Y201380*X319600Y201010*X319970Y200670*X320370Y200370*X320790Y200100*X321230Y199860*X321690Y199650*X322160Y199490*X322640Y199360*X323140Y199270*X323630Y199220*X324140Y199210*X324640Y199240*X325130Y199310*X325620Y199420*X326100Y199570*X326560Y199750*X327010Y199970*X327440Y200230*X327850Y200520*X328240Y200840*X328600Y201190*X328920Y201570*X329220Y201970*X329490Y202400*X329720Y202840*X329910Y203300*X330070Y203780*X330190Y204270*X330270Y204760*X330310Y205260*Y205760*X330270Y206260*X330190Y206750*X330070Y207240*X329910Y207720*X329720Y208180*X329490Y208620*X329220Y209050*X328920Y209450*X328600Y209830*X328240Y210180*X327850Y210500*X327440Y210790*X327010Y211050*X326560Y211270*X326100Y211450*X325620Y211600*X325130Y211710*X324640Y211780*X324140Y211810*X323630Y211800*X323140Y211750*X322640Y211660*X322160Y211530*X321690Y211370*X321230Y211160*X320790Y210920*X320370Y210650*X319970Y210350*X319600Y210010*X319260Y209640*X318940Y209250*X318660Y208840*X318410Y208400*X318200Y207950*X318030Y207480*X317890Y207000*X317790Y206510*X317730Y206010*X317710Y205510*X339010Y39400D2*Y204760D1*Y39410D2*X338550Y38220D1*X338020Y37050*X337440Y35910*X336810Y34800*X336120Y33730*X335390Y32680*X334600Y31680*X333760Y30710*X332880Y29790*X331960Y28910*X330990Y28070*X329990Y27280*X328940Y26550*X327870Y25860*X326760Y25230*X325620Y24650*X324450Y24120*X323260Y23660*X317710Y38660D2*X317730Y38160D1*X317790Y37660*X317890Y37170*X318030Y36690*X318200Y36220*X318410Y35770*X318660Y35330*X318940Y34920*X319260Y34530*X319600Y34160*X319970Y33820*X320370Y33520*X320790Y33250*X321230Y33010*X321690Y32800*X322160Y32640*X322640Y32510*X323140Y32420*X323630Y32370*X324140Y32360*X324640Y32390*X325130Y32460*X325620Y32570*X326100Y32720*X326560Y32900*X327010Y33120*X327440Y33380*X327850Y33670*X328240Y33990*X328600Y34340*X328920Y34720*X329220Y35120*X329490Y35550*X329720Y35990*X329910Y36450*X330070Y36930*X330190Y37420*X330270Y37910*X330310Y38410*Y38910*X330270Y39410*X330190Y39900*X330070Y40390*X329910Y40870*X329720Y41330*X329490Y41770*X329220Y42200*X328920Y42600*X328600Y42980*X328240Y43330*X327850Y43650*X327440Y43940*X327010Y44200*X326560Y44420*X326100Y44600*X325620Y44750*X325130Y44860*X324640Y44930*X324140Y44960*X323630Y44950*X323140Y44900*X322640Y44810*X322160Y44680*X321690Y44520*X321230Y44310*X320790Y44070*X320370Y43800*X319970Y43500*X319600Y43160*X319260Y42790*X318940Y42400*X318660Y41990*X318410Y41550*X318200Y41100*X318030Y40630*X317890Y40150*X317790Y39660*X317730Y39160*X317710Y38660*X39800Y23660D2*X323260D1*D61*X191030Y169390D2*X194160D1*X192920Y168150D2*X189800D1*X188560Y166920D2*X191690D1*X187330Y165680D2*X189490D1*X188880Y164450D2*X186090D1*X184860Y163210D2*X188420D1*Y161980D2*X183620D1*X183420Y160740D2*X188420D1*Y159510D2*X183500D1*X183420Y158270D2*X188420D1*Y157040D2*X185190D1*X185890Y155800D2*X188420D1*Y154570D2*X186000D1*X185610Y153330D2*X188420D1*Y152100D2*X184370D1*X183420Y150860D2*X188420D1*X189050Y149630D2*X183420D1*Y148390D2*X189050D1*Y147160D2*X184340D1*X184750Y145920D2*X188810D1*X187580Y144690D2*X184660D1*X183990Y143450D2*X186340D1*X185110Y142220D2*X181360D1*X180120Y140980D2*X183870D1*X182640Y139750D2*X89830D1*X91070Y138510D2*X181400D1*X88600Y140980D2*X96100D1*X94860Y142220D2*X83070D1*X81840Y143450D2*X93480D1*X92390Y144690D2*X80600D1*X79370Y145920D2*X91160D1*X52850Y161980D2*X75100D1*X50920Y155800D2*X60820D1*X61290Y154570D2*X50920D1*Y153330D2*X62280D1*X84980Y152100D2*X50920D1*X68320Y153330D2*X83750D1*X82510Y154570D2*X69310D1*X69780Y155800D2*X81280D1*X76340Y160740D2*X67610D1*X68980Y159510D2*X77570D1*X78810Y158270D2*X69630D1*X65660Y157040D2*X80040D1*X64940Y158270D2*X65660D1*Y159510D2*X64940D1*Y160740D2*X65660D1*X51210D2*X62990D1*X61620Y159510D2*X50920D1*X61060Y158540D2*X61380Y159180D1*X61810Y159760*X62320Y160270*X62900Y160700*X63540Y161020*X64230Y161250*X64940Y161360*Y157140*X60720*X60830Y157850*X61060Y158540*X50920Y158270D2*X60970D1*X64940Y157040D2*X50920D1*X65660Y155800D2*X64940D1*Y154570D2*X65660D1*Y153330D2*X64940D1*X64230Y152320D2*X63540Y152540D1*X62900Y152870*X62320Y153290*X61810Y153800*X61380Y154380*X61060Y155020*X60830Y155710*X60720Y156420*X64940*Y157140*X65660*Y161360*X66370Y161250*X67060Y161020*X67700Y160700*X68280Y160270*X68790Y159760*X69210Y159180*X69540Y158540*X69760Y157850*X69880Y157140*X65660*Y156420*X69880*X69760Y155710*X69540Y155020*X69210Y154380*X68790Y153800*X68280Y153290*X67700Y152870*X67060Y152540*X66370Y152320*X65660Y152200*Y156420*X64940*Y152200*X64230Y152320*X63290Y150480D2*X74810D1*X82310Y142980*X83370Y141910*Y141210*X83420Y141160*X88420*X92170Y137410*X180300*X189050Y146160*Y149910*X188420Y150530*Y163660*X188880Y164110*Y164620*X188990Y165030*X189210Y165400*X189510Y165700*X189880Y165920*X190290Y166030*X190800*X195300Y170530*X192170*X183420Y161780*Y160090*X183500Y159920*Y158650*X183420Y158470*Y158100*X183440*X184610Y157620*X185510Y156720*X186000Y155540*Y154270*X185510Y153100*X184610Y152200*X183440Y151710*X183420*Y148180*X184260Y147340*X184750Y146170*Y144900*X184260Y143720*X183360Y142820*X182190Y142330*X181480*X179670Y140530*X96550*X93740Y143340*X93490Y143450*X92590Y144350*X92490Y144590*X74670Y162410*X53420*X50920Y160530*Y151780*X49050Y149910*Y148660*X61470*X63290Y150480*X49050Y149630D2*X62440D1*X52800D2*X48770D1*X52800Y151160D2*X50300D1*X47800Y148660*X52800*Y151160*Y150860D2*X50000D1*X86220*X75660Y149630D2*X87450D1*X88690Y148390D2*X76900D1*X78130Y147160D2*X89920D1*D63*X234050Y99910D2*X235750Y101610D1*X241380*X243340Y100030D2*X240430D1*X237800Y97410*X233420*X232800Y96780*Y93720*X232860Y93660*X234050Y88030D2*X241330Y95310D1*X243340*X287800Y77410D2*X285920Y75530D1*X272800*X264040Y84290*X255470*D64*X239050Y130530D2*X245300D1*X246050Y129910*Y127410*X245320Y126810*X243340*D203*X194030Y101480D2*Y103780D1*X196000D2*Y101480D1*X197970D2*Y103780D1*X199940D2*Y101480D1*X201910D2*Y103780D1*X203880D2*Y101480D1*X205850D2*Y103780D1*X207810D2*Y101480D1*X211850Y105520D2*X209550D1*Y107480D2*X211850D1*Y109450D2*X209550D1*Y111420D2*X211850D1*Y113390D2*X209550D1*Y115360D2*X211850D1*Y117330D2*X209550D1*Y119300D2*X211850D1*X207810Y123330D2*Y121030D1*X205850D2*Y123330D1*X203880D2*Y121030D1*X201910D2*Y123330D1*X199940D2*Y121030D1*X197970D2*Y123330D1*X196000D2*Y121030D1*X194030D2*Y123330D1*X192300Y119300D2*X190000D1*Y117330D2*X192300D1*Y115360D2*X190000D1*Y113390D2*X192300D1*Y111420D2*X190000D1*Y109450D2*X192300D1*Y107480D2*X190000D1*Y105520D2*X192300D1*D207*X89220Y44480D2*X91050D1*X91530Y44110D2*X88730D1*X88460Y43730D2*X91800D1*X91950Y43350D2*X88320D1*X88270Y42970D2*X92000D1*Y42590D2*X88260D1*Y42210D2*X92000D1*X91990Y41830D2*X88270D1*X88340Y41460D2*X91930D1*X91770Y41080D2*X88490D1*X88780Y40700D2*X91480D1*X90950Y40320D2*X89320D1*X90230Y40160D2*X90630Y40210D1*X91000Y40340*X91340Y40550*X91620Y40830*X91830Y41160*X91960Y41540*X92000Y41930*Y42920*X91960Y43310*X91830Y43690*X91620Y44020*X91340Y44300*X91000Y44510*X90630Y44650*X90230Y44690*X90030*X89640Y44650*X89270Y44510*X88930Y44300*X88650Y44020*X88440Y43690*X88310Y43310*X88260Y42920*Y41930*X88310Y41540*X88440Y41160*X88650Y40830*X88930Y40550*X89270Y40340*X89640Y40210*X90030Y40160*X90230*X97910Y33880D2*X91020D1*Y33500D2*X98380D1*X98650Y33120D2*X91020D1*Y32740D2*X98800D1*X98870Y32370D2*X91020D1*Y31990D2*X98890D1*Y31610D2*X91020D1*Y31230D2*X98890D1*Y30850D2*X91020D1*Y30470D2*X98890D1*Y30090D2*X91020D1*Y29720D2*X98890D1*Y29340D2*X91020D1*Y28960D2*X98880D1*X98830Y28580D2*X91020D1*Y28200D2*X98700D1*X98470Y27820D2*X91020D1*X98150Y27500D2*X98460Y27810D1*X98700Y28190*X98840Y28600*X98890Y29040*Y32190*X98840Y32630*X98700Y33040*X98460Y33420*X98150Y33730*X97780Y33960*X97360Y34110*X96920Y34160*X91020*Y27070*X96920*X97360Y27120*X97780Y27270*X98150Y27500*X91020Y27440D2*X98060D1*X63110D2*X70150D1*Y27820D2*X62700D1*X62470Y28200D2*X70150D1*Y28580D2*X62340D1*X62290Y28960D2*X70150D1*Y29340D2*X62280D1*Y29720D2*X70150D1*Y30090D2*X62280D1*Y30470D2*X70150D1*Y30850D2*X62280D1*Y31230D2*X70150D1*Y31610D2*X62280D1*Y31990D2*X70150D1*Y32370D2*X62300D1*X62370Y32740D2*X70150D1*Y33120D2*X62520D1*X62790Y33500D2*X70150D1*Y33880D2*X63260D1*X70150Y34160D2*Y27070D1*X64250*X63810Y27120*X63390Y27270*X63020Y27500*X62710Y27810*X62470Y28190*X62330Y28600*X62280Y29040*Y32190*X62330Y32630*X62470Y33040*X62710Y33420*X63020Y33730*X63390Y33960*X63810Y34110*X64250Y34160*X70150*X71850Y40320D2*X70220D1*X69690Y40700D2*X72390D1*X72680Y41080D2*X69400D1*X69240Y41460D2*X72830D1*X72900Y41830D2*X69180D1*X69170Y42210D2*X72910D1*Y42590D2*X69170D1*Y42970D2*X72900D1*X72850Y43350D2*X69230D1*X69370Y43730D2*X72710D1*X72440Y44110D2*X69640D1*X70120Y44480D2*X71950D1*X70170Y44510D2*X69830Y44300D1*X69550Y44020*X69340Y43690*X69210Y43310*X69170Y42920*Y41930*X69210Y41540*X69340Y41160*X69550Y40830*X69830Y40550*X70170Y40340*X70550Y40210*X70940Y40160*X71140*X71530Y40210*X71910Y40340*X72240Y40550*X72520Y40830*X72730Y41160*X72860Y41540*X72910Y41930*Y42920*X72860Y43310*X72730Y43690*X72520Y44020*X72240Y44300*X71910Y44510*X71530Y44650*X71140Y44690*X70940*X70550Y44650*X70170Y44510*X32720Y161880D2*X28510D1*X27780Y161500D2*X33450D1*X33790Y161130D2*X27440D1*X27230Y160750D2*X34000D1*X27070Y159990D2*Y154090D1*X34120Y160370D2*X27110D1*X27070Y154090D2*X34160D1*Y154310D2*X27070D1*Y154690D2*X34160D1*Y155070D2*X27070D1*Y155440D2*X34160D1*Y155820D2*X27070D1*Y156200D2*X34160D1*Y156580D2*X27070D1*Y156960D2*X34160D1*Y157340D2*X27070D1*Y157720D2*X34160D1*Y158100D2*X27070D1*Y158470D2*X34160D1*Y158850D2*X27070D1*Y159230D2*X34160D1*Y159610D2*X27070D1*X34160Y159990D2*X34110Y160430D1*X33960Y160850*X33730Y161220*X33420Y161530*X33040Y161770*X32630Y161910*X32190Y161960*X29040*X28600Y161910*X28190Y161770*X27810Y161530*X27500Y161220*X27270Y160850*X27120Y160430*X27070Y159990*X34160*Y154090*X41370Y153930D2*X44470D1*X44840Y153550D2*X41000D1*X40790Y153170D2*X45040D1*X45150Y152790D2*X40690D1*X40650Y152420D2*X45180D1*X45150Y152040D2*X40690D1*X40800Y151660D2*X45040D1*X44820Y151280D2*X41020D1*X41420Y150900D2*X44420D1*X42040Y150620D2*X41660Y150750D1*X41330Y150960*X41050Y151230*X40840Y151560*X40700Y151930*X40650Y152320*Y152510*X40700Y152910*X40830Y153280*X41040Y153620*X41320Y153900*X41660Y154110*X42030Y154240*X42430Y154290*X43410*X43800Y154240*X44180Y154110*X44510Y153900*X44800Y153620*X45010Y153280*X45140Y152910*X45180Y152510*Y152320*X45130Y151930*X45000Y151560*X44790Y151230*X44510Y150960*X44170Y150750*X43800Y150620*X43410Y150590*X42430*X42040Y150620*X33000Y125530D2*X28230D1*X27690Y125910D2*X33540D1*X33850Y126280D2*X27380D1*X27200Y126660D2*X34030D1*X34130Y127040D2*X27100D1*X27070Y127420D2*X34160D1*Y127800D2*X27070D1*Y128180D2*X34160D1*Y128560D2*X27070D1*Y128940D2*X34160D1*Y129310D2*X27070D1*Y129690D2*X34160D1*Y130070D2*X27070D1*Y130450D2*X34160D1*Y130830D2*X27070D1*Y131210D2*X34160D1*Y131590D2*X27070D1*Y131970D2*X34160D1*Y132340D2*X27070D1*Y132720D2*X34160D1*Y133100D2*X27070D1*X34160Y133220D2*Y127320D1*X34110Y126880*X33960Y126460*X33730Y126090*X33420Y125780*X33040Y125540*X32630Y125400*X32190Y125350*X29040*X28600Y125400*X28190Y125540*X27810Y125780*X27500Y126090*X27270Y126460*X27120Y126880*X27070Y127320*Y133220*X34160*X41580Y136510D2*X44260D1*X44740Y136130D2*X41100D1*X45000Y135750D2*X44790Y136080D1*X44510Y136360*X44170Y136560*X43800Y136690*X43410Y136730*X42430*X42040Y136690*X41660Y136560*X41330Y136360*X41050Y136080*X40840Y135750*X43890Y133100D2*X41940D1*X41250Y133480D2*X44580D1*X44900Y133860D2*X40940D1*X40760Y134240D2*X45080D1*X45160Y134620D2*X40670D1*X40650Y134990D2*X45180D1*X45130Y135370D2*X40700D1*X45130Y135380D2*X45000Y135750D1*X40840*X40700Y135380*X40650Y134990*Y134800*X40700Y134400*X40830Y134030*X41040Y133690*X41320Y133410*X41660Y133200*X42030Y133070*X42430Y133030*X43410*X43800Y133070*X44180Y133200*X44510Y133410*X44800Y133690*X45010Y134030*X45140Y134400*X45180Y134800*Y134990*X45130Y135380*D208*X27310Y157120D2*X33910D1*Y156240D2*X27310D1*Y155360D2*X33910D1*X27310Y154480D2*X33910D1*Y157140*X27310*Y154480*X33910Y132810D2*X27310D1*Y131930D2*X33910D1*Y131050D2*X27310D1*X33910Y132830D2*X27310D1*Y130170*X33910*Y132830*D212*X92300Y33970D2*X90980D1*Y33540D2*X92300D1*Y33110D2*X90980D1*Y32680D2*X92300D1*Y32250D2*X90980D1*Y31820D2*X92300D1*Y31390D2*X90980D1*Y30960D2*X92300D1*Y30530D2*X90980D1*Y30100D2*X92300D1*Y29670D2*X90980D1*Y29240D2*X92300D1*Y28810D2*X90980D1*Y28380D2*X92300D1*Y27950D2*X90980D1*Y27520D2*X92300D1*X90980Y34130D2*Y27090D1*X92300*Y34130*X90980*X68870Y33970D2*X70190D1*Y33540D2*X68870D1*Y33110D2*X70190D1*Y32680D2*X68870D1*Y32250D2*X70190D1*Y31820D2*X68870D1*Y31390D2*X70190D1*Y30960D2*X68870D1*Y30530D2*X70190D1*Y30100D2*X68870D1*Y29670D2*X70190D1*Y29240D2*X68870D1*Y28810D2*X70190D1*Y28380D2*X68870D1*Y27950D2*X70190D1*Y27520D2*X68870D1*X70190Y27090D2*Y34130D1*X68870*Y27090*X70190*D215*X266490Y30390D2*X268360Y30190D1*X278400*X286080Y32340D2*Y30190D1*X292730Y40280D2*Y39030D1*X274050Y70530D2*Y64910D1*X286080Y52880*Y47120*X286420Y46780*X288420*X289050Y46160*X301060*X302060Y45160*X307170Y49910D2*X307180Y49900D1*Y45160*X307010Y44990*Y39680*Y36620*X305920Y35530*X299050*X299670Y31160D2*X293910D1*X292730Y32340*X286080*X285300Y36160D2*X283520Y34370D1*Y30190*X280960D2*X280920Y30230D1*Y35530*X274670Y41780*Y45530*X273280Y46920*X266490*X32810Y179280D2*Y169280D1*X31550Y168020*Y159910*X33130Y158330*X40300Y163030D2*X40290Y163040D1*Y169280*Y179280*X192800Y209820D2*X194550D1*X195010Y208840D2*X192800D1*Y207850D2*X195990D1*X196980Y206870D2*X192800D1*X253300Y211790D2*X253380D1*Y210810D2*X253300D1*X257400D2*X258420D1*X257100Y211900D2*X257300Y211560D1*X257400Y211180*Y209940*X253380*Y212480*X256100*X256480Y212380*X256820Y212180*X257100Y211900*X258420Y211790D2*X257160D1*X260300D2*X260940D1*X260700Y210810D2*X260300D1*X280730Y198990D2*X284860D1*X277050D2*X276050D1*Y199970D2*X277050D1*Y210810D2*X276050D1*Y211790D2*X277050D1*Y212780D2*X276050D1*Y213760D2*X277050D1*X260300D2*X272860D1*X272130Y212780D2*X260300D1*X272100Y210810D2*X268820D1*X268580Y211790D2*X272100D1*X264720D2*X264800D1*X264720Y210810D2*X264800D1*Y209940D2*Y212480D1*X267510*X267900Y212380*X268240Y212180*X268520Y211900*X268720Y211560*X268820Y211180*Y209940*X264800*X264720Y199970D2*X264800D1*X264720Y200960D2*X264800D1*X264720Y201940D2*X264800D1*X264720Y202930D2*X264800D1*X264720Y203910D2*X264800D1*X264720Y204900D2*X264800D1*X261620D2*X261280Y204700D1*X261000Y204420*X260800Y204080*X260700Y202930D2*X257200D1*Y201940D2*X260700D1*X260750Y200960D2*X257200D1*X261620Y199940D2*X261280Y200130D1*X261000Y200410*X260800Y200750*X260700Y201140*Y202370*X264720*Y199830*X262000*X261620Y199940*X246000Y199970D2*X261560D1*X246000Y200960D2*X249480D1*X228550Y214750D2*X229550D1*Y213760D2*X228550D1*Y212780D2*X229550D1*Y211790D2*X228550D1*Y210810D2*X229550D1*X213350Y209820D2*X228550D1*X223700Y214750D2*X213300D1*X213350Y213760D2*X223610D1*Y212780D2*X213350D1*Y211790D2*X223610D1*Y210810D2*X213350D1*Y208840D2*X223610D1*Y207850D2*X213350D1*X212600Y206870D2*X223610D1*X201120D2*X205500D1*X204750Y207850D2*X202110D1*X203090Y208840D2*X204750D1*Y209820D2*X203550D1*X204750Y214690D2*Y207620D1*X205510Y206860*X212590*X213350Y207620*Y214690*X212590Y215460*X205510*X204750Y214690*X201820Y214750D2*X204800D1*X204750Y213760D2*X202810D1*X203550Y212780D2*X204750D1*Y211790D2*X203550D1*X199550Y210810D2*X204750D1*X199550Y211790D2*X198550D1*Y212780D2*X199550D1*Y213760D2*X198550D1*Y214750D2*X199550D1*X258420Y216720D2*X192800D1*X283420D2*X260300D1*Y215730D2*X283420D1*Y214750D2*X260300D1*X280240Y213760D2*X283420D1*Y212780D2*X280970D1*X281000Y211790D2*X283420D1*X281000Y210400D2*Y212650D1*X280900Y213030*X280700Y213380*X280420Y213660*X280080Y213850*X279700Y213960*X277050*Y210400*X281000*X283420Y210810D2*X281000D1*X283420Y209910D2*Y217410D1*X260300*Y209910*X264720*Y209940*X260700*Y211180*X260800Y211560*X261000Y211900*X261280Y212180*X261620Y212380*X262000Y212480*X264720*Y209940*X264800*Y209910*X276050*Y210400*X272100*Y212650*X272200Y213030*X272400Y213380*X272680Y213660*X273020Y213850*X273400Y213960*X276050*Y210400*X277050*Y209910*X283420*X294310Y208840D2*X295010D1*X294550Y209820D2*X293420D1*X298550Y212780D2*X299550D1*Y213760D2*X298550D1*Y214750D2*X299550D1*X310340Y216720D2*X294610D1*X303550Y211790D2*X311550D1*Y212780D2*X303550D1*X302810Y213760D2*X311550D1*Y214750D2*X301820D1*X293630Y215730D2*X311000D1*X296280Y214750D2*X293420D1*Y213760D2*X295290D1*X294550Y212780D2*X293420D1*Y211790D2*X294550D1*X298550Y210810D2*X293420D1*X299550Y211790D2*X298550D1*X299550Y211660D2*Y215660D1*X300910*X303550Y213020*Y211660*X299550*X311550Y210810D2*X299550D1*X303550Y209820D2*X311550D1*Y208840D2*X303090D1*X311550Y207850D2*X307800D1*Y206870D2*X311550D1*Y205880D2*X307800D1*Y204900D2*X311550D1*Y203910D2*X307800D1*Y202930D2*X311550D1*Y201940D2*X307800D1*Y200960D2*X311550D1*Y195050D2*X307800D1*Y196030D2*X311550D1*Y197020D2*X307800D1*Y198000D2*X311550D1*Y198990D2*X307800D1*Y199970D2*X311550D1*X305920D2*X303550D1*Y198990D2*X305920D1*Y198000D2*X303550D1*X303030Y197020D2*X305920D1*X298550D2*X299550D1*Y198000D2*X298550D1*Y198990D2*X299550D1*Y199970D2*X298550D1*X299550Y200660D2*Y196660D1*X302250*X302630Y196760*X302970Y196960*X303250Y197240*X303450Y197580*X303550Y197960*Y200660*X299550*X305920Y200960D2*X299550D1*X303550Y201940D2*X305920D1*Y202930D2*X303550D1*Y203910D2*X305920D1*Y204900D2*X303350D1*X280710Y205880D2*X305920D1*X284550Y202930D2*X281000D1*Y203910D2*X285440D1*X286430Y204900D2*X281000D1*X288550D2*X289550D1*Y203910D2*X288550D1*Y202930D2*X289550D1*Y201940D2*X288550D1*X298550Y200960D2*X289550D1*X299550Y201940D2*X298550D1*Y202930D2*X299550D1*Y203910D2*X298550D1*X299550Y205660D2*Y201660D1*Y200660*X298550*Y201660*X299550*X303550*Y204350*X303450Y204740*X303250Y205080*X302970Y205360*X302630Y205550*X302250Y205660*X299550*X298550Y204900D2*X299550D1*X291670D2*X294750D1*X294550Y203910D2*X292660D1*X293550Y202930D2*X294550D1*Y201940D2*X293550D1*X294550Y201660D2*Y204350D1*X294650Y204740*X294850Y205080*X295130Y205360*X295470Y205550*X295850Y205660*X298550*Y201660*X294550*Y199970D2*X293550D1*X293240Y198990D2*X294550D1*Y198000D2*X292260D1*X295130Y196960D2*X294850Y197240D1*X294650Y197580*X294550Y197960*Y200660*X298550*Y196660*X295850*X295470Y196760*X295130Y196960*X291270Y197020D2*X295070D1*X289550D2*X288550D1*Y198000D2*X289550D1*Y198990D2*X288550D1*Y199970D2*X289550D1*X288550Y200660D2*X289550D1*Y196660*X290910*X293550Y199290*Y200660*X289550*Y201660*X293550*Y203020*X290910Y205660*X289550*Y201660*X288550*Y200660*X281000Y200960D2*X288550D1*X284550Y199970D2*X281000D1*X284550Y200660D2*X288550D1*Y196660*X287190*X284550Y199290*Y200660*Y201660D2*Y203020D1*X287190Y205660*X288550*Y201660*X284550*X277050Y201940D2*X284550D1*X277050Y201920D2*X281000D1*Y199660*X280900Y199280*X280700Y198940*X280420Y198660*X280080Y198460*X279700Y198360*X277050*Y201920*X276050Y200960D2*X277050D1*X268820Y201940D2*X276050D1*X268820Y202460D2*X264800D1*Y202370*X264720*Y202460*X260700*Y203700*X260800Y204080*X257200Y203910D2*X260760D1*X270840Y206870D2*X257400D1*X268760Y203910D2*X272100D1*Y204900D2*X267900D1*X257400Y205880D2*X272390D1*X257400Y204900D2*X261620D1*X262000Y205000*X264720*Y202460*X264800*Y205000*X267510*X267900Y204900*X268240Y204700*X268520Y204420*X268720Y204080*X268820Y203700*Y202460*X272100Y202930D2*X268820D1*X268770Y200960D2*X272100D1*X267900Y199940D2*X267510Y199830D1*X264800*Y202370*X268820*Y201140*X268720Y200750*X268520Y200410*X268240Y200130*X267900Y199940*X272100Y199970D2*X267960D1*X245730Y198990D2*X272370D1*X229050Y180750D2*Y186160D1*X147140Y126890D2*X148280Y128030D1*X154050*X179050Y154910D2*X182800D1*X170070Y150500D2*X170100Y150530D1*X154670Y164540D2*X152800Y166410D1*X149110*X112800Y164910D2*X113140Y164560D1*Y156180*X117080D2*Y162940D1*X119050Y164910*X127170D2*X130300Y162410D1*X135210*Y162470*X135470Y166160D2*X135210Y166410D1*X143990*Y163600*X142170Y161780*X141550*X140920Y156780D2*X142090Y155620D1*X148030*X154670Y153030D2*X148030Y153060D1*X159050Y158030D2*Y158180D1*X148030*Y160740D2*X156760D1*X160560Y164540*X162800*X164670Y166410*X168370*X173480D2*X172800Y165730D1*Y162410*Y160740D2*Y162410D1*X175920*X197210Y177320D2*X198180D1*Y178300D2*X197210D1*Y179290D2*X198180D1*Y180270D2*X197210D1*X203110D2*X204080D1*Y179290D2*X203110D1*Y178300D2*X204080D1*Y177320D2*X203110D1*X215410Y176250D2*Y174060D1*X229050*Y167000*X281550Y136160D2*X279050Y133660D1*X266550*X237860Y130530D2*X239050D1*X229670Y133600D2*X229620Y133660D1*X225920*X224670Y134910*Y140530*X214550Y144810D2*X213550D1*Y143830D2*X214550D1*Y142840D2*X213550D1*Y141860D2*X214550D1*Y140870D2*X213550D1*Y139890D2*X214550D1*X199090Y138900D2*X209010D1*X209460Y144810D2*X198640D1*X199090Y143830D2*X209010D1*Y142840D2*X199090D1*Y141860D2*X209010D1*Y140870D2*X199090D1*Y139890D2*X209010D1*X194550D2*X193550D1*Y140870D2*X194550D1*Y141860D2*X193550D1*Y142840D2*X194550D1*Y143830D2*X193550D1*Y144810D2*X194550D1*X220300Y149740D2*X193420D1*Y148750D2*X220300D1*Y147770D2*X193420D1*Y146780D2*X220300D1*Y145800D2*X193420D1*X220300Y144810D2*X218640D1*X219090Y143830D2*X220300D1*Y142840D2*X219090D1*Y141860D2*X220300D1*Y140870D2*X219090D1*Y139890D2*X220300D1*Y138900D2*X219090D1*X214550Y137920D2*X220300D1*X213550Y138900D2*X214550D1*X213550Y138820D2*Y145230D1*X210310*X209930Y145130*X209590Y144940*X209310Y144660*X209110Y144310*X209010Y143930*Y138820*X213550*X194550Y137920D2*X213550D1*X193550Y138900D2*X194550D1*X193550Y138820D2*X194550D1*Y145230*X197790*X198170Y145130*X198510Y144940*X198790Y144660*X198990Y144310*X199090Y143930*Y138820*X194550*Y137820*X199090*Y137410*X209010*Y137820*X213550*Y138820*X214550*Y145230*X217790*X218170Y145130*X218510Y144940*X218790Y144660*X218990Y144310*X219090Y143930*Y138820*X214550*Y137820*X219090*Y137410*X220300*Y149910*X193420*Y145230*X193550*Y138820*X179620Y128660D2*Y138660D1*X180300*X156550Y142820D2*X170070D1*X161550Y147410D2*X163570Y145380D1*X170070*X176010Y147940D2*X170070D1*X181550Y145530D2*X178420D1*X176010Y147940*X170100Y150530D2*X179670D1*X170070Y153060D2*X176580D1*X179050Y154910*X180300Y159280D2*X179670D1*X176010Y155620*X170070*Y158180D2*Y158030D1*X172800*Y160740*X170070*X165510*X163420Y158660*Y154910*X156550Y148030*Y142820*X150300*X143010*X141550Y144280*X138480*X127800D2*X133370D1*X95300Y124340D2*X95360Y124280D1*X100300*X108630Y118720D2*X108130Y119220D1*X95300*X102800Y114910D2*X92800D1*X101970Y104330D2*X110880D1*X113740Y101460*Y96090*X111190D2*Y100270D1*X110300Y101160*X107790*X102160Y95530*X104050Y84910D2*X101550Y82410D1*X89050*X40490Y70790D2*X37440D1*X36550Y69910*Y63340*X36490Y63280*X41610D2*X43270Y62410D1*X47800*X69530Y30610D2*X58350D1*X56550Y32420*Y39900D2*Y46160D1*X49050Y53660*X59070Y58540D2*X60440Y59910D1*X64050*X65180Y61040*X69740*Y60800*X69670Y60740*Y53660*X109280Y46160D2*X109320Y46120D1*Y41160D2*X103420D1*X130580D2*X136550D1*X143280Y47890*Y59700*X152170Y53030D2*X154050Y51160D1*Y36780*X159050Y31160*X205050Y48280D2*X205300D1*Y49270D2*X205050D1*Y50250D2*X205300D1*Y52220D2*X205050D1*Y53210D2*X205300D1*Y54190D2*X205050D1*X234050Y57410D2*X224050D1*Y55530*X222170Y57410*X212800*X210360Y54970*Y51160*X229050Y46160D2*X222380Y41780D1*X234130Y40590D2*X234120Y40570D1*X234110Y40560*X234090Y40550*X223620*X222380Y41780*X209050Y31160D2*X221710D1*X223620Y33070*X225460Y34910*X227800*X229740Y36850*X234130*X243990*X254870Y33850D2*X255370Y33100D1*X245550*X244050D2*X245550D1*Y35280*X243990Y36850*X250300Y40590D2*X245550D1*X249050Y48660D2*Y46160D1*X250300Y44910*Y40590*X255370*X255380Y40730*X255360Y40870*X255310Y41000*X255230Y41120*X255120Y41220*X255000Y41290*X254860Y41340*X254870Y41330D2*Y47600D1*X260300Y53030*X277170*X278420Y51780*Y47150*X278400Y47120*Y43060*X281550Y39910*X291850*X292730Y39030*X295550*X299050Y35530*X301890Y39680D2*X299270D1*X297800Y41160*Y42410*X296550Y43660*X289050*X287800Y42410*X284670*X283520Y43560*Y47120*Y51690*X269050Y66160*Y74280*X277830Y95560D2*X280990D1*X281980Y94580D2*X277800D1*Y93590D2*X282960D1*X283950Y92610D2*X278750D1*X280720Y90640D2*X289100D1*X284930Y91620D2*X279740D1*X282690Y88670D2*X284720D1*X289470Y89650D2*X281710D1*X290320Y88670D2*X288380D1*X290480Y84730D2*X298870D1*X299850Y85710D2*X289620D1*Y86700D2*X300840D1*X301820Y87680D2*X289240D1*X294030Y88670D2*X302800D1*Y89650D2*X294880D1*X295300Y90640D2*X302800D1*Y91620D2*X295300D1*Y92610D2*X302800D1*Y93590D2*X295300D1*Y94580D2*X302800D1*Y95560D2*X295300D1*Y96550D2*X302800D1*Y97530D2*X295300D1*Y98520D2*X302800D1*Y99500D2*X295300D1*Y100490D2*X302800D1*Y101470D2*X295300D1*Y102460D2*X302800D1*Y103440D2*X295300D1*Y104430D2*X302800D1*Y105410D2*X295300D1*Y106400D2*X302800D1*Y107380D2*X295300D1*Y108370D2*X302800D1*Y109350D2*X295300D1*Y110340D2*X302800D1*Y111320D2*X295300D1*Y112310D2*X302800D1*Y113290D2*X295300D1*Y114280D2*X302800D1*Y115260D2*X295300D1*Y116250D2*X302800D1*Y117230D2*X295300D1*Y118220D2*X302800D1*Y119200D2*X295300D1*Y120190D2*X302800D1*Y121170D2*X295300D1*Y122160D2*X302800D1*Y123140D2*X295300D1*Y124130D2*X302800D1*Y125110D2*X295300D1*Y126100D2*X302800D1*Y127080D2*X295300D1*Y128070D2*X302800D1*Y129050D2*X295300D1*Y130040D2*X302800D1*Y131020D2*X295300D1*Y132010D2*X302800D1*Y132990D2*X295300D1*Y133980D2*X302800D1*Y134960D2*X295300D1*Y135950D2*X302800D1*Y136930D2*X295300D1*Y137920D2*X302800D1*Y138900D2*X295300D1*Y139890D2*X302800D1*Y140870D2*X295300D1*Y141860D2*X302800D1*Y142840D2*X295300D1*Y143830D2*X302800D1*Y144810D2*X295300D1*Y145800D2*X302800D1*Y146780D2*X295300D1*Y147770D2*X302800D1*Y148750D2*X295300D1*Y149740D2*X302800D1*Y150720D2*X295300D1*Y151710D2*X302800D1*Y152690D2*X295300D1*Y153680D2*X302800D1*Y154660D2*X295300D1*Y155650D2*X302800D1*Y156630D2*X295300D1*Y157620D2*X302800D1*Y158600D2*X295300D1*Y159590D2*X302800D1*Y160570D2*X295300D1*Y161560D2*X302800D1*Y162540D2*X295300D1*Y163530D2*X302800D1*Y164510D2*X295300D1*Y165500D2*X302800D1*Y166480D2*X295300D1*Y167470D2*X302800D1*Y168450D2*X295300D1*Y169440D2*X302800D1*Y170420D2*X295300D1*Y171410D2*X302800D1*Y172390D2*X295300D1*Y173380D2*X302800D1*Y174360D2*X295300D1*Y175350D2*X302800D1*Y176330D2*X295300D1*Y177320D2*X302800D1*Y178300D2*X295300D1*Y179290D2*X303430D1*X304420Y180270D2*X295300D1*Y181260D2*X305400D1*X306390Y182240D2*X295300D1*Y183230D2*X307370D1*X308360Y184210D2*X295300D1*Y185200D2*X309340D1*X310330Y186180D2*X295300D1*Y187170D2*X311310D1*X311550Y188150D2*X295300D1*X295780Y189140D2*X311550D1*Y190120D2*X296770D1*X311550Y191110D2*X306930D1*X307590Y192090D2*X311550D1*X307800Y192410D2*X306550Y190530D1*X297170*X295300Y188660*Y90530*X295200Y90430*X294780Y89420*X293910Y88550*X292790Y88080*X291560*X290430Y88550*X289570Y89420*X289100Y90550*Y91200*X288970Y91330*X285220*X284220Y92330*X280850Y95710*X277970*X277800Y95530*Y93560*X283500Y87860*X283930*X283950Y87900*X284810Y88760*X285940Y89230*X287160*X288290Y88760*X289150Y87900*X289620Y86770*Y85580*X290920Y84280*X298420*X302800Y88660*Y178660*X311550Y187410*Y214910*X310300Y216780*X294670*X293420Y215530*Y209280*X294670Y208660*X295190*X294550Y209290*Y210660*X298550*Y211660*X294550*Y213020*X297190Y215660*X298550*Y211660*X299550*Y210660*X303550*Y209290*X302910Y208660*X307170*X307800Y208030*Y192410*X311550Y193080D2*X307800D1*Y194060D2*X311550D1*X235300D2*X305920D1*Y195050D2*X235300D1*Y196030D2*X305920D1*X286830Y197020D2*X235300D1*Y198000D2*X285840D1*X237370Y198990D2*X234970D1*X242050D2*X241050D1*Y199970D2*X242050D1*X236540Y204900D2*X237100D1*Y203910D2*X235560D1*X237100Y202930D2*X220300D1*X214550*Y201940D2*X220300D1*X241050*X242050Y200960D2*X241050D1*X242050Y201920D2*Y198360D1*X244700*X245080Y198460*X245420Y198660*X245700Y198940*X245900Y199280*X246000Y199660*Y201920*X242050*X249480Y201940D2*X242050D1*X246000Y202930D2*X249480D1*Y203910D2*X246000D1*Y204900D2*X249280D1*Y205880D2*X246280D1*X247260Y206870D2*X249280D1*X242050Y211790D2*X241050D1*Y212780D2*X242050D1*Y213760D2*X241050D1*X258420D2*X245240D1*X245970Y212780D2*X258420D1*X246000Y211790D2*X249520D1*X249280Y210810D2*X246000D1*X242050Y209820D2*X247800D1*X242050Y210400D2*X246000D1*Y212650*X245900Y213030*X245700Y213380*X245420Y213660*X245080Y213850*X244700Y213960*X242050*Y210400*X241050Y210810D2*X242050D1*X229550Y209820D2*X241050D1*X234490Y209780D2*Y209280D1*X237100*Y209400*X241050*Y210400*X242050*Y209400*X246000*Y209280*X247800*Y209910*X253300*Y209940*X249280*Y211180*X249380Y211560*X249580Y211900*X249860Y212180*X250200Y212380*X250580Y212480*X253300*Y209940*X253380*Y209910*X258420*Y217410*X192800*Y206160*X223610*Y209780*X228550*Y210780*X223610*Y214410*X223710Y214800*X223910Y215140*X224190Y215420*X224530Y215610*X224920Y215720*X228550*Y210780*X229550*Y209780*X234490*X237100Y210810D2*X234490D1*Y211790D2*X237100D1*X237130Y212780D2*X234490D1*X238020Y213850D2*X238400Y213960D1*X241050*Y210400*X237100*Y212650*X237200Y213030*X237400Y213380*X237680Y213660*X238020Y213850*X234490Y213760D2*X237860D1*X234380Y214800D2*X234490Y214410D1*Y210780*X229550*Y215720*X233180*X233570Y215610*X233910Y215420*X234190Y215140*X234380Y214800*X258420Y214750D2*X234400D1*X192800Y215730D2*X258420D1*X196280Y214750D2*X192800D1*Y213760D2*X195290D1*X194550Y212780D2*X192800D1*Y211790D2*X194550D1*X198550Y210810D2*X192800D1*X199550Y209820D2*X198550D1*Y208840D2*X199550D1*Y207850D2*X198550D1*Y206870D2*X199550D1*X198550Y206660D2*Y210660D1*X199550*Y206660*X200910*X203550Y209290*Y210660*X199550*Y211660*X203550*Y213020*X200910Y215660*X199550*Y211660*X198550*X194550*Y213020*X197190Y215660*X198550*Y211660*Y210660*X194550*Y209290*X197190Y206660*X198550*X192800Y202930D2*X198550D1*Y201940D2*X192800D1*X207050Y198990D2*X206050D1*Y198000D2*X207050D1*Y197020D2*X206050D1*X207040Y192800D2*X207860Y193610D1*X208930Y194060*X220300*X214080Y197020D2*X220300D1*Y198000D2*X214550D1*Y198990D2*X220300D1*X214550Y199970D2*X220300D1*X237100*Y200960D2*X220300D1*X207050*Y200560D2*X214550D1*Y197910*X214440Y197530*X214250Y197180*X213970Y196900*X213620Y196710*X213240Y196600*X207050*Y200560*X206050Y199970D2*X207050D1*X192800Y200960D2*X206050D1*X198550Y199970D2*X192800D1*Y198990D2*X198550D1*Y198000D2*X192800D1*Y197020D2*X199020D1*X220300Y196030D2*X192800D1*Y195050D2*X220300D1*X206750Y192090D2*X192800D1*Y191110D2*X206600D1*Y190120D2*X192800D1*X206600Y189910D2*Y191730D1*X207040Y192800*X192800Y193080D2*X207320D1*X192800Y194060D2*X220300D1*Y203660*Y199910*X234050*X235300Y198660*Y193660*X305920*Y206780*X282800*X281550Y206160*X280440*X280700Y205900*X280900Y205550*X281000Y205170*Y202920*X277050*Y201920*X276050*Y198360*X273400*X273020Y198460*X272680Y198660*X272400Y198940*X272200Y199280*X272100Y199660*Y201920*X276050*Y202920*X272100*Y205170*X272200Y205550*X272400Y205900*X272660Y206160*X271550*X270300Y207410*X257400*Y206200*X253380*Y206110*X257400*Y204880*X257300Y204490*X257100Y204150*X257090Y204140*X257200Y204040*Y200790*X256440Y200030*X250240*X249480Y200790*Y204040*X249590Y204140*X249580Y204150*X249380Y204490*X249280Y204880*Y206110*X253300*Y206200*X249280*Y207410*X247800*X245910Y205520*X246000Y205170*Y202920*X242050*Y201920*X241050*Y198360*X238400*X238020Y198460*X237680Y198660*X237400Y198940*X237200Y199280*X237100Y199660*Y201920*X241050*Y202920*X237100*Y204910*X236550*X235300Y203660*X220300*X214550*Y201560*X207050*Y200560*X206050*Y196600*X199860*X199470Y196710*X199130Y196900*X198850Y197180*X198660Y197530*X198550Y197910*Y200560*X206050*Y201560*X198550*Y203660*X192800*Y189910*X206600*X192800Y185200D2*X205300D1*Y184210D2*X192800D1*Y183230D2*X205300D1*Y182240D2*X192800D1*Y181260D2*X205300D1*X194670Y180270D2*X192800D1*Y179290D2*X194220D1*Y178300D2*X192800D1*Y177320D2*X194220D1*X194520Y172390D2*X192800D1*Y173380D2*X194220D1*Y174360D2*X192800D1*Y175350D2*X194220D1*X197210Y176330D2*X192800D1*X197210Y175350D2*X198180D1*Y174360D2*X197210D1*Y173380D2*X198180D1*X197210Y171800D2*X195530D1*X195140Y171900*X194800Y172100*X194520Y172380*X194330Y172720*X194220Y173100*Y175770*X197210*Y171800*X198180Y172390D2*X197210D1*X203600Y171160D2*X197690D1*Y176250*X203110Y176330D2*X198180D1*X203110Y175350D2*X204080D1*Y174360D2*X203110D1*Y173380D2*X204080D1*Y172390D2*X203110D1*X192800Y171410D2*X205300D1*Y170420D2*X192800D1*X192210Y169440D2*X205300D1*Y168450D2*X190980D1*X189750Y167470D2*X205300D1*X194550Y165500D2*X193550D1*Y164510D2*X194550D1*Y163530D2*X193550D1*Y162540D2*X194550D1*Y161560D2*X193550D1*Y160570D2*X194550D1*Y159590D2*X193550D1*X199090Y157620D2*X205300D1*Y159590D2*X199090D1*Y160570D2*X205300D1*Y161560D2*X199090D1*Y162540D2*X205300D1*Y163530D2*X199090D1*Y164510D2*X205300D1*Y165500D2*X198620D1*X188520Y166480D2*X205300D1*X189480Y165500D2*X187290D1*X186550Y164510D2*X189010D1*Y163530D2*X186550D1*Y162540D2*X189010D1*Y161560D2*X186550D1*Y160570D2*X189010D1*Y159590D2*X186550D1*X189010Y159490D2*X193550D1*Y165900*X190310*X189930Y165800*X189590Y165600*X189310Y165330*X189110Y164980*X189010Y164600*Y159490*X186550Y157620D2*X189010D1*X193550Y158600D2*X186550D1*X194550Y158490D2*X199090D1*Y157410*X205300*Y171800*X204080*Y175770*X203110*Y171800*X201430*X201050Y171900*X200710Y172100*X200640Y172160*X200580Y172100*X200240Y171900*X199860Y171800*X198180*Y175770*X197210*Y176740*X194220*Y179400*X194330Y179790*X194520Y180130*X194800Y180410*X195140Y180600*X195530Y180710*X197210*Y176740*X198180*Y180710*X199860*X200240Y180600*X200580Y180410*X200640Y180340*X200710Y180410*X201050Y180600*X201430Y180710*X203110*Y176740*X201160*X198180*Y175770*X203110*Y176740*X204080*Y180710*X205300*Y186160*X192800*Y169910*X186550Y164910*Y157410*X189010*Y158490*X193550*Y159490*X194550*Y165900*X197790*X198170Y165800*X198510Y165600*X198790Y165330*X198990Y164980*X199090Y164600*Y159490*X194550*Y158490*X205300Y158600D2*X194550D1*X214050Y158990D2*X214070Y159200D1*X214110Y159400*X214190Y159590*X214300Y159770*X214440Y159920*X214590Y160060*X214770Y160170*X214960Y160250*X215160Y160290*X215370Y160310*X229050*X230920Y153660D2*X229670Y152410D1*Y138720*X232740*X235300Y136160*Y133090*X237860Y130530*X233420Y121780D2*Y118660D1*X231610Y116840*Y113660*X210300Y90530D2*X202860D1*X228420Y86780D2*X227740Y87470D1*Y93660*X224050Y103660D2*X223420Y104280D1*Y107410*X223990Y107970*X227170*X226490Y108660*X210700Y115360D2*X217000D1*X210700Y113390D2*X219410D1*X225300Y118660*X225920*X215300Y124910D2*Y124850D1*X215870Y124280D2*X215300Y124850D1*Y119280*X213350Y117330*X210700*X200920*Y112410*X200780Y112760*X200610Y113100*X200400Y113420*X200160Y113720*X199900Y113990*X199610Y114240*X199300Y114460*X198960Y114640*X198610Y114790*X198250Y114910*X197880Y114990*X197500Y115030*X197120Y115040*X196740Y115010*X196370Y114940*X196000Y114830*X170580Y107130D2*X170490Y107140D1*X170420Y107180*X170350Y107250*X170310Y107320*X170300Y107410*X169900Y107130D2*X170580D1*X177710*Y109100*X180300Y109130D2*Y113660D1*X179050Y114910*X167800*X166550Y116160*X162800*X143420Y101780D2*X141490Y99850D1*X137800*X142170Y95530D2*X147170Y100530D1*Y103660*X145300Y105530*Y111160*X126540Y118720D2*X126550D1*X121550Y118850D2*X121420Y118720D1*X123980Y106220D2*Y118720D1*X127800Y107410D2*X126550Y108660D1*Y118720*X129100D2*Y113610D1*X130300Y112410*X137800Y112350D2*Y104970D1*X137400Y106160D2*X137800Y104970D1*X136950Y104910*X134050*X132800Y103660*X126550*X123980Y106220*X119050Y103660D2*X121550Y101160D1*X125300*X126540Y99920*Y96090*X132800Y90530D2*X130300D1*X129050Y91780*Y96040*X129100Y96090*X131660D2*Y95530D1*X142170*X146870Y91550D2*Y93660D1*X154350Y91550D2*X156780D1*X157800Y90530*Y78030*X161550Y91160D2*X156550Y96160D1*X152170*X149050Y93030*X147500*X146870Y93660*Y97110*X149670Y99910*Y103980*X155920Y107410D2*X159050Y110530D1*X168420*X169900Y109060*Y107130*Y103980D2*X179370D1*X180300Y104910*Y109070*X180270Y109100*X180300Y109130*X182830Y109100D2*X182800Y109130D1*Y121160*X191150Y117330D2*X187720D1*X194030Y122180D2*X193810Y122410D1*X189050*X187800Y121160*Y117410*X187720Y117330*X186550Y114910*X185300Y113660*Y111160*X185390*Y109100*X194030Y100530D2*Y102630D1*X202800Y95590D2*X202860Y95530D1*Y98190*X202170Y98870*X195080*X194030Y99920*Y100530*X191550Y98050*Y94910*X185390Y89990D2*Y95710D1*X185300Y95800*Y99910*X184670Y100530*X183420*X182800Y99910*Y95740*X182830Y95710*X177710D2*Y97680D1*X170610*X169900*Y100830D2*X179370D1*X180300Y99910*Y95740*X180270Y95710*Y88000*X179670Y87410*X174050D2*Y83030D1*X174670Y82410*X180240*X180870Y81780*X185980D2*X185300D1*Y84280*X184050Y85530*Y88660*X185390Y89990*X187800Y87410D2*X189670Y85530D1*X197740*X202860D2*X204110Y86780D1*X214050*X221550*Y86160*X224050Y76790D2*X225300D1*Y79280*X219050*X217170Y81160*X212230*X207120D2*Y77470D1*X207170Y76780*X211550Y67970D2*X212800Y67810D1*Y61780*X202990Y62070D2*X207170D1*X181340Y50130D2*Y43450D1*X179050Y41160*X189050Y31160D2*X183900Y36300D1*Y50130*X190300Y57410D2*X191580Y56130D1*Y50130*X196700D2*Y43510D1*X199050Y41160*X203420Y40400D2*X204550D1*Y39420D2*X203420D1*X205410Y38430D2*X204270D1*X208550Y37450D2*X209550D1*Y38430D2*X208550D1*Y39420D2*X209550D1*Y40400D2*X208550D1*X214670Y42370D2*X213550D1*X213210Y43360D2*X214670D1*Y44340D2*X212230D1*X211240Y45330D2*X214670D1*X208550Y43360D2*X209550D1*Y44340D2*X208550D1*Y45330D2*X209550D1*X202380D2*X206860D1*X214670Y46310D2*X201550D1*Y47300D2*X214670D1*X201550Y48280D2*X202840D1*X202360Y49270D2*X201550D1*Y50250D2*X202360D1*X199260Y50130D2*Y51160D1*X205240*X201550Y51240D2*X205050D1*X201550Y52220D2*X202360D1*X202380Y53210D2*X201550D1*Y54190D2*X203050D1*X205570Y55180D2*X201550D1*Y56160D2*X206550D1*X207170Y57150D2*X201550D1*Y58130D2*X207170D1*Y59120D2*X201550D1*Y60100D2*X207170D1*Y61090D2*X202010D1*X205300Y61160D2*Y51220D1*X205240Y51160*Y44970*X203360Y44340D2*X205870D1*X204890Y43360D2*X203420D1*Y42370D2*X204550D1*X208550Y41390D2*X203420D1*X209550Y42370D2*X208550D1*X209550Y41660D2*Y45660D1*X210910*X213550Y43020*Y41660*X209550*X214670Y41390D2*X209550D1*X213550Y40400D2*X214670D1*Y39420D2*X213550D1*X212690Y38430D2*X214450D1*X211700Y37450D2*X213460D1*X210910Y36660D2*X209550D1*Y40660*X208550*Y36660*X207190*X204550Y39290*Y40660*X208550*Y41660*X204550*Y43020*X207190Y45660*X208550*Y41660*X209550*Y40660*X213550*Y39290*X210910Y36660*X212170Y36160D2*X214670Y38660D1*Y47410*X205300*Y50970*X205050*Y47880*X203670*X203280Y47990*X202940Y48180*X202660Y48460*X202460Y48810*X202360Y49190*Y50970*X205050*Y51350*X202360*Y53130*X202460Y53510*X202660Y53850*X202940Y54130*X203280Y54330*X203670Y54430*X205050*Y51350*X205300*Y54910*X207170Y56780*Y62410*X206550Y63030*X203950*X201550Y60630*Y46160*X203420Y44280*Y39280*X206550Y36160*X212170*X206240Y36460D2*X212480D1*X205260Y37450D2*X206400D1*X199050Y31160D2*X194140Y36070D1*Y50130*Y62490*X196550Y64910*X199260Y69910D2*Y72180D1*X199050*Y74910*X196700*Y72180*X186460D2*Y66070D1*X185300Y64910*X179050*X167800Y66100D2*Y61780D1*X165920Y59910*X169050Y52410D2*X160300Y43660D1*Y42410*X159050Y41160*X169050D2*Y44910D1*X174050Y49910*Y56160*X180300Y62410*X186550*X189020Y64880*Y72180*X191580D2*Y63690D1*X187800Y59910*X181550*X176550Y54910*Y48660*X174050Y46160*Y36160*X179050Y31160*X169050D2*X164050Y36160D1*Y43660*X171550Y51160*Y57410*X179050Y64910*X175300Y70530D2*X176950Y72180D1*X181340*X183900D2*Y67410D1*X177800*X169050Y58660*Y52410*X162170Y54910D2*Y59910D1*X159270Y63440*X154700*X143280Y67180D2*X141550D1*Y64910*X137640Y61000*X130580*Y65960D2*X135100D1*X142170Y73030*X147800*X150610Y75850*Y80130*X154350D2*Y67180D1*X154700*X161780*X162170Y66780*X167800Y71220D2*X164620D1*X157800Y78030*X161550Y83030D2*Y85530D1*X164110Y88090*X167170*Y91780*X163200Y95750*Y97680*Y100830*X162800Y103660D2*X163200Y104060D1*Y107130*Y103980*X149670*Y113660*X145870Y117470*X137800*X131660*Y118720D2*Y123140D1*X132800Y124280*X123420Y128030D2*X117250D1*X116890Y127050*X109410D2*X111190Y125270D1*Y118720*X113740D2*Y122730D1*X114050Y123030*X114540Y123540*X115000Y124070*X115430Y124630*X115840Y125210*X116220Y125800*X116570Y126410*X116890Y127040*X95300Y146160D2*X100240D1*X101490Y144910*X112800Y144280D2*X106610D1*Y144910*X109050Y149910D2*X109210D1*Y156180*X105270D2*X105250Y156160D1*X102800*X100300Y153660*Y149910*X94050Y157410D2*Y158030D1*X98490Y162470*X102890*X94110Y166410D2*X102890D1*X83420D2*X88990D1*X65300Y156780D2*X74050Y153660D1*X75920Y152410*Y141780D2*X75900Y141630D1*X75850Y141480*X75770Y141360*X75660Y141250*X75540Y141170*X75390Y141120*X75240Y141100*X67130*X58470D2*X58460Y141130D1*X58440Y141150*X58410Y141160*X41640Y141100D2*X50360D1*X55300Y136160*X42800Y107410D2*X40170Y110030D1*X32800*Y116530D2*X37430D1*X39050Y114910*X42950*X43420Y114430*X56190Y121160D2*X89050D1*Y118660*X92800Y114910*X87800Y104910D2*X84050Y101160D1*X80300*X79410Y96160D2*X79050Y96520D1*Y99910*X80300Y101160*X79410Y106160D2*X70300D1*X65300Y101160*X56190*X48420Y119280D2*Y91160D1*X43420Y121130D2*X46580D1*X48420Y119280*X56190Y111160D2*X113420D1*X116300Y114030*Y118720*X118860D2*Y113470D1*X114670Y109280*X89670*X87800Y107410*Y104910*X94490Y104330D2*X90970D1*X89050Y102410*Y92410*X87800Y91160*X94680Y95530D2*X94670Y95520D1*Y91780*X95920Y90530*X114670*X116300Y92160*Y96090*X118860D2*Y91590D1*X115300Y88030*X111560Y83660D2*X111550Y83670D1*Y87410*X112170Y88030*X115300*X119040Y83660D2*X119050Y83670D1*Y88030*X121420Y90400*Y96090*X123980D2*Y90600D1*X126550Y88030*Y85200*X128100Y83660*X135580D2*X137170Y85260D1*Y89910*X141550Y91780D2*Y79910D1*X140300Y78660*X84050*X79410Y86160D2*X80660Y82040D1*X84050Y78660*X85300Y74910D2*X82800Y72410D1*X54050*X48420Y78030*Y91160*X48400Y91190*X42800*Y97880D2*X42700Y97780D1*X32800*Y91280D2*X32610Y91100D1*Y74530*X40490Y78270D2*X44430D1*X47800Y74910*Y72410*X51550Y68660*X54050Y66160*X59050*X59070Y66020D2*X60460Y67410D1*X64050*X65160Y68520*X69740*Y68280*Y66090*X71290Y64540*X81160*X84940*X88870Y68480*X92570*X93020Y68030*X100300*X92570Y61000D2*X92380Y60800D1*X81160*Y58890*X75470Y53200*Y41150*X85700D2*Y47810D1*X86550Y48660*X95300*X96550Y47410*X100300Y53660D2*X80300D1*X78030Y51380*Y41150*X80590D2*Y49570D1*X82170Y51160*X99050*X104050Y46160*X109280*X109320Y51080D2*X109240Y51160D1*X102800*X100300Y53660*X103420Y56160D2*X109200D1*X109320Y56040*X116040*X118420Y53660*Y44280*X121550Y41160*X130580*X131770*Y31160*X125080D2*X118420D1*X110290*X102810D2*X102270Y30610D1*X91640*D217*X243340Y93730D2*X246000D1*X230920Y100530D2*X233580Y103180D1*X243340*Y101610D2*X241380D1*X245730Y98460D2*X243340D1*X255470Y106330D2*X276370D1*X255470Y104760D2*X274200D1*X276550Y102410*X276370Y106330D2*X281550Y101160D1*X255470Y109480D2*X281350D1*X255470Y107910D2*X278550D1*X279670Y106780*X281350Y109480D2*X284050Y106160D1*X255470Y111060D2*X282900D1*X255470Y112630D2*X273030D1*X274670Y114280*X255470Y115780D2*X267430D1*X255470Y114210D2*X270230D1*X271550Y115530*X267430Y115780D2*X270300Y118660D1*X265920D2*X264630Y117360D1*X255470*Y118930D2*X262450D1*X264670Y121160*X287800Y136160D2*X280020Y128380D1*X255470*X259050Y126780D2*X257500Y125230D1*X255470*Y122080D2*X258100D1*X260920Y124910*X262170Y122410D2*X260280Y120510D1*X255470*X243320Y120530D2*X243340Y120510D1*X229670Y133600D2*Y130530D1*X231830Y128380*X243340*X240300Y126160D2*X240950Y126810D1*X243340*X249050Y126480D2*X247800Y125230D1*X243340*X240300Y123660D2*X243340D1*X240300Y121160D2*X240920Y120530D1*X243320*X248920Y122080D2*X243340D1*X248920Y122090D2*X248970Y122080D1*X249010Y122050*X249040Y122010*X249050Y121960*Y117410D2*X247430Y115780D1*X243340*Y111060D2*X237900D1*X243340Y112630D2*X245700D1*X246100Y113030*X249050*X245920Y109910*Y109280*Y106780D2*X245480Y106330D1*X243340*Y104760D2*X232650D1*X231550Y103660*X243340Y107910D2*X232400D1*X243340Y109480D2*X245720D1*X245920Y109280*Y106780*X249050Y108030D2*Y101780D1*X245730Y98460*X246000Y93730D2*X249050Y96780D1*X243340Y92160D2*X248800D1*X243340Y89010D2*X238780D1*X235920Y86160*Y85530*X237800Y84910D2*Y85530D1*X239700Y87440*X243340*Y85860D2*X240630D1*X239670Y84910*Y84280*X247220Y77990D2*X243340D1*X255470Y74840D2*X261480D1*X261550Y74910*X255470Y85860D2*X266850D1*X255470Y82710D2*X260620D1*X269050Y74280*X266850Y85860D2*X274050Y78660D1*X269670Y85530D2*X267770Y87440D1*X255470*X271200Y89010D2*X255470D1*X271550Y92410D2*X269730Y90590D1*X255470*Y92160D2*X258800D1*X252170Y93030D2*X252880Y93730D1*X255470*Y96880D2*X261450D1*X264670Y93660*X266550Y96780D2*X264870Y98460D1*X255470*Y100030D2*X267670D1*X270300Y97410*X271550Y99910D2*X269850Y101610D1*X255470*Y103180D2*X272020D1*X275920Y99280*D218*X71040Y40460D2*X70920Y40570D1*Y43030*X65300*X64050Y41780*Y30610*X69530*X91640D2*X97170D1*Y41780*X95920Y43030*X90130Y40460D2*Y42860D1*X90300Y43030*X95920*X122800Y74910D2*X102800D1*X140300Y93030D2*X141550Y91780D1*X132800Y90530D2*X135300Y93030D1*X140300*X139660Y126890D2*X137800D1*Y117470*X131660Y118720D2*Y117470D1*X121550Y118850D2*Y123030D1*X122800Y124280*X125920*X130300Y128660*X148030Y142820D2*X150300D1*X148000Y150530D2*X148030Y150500D1*X143450*X142170Y151780*X119670*X117170Y149910*X113140Y148940D2*Y156180D1*X112800Y144280D2*X119670D1*X123420Y148030*X140920*X143570Y145380*X148030*Y147940D2*X143510D1*X141550Y149910*X122170*X119050Y146780*X115300*X113140Y148940*X75920Y152410D2*X80300Y149910D1*X30610Y155810D2*X33130Y158330D1*X34710Y159910*X42800*X44050Y158660*Y152410*X40950Y152420D2*X44040D1*X44050Y152410*X50920D2*X51550D1*X75920*X67130Y143660D2*X71550D1*X72800Y144910*X84670Y133660D2*X99670D1*X100870Y133710*X158370*X161550Y129910*Y122410*X164670Y119280*X170300*X155300Y113030D2*Y118030D1*X159670Y122410*Y128660*X157110Y131840*X99610*X99050Y131780*X82800*X79050Y135530*Y136160*X76550Y138660*X64050*X61610Y141100*X58470*X58410Y141160D2*X54050D1*X51550Y143660*X41640*Y146220D2*X58470D1*X61610*X64050Y148660*X74050*X81550Y141160*Y136780*X84670Y133660*X85920Y137410D2*X87800Y135530D1*X172170*X174050Y133660*X174670Y125260D2*X167800Y131780D1*X283420Y110530D2*X282900Y111060D1*X242800Y48660D2*X240300Y46160D1*Y41160*X239730Y40590*X234130*X203420Y64910D2*X204670D1*X206550Y66780*Y69280*X202170Y73660*Y75530*X200920Y76780*X197170*X195300Y78660*X231550Y103660D2*X226550Y98660D1*X222800*X221550Y91780D2*Y97410D1*X222800Y98660*X214050Y106160D2*X212720Y107480D1*X210700*Y105520D2*Y90530D1*X210300*X214050Y106160D2*Y86780D1*X215920Y106780D2*X213250Y109450D1*X210700*X218420Y111420D2*X210700D1*X220920Y124920D2*X221270D1*Y125710D2*X220920D1*Y126490D2*X221270D1*Y127280D2*X220920D1*X223040D2*X228170D1*X228950Y126490D2*X223690D1*X223760Y125710D2*X229740D1*X235280Y124920D2*X223760D1*X282800Y126780D2*X259050D1*X292170Y131160D2*X287170D1*X282800Y126780*X287800Y126160D2*X285300D1*X284050Y124910*X260920*X292170Y121160D2*X264670D1*X287800Y116160D2*X285300D1*X282800Y118660*X270300*X274670Y114280D2*X285300D1*X286550Y113030*X290300*X292170Y111160*X283420Y110530D2*X287800D1*Y106160D2*X284050D1*X281550Y101160D2*X292170D1*X275920Y99280D2*X284670D1*X287800Y96160*X292170Y91160D2*X291550D1*X289670Y93030*X285920*X281550Y97410*X270300*X271200Y89010D2*X271550Y88660D1*X249050Y87410D2*X252170Y90530D1*Y93030*X260300Y93660D2*X258800Y92160D1*X264670Y93660D2*X268420D1*X270300Y95530*X273420*X282800Y86160*X286550*X292170Y81160D2*X284670D1*X280300Y85530*X269670*X249050Y72410D2*Y76160D1*X247220Y77990*X234050Y88030D2*Y76160D1*X235920Y85530D2*Y72410D1*X229050Y65530*X224670*X221550Y63660D2*X232170D1*X237800Y69280*Y84910*X239670Y84280D2*Y57410D1*X231550Y49280*X222800*X218420Y44910*Y38030*X216550Y36160*X196700Y50130D2*Y58180D1*X203420Y64910*Y68030D2*X201550Y69910D1*X199260*X194140Y72180D2*Y76070D1*X193420Y76780*X170920*X167170Y80530*Y82970*X170610Y97680D2*Y80840D1*X172800Y78660*X195300*X187800Y87410D2*Y102410D1*Y104280*X191150Y105520D2*X189030D1*X187800Y104280*X182830Y109100D2*Y104880D1*X185300Y102410*X187800*X197740Y95530D2*Y90530D1*Y85530*Y82470*X204050Y76160*Y74910*X205870Y73090*X211550*Y67970D2*X222230D1*X224670Y65530*X234050Y76160D2*X226550Y68660D1*X225300Y79280D2*X224050Y76780D1*Y95530*X225300Y96780*X227170*X230920Y100530*X227800Y103660D2*X225300Y100530D1*X220920*X215920Y105530*Y106780*X218420D2*Y111420D1*X221190*X223420Y113660*X226490*X232400Y107910D2*X231610Y108660D1*X236590Y112360D2*X240300D1*Y111580D2*X237380D1*X238160Y110790D2*X240300D1*X235300Y113660D2*X237900Y111060D1*X234110Y116290D2*X236300D1*X236750Y115500D2*X234390D1*Y114720D2*X237780D1*X235300Y113660D2*X231610D1*X240300Y113150D2*X235810D1*X231900Y113930D2*X240300D1*X231550Y114720D2*X231900D1*Y115500D2*X231550D1*Y116290D2*X231900D1*X236080Y117070D2*X228480D1*X228810Y117860D2*X236080D1*X236340Y118640D2*X228900D1*X228820Y119430D2*X236550D1*Y120210D2*X228500D1*X227790Y121000D2*X236550D1*Y121780D2*X223560D1*X223760Y122570D2*X236550D1*Y123350D2*X223760D1*X221270Y124140D2*X236070D1*X220920Y123350D2*X221270D1*Y122570D2*X220920D1*Y121780D2*X221270D1*X224060Y121000D2*X220920D1*X220610Y120210D2*X223350D1*X223030Y119430D2*X219820D1*X219040Y118640D2*X222730D1*X221850Y117860D2*X218250D1*X217470Y117070D2*X220980D1*X220100Y116290D2*X216680D1*X215950Y115500D2*X219220D1*X215920Y115530D2*X220920Y120530D1*Y123990*X221270*X223760*Y122330*X223670Y121970*X223480Y121650*X223220Y121390*X222900Y121200*X222550Y121110*X221270*Y123990*Y124570*X223760*Y126240*X223670Y126590*X223480Y126910*X223220Y127170*X222900Y127360*X222550Y127450*X221270*Y124570*X220920*Y127680*X227760*X229320Y126120*X230260Y125180*X235020*X236550Y123660*Y119110*X236530Y119090*X236080Y118000*Y116810*X236530Y115720*X236550Y115700*Y115530*X236720*X237370Y114890*X238460Y114430*X239640*X240300Y114710*Y110530*X238420*X235300Y113660*X231900*Y113950*X234390*Y115610*X234290Y115970*X234110Y116290*X233850Y116550*X233530Y116730*X233170Y116830*X231900*Y113950*X231550*Y116780*X231320*Y116830*X230050*X229870Y116780*X228250*X228440Y116970*X228900Y118060*Y119250*X228440Y120340*X227610Y121180*X226520Y121630*X225330*X224240Y121180*X223410Y120340*X222950Y119250*Y118840*X218760Y115090*X216370*X215920Y115530*X210700Y119300D2*X210920D1*Y123660*X209320Y125260*X174670*X184730Y128660D2*Y129280D1*X228420*X230920Y126780*X236550*X238420Y124910*Y118030*X239050Y117410*X240300Y121160D2*Y123660D1*Y126160*X249050Y131780D2*Y126480D1*X232800Y146160D2*Y142410D1*X235920Y139280*X247800*X252550Y134280*Y95910*X248800Y92160*D219*X309050Y189910D2*X300300Y181160D1*X280300*X51550Y152410D2*Y148770D1*X41640*Y138540D2*X49170D1*X50300Y137410*Y134280*D220*X203600Y176250D2*Y171160D1*Y158990*X194050*X214050D2*X209500D1*Y176250*Y191160*X229050*Y194530*D221*X80300Y149910D2*X91550Y138660D1*X180300*X181550*X187800Y144910*Y158990*X194050*D61*X60720Y157140D3*Y156420D3*X64940Y161360D3*X65660Y152200D3*X64940D3*X65660Y161360D3*X69880Y157140D3*Y156420D3*D62*X287800Y110530D3*X218420Y106780D3*X224050Y103660D3*X227800D3*X234050Y99910D3*X221550Y91780D3*Y86160D3*X228420Y86780D3*X261550Y74910D3*X269050Y74280D3*X274050Y78660D3*X260300Y93660D3*X271550Y88660D3*Y92410D3*X266550Y96780D3*X271550Y99910D3*X276550Y102410D3*X279670Y106780D3*X271550Y115530D3*X265920Y118660D3*X262170Y122410D3*D172*X243340Y128380D3*Y126810D3*Y125230D3*Y123660D3*Y122080D3*Y120510D3*Y118930D3*Y117360D3*Y115780D3*Y114210D3*Y112630D3*Y111060D3*Y109480D3*Y107910D3*Y106330D3*Y104760D3*Y103180D3*Y101610D3*Y100030D3*Y98460D3*Y96880D3*Y95310D3*Y93730D3*Y92160D3*Y90590D3*Y89010D3*Y87440D3*Y85860D3*Y84290D3*Y82710D3*Y81140D3*Y79560D3*Y77990D3*Y76410D3*Y74840D3*X255470D3*Y76410D3*Y77990D3*Y79560D3*Y81140D3*Y82710D3*Y84290D3*Y85860D3*Y87440D3*Y89010D3*Y90590D3*Y92160D3*Y93730D3*Y95310D3*Y96880D3*Y98460D3*Y100030D3*Y101610D3*Y103180D3*Y104760D3*Y106330D3*Y107910D3*Y109480D3*Y111060D3*Y112630D3*Y114210D3*Y115780D3*Y117360D3*Y118930D3*Y120510D3*Y122080D3*Y123660D3*Y125230D3*Y126810D3*Y128380D3*D173*X40290Y179280D3*X32810D3*Y169280D3*X40290D3*X102810Y31160D3*X110290D3*X135580Y83660D3*X128100D3*X119040D3*X111560D3*X102160Y95530D3*X94680D3*X94490Y104330D3*X101970D3*X109410Y127050D3*X116890D3*X139660Y126890D3*X147140D3*D174*X103680Y213660D3*X134420D3*Y197910D3*X122990Y185110D3*X115110D3*X103680Y197910D3*D175*X135210Y190030D3*Y186100D3*Y182160D3*Y178220D3*Y174290D3*Y170350D3*Y166410D3*Y162470D3*X102890D3*Y166410D3*Y170350D3*Y174290D3*Y178220D3*Y182160D3*Y186100D3*Y190030D3*D176*X105270Y156180D3*X109210D3*X113140D3*X117080D3*X121020D3*X124960D3*X128890D3*X132830D3*D177*X206550Y201060D3*D178*X215410Y176250D3*X197690D3*X203600D3*X209500D3*D179*X131770Y31160D3*X125080D3*X42800Y91190D3*Y97880D3*X43420Y114430D3*Y121130D3*X229050Y160310D3*Y167000D3*Y180750D3*Y174060D3*D180*X194050Y158990D3*X214050D3*Y138320D3*X194050D3*D181*X229050Y210280D3*Y194530D3*D182*X36490Y63280D3*X41610D3*X301890Y39680D3*X307010D3*X307180Y45160D3*X302060D3*X210360Y51160D3*X205240D3*X180870Y81780D3*X185980D3*X197740Y95530D3*X202860D3*Y90530D3*X197740D3*Y85530D3*X202860D3*X207120Y81160D3*X212230D3*X227740Y93660D3*X232860D3*X231610Y113660D3*Y108660D3*X226490D3*Y113660D3*X220980Y124280D3*X215870D3*X184730Y128660D3*X179620D3*X88990Y166410D3*X94110D3*X101490Y144910D3*X106610D3*X133370Y144280D3*X138480D3*X143990Y166410D3*X149110D3*X168370D3*X173480D3*D183*X229670Y138720D3*Y133600D3*X211550Y73090D3*Y67970D3*X167800Y66100D3*Y71220D3*X167170Y82970D3*Y88090D3*X137800Y99850D3*Y104970D3*Y112350D3*Y117470D3*X95300Y124340D3*Y119220D3*D184*X75470Y41150D3*X78030D3*X80590D3*X83140D3*X85700D3*X278400Y30190D3*X280960D3*X283520D3*X286080D3*Y47120D3*X283520D3*X280960D3*X278400D3*D185*X264760Y202420D3*Y209900D3*X253340D3*Y206160D3*Y202420D3*X245550Y40590D3*Y33100D3*X234130D3*Y36850D3*Y40590D3*X143280Y67180D3*X154700D3*Y63440D3*Y59700D3*X143280D3*X69740Y60800D3*Y68280D3*X81160D3*Y64540D3*Y60800D3*D186*X254870Y33850D3*Y41330D3*X223620Y40550D3*Y33070D3*X56550Y32420D3*Y39900D3*X59070Y66020D3*Y58540D3*X92570Y61000D3*Y68480D3*X241550Y202420D3*Y209900D3*X276550D3*Y202420D3*D187*X292730Y39030D3*Y32340D3*D188*X266490Y30390D3*Y46920D3*D189*X109320Y41160D3*Y46120D3*Y51080D3*Y56040D3*Y61000D3*Y65960D3*Y70920D3*X130580D3*Y65960D3*Y61000D3*Y56040D3*Y51080D3*Y46120D3*Y41160D3*D190*X146870Y91550D3*X154350D3*Y80130D3*X150610D3*X146870D3*D191*X131660Y118720D3*X129100D3*X126540D3*X123980D3*X121420D3*X118860D3*X116300D3*X113740D3*X111190D3*X108630D3*Y96090D3*X111190D3*X113740D3*X116300D3*X118860D3*X121420D3*X123980D3*X126540D3*X129100D3*X131660D3*D192*X224050Y55530D3*Y76790D3*D193*X148030Y142820D3*Y145380D3*Y147940D3*Y150500D3*Y153060D3*Y155620D3*Y158180D3*Y160740D3*X170070D3*Y158180D3*Y155620D3*Y153060D3*Y150500D3*Y147940D3*Y145380D3*Y142820D3*D194*X177710Y95710D3*X180270D3*X182830D3*X185390D3*Y109100D3*X182830D3*X180270D3*X177710D3*D195*X181340Y50130D3*X183900D3*X186460D3*X189020D3*X191580D3*X194140D3*X196700D3*X199260D3*Y72180D3*X196700D3*X194140D3*X191580D3*X189020D3*X186460D3*X183900D3*X181340D3*D196*X209050Y211160D3*X299050Y201160D3*X209050Y31160D3*D197*X199050Y31160D3*X189050D3*X179050D3*X169050D3*X159050D3*X149050D3*Y41160D3*X159050D3*X169050D3*X179050D3*X189050D3*X199050D3*X209050D3*X289050Y201160D3*X299050Y211160D3*X289050D3*X199050D3*D198*X163200Y97680D3*Y100830D3*Y103980D3*Y107130D3*X169900D3*Y103980D3*Y100830D3*Y97680D3*D199*X49050Y53660D3*X65300Y156780D3*D200*X56190Y91160D3*Y101160D3*Y111160D3*Y121160D3*X79410Y116160D3*Y106160D3*Y96160D3*Y86160D3*D201*X32800Y116530D3*Y110030D3*Y97780D3*Y91280D3*D202*X40490Y70790D3*X32610Y74530D3*X40490Y78270D3*D204*X200920Y112410D3*D205*X31550Y56160D3*X329050Y186160D3*X249050Y48660D3*X174050Y87410D3*X226860Y124280D3*D206*X67130Y141100D3*Y143660D3*Y146220D3*X58470D3*Y143660D3*Y141100D3*D209*X40950Y134900D3*Y152420D3*D210*X41640Y148770D3*Y146220D3*Y143660D3*Y141100D3*Y138540D3*D211*X30610Y139130D3*Y148180D3*D213*X71040Y40460D3*X90130D3*D214*X85110Y30610D3*X76060D3*D215*X40300Y163030D3*X40290Y163040D3*D216*X280300Y93660D3*X204050Y140530D3*X215300Y119280D3*X225920Y118660D3*X239050Y117410D3*X233420Y121780D3*X292170Y157410D3*X287800Y160530D3*X280300Y181160D3*X229050Y186160D3*X270920Y214280D3*X247170D3*X220920D3*X217800Y201160D3*X195300D3*X202800Y192410D3*X195300D3*Y183660D3*X202800D3*X200300Y168660D3*X222800Y166160D3*X230920Y153660D3*X232800Y146160D3*X224670Y140530D3*X217170Y147410D3*X210920D3*X204050D3*X197170D3*X47800Y62410D3*X51550Y68660D3*X69670Y53660D3*X118420Y31160D3*X103420Y41160D3*X96550Y47410D3*X103420Y56160D3*X137170Y89910D3*X216550Y36160D3*X229050Y46160D3*X242800Y48660D3*X207170Y76780D3*X210300Y90530D3*X191550Y94910D3*X187800Y87410D3*X179670D3*X174670Y82410D3*X161550Y83030D3*Y91160D3*X155920Y107410D3*X143420Y101780D3*X40300Y163030D3*X83420Y166410D3*X109050Y149910D3*X112800Y144280D3*X117170Y149910D3*X127800Y144280D3*X154050Y128030D3*X132800Y124280D3*X130300Y128660D3*X123420Y128030D3*X100300Y124280D3*X102800Y114910D3*X65300Y101160D3*X42800Y107410D3*X50300Y134280D3*X55300Y136160D3*X72800Y144910D3*X75920Y141780D3*X85920Y137410D3*X95300Y146160D3*X100300Y149910D3*X94050Y157410D3*X112800Y164910D3*X119050D3*X127170D3*X141550Y161780D3*X140920Y156780D3*X161550Y147410D3*X154670Y153030D3*X159050Y158030D3*X154670Y164540D3*X162800D3*X175920Y162410D3*X180300Y159280D3*X182800Y154910D3*X179670Y150530D3*X181550Y145530D3*X174050Y133660D3*X167800Y131780D3*X186550Y114910D3*X182800Y121160D3*X170300Y119280D3*X162800Y116160D3*X155300Y113030D3*X145300Y111160D3*X130300Y112410D3*X127800Y107410D3*X119050Y103660D3*X104050Y84910D3*X87800Y91160D3*X89050Y82410D3*X85300Y74910D3*X100300Y68030D3*X102800Y74910D3*X122800D3*X152170Y53030D3*X162170Y54910D3*X165920Y59910D3*X162170Y66780D3*X175300Y70530D3*X190300Y57410D3*X196550Y64910D3*X203420Y68030D3*X205300Y61160D3*X212800Y61780D3*X226550Y68660D3*X221550Y63660D3*X234050Y57410D3*X249050Y72410D3*Y87410D3*Y96780D3*Y108030D3*Y113030D3*Y117410D3*Y121960D3*Y131780D3*X266550Y133660D3*X281550Y136160D3*X287800Y144280D3*X292170Y140530D3*X287800Y136160D3*X292170Y131160D3*X287800Y126160D3*X292170Y121160D3*X287800Y116160D3*X292170Y111160D3*X287800Y106160D3*X292170Y101160D3*X287800Y96160D3*X292170Y91160D3*X286550Y86160D3*X292170Y81160D3*X287800Y77410D3*X274050Y70530D3*X307170Y49910D3*X299670Y31160D3*X285300Y36160D3*X0Y0D2*M02*